M48
; DRILL file {KiCad 9.0.4} date 2025-11-23T20:37:25+0100
; FORMAT={-:-/ absolute / metric / decimal}
; #@! TF.CreationDate,2025-11-23T20:37:25+01:00
; #@! TF.GenerationSoftware,Kicad,Pcbnew,9.0.4
; #@! TF.FileFunction,Plated,1,2,PTH
FMAT,2
METRIC
; #@! TA.AperFunction,Plated,PTH,ViaDrill
T1C0.300
; #@! TA.AperFunction,Plated,PTH,ComponentDrill
T2C0.600
%
G90
G05
T1
X95.8Y-82.0
X98.398Y-77.5
X98.5Y-83.523
X98.5Y-89.939
X98.799Y-79.5
X99.1Y-85.0
X99.5Y-71.0
X99.9Y-74.595
X99.9Y-77.25
X100.0Y-81.35
X100.5Y-79.25
X101.5Y-50.5
X102.25Y-85.655
X102.425Y-73.2
X102.5Y-50.561
X103.0Y-88.239
X103.5Y-72.6
X103.5Y-82.737
X103.992Y-69.921
X104.0Y-84.0
X104.0Y-85.491
X104.5Y-72.0
X104.795Y-85.399
X105.5Y-84.0
X106.5Y-88.25
X107.244Y-84.957
X108.5Y-80.0
X110.0Y-75.75
X110.0Y-77.25
X111.0Y-74.5
X112.159Y-77.5
X113.5Y-74.5
X114.0Y-77.5
X114.5Y-50.561
X114.5Y-69.455
X114.5Y-87.75
X115.5Y-50.561
X115.5Y-70.131
X116.242Y-50.262
X116.5Y-72.0
X117.0Y-77.5
X117.5Y-73.0
X124.258Y-50.262
X125.0Y-50.561
X126.0Y-50.561
X126.0Y-72.0
X127.0Y-70.0
X127.512Y-69.385
X137.0Y-50.0
X137.7Y-50.561
X138.0Y-69.439
X138.5Y-50.561
X138.907Y-70.055
X140.0Y-72.0
X140.5Y-87.75
X140.5Y-92.75
X143.0Y-90.25
T2
G00X100.43Y-87.2
M15
G01X100.43Y-88.3
M16
G05
G00X100.43Y-91.63
M15
G01X100.43Y-92.23
M16
G05
G00X109.07Y-87.2
M15
G01X109.07Y-88.3
M16
G05
G00X109.07Y-91.63
M15
G01X109.07Y-92.23
M16
G05
M30
