%TF.GenerationSoftware,KiCad,Pcbnew,9.0.4*%
%TF.CreationDate,2025-11-23T20:37:17+01:00*%
%TF.ProjectId,Bina_Badge,42696e61-5f42-4616-9467-652e6b696361,rev?*%
%TF.SameCoordinates,Original*%
%TF.FileFunction,Copper,L1,Top*%
%TF.FilePolarity,Positive*%
%FSLAX46Y46*%
G04 Gerber Fmt 4.6, Leading zero omitted, Abs format (unit mm)*
G04 Created by KiCad (PCBNEW 9.0.4) date 2025-11-23 20:37:17*
%MOMM*%
%LPD*%
G01*
G04 APERTURE LIST*
G04 Aperture macros list*
%AMRoundRect*
0 Rectangle with rounded corners*
0 $1 Rounding radius*
0 $2 $3 $4 $5 $6 $7 $8 $9 X,Y pos of 4 corners*
0 Add a 4 corners polygon primitive as box body*
4,1,4,$2,$3,$4,$5,$6,$7,$8,$9,$2,$3,0*
0 Add four circle primitives for the rounded corners*
1,1,$1+$1,$2,$3*
1,1,$1+$1,$4,$5*
1,1,$1+$1,$6,$7*
1,1,$1+$1,$8,$9*
0 Add four rect primitives between the rounded corners*
20,1,$1+$1,$2,$3,$4,$5,0*
20,1,$1+$1,$4,$5,$6,$7,0*
20,1,$1+$1,$6,$7,$8,$9,0*
20,1,$1+$1,$8,$9,$2,$3,0*%
%AMFreePoly0*
4,1,27,0.535355,0.635355,0.550000,0.600000,0.550000,-0.600000,0.535355,-0.635355,0.500000,-0.650000,-0.050000,-0.650000,-0.085355,-0.635355,-0.100000,-0.600000,-0.100000,-0.486414,-0.191342,-0.461940,-0.304381,-0.396677,-0.396677,-0.304381,-0.428074,-0.250000,-0.500000,-0.250000,-0.535355,-0.235355,-0.550000,-0.200000,-0.550000,0.350000,-0.535355,0.385355,-0.500000,0.400000,-0.298625,0.400000,
-0.191342,0.461940,-0.100000,0.486414,-0.100000,0.600000,-0.085355,0.635355,-0.050000,0.650000,0.500000,0.650000,0.535355,0.635355,0.535355,0.635355,$1*%
%AMFreePoly1*
4,1,27,0.085355,0.635355,0.100000,0.600000,0.100000,0.486414,0.191342,0.461940,0.298625,0.400000,0.500000,0.400000,0.535355,0.385355,0.550000,0.350000,0.550000,-0.200000,0.535355,-0.235355,0.500000,-0.250000,0.428074,-0.250000,0.396677,-0.304381,0.304381,-0.396677,0.191342,-0.461940,0.100000,-0.486414,0.100000,-0.600000,0.085355,-0.635355,0.050000,-0.650000,-0.500000,-0.650000,
-0.535355,-0.635355,-0.550000,-0.600000,-0.550000,0.600000,-0.535355,0.635355,-0.500000,0.650000,0.050000,0.650000,0.085355,0.635355,0.085355,0.635355,$1*%
G04 Aperture macros list end*
%TA.AperFunction,SMDPad,CuDef*%
%ADD10RoundRect,0.250000X-1.100000X0.500000X-1.100000X-0.500000X1.100000X-0.500000X1.100000X0.500000X0*%
%TD*%
%TA.AperFunction,SMDPad,CuDef*%
%ADD11FreePoly0,180.000000*%
%TD*%
%TA.AperFunction,SMDPad,CuDef*%
%ADD12R,0.700000X1.200000*%
%TD*%
%TA.AperFunction,SMDPad,CuDef*%
%ADD13R,0.450000X1.200000*%
%TD*%
%TA.AperFunction,SMDPad,CuDef*%
%ADD14FreePoly1,180.000000*%
%TD*%
%TA.AperFunction,SMDPad,CuDef*%
%ADD15FreePoly0,0.000000*%
%TD*%
%TA.AperFunction,SMDPad,CuDef*%
%ADD16FreePoly1,0.000000*%
%TD*%
%TA.AperFunction,SMDPad,CuDef*%
%ADD17RoundRect,0.250000X-0.300000X-0.300000X0.300000X-0.300000X0.300000X0.300000X-0.300000X0.300000X0*%
%TD*%
%TA.AperFunction,SMDPad,CuDef*%
%ADD18R,1.700000X1.700000*%
%TD*%
%TA.AperFunction,SMDPad,CuDef*%
%ADD19O,1.700000X1.700000*%
%TD*%
%TA.AperFunction,SMDPad,CuDef*%
%ADD20R,5.000000X5.000000*%
%TD*%
%TA.AperFunction,SMDPad,CuDef*%
%ADD21R,4.000000X4.000000*%
%TD*%
%TA.AperFunction,SMDPad,CuDef*%
%ADD22R,1.000000X1.550000*%
%TD*%
%TA.AperFunction,SMDPad,CuDef*%
%ADD23RoundRect,0.250000X0.450000X-0.262500X0.450000X0.262500X-0.450000X0.262500X-0.450000X-0.262500X0*%
%TD*%
%TA.AperFunction,SMDPad,CuDef*%
%ADD24R,1.700000X0.650000*%
%TD*%
%TA.AperFunction,SMDPad,CuDef*%
%ADD25RoundRect,0.250000X0.300000X0.300000X-0.300000X0.300000X-0.300000X-0.300000X0.300000X-0.300000X0*%
%TD*%
%TA.AperFunction,SMDPad,CuDef*%
%ADD26R,0.600000X1.450000*%
%TD*%
%TA.AperFunction,SMDPad,CuDef*%
%ADD27R,0.300000X1.450000*%
%TD*%
%TA.AperFunction,ComponentPad*%
%ADD28O,1.000000X2.100000*%
%TD*%
%TA.AperFunction,ComponentPad*%
%ADD29O,1.000000X1.600000*%
%TD*%
%TA.AperFunction,SMDPad,CuDef*%
%ADD30RoundRect,0.250000X-0.250000X-0.475000X0.250000X-0.475000X0.250000X0.475000X-0.250000X0.475000X0*%
%TD*%
%TA.AperFunction,ViaPad*%
%ADD31C,0.600000*%
%TD*%
%TA.AperFunction,Conductor*%
%ADD32C,0.200000*%
%TD*%
G04 APERTURE END LIST*
D10*
%TO.P,D10,2,A*%
%TO.N,Net-(BT1-+)*%
X142500000Y-93400000D03*
%TO.P,D10,1,K*%
%TO.N,VDD*%
X142500000Y-88600000D03*
%TD*%
D11*
%TO.P,D2,1,DIN*%
%TO.N,Net-(D1-DOUT)*%
X116550000Y-70987000D03*
D12*
%TO.P,D2,2,VDD*%
%TO.N,VDD*%
X115200000Y-71013000D03*
D13*
%TO.P,D2,3,DOUT*%
%TO.N,Net-(D2-DOUT)*%
X114175000Y-71013000D03*
D14*
%TO.P,D2,4,VSS*%
%TO.N,GND*%
X112950000Y-71013000D03*
%TD*%
D15*
%TO.P,D7,1,DIN*%
%TO.N,Net-(D6-DOUT)*%
X112950000Y-51573789D03*
D12*
%TO.P,D7,2,VDD*%
%TO.N,VDD*%
X114300000Y-51547789D03*
D13*
%TO.P,D7,3,DOUT*%
%TO.N,Net-(D7-DOUT)*%
X115325000Y-51547789D03*
D16*
%TO.P,D7,4,VSS*%
%TO.N,GND*%
X116550000Y-51547789D03*
%TD*%
D15*
%TO.P,D8,1,DIN*%
%TO.N,Net-(D7-DOUT)*%
X101200000Y-51573789D03*
D12*
%TO.P,D8,2,VDD*%
%TO.N,VDD*%
X102550000Y-51547789D03*
D13*
%TO.P,D8,3,DOUT*%
%TO.N,unconnected-(D8-DOUT-Pad3)*%
X103575000Y-51547789D03*
D16*
%TO.P,D8,4,VSS*%
%TO.N,GND*%
X104800000Y-51547789D03*
%TD*%
D17*
%TO.P,D12,1,K*%
%TO.N,Net-(D12-K)*%
X106350000Y-84000000D03*
%TO.P,D12,2,A*%
%TO.N,GND*%
X109150000Y-84000000D03*
%TD*%
D15*
%TO.P,D6,1,DIN*%
%TO.N,Net-(D5-DOUT)*%
X124700000Y-51573789D03*
D12*
%TO.P,D6,2,VDD*%
%TO.N,VDD*%
X126050000Y-51547789D03*
D13*
%TO.P,D6,3,DOUT*%
%TO.N,Net-(D6-DOUT)*%
X127075000Y-51547789D03*
D16*
%TO.P,D6,4,VSS*%
%TO.N,GND*%
X128300000Y-51547789D03*
%TD*%
D18*
%TO.P,J1,1,Pin_1*%
%TO.N,GND*%
X97300000Y-92350000D03*
D19*
%TO.P,J1,2,Pin_2*%
%TO.N,VDD*%
X97300000Y-89810000D03*
%TO.P,J1,3,Pin_3*%
%TO.N,/RESET*%
X97300000Y-87270000D03*
%TO.P,J1,4,Pin_4*%
%TO.N,/SCK*%
X97300000Y-84730000D03*
%TO.P,J1,5,Pin_5*%
%TO.N,/MISO*%
X97300000Y-82190000D03*
%TO.P,J1,6,Pin_6*%
%TO.N,/MOSI*%
X97300000Y-79650000D03*
%TD*%
D11*
%TO.P,D1,1,DIN*%
%TO.N,/MOSI*%
X104800000Y-70987000D03*
D12*
%TO.P,D1,2,VDD*%
%TO.N,VDD*%
X103450000Y-71013000D03*
D13*
%TO.P,D1,3,DOUT*%
%TO.N,Net-(D1-DOUT)*%
X102425000Y-71013000D03*
D14*
%TO.P,D1,4,VSS*%
%TO.N,GND*%
X101200000Y-71013000D03*
%TD*%
D11*
%TO.P,D4,1,DIN*%
%TO.N,Net-(D3-DOUT)*%
X140050000Y-70987000D03*
D12*
%TO.P,D4,2,VDD*%
%TO.N,VDD*%
X138700000Y-71013000D03*
D13*
%TO.P,D4,3,DOUT*%
%TO.N,Net-(D4-DOUT)*%
X137675000Y-71013000D03*
D14*
%TO.P,D4,4,VSS*%
%TO.N,GND*%
X136450000Y-71013000D03*
%TD*%
D20*
%TO.P,BT1,1,+*%
%TO.N,Net-(BT1-+)*%
X140150000Y-84350000D03*
X114250000Y-84350000D03*
D21*
%TO.P,BT1,2,-*%
%TO.N,GND*%
X127200000Y-84350000D03*
%TD*%
D22*
%TO.P,SW1,1,1*%
%TO.N,GND*%
X96650000Y-76125000D03*
X96650000Y-70875000D03*
%TO.P,SW1,2,2*%
%TO.N,/MISO*%
X98350000Y-76125000D03*
X98350000Y-70875000D03*
%TD*%
D23*
%TO.P,R2,1*%
%TO.N,Net-(D9-K)*%
X112250000Y-76075000D03*
%TO.P,R2,2*%
%TO.N,/D+*%
X112250000Y-74250000D03*
%TD*%
D24*
%TO.P,U1,1,~{RESET}/PB5*%
%TO.N,/RESET*%
X108450000Y-78405000D03*
%TO.P,U1,2,XTAL1/PB3*%
%TO.N,/D-*%
X108450000Y-77135000D03*
%TO.P,U1,3,XTAL2/PB4*%
%TO.N,/D+*%
X108450000Y-75865000D03*
%TO.P,U1,4,GND*%
%TO.N,GND*%
X108450000Y-74595000D03*
%TO.P,U1,5,AREF/PB0*%
%TO.N,/MOSI*%
X101150000Y-74595000D03*
%TO.P,U1,6,PB1*%
%TO.N,/MISO*%
X101150000Y-75865000D03*
%TO.P,U1,7,PB2*%
%TO.N,/SCK*%
X101150000Y-77135000D03*
%TO.P,U1,8,VCC*%
%TO.N,VDD*%
X101150000Y-78405000D03*
%TD*%
D25*
%TO.P,D9,1,K*%
%TO.N,Net-(D9-K)*%
X103150000Y-84000000D03*
%TO.P,D9,2,A*%
%TO.N,GND*%
X100350000Y-84000000D03*
%TD*%
D26*
%TO.P,P1,A1,GND*%
%TO.N,GND*%
X101500000Y-86835000D03*
%TO.P,P1,A4,VBUS*%
%TO.N,VDD*%
X102300000Y-86835000D03*
D27*
%TO.P,P1,A5,CC*%
%TO.N,unconnected-(P1-CC-PadA5)*%
X103500000Y-86835000D03*
%TO.P,P1,A6,D+*%
%TO.N,Net-(D9-K)*%
X104500000Y-86835000D03*
%TO.P,P1,A7,D-*%
%TO.N,Net-(D12-K)*%
X105000000Y-86835000D03*
%TO.P,P1,A8*%
%TO.N,N/C*%
X106000000Y-86835000D03*
D26*
%TO.P,P1,A9,VBUS*%
%TO.N,VDD*%
X107200000Y-86835000D03*
%TO.P,P1,A12,GND*%
%TO.N,GND*%
X108000000Y-86835000D03*
%TO.P,P1,B1,GND*%
X108000000Y-86835000D03*
%TO.P,P1,B4,VBUS*%
%TO.N,VDD*%
X107200000Y-86835000D03*
D27*
%TO.P,P1,B5,VCONN*%
%TO.N,unconnected-(P1-VCONN-PadB5)*%
X106500000Y-86835000D03*
%TO.P,P1,B6*%
%TO.N,N/C*%
X105500000Y-86835000D03*
%TO.P,P1,B7*%
X104000000Y-86835000D03*
%TO.P,P1,B8*%
X103000000Y-86835000D03*
D26*
%TO.P,P1,B9,VBUS*%
%TO.N,VDD*%
X102300000Y-86835000D03*
%TO.P,P1,B12,GND*%
%TO.N,GND*%
X101500000Y-86835000D03*
D28*
%TO.P,P1,S1,SHIELD*%
X100430000Y-87750000D03*
D29*
X100430000Y-91930000D03*
D28*
X109070000Y-87750000D03*
D29*
X109070000Y-91930000D03*
%TD*%
D23*
%TO.P,R3,1*%
%TO.N,Net-(D12-K)*%
X117250000Y-76075000D03*
%TO.P,R3,2*%
%TO.N,VDD*%
X117250000Y-74250000D03*
%TD*%
%TO.P,R1,1*%
%TO.N,Net-(D12-K)*%
X114750000Y-76075000D03*
%TO.P,R1,2*%
%TO.N,/D-*%
X114750000Y-74250000D03*
%TD*%
D11*
%TO.P,D3,1,DIN*%
%TO.N,Net-(D2-DOUT)*%
X128300000Y-70987000D03*
D12*
%TO.P,D3,2,VDD*%
%TO.N,VDD*%
X126950000Y-71013000D03*
D13*
%TO.P,D3,3,DOUT*%
%TO.N,Net-(D3-DOUT)*%
X125925000Y-71013000D03*
D14*
%TO.P,D3,4,VSS*%
%TO.N,GND*%
X124700000Y-71013000D03*
%TD*%
D30*
%TO.P,C1,1*%
%TO.N,VDD*%
X100850000Y-81087500D03*
%TO.P,C1,2*%
%TO.N,GND*%
X102750000Y-81087500D03*
%TD*%
D15*
%TO.P,D5,1,DIN*%
%TO.N,Net-(D4-DOUT)*%
X136450000Y-51573789D03*
D12*
%TO.P,D5,2,VDD*%
%TO.N,VDD*%
X137800000Y-51547789D03*
D13*
%TO.P,D5,3,DOUT*%
%TO.N,Net-(D5-DOUT)*%
X138825000Y-51547789D03*
D16*
%TO.P,D5,4,VSS*%
%TO.N,GND*%
X140050000Y-51547789D03*
%TD*%
D31*
%TO.N,Net-(BT1-+)*%
X114500000Y-87750000D03*
X140500000Y-92750000D03*
X140500000Y-87750000D03*
%TO.N,VDD*%
X102250000Y-85655337D03*
X100500000Y-79250000D03*
X103000000Y-88239029D03*
X117500000Y-73000000D03*
X137699997Y-50560789D03*
X114500000Y-50560789D03*
X126000000Y-50560789D03*
X103991707Y-69921056D03*
X115500000Y-70130686D03*
X98500000Y-89939211D03*
X106500000Y-88250000D03*
X143000000Y-90250000D03*
X100000000Y-81350000D03*
X103500000Y-72600000D03*
X102500000Y-50560789D03*
X138907106Y-70054557D03*
X127000000Y-70000000D03*
%TO.N,/D-*%
X113500000Y-74500000D03*
X110000000Y-77250000D03*
%TO.N,Net-(D9-K)*%
X104000000Y-85491303D03*
X103500000Y-82737500D03*
X104000000Y-84000000D03*
X112158550Y-77500000D03*
%TO.N,/D+*%
X110000000Y-75750000D03*
X111000000Y-74500000D03*
%TO.N,/MISO*%
X98398000Y-77500000D03*
X99500000Y-71000000D03*
X95800000Y-82000000D03*
%TO.N,/MOSI*%
X104500000Y-72000000D03*
X99900000Y-74595000D03*
X98799000Y-79500000D03*
%TO.N,/RESET*%
X99100000Y-85000000D03*
X108500000Y-80000000D03*
%TO.N,/SCK*%
X99900000Y-77250000D03*
X98500000Y-83523027D03*
%TO.N,Net-(D1-DOUT)*%
X116500000Y-72000000D03*
X102425000Y-73200000D03*
%TO.N,Net-(D2-DOUT)*%
X114500000Y-69454557D03*
X127511646Y-69385002D03*
%TO.N,Net-(D3-DOUT)*%
X140000000Y-72000000D03*
X126000000Y-72000000D03*
%TO.N,Net-(D4-DOUT)*%
X137000000Y-50000000D03*
X138000000Y-69439211D03*
%TO.N,Net-(D5-DOUT)*%
X138500000Y-50560789D03*
X125000000Y-50560789D03*
%TO.N,Net-(D6-DOUT)*%
X124257976Y-50261789D03*
X116242024Y-50261789D03*
%TO.N,Net-(D7-DOUT)*%
X115500000Y-50560789D03*
X101500000Y-50500000D03*
%TO.N,Net-(D12-K)*%
X117000000Y-77500000D03*
X104794686Y-85399221D03*
X107244248Y-84957145D03*
X105500000Y-84000000D03*
X114000000Y-77500000D03*
%TD*%
D32*
%TO.N,VDD*%
X142500000Y-88600000D02*
X143000000Y-89100000D01*
X143000000Y-89100000D02*
X143000000Y-90250000D01*
%TO.N,Net-(BT1-+)*%
X140500000Y-87750000D02*
X140500000Y-84700000D01*
X114250000Y-84350000D02*
X114250000Y-87500000D01*
X114250000Y-87500000D02*
X114500000Y-87750000D01*
X140500000Y-85950000D02*
X140150000Y-85600000D01*
X140550000Y-92800000D02*
X140500000Y-92750000D01*
X141750000Y-92800000D02*
X140550000Y-92800000D01*
%TO.N,GND*%
X108000000Y-86835000D02*
X109070000Y-86835000D01*
X109070000Y-86835000D02*
X109070000Y-87750000D01*
X101500000Y-86835000D02*
X101500000Y-86750000D01*
%TO.N,VDD*%
X98500000Y-89939211D02*
X97429211Y-89939211D01*
X102500000Y-51497789D02*
X102550000Y-51547789D01*
X102300000Y-87539029D02*
X102300000Y-86835000D01*
X137800000Y-50660792D02*
X137800000Y-51547789D01*
X137699997Y-50560789D02*
X137800000Y-50660792D01*
X100500000Y-79250000D02*
X100500000Y-79055000D01*
X100000000Y-81350000D02*
X100587500Y-81350000D01*
X103000000Y-88239029D02*
X102300000Y-87539029D01*
X102300000Y-85930098D02*
X102300000Y-86835000D01*
X138700000Y-71013000D02*
X138700000Y-70261663D01*
X102250000Y-85655337D02*
X102250000Y-85880098D01*
X102500000Y-50560789D02*
X102500000Y-51497789D01*
X106500000Y-88250000D02*
X107200000Y-87550000D01*
X103450000Y-70462763D02*
X103450000Y-71013000D01*
X126000000Y-50560789D02*
X126000000Y-51497789D01*
X138700000Y-70261663D02*
X138907106Y-70054557D01*
X100587500Y-81350000D02*
X100850000Y-81087500D01*
X114500000Y-50560789D02*
X114500000Y-51347789D01*
X102250000Y-85880098D02*
X102300000Y-85930098D01*
X103450000Y-72550000D02*
X103500000Y-72600000D01*
X117500000Y-73000000D02*
X117500000Y-74000000D01*
X114500000Y-51347789D02*
X114300000Y-51547789D01*
X126000000Y-51497789D02*
X126050000Y-51547789D01*
X103450000Y-71013000D02*
X103450000Y-72550000D01*
X127000000Y-70000000D02*
X127000000Y-70500000D01*
X100500000Y-79055000D02*
X101150000Y-78405000D01*
X107200000Y-87550000D02*
X107200000Y-86835000D01*
X126950000Y-70550000D02*
X126950000Y-71013000D01*
X117500000Y-74000000D02*
X117250000Y-74250000D01*
X103991707Y-69921056D02*
X103450000Y-70462763D01*
X127000000Y-70500000D02*
X126950000Y-70550000D01*
X97429211Y-89939211D02*
X97300000Y-89810000D01*
%TO.N,/D-*%
X109885000Y-77135000D02*
X108450000Y-77135000D01*
X114500000Y-74500000D02*
X114750000Y-74250000D01*
X113500000Y-74500000D02*
X114500000Y-74500000D01*
X110000000Y-77250000D02*
X109885000Y-77135000D01*
%TO.N,Net-(D9-K)*%
X112158550Y-76166450D02*
X112250000Y-76075000D01*
X112158550Y-77500000D02*
X112158550Y-76166450D01*
X104500000Y-85991303D02*
X104500000Y-86835000D01*
X104000000Y-84000000D02*
X103150000Y-84000000D01*
X103150000Y-83087500D02*
X103150000Y-84000000D01*
X103500000Y-82737500D02*
X103150000Y-83087500D01*
X104000000Y-85491303D02*
X104500000Y-85991303D01*
%TO.N,/D+*%
X111500000Y-74250000D02*
X112250000Y-74250000D01*
X108450000Y-75865000D02*
X109885000Y-75865000D01*
X109885000Y-75865000D02*
X110000000Y-75750000D01*
X111250000Y-74500000D02*
X111500000Y-74250000D01*
X111000000Y-74500000D02*
X111250000Y-74500000D01*
%TO.N,/MISO*%
X98475000Y-71000000D02*
X98350000Y-70875000D01*
X97300000Y-82190000D02*
X95990000Y-82190000D01*
X100890000Y-76125000D02*
X101150000Y-75865000D01*
X98398000Y-77500000D02*
X98398000Y-76173000D01*
X95990000Y-82190000D02*
X95800000Y-82000000D01*
X99500000Y-71000000D02*
X98475000Y-71000000D01*
X98350000Y-76125000D02*
X100890000Y-76125000D01*
X98398000Y-76173000D02*
X98350000Y-76125000D01*
%TO.N,/MOSI*%
X98799000Y-79500000D02*
X98749000Y-79450000D01*
X104500000Y-71287000D02*
X104800000Y-70987000D01*
X98749000Y-79450000D02*
X97500000Y-79450000D01*
X97500000Y-79450000D02*
X97300000Y-79650000D01*
X104500000Y-72000000D02*
X104500000Y-71287000D01*
X99900000Y-74595000D02*
X101150000Y-74595000D01*
%TO.N,/RESET*%
X99070000Y-85030000D02*
X99070000Y-85500000D01*
X99100000Y-85000000D02*
X99070000Y-85030000D01*
X108450000Y-78405000D02*
X108450000Y-79950000D01*
X99070000Y-85500000D02*
X97300000Y-87270000D01*
X108500000Y-78455000D02*
X108450000Y-78405000D01*
X108450000Y-79950000D02*
X108500000Y-80000000D01*
%TO.N,/SCK*%
X97300000Y-84730000D02*
X97300000Y-84723027D01*
X99900000Y-77250000D02*
X101035000Y-77250000D01*
X97300000Y-84723027D02*
X98500000Y-83523027D01*
X97570000Y-84939211D02*
X97300000Y-85209211D01*
X101035000Y-77250000D02*
X101150000Y-77135000D01*
%TO.N,Net-(D1-DOUT)*%
X116500000Y-72000000D02*
X116500000Y-71037000D01*
X116500000Y-71037000D02*
X116550000Y-70987000D01*
X102425000Y-73200000D02*
X102425000Y-71013000D01*
%TO.N,Net-(D2-DOUT)*%
X114175000Y-71013000D02*
X114175000Y-69779557D01*
X114175000Y-69779557D02*
X114500000Y-69454557D01*
X127511646Y-69385002D02*
X128000000Y-69873356D01*
X128000000Y-69873356D02*
X128000000Y-70687000D01*
X128000000Y-70687000D02*
X128300000Y-70987000D01*
%TO.N,Net-(D3-DOUT)*%
X140050000Y-71950000D02*
X140000000Y-72000000D01*
X126000000Y-71088000D02*
X125925000Y-71013000D01*
X126000000Y-72000000D02*
X126000000Y-71088000D01*
X140050000Y-70987000D02*
X140050000Y-71950000D01*
%TO.N,Net-(D4-DOUT)*%
X137675000Y-71013000D02*
X137675000Y-69764211D01*
X136450000Y-50550000D02*
X137000000Y-50000000D01*
X136450000Y-51573789D02*
X136450000Y-50550000D01*
X137675000Y-69764211D02*
X138000000Y-69439211D01*
X137581601Y-70919601D02*
X137675000Y-71013000D01*
%TO.N,Net-(D5-DOUT)*%
X138825000Y-51547789D02*
X138825000Y-50885789D01*
X138825000Y-50885789D02*
X138500000Y-50560789D01*
X125000000Y-50560789D02*
X125000000Y-51273789D01*
X125000000Y-51273789D02*
X124700000Y-51573789D01*
%TO.N,Net-(D6-DOUT)*%
X126287000Y-49959789D02*
X124559976Y-49959789D01*
X114363789Y-49500000D02*
X112950000Y-50913789D01*
X127075000Y-51547789D02*
X127075000Y-50747789D01*
X115480235Y-49500000D02*
X114363789Y-49500000D01*
X124559976Y-49959789D02*
X124257976Y-50261789D01*
X127075000Y-50747789D02*
X126287000Y-49959789D01*
X112950000Y-50913789D02*
X112950000Y-51573789D01*
X116242024Y-50261789D02*
X115480235Y-49500000D01*
%TO.N,Net-(D7-DOUT)*%
X101500000Y-50500000D02*
X101500000Y-51273789D01*
X101500000Y-51273789D02*
X101200000Y-51573789D01*
X115325000Y-51547789D02*
X115325000Y-50735789D01*
X115325000Y-50735789D02*
X115500000Y-50560789D01*
%TO.N,Net-(D12-K)*%
X114500000Y-77000000D02*
X114500000Y-76325000D01*
X106500000Y-84150000D02*
X106350000Y-84000000D01*
X105000000Y-85800003D02*
X105000000Y-86835000D01*
X117000000Y-76325000D02*
X117250000Y-76075000D01*
X114500000Y-76325000D02*
X114750000Y-76075000D01*
X104794686Y-85594689D02*
X105000000Y-85800003D01*
X107201393Y-85000000D02*
X107000000Y-85000000D01*
X105500000Y-84000000D02*
X106350000Y-84000000D01*
X114000000Y-77500000D02*
X114500000Y-77000000D01*
X106500000Y-84500000D02*
X106500000Y-84150000D01*
X104794686Y-85399221D02*
X104794686Y-85594689D01*
X117000000Y-77500000D02*
X117000000Y-76325000D01*
X107244248Y-84957145D02*
X107201393Y-85000000D01*
X107000000Y-85000000D02*
X106500000Y-84500000D01*
%TD*%
%TA.AperFunction,NonConductor*%
G36*
X135443039Y-46019685D02*
G01*
X135488794Y-46072489D01*
X135500000Y-46124000D01*
X135500000Y-48876000D01*
X135480315Y-48943039D01*
X135427511Y-48988794D01*
X135376000Y-49000000D01*
X115848436Y-49000000D01*
X115832950Y-48995850D01*
X115819206Y-48996506D01*
X115786443Y-48983390D01*
X115786439Y-48983389D01*
X115775418Y-48977026D01*
X115762139Y-48969360D01*
X115762137Y-48969358D01*
X115762136Y-48969358D01*
X115712020Y-48940423D01*
X115559292Y-48899499D01*
X115401178Y-48899499D01*
X115393582Y-48899499D01*
X115393566Y-48899500D01*
X114450459Y-48899500D01*
X114450443Y-48899499D01*
X114442847Y-48899499D01*
X114284732Y-48899499D01*
X114208368Y-48919961D01*
X114132003Y-48940423D01*
X114132002Y-48940424D01*
X114081888Y-48969358D01*
X114057588Y-48983387D01*
X113995589Y-49000000D01*
X105624000Y-49000000D01*
X105556961Y-48980315D01*
X105511206Y-48927511D01*
X105500000Y-48876000D01*
X105500000Y-46124000D01*
X105519685Y-46056961D01*
X105572489Y-46011206D01*
X105624000Y-46000000D01*
X135376000Y-46000000D01*
X135443039Y-46019685D01*
G37*
%TD.AperFunction*%
%TA.AperFunction,Conductor*%
%TO.N,GND*%
G36*
X105135314Y-45520185D02*
G01*
X105181069Y-45572989D01*
X105191013Y-45642147D01*
X105161988Y-45705703D01*
X105161987Y-45705703D01*
X105094435Y-45783660D01*
X105094430Y-45783668D01*
X105034664Y-45914534D01*
X105014976Y-45981582D01*
X105009949Y-46016549D01*
X104994500Y-46124000D01*
X104994500Y-48876000D01*
X104994501Y-48876009D01*
X105006052Y-48983450D01*
X105006054Y-48983462D01*
X105017260Y-49034972D01*
X105051383Y-49137497D01*
X105051386Y-49137503D01*
X105129171Y-49258537D01*
X105129179Y-49258548D01*
X105174923Y-49311340D01*
X105174926Y-49311343D01*
X105174930Y-49311347D01*
X105283664Y-49405567D01*
X105283667Y-49405568D01*
X105283668Y-49405569D01*
X105377925Y-49448616D01*
X105414541Y-49465338D01*
X105481580Y-49485023D01*
X105481584Y-49485024D01*
X105624000Y-49505500D01*
X113209691Y-49505500D01*
X113276730Y-49525185D01*
X113322485Y-49577989D01*
X113332429Y-49647147D01*
X113303404Y-49710703D01*
X113297372Y-49717181D01*
X112469481Y-50545071D01*
X112469477Y-50545076D01*
X112426291Y-50619878D01*
X112375724Y-50668094D01*
X112349570Y-50678026D01*
X112256559Y-50701765D01*
X112256552Y-50701767D01*
X112217660Y-50717877D01*
X112122811Y-50769669D01*
X112017502Y-50867715D01*
X111944090Y-50991447D01*
X111944085Y-50991456D01*
X111927988Y-51030317D01*
X111927981Y-51030336D01*
X111927978Y-51030344D01*
X111913608Y-51071078D01*
X111909975Y-51081376D01*
X111889500Y-51223790D01*
X111889500Y-51773791D01*
X111892396Y-51827824D01*
X111892396Y-51827825D01*
X111927976Y-51967229D01*
X111927978Y-51967236D01*
X111944088Y-52006128D01*
X111995880Y-52100977D01*
X111995882Y-52100980D01*
X112065531Y-52175788D01*
X112093926Y-52206286D01*
X112217660Y-52279700D01*
X112217662Y-52279701D01*
X112217664Y-52279702D01*
X112222631Y-52281759D01*
X112223157Y-52282074D01*
X112223470Y-52282110D01*
X112225479Y-52283463D01*
X112253691Y-52300342D01*
X112258482Y-52304261D01*
X112285551Y-52331330D01*
X112382797Y-52405951D01*
X112384299Y-52407179D01*
X112388150Y-52412813D01*
X112414619Y-52443729D01*
X112443176Y-52496024D01*
X112445882Y-52500980D01*
X112530239Y-52591585D01*
X112543926Y-52606286D01*
X112580367Y-52627907D01*
X112667664Y-52679702D01*
X112706555Y-52695811D01*
X112757584Y-52713813D01*
X112900000Y-52734289D01*
X112900003Y-52734289D01*
X113450002Y-52734289D01*
X113455499Y-52733994D01*
X113504034Y-52731393D01*
X113643445Y-52695811D01*
X113682336Y-52679702D01*
X113738797Y-52648871D01*
X113807068Y-52634020D01*
X113841558Y-52641523D01*
X113842511Y-52641878D01*
X113842512Y-52641878D01*
X113842517Y-52641880D01*
X113902127Y-52648289D01*
X114697872Y-52648288D01*
X114757483Y-52641880D01*
X114831667Y-52614210D01*
X114901358Y-52609227D01*
X114918327Y-52614209D01*
X114971443Y-52634020D01*
X114992511Y-52641878D01*
X114992517Y-52641880D01*
X115052127Y-52648289D01*
X115597872Y-52648288D01*
X115657483Y-52641880D01*
X115688614Y-52630268D01*
X115758303Y-52625283D01*
X115795225Y-52639811D01*
X115817853Y-52653238D01*
X115856729Y-52669342D01*
X115907728Y-52687333D01*
X116050001Y-52707788D01*
X116050003Y-52707789D01*
X116600004Y-52707789D01*
X116653980Y-52704895D01*
X116653982Y-52704895D01*
X116793248Y-52669350D01*
X116793255Y-52669348D01*
X116832147Y-52653238D01*
X116926903Y-52601497D01*
X117032107Y-52503549D01*
X117076829Y-52428170D01*
X117076829Y-52428169D01*
X116550000Y-51901341D01*
X116262180Y-52189160D01*
X116200857Y-52222644D01*
X116131165Y-52217660D01*
X116075232Y-52175788D01*
X116050815Y-52110324D01*
X116050499Y-52101503D01*
X116050499Y-51745097D01*
X116070184Y-51678060D01*
X116086818Y-51657418D01*
X116196448Y-51547788D01*
X116903552Y-51547788D01*
X116903552Y-51547789D01*
X117470301Y-52114538D01*
X117482107Y-52103548D01*
X117555447Y-51979938D01*
X117555452Y-51979929D01*
X117571549Y-51941068D01*
X117589544Y-51890060D01*
X117609999Y-51747787D01*
X117610000Y-51747786D01*
X117610000Y-51197785D01*
X117607106Y-51143808D01*
X117607106Y-51143806D01*
X117571561Y-51004540D01*
X117571559Y-51004533D01*
X117555449Y-50965641D01*
X117530814Y-50920525D01*
X116903552Y-51547788D01*
X116196448Y-51547788D01*
X116335491Y-51408746D01*
X116373224Y-51371013D01*
X117099352Y-50644883D01*
X117097338Y-50638832D01*
X117093662Y-50637153D01*
X117070138Y-50631153D01*
X117056546Y-50620202D01*
X117052194Y-50618215D01*
X117042654Y-50609010D01*
X117041814Y-50608108D01*
X117010531Y-50545633D01*
X117010941Y-50499409D01*
X117042524Y-50340633D01*
X117042524Y-50182944D01*
X117042523Y-50182942D01*
X117019954Y-50069480D01*
X117011761Y-50028292D01*
X117011759Y-50028287D01*
X116951421Y-49882616D01*
X116951414Y-49882603D01*
X116863813Y-49751500D01*
X116863810Y-49751496D01*
X116829495Y-49717181D01*
X116796010Y-49655858D01*
X116800994Y-49586166D01*
X116842866Y-49530233D01*
X116908330Y-49505816D01*
X116917176Y-49505500D01*
X123582824Y-49505500D01*
X123649863Y-49525185D01*
X123695618Y-49577989D01*
X123705562Y-49647147D01*
X123676537Y-49710703D01*
X123670505Y-49717181D01*
X123636189Y-49751496D01*
X123636186Y-49751500D01*
X123548585Y-49882603D01*
X123548578Y-49882616D01*
X123488240Y-50028287D01*
X123488237Y-50028299D01*
X123457476Y-50182942D01*
X123457476Y-50340635D01*
X123488237Y-50495278D01*
X123488240Y-50495290D01*
X123548578Y-50640961D01*
X123548585Y-50640974D01*
X123636186Y-50772077D01*
X123636189Y-50772081D01*
X123686104Y-50821996D01*
X123719589Y-50883319D01*
X123714605Y-50953011D01*
X123705065Y-50972949D01*
X123694087Y-50991451D01*
X123694083Y-50991458D01*
X123677990Y-51030311D01*
X123677989Y-51030314D01*
X123677980Y-51030337D01*
X123677978Y-51030344D01*
X123663608Y-51071078D01*
X123659975Y-51081376D01*
X123639500Y-51223790D01*
X123639500Y-51773791D01*
X123642396Y-51827824D01*
X123642396Y-51827825D01*
X123677976Y-51967229D01*
X123677978Y-51967236D01*
X123694088Y-52006128D01*
X123745880Y-52100977D01*
X123745882Y-52100980D01*
X123815531Y-52175788D01*
X123843926Y-52206286D01*
X123967660Y-52279700D01*
X123967662Y-52279701D01*
X123967664Y-52279702D01*
X123972631Y-52281759D01*
X123973157Y-52282074D01*
X123973470Y-52282110D01*
X123975479Y-52283463D01*
X124003691Y-52300342D01*
X124008482Y-52304261D01*
X124035551Y-52331330D01*
X124132797Y-52405951D01*
X124134299Y-52407179D01*
X124138150Y-52412813D01*
X124164619Y-52443729D01*
X124193176Y-52496024D01*
X124195882Y-52500980D01*
X124280239Y-52591585D01*
X124293926Y-52606286D01*
X124330367Y-52627907D01*
X124417664Y-52679702D01*
X124456555Y-52695811D01*
X124507584Y-52713813D01*
X124650000Y-52734289D01*
X124650003Y-52734289D01*
X125200002Y-52734289D01*
X125205499Y-52733994D01*
X125254034Y-52731393D01*
X125393445Y-52695811D01*
X125432336Y-52679702D01*
X125488797Y-52648871D01*
X125557068Y-52634020D01*
X125591558Y-52641523D01*
X125592511Y-52641878D01*
X125592512Y-52641878D01*
X125592517Y-52641880D01*
X125652127Y-52648289D01*
X126447872Y-52648288D01*
X126507483Y-52641880D01*
X126581667Y-52614210D01*
X126651358Y-52609227D01*
X126668327Y-52614209D01*
X126721443Y-52634020D01*
X126742511Y-52641878D01*
X126742517Y-52641880D01*
X126802127Y-52648289D01*
X127347872Y-52648288D01*
X127407483Y-52641880D01*
X127438614Y-52630268D01*
X127508303Y-52625283D01*
X127545225Y-52639811D01*
X127567853Y-52653238D01*
X127606729Y-52669342D01*
X127657728Y-52687333D01*
X127800001Y-52707788D01*
X127800003Y-52707789D01*
X128350004Y-52707789D01*
X128403980Y-52704895D01*
X128403982Y-52704895D01*
X128543248Y-52669350D01*
X128543255Y-52669348D01*
X128582147Y-52653238D01*
X128676903Y-52601497D01*
X128782107Y-52503549D01*
X128826829Y-52428170D01*
X128826829Y-52428169D01*
X128300000Y-51901341D01*
X128012180Y-52189160D01*
X127950857Y-52222644D01*
X127881165Y-52217660D01*
X127825232Y-52175788D01*
X127800815Y-52110324D01*
X127800499Y-52101503D01*
X127800499Y-51745096D01*
X127820184Y-51678060D01*
X127836818Y-51657418D01*
X127946448Y-51547788D01*
X128653552Y-51547788D01*
X128653552Y-51547789D01*
X129220301Y-52114538D01*
X129232107Y-52103548D01*
X129305447Y-51979938D01*
X129305452Y-51979929D01*
X129321549Y-51941068D01*
X129339544Y-51890060D01*
X129359999Y-51747787D01*
X129360000Y-51747786D01*
X129360000Y-51223790D01*
X135389500Y-51223790D01*
X135389500Y-51773791D01*
X135392396Y-51827824D01*
X135392396Y-51827825D01*
X135427976Y-51967229D01*
X135427978Y-51967236D01*
X135444088Y-52006128D01*
X135495880Y-52100977D01*
X135495882Y-52100980D01*
X135565531Y-52175788D01*
X135593926Y-52206286D01*
X135717660Y-52279700D01*
X135717662Y-52279701D01*
X135717664Y-52279702D01*
X135722631Y-52281759D01*
X135723157Y-52282074D01*
X135723470Y-52282110D01*
X135725479Y-52283463D01*
X135753691Y-52300342D01*
X135758482Y-52304261D01*
X135785551Y-52331330D01*
X135882797Y-52405951D01*
X135884299Y-52407179D01*
X135888150Y-52412813D01*
X135914619Y-52443729D01*
X135943176Y-52496024D01*
X135945882Y-52500980D01*
X136030239Y-52591585D01*
X136043926Y-52606286D01*
X136080367Y-52627907D01*
X136167664Y-52679702D01*
X136206555Y-52695811D01*
X136257584Y-52713813D01*
X136400000Y-52734289D01*
X136400003Y-52734289D01*
X136950002Y-52734289D01*
X136955499Y-52733994D01*
X137004034Y-52731393D01*
X137143445Y-52695811D01*
X137182336Y-52679702D01*
X137238797Y-52648871D01*
X137307068Y-52634020D01*
X137341558Y-52641523D01*
X137342511Y-52641878D01*
X137342512Y-52641878D01*
X137342517Y-52641880D01*
X137402127Y-52648289D01*
X138197872Y-52648288D01*
X138257483Y-52641880D01*
X138331667Y-52614210D01*
X138401358Y-52609227D01*
X138418327Y-52614209D01*
X138471443Y-52634020D01*
X138492511Y-52641878D01*
X138492517Y-52641880D01*
X138552127Y-52648289D01*
X139097872Y-52648288D01*
X139157483Y-52641880D01*
X139188614Y-52630268D01*
X139258303Y-52625283D01*
X139295225Y-52639811D01*
X139317853Y-52653238D01*
X139356729Y-52669342D01*
X139407728Y-52687333D01*
X139550001Y-52707788D01*
X139550003Y-52707789D01*
X140100004Y-52707789D01*
X140153980Y-52704895D01*
X140153982Y-52704895D01*
X140293248Y-52669350D01*
X140293255Y-52669348D01*
X140332147Y-52653238D01*
X140426903Y-52601497D01*
X140532107Y-52503549D01*
X140576829Y-52428170D01*
X140576829Y-52428169D01*
X140050000Y-51901341D01*
X139762180Y-52189160D01*
X139700857Y-52222644D01*
X139631165Y-52217660D01*
X139575232Y-52175788D01*
X139550815Y-52110324D01*
X139550499Y-52101503D01*
X139550499Y-51745096D01*
X139570184Y-51678060D01*
X139586818Y-51657418D01*
X139696448Y-51547788D01*
X140403552Y-51547788D01*
X140403552Y-51547789D01*
X140970301Y-52114538D01*
X140982107Y-52103548D01*
X141055447Y-51979938D01*
X141055452Y-51979929D01*
X141071549Y-51941068D01*
X141089544Y-51890060D01*
X141109999Y-51747787D01*
X141110000Y-51747786D01*
X141110000Y-51197785D01*
X141107106Y-51143808D01*
X141107106Y-51143806D01*
X141071561Y-51004540D01*
X141071559Y-51004533D01*
X141055449Y-50965641D01*
X141030814Y-50920525D01*
X140403552Y-51547788D01*
X139696448Y-51547788D01*
X139835491Y-51408746D01*
X139873224Y-51371013D01*
X140599352Y-50644883D01*
X140597338Y-50638832D01*
X140552194Y-50618215D01*
X140542644Y-50609000D01*
X140455759Y-50515681D01*
X140332149Y-50442341D01*
X140332140Y-50442336D01*
X140293279Y-50426239D01*
X140242271Y-50408244D01*
X140099998Y-50387789D01*
X139549996Y-50387789D01*
X139496019Y-50390682D01*
X139496014Y-50390682D01*
X139418746Y-50410404D01*
X139348921Y-50407910D01*
X139291529Y-50368062D01*
X139272789Y-50332621D01*
X139272068Y-50332920D01*
X139209397Y-50181616D01*
X139209390Y-50181603D01*
X139121789Y-50050500D01*
X139121786Y-50050496D01*
X139010292Y-49939002D01*
X139010288Y-49938999D01*
X138879185Y-49851398D01*
X138879172Y-49851391D01*
X138733501Y-49791053D01*
X138733489Y-49791050D01*
X138578845Y-49760289D01*
X138578842Y-49760289D01*
X138421158Y-49760289D01*
X138421155Y-49760289D01*
X138266510Y-49791050D01*
X138266498Y-49791053D01*
X138147450Y-49840364D01*
X138077980Y-49847833D01*
X138052546Y-49840364D01*
X137933498Y-49791053D01*
X137933488Y-49791050D01*
X137831119Y-49770687D01*
X137769208Y-49738301D01*
X137740751Y-49696526D01*
X137709394Y-49620821D01*
X137709392Y-49620818D01*
X137709390Y-49620814D01*
X137621789Y-49489711D01*
X137621786Y-49489707D01*
X137510292Y-49378213D01*
X137510288Y-49378210D01*
X137379185Y-49290609D01*
X137379172Y-49290602D01*
X137233501Y-49230264D01*
X137233489Y-49230261D01*
X137078845Y-49199500D01*
X137078842Y-49199500D01*
X136921158Y-49199500D01*
X136921155Y-49199500D01*
X136766510Y-49230261D01*
X136766498Y-49230264D01*
X136620827Y-49290602D01*
X136620814Y-49290609D01*
X136489711Y-49378210D01*
X136489707Y-49378213D01*
X136378213Y-49489707D01*
X136378210Y-49489711D01*
X136290609Y-49620814D01*
X136290602Y-49620827D01*
X136230264Y-49766498D01*
X136230261Y-49766508D01*
X136199362Y-49921848D01*
X136190597Y-49938603D01*
X136186578Y-49957082D01*
X136167832Y-49982123D01*
X136166977Y-49983759D01*
X136165427Y-49985337D01*
X136130440Y-50020323D01*
X136081286Y-50069478D01*
X136081285Y-50069478D01*
X136081284Y-50069479D01*
X135969481Y-50181282D01*
X135969479Y-50181285D01*
X135940325Y-50231783D01*
X135940324Y-50231785D01*
X135890423Y-50318214D01*
X135884416Y-50340633D01*
X135849499Y-50470943D01*
X135849499Y-50470945D01*
X135849499Y-50581718D01*
X135829814Y-50648757D01*
X135777010Y-50694512D01*
X135760719Y-50700260D01*
X135760756Y-50700369D01*
X135756552Y-50701767D01*
X135717660Y-50717877D01*
X135622811Y-50769669D01*
X135517502Y-50867715D01*
X135444090Y-50991447D01*
X135444085Y-50991456D01*
X135427988Y-51030317D01*
X135427981Y-51030336D01*
X135427978Y-51030344D01*
X135413608Y-51071078D01*
X135409975Y-51081376D01*
X135389500Y-51223790D01*
X129360000Y-51223790D01*
X129360000Y-51197785D01*
X129357106Y-51143808D01*
X129357106Y-51143806D01*
X129321561Y-51004540D01*
X129321559Y-51004533D01*
X129305449Y-50965641D01*
X129280814Y-50920525D01*
X128653552Y-51547788D01*
X127946448Y-51547788D01*
X128085491Y-51408746D01*
X128123224Y-51371013D01*
X128849352Y-50644883D01*
X128847338Y-50638832D01*
X128802194Y-50618215D01*
X128792644Y-50609000D01*
X128705759Y-50515681D01*
X128582149Y-50442341D01*
X128582140Y-50442336D01*
X128543279Y-50426239D01*
X128492271Y-50408244D01*
X128349998Y-50387789D01*
X127799996Y-50387789D01*
X127746019Y-50390682D01*
X127746017Y-50390682D01*
X127671921Y-50409594D01*
X127660660Y-50409191D01*
X127650102Y-50413130D01*
X127626368Y-50407966D01*
X127602095Y-50407100D01*
X127591066Y-50400287D01*
X127581829Y-50398278D01*
X127553576Y-50377129D01*
X127443716Y-50267269D01*
X127443713Y-50267267D01*
X126893627Y-49717181D01*
X126860142Y-49655858D01*
X126865126Y-49586166D01*
X126906998Y-49530233D01*
X126972462Y-49505816D01*
X126981308Y-49505500D01*
X135375990Y-49505500D01*
X135376000Y-49505500D01*
X135483456Y-49493947D01*
X135534967Y-49482741D01*
X135569197Y-49471347D01*
X135637497Y-49448616D01*
X135637501Y-49448613D01*
X135637504Y-49448613D01*
X135758543Y-49370825D01*
X135811347Y-49325070D01*
X135905567Y-49216336D01*
X135965338Y-49085459D01*
X135985023Y-49018420D01*
X135985024Y-49018416D01*
X136005500Y-48876000D01*
X136005500Y-46124000D01*
X135993947Y-46016544D01*
X135982741Y-45965033D01*
X135967436Y-45919048D01*
X135948616Y-45862502D01*
X135948613Y-45862496D01*
X135897950Y-45783664D01*
X135870825Y-45741457D01*
X135870820Y-45741451D01*
X135839844Y-45705702D01*
X135810819Y-45642147D01*
X135820763Y-45572988D01*
X135866518Y-45520184D01*
X135933557Y-45500500D01*
X142434108Y-45500500D01*
X142495933Y-45500500D01*
X142504043Y-45500765D01*
X142752895Y-45517075D01*
X142768953Y-45519190D01*
X142976105Y-45560395D01*
X143009535Y-45567045D01*
X143025202Y-45571243D01*
X143194947Y-45628863D01*
X143257481Y-45650091D01*
X143272458Y-45656294D01*
X143445162Y-45741462D01*
X143492460Y-45764787D01*
X143506508Y-45772897D01*
X143710464Y-45909177D01*
X143723325Y-45919045D01*
X143834493Y-46016537D01*
X143907749Y-46080781D01*
X143919218Y-46092250D01*
X144080951Y-46276671D01*
X144090825Y-46289539D01*
X144227102Y-46493492D01*
X144235212Y-46507539D01*
X144343702Y-46727534D01*
X144349909Y-46742520D01*
X144428756Y-46974797D01*
X144432954Y-46990464D01*
X144480807Y-47231035D01*
X144482925Y-47247116D01*
X144499235Y-47495956D01*
X144499500Y-47504066D01*
X144499500Y-87691489D01*
X144479815Y-87758528D01*
X144427011Y-87804283D01*
X144357853Y-87814227D01*
X144294297Y-87785202D01*
X144269961Y-87756586D01*
X144192712Y-87631344D01*
X144068656Y-87507288D01*
X143919334Y-87415186D01*
X143752797Y-87360001D01*
X143752795Y-87360000D01*
X143650016Y-87349500D01*
X143650009Y-87349500D01*
X143149001Y-87349500D01*
X143081962Y-87329815D01*
X143036207Y-87277011D01*
X143026263Y-87207853D01*
X143049734Y-87151189D01*
X143093796Y-87092331D01*
X143144091Y-86957483D01*
X143150500Y-86897873D01*
X143150499Y-81802128D01*
X143144091Y-81742517D01*
X143139118Y-81729185D01*
X143093797Y-81607671D01*
X143093793Y-81607664D01*
X143007547Y-81492455D01*
X143007544Y-81492452D01*
X142892335Y-81406206D01*
X142892328Y-81406202D01*
X142757482Y-81355908D01*
X142757483Y-81355908D01*
X142697883Y-81349501D01*
X142697881Y-81349500D01*
X142697873Y-81349500D01*
X142697864Y-81349500D01*
X137602129Y-81349500D01*
X137602123Y-81349501D01*
X137542516Y-81355908D01*
X137407671Y-81406202D01*
X137407664Y-81406206D01*
X137292455Y-81492452D01*
X137292452Y-81492455D01*
X137206206Y-81607664D01*
X137206202Y-81607671D01*
X137155908Y-81742517D01*
X137149501Y-81802116D01*
X137149501Y-81802123D01*
X137149500Y-81802135D01*
X137149500Y-86897870D01*
X137149501Y-86897876D01*
X137155908Y-86957483D01*
X137206202Y-87092328D01*
X137206206Y-87092335D01*
X137292452Y-87207544D01*
X137292455Y-87207547D01*
X137407664Y-87293793D01*
X137407671Y-87293797D01*
X137542517Y-87344091D01*
X137542516Y-87344091D01*
X137549444Y-87344835D01*
X137602127Y-87350500D01*
X139613445Y-87350499D01*
X139680484Y-87370184D01*
X139726239Y-87422987D01*
X139736183Y-87492146D01*
X139731177Y-87510417D01*
X139732031Y-87510676D01*
X139730261Y-87516510D01*
X139699500Y-87671153D01*
X139699500Y-87828846D01*
X139730261Y-87983489D01*
X139730264Y-87983501D01*
X139790602Y-88129172D01*
X139790609Y-88129185D01*
X139878210Y-88260288D01*
X139878213Y-88260292D01*
X139989707Y-88371786D01*
X139989711Y-88371789D01*
X140120814Y-88459390D01*
X140120827Y-88459397D01*
X140266498Y-88519735D01*
X140266503Y-88519737D01*
X140421153Y-88550499D01*
X140421156Y-88550500D01*
X140525500Y-88550500D01*
X140592539Y-88570185D01*
X140638294Y-88622989D01*
X140649500Y-88674500D01*
X140649500Y-89150001D01*
X140649501Y-89150019D01*
X140660000Y-89252796D01*
X140660001Y-89252799D01*
X140715185Y-89419331D01*
X140715187Y-89419336D01*
X140747287Y-89471378D01*
X140807288Y-89568656D01*
X140931344Y-89692712D01*
X141080666Y-89784814D01*
X141247203Y-89839999D01*
X141349991Y-89850500D01*
X142113445Y-89850499D01*
X142180484Y-89870183D01*
X142226239Y-89922987D01*
X142236183Y-89992146D01*
X142231177Y-90010417D01*
X142232031Y-90010676D01*
X142230261Y-90016510D01*
X142199500Y-90171153D01*
X142199500Y-90328846D01*
X142230261Y-90483489D01*
X142230264Y-90483501D01*
X142290602Y-90629172D01*
X142290609Y-90629185D01*
X142378210Y-90760288D01*
X142378213Y-90760292D01*
X142489707Y-90871786D01*
X142489711Y-90871789D01*
X142620814Y-90959390D01*
X142620827Y-90959397D01*
X142737146Y-91007577D01*
X142766503Y-91019737D01*
X142921153Y-91050499D01*
X142921156Y-91050500D01*
X142921158Y-91050500D01*
X143078844Y-91050500D01*
X143078845Y-91050499D01*
X143233497Y-91019737D01*
X143379179Y-90959394D01*
X143510289Y-90871789D01*
X143621789Y-90760289D01*
X143709394Y-90629179D01*
X143769737Y-90483497D01*
X143800500Y-90328842D01*
X143800500Y-90171158D01*
X143800500Y-90171155D01*
X143800499Y-90171153D01*
X143770046Y-90018057D01*
X143769737Y-90016503D01*
X143769735Y-90016498D01*
X143754441Y-89979574D01*
X143746972Y-89910105D01*
X143778248Y-89847626D01*
X143829996Y-89814417D01*
X143919334Y-89784814D01*
X144068656Y-89692712D01*
X144192712Y-89568656D01*
X144269961Y-89443413D01*
X144321909Y-89396689D01*
X144390871Y-89385466D01*
X144454953Y-89413309D01*
X144493810Y-89471378D01*
X144499500Y-89508510D01*
X144499500Y-92491489D01*
X144479815Y-92558528D01*
X144427011Y-92604283D01*
X144357853Y-92614227D01*
X144294297Y-92585202D01*
X144269961Y-92556586D01*
X144248439Y-92521693D01*
X144192712Y-92431344D01*
X144068656Y-92307288D01*
X143919334Y-92215186D01*
X143752797Y-92160001D01*
X143752795Y-92160000D01*
X143650010Y-92149500D01*
X141349998Y-92149500D01*
X141349981Y-92149501D01*
X141247203Y-92160000D01*
X141247196Y-92160002D01*
X141165734Y-92186996D01*
X141095906Y-92189398D01*
X141039050Y-92156971D01*
X141010292Y-92128213D01*
X141010288Y-92128210D01*
X140879185Y-92040609D01*
X140879172Y-92040602D01*
X140733501Y-91980264D01*
X140733489Y-91980261D01*
X140578845Y-91949500D01*
X140578842Y-91949500D01*
X140421158Y-91949500D01*
X140421155Y-91949500D01*
X140266510Y-91980261D01*
X140266498Y-91980264D01*
X140120827Y-92040602D01*
X140120814Y-92040609D01*
X139989711Y-92128210D01*
X139989707Y-92128213D01*
X139878213Y-92239707D01*
X139878210Y-92239711D01*
X139790609Y-92370814D01*
X139790602Y-92370827D01*
X139730264Y-92516498D01*
X139730261Y-92516510D01*
X139699500Y-92671153D01*
X139699500Y-92828846D01*
X139730261Y-92983489D01*
X139730264Y-92983501D01*
X139790602Y-93129172D01*
X139790609Y-93129185D01*
X139878210Y-93260288D01*
X139878213Y-93260292D01*
X139989707Y-93371786D01*
X139989711Y-93371789D01*
X140120814Y-93459390D01*
X140120827Y-93459397D01*
X140266498Y-93519735D01*
X140266503Y-93519737D01*
X140405297Y-93547345D01*
X140421153Y-93550499D01*
X140421156Y-93550500D01*
X140525500Y-93550500D01*
X140592539Y-93570185D01*
X140638294Y-93622989D01*
X140649500Y-93674500D01*
X140649500Y-93950000D01*
X140649501Y-93950019D01*
X140660000Y-94052796D01*
X140660001Y-94052799D01*
X140715185Y-94219331D01*
X140715187Y-94219336D01*
X140732491Y-94247390D01*
X140771358Y-94310404D01*
X140789798Y-94377796D01*
X140768875Y-94444459D01*
X140715233Y-94489229D01*
X140665819Y-94499500D01*
X97504067Y-94499500D01*
X97495957Y-94499235D01*
X97247116Y-94482925D01*
X97231035Y-94480807D01*
X96990464Y-94432954D01*
X96974797Y-94428756D01*
X96742520Y-94349909D01*
X96727534Y-94343702D01*
X96507539Y-94235212D01*
X96493492Y-94227102D01*
X96289539Y-94090825D01*
X96276671Y-94080951D01*
X96244566Y-94052796D01*
X96092250Y-93919218D01*
X96080781Y-93907749D01*
X95945159Y-93753102D01*
X95915756Y-93689720D01*
X95925288Y-93620504D01*
X95970728Y-93567428D01*
X96037649Y-93547345D01*
X96104805Y-93566630D01*
X96112698Y-93572077D01*
X96207906Y-93643350D01*
X96207913Y-93643354D01*
X96342620Y-93693596D01*
X96342627Y-93693598D01*
X96402155Y-93699999D01*
X96402172Y-93700000D01*
X97050000Y-93700000D01*
X97550000Y-93700000D01*
X98197828Y-93700000D01*
X98197844Y-93699999D01*
X98257372Y-93693598D01*
X98257379Y-93693596D01*
X98392086Y-93643354D01*
X98392093Y-93643350D01*
X98507187Y-93557190D01*
X98507190Y-93557187D01*
X98593350Y-93442093D01*
X98593354Y-93442086D01*
X98643596Y-93307379D01*
X98643598Y-93307372D01*
X98649999Y-93247844D01*
X98650000Y-93247827D01*
X98650000Y-92600000D01*
X97550000Y-92600000D01*
X97550000Y-93700000D01*
X97050000Y-93700000D01*
X97050000Y-92600000D01*
X95950000Y-92600000D01*
X95950000Y-93247844D01*
X95956401Y-93307372D01*
X95956403Y-93307379D01*
X95978372Y-93366281D01*
X95980434Y-93395122D01*
X95985398Y-93423602D01*
X95982896Y-93429542D01*
X95983356Y-93435973D01*
X95969498Y-93461351D01*
X95958277Y-93487993D01*
X95952960Y-93491637D01*
X95949871Y-93497296D01*
X95924493Y-93511152D01*
X95900649Y-93527499D01*
X95894205Y-93527690D01*
X95888548Y-93530780D01*
X95859710Y-93528717D01*
X95830810Y-93529578D01*
X95825285Y-93526255D01*
X95818856Y-93525796D01*
X95795712Y-93508470D01*
X95770934Y-93493569D01*
X95765797Y-93486075D01*
X95762923Y-93483924D01*
X95750978Y-93464458D01*
X95716785Y-93395122D01*
X95656294Y-93272458D01*
X95650090Y-93257479D01*
X95649500Y-93255742D01*
X95602127Y-93116185D01*
X95571243Y-93025202D01*
X95567045Y-93009535D01*
X95559186Y-92970026D01*
X95519190Y-92768953D01*
X95517075Y-92752895D01*
X95500765Y-92504043D01*
X95500500Y-92495933D01*
X95500500Y-82907702D01*
X95520185Y-82840663D01*
X95572989Y-82794908D01*
X95642147Y-82784964D01*
X95648667Y-82786080D01*
X95705435Y-82797372D01*
X95721157Y-82800500D01*
X95721158Y-82800500D01*
X95878843Y-82800500D01*
X95898602Y-82796569D01*
X95917130Y-82792883D01*
X95941322Y-82790501D01*
X96014282Y-82790501D01*
X96081321Y-82810186D01*
X96124767Y-82858206D01*
X96144951Y-82897820D01*
X96269890Y-83069786D01*
X96420213Y-83220109D01*
X96592182Y-83345050D01*
X96600946Y-83349516D01*
X96651742Y-83397491D01*
X96668536Y-83465312D01*
X96645998Y-83531447D01*
X96600946Y-83570484D01*
X96592182Y-83574949D01*
X96420213Y-83699890D01*
X96269890Y-83850213D01*
X96144951Y-84022179D01*
X96048444Y-84211585D01*
X95982753Y-84413760D01*
X95966260Y-84517894D01*
X95949500Y-84623713D01*
X95949500Y-84836287D01*
X95957311Y-84885601D01*
X95981686Y-85039505D01*
X95982754Y-85046243D01*
X96043594Y-85233489D01*
X96048444Y-85248414D01*
X96144951Y-85437820D01*
X96269890Y-85609786D01*
X96420213Y-85760109D01*
X96592182Y-85885050D01*
X96600946Y-85889516D01*
X96651742Y-85937491D01*
X96668536Y-86005312D01*
X96645998Y-86071447D01*
X96600946Y-86110484D01*
X96592182Y-86114949D01*
X96420213Y-86239890D01*
X96269890Y-86390213D01*
X96144951Y-86562179D01*
X96048444Y-86751585D01*
X95982753Y-86953760D01*
X95949500Y-87163713D01*
X95949500Y-87376286D01*
X95981615Y-87579057D01*
X95982754Y-87586243D01*
X96045926Y-87780666D01*
X96048444Y-87788414D01*
X96144951Y-87977820D01*
X96269890Y-88149786D01*
X96420213Y-88300109D01*
X96592182Y-88425050D01*
X96600946Y-88429516D01*
X96651742Y-88477491D01*
X96668536Y-88545312D01*
X96645998Y-88611447D01*
X96600946Y-88650484D01*
X96592182Y-88654949D01*
X96420213Y-88779890D01*
X96269890Y-88930213D01*
X96144951Y-89102179D01*
X96048444Y-89291585D01*
X95982753Y-89493760D01*
X95949500Y-89703713D01*
X95949500Y-89916286D01*
X95965618Y-90018055D01*
X95982754Y-90126243D01*
X96045184Y-90318383D01*
X96048444Y-90328414D01*
X96144951Y-90517820D01*
X96269890Y-90689786D01*
X96383818Y-90803714D01*
X96417303Y-90865037D01*
X96412319Y-90934729D01*
X96370447Y-90990662D01*
X96339471Y-91007577D01*
X96207912Y-91056646D01*
X96207906Y-91056649D01*
X96092812Y-91142809D01*
X96092809Y-91142812D01*
X96006649Y-91257906D01*
X96006645Y-91257913D01*
X95956403Y-91392620D01*
X95956401Y-91392627D01*
X95950000Y-91452155D01*
X95950000Y-92100000D01*
X98650000Y-92100000D01*
X98650000Y-91531504D01*
X99430000Y-91531504D01*
X99430000Y-91680000D01*
X100130000Y-91680000D01*
X100130000Y-92180000D01*
X99430000Y-92180000D01*
X99430000Y-92328495D01*
X99468427Y-92521681D01*
X99468430Y-92521693D01*
X99543807Y-92703671D01*
X99543814Y-92703684D01*
X99653248Y-92867462D01*
X99653251Y-92867466D01*
X99792533Y-93006748D01*
X99792537Y-93006751D01*
X99956315Y-93116185D01*
X99956328Y-93116192D01*
X100138308Y-93191569D01*
X100180000Y-93199862D01*
X100180000Y-92396988D01*
X100189940Y-92414205D01*
X100245795Y-92470060D01*
X100314204Y-92509556D01*
X100390504Y-92530000D01*
X100469496Y-92530000D01*
X100545796Y-92509556D01*
X100614205Y-92470060D01*
X100670060Y-92414205D01*
X100680000Y-92396988D01*
X100680000Y-93199862D01*
X100721690Y-93191569D01*
X100721692Y-93191569D01*
X100903671Y-93116192D01*
X100903684Y-93116185D01*
X101067462Y-93006751D01*
X101067466Y-93006748D01*
X101206748Y-92867466D01*
X101206751Y-92867462D01*
X101316185Y-92703684D01*
X101316192Y-92703671D01*
X101391569Y-92521693D01*
X101391572Y-92521681D01*
X101429999Y-92328495D01*
X101430000Y-92328492D01*
X101430000Y-92180000D01*
X100730000Y-92180000D01*
X100730000Y-91680000D01*
X101430000Y-91680000D01*
X101430000Y-91531508D01*
X101429999Y-91531504D01*
X108070000Y-91531504D01*
X108070000Y-91680000D01*
X108770000Y-91680000D01*
X108770000Y-92180000D01*
X108070000Y-92180000D01*
X108070000Y-92328495D01*
X108108427Y-92521681D01*
X108108430Y-92521693D01*
X108183807Y-92703671D01*
X108183814Y-92703684D01*
X108293248Y-92867462D01*
X108293251Y-92867466D01*
X108432533Y-93006748D01*
X108432537Y-93006751D01*
X108596315Y-93116185D01*
X108596328Y-93116192D01*
X108778308Y-93191569D01*
X108820000Y-93199862D01*
X108820000Y-92396988D01*
X108829940Y-92414205D01*
X108885795Y-92470060D01*
X108954204Y-92509556D01*
X109030504Y-92530000D01*
X109109496Y-92530000D01*
X109185796Y-92509556D01*
X109254205Y-92470060D01*
X109310060Y-92414205D01*
X109320000Y-92396988D01*
X109320000Y-93199862D01*
X109361690Y-93191569D01*
X109361692Y-93191569D01*
X109543671Y-93116192D01*
X109543684Y-93116185D01*
X109707462Y-93006751D01*
X109707466Y-93006748D01*
X109846748Y-92867466D01*
X109846751Y-92867462D01*
X109956185Y-92703684D01*
X109956192Y-92703671D01*
X110031569Y-92521693D01*
X110031572Y-92521681D01*
X110069999Y-92328495D01*
X110070000Y-92328492D01*
X110070000Y-92180000D01*
X109370000Y-92180000D01*
X109370000Y-91680000D01*
X110070000Y-91680000D01*
X110070000Y-91531508D01*
X110069999Y-91531504D01*
X110031572Y-91338318D01*
X110031569Y-91338306D01*
X109956192Y-91156328D01*
X109956185Y-91156315D01*
X109846751Y-90992537D01*
X109846748Y-90992533D01*
X109707466Y-90853251D01*
X109707462Y-90853248D01*
X109543684Y-90743814D01*
X109543671Y-90743807D01*
X109361691Y-90668429D01*
X109361683Y-90668427D01*
X109320000Y-90660135D01*
X109320000Y-91463011D01*
X109310060Y-91445795D01*
X109254205Y-91389940D01*
X109185796Y-91350444D01*
X109109496Y-91330000D01*
X109030504Y-91330000D01*
X108954204Y-91350444D01*
X108885795Y-91389940D01*
X108829940Y-91445795D01*
X108820000Y-91463011D01*
X108820000Y-90660136D01*
X108819999Y-90660135D01*
X108778316Y-90668427D01*
X108778308Y-90668429D01*
X108596328Y-90743807D01*
X108596315Y-90743814D01*
X108432537Y-90853248D01*
X108432533Y-90853251D01*
X108293251Y-90992533D01*
X108293248Y-90992537D01*
X108183814Y-91156315D01*
X108183807Y-91156328D01*
X108108430Y-91338306D01*
X108108427Y-91338318D01*
X108070000Y-91531504D01*
X101429999Y-91531504D01*
X101391572Y-91338318D01*
X101391569Y-91338306D01*
X101316192Y-91156328D01*
X101316185Y-91156315D01*
X101206751Y-90992537D01*
X101206748Y-90992533D01*
X101067466Y-90853251D01*
X101067462Y-90853248D01*
X100903684Y-90743814D01*
X100903671Y-90743807D01*
X100721691Y-90668429D01*
X100721683Y-90668427D01*
X100680000Y-90660135D01*
X100680000Y-91463011D01*
X100670060Y-91445795D01*
X100614205Y-91389940D01*
X100545796Y-91350444D01*
X100469496Y-91330000D01*
X100390504Y-91330000D01*
X100314204Y-91350444D01*
X100245795Y-91389940D01*
X100189940Y-91445795D01*
X100180000Y-91463011D01*
X100180000Y-90660136D01*
X100179999Y-90660135D01*
X100138316Y-90668427D01*
X100138308Y-90668429D01*
X99956328Y-90743807D01*
X99956315Y-90743814D01*
X99792537Y-90853248D01*
X99792533Y-90853251D01*
X99653251Y-90992533D01*
X99653248Y-90992537D01*
X99543814Y-91156315D01*
X99543807Y-91156328D01*
X99468430Y-91338306D01*
X99468427Y-91338318D01*
X99430000Y-91531504D01*
X98650000Y-91531504D01*
X98650000Y-91452172D01*
X98649999Y-91452155D01*
X98643598Y-91392627D01*
X98643596Y-91392620D01*
X98593354Y-91257913D01*
X98593350Y-91257906D01*
X98507190Y-91142812D01*
X98507187Y-91142809D01*
X98392093Y-91056649D01*
X98392088Y-91056646D01*
X98260528Y-91007577D01*
X98204595Y-90965705D01*
X98180178Y-90900241D01*
X98195030Y-90831968D01*
X98216178Y-90803716D01*
X98256707Y-90763187D01*
X98318030Y-90729703D01*
X98368579Y-90729252D01*
X98400105Y-90735523D01*
X98421157Y-90739711D01*
X98421158Y-90739711D01*
X98578844Y-90739711D01*
X98578845Y-90739710D01*
X98733497Y-90708948D01*
X98846166Y-90662278D01*
X98879172Y-90648608D01*
X98879172Y-90648607D01*
X98879179Y-90648605D01*
X99010289Y-90561000D01*
X99121789Y-90449500D01*
X99209394Y-90318390D01*
X99269737Y-90172708D01*
X99300500Y-90018053D01*
X99300500Y-89860369D01*
X99300500Y-89860366D01*
X99300499Y-89860364D01*
X99285471Y-89784814D01*
X99269737Y-89705714D01*
X99268908Y-89703713D01*
X99209397Y-89560038D01*
X99209390Y-89560025D01*
X99121789Y-89428922D01*
X99121786Y-89428918D01*
X99010292Y-89317424D01*
X99010288Y-89317421D01*
X98879185Y-89229820D01*
X98879172Y-89229813D01*
X98733501Y-89169475D01*
X98733489Y-89169472D01*
X98578845Y-89138711D01*
X98578842Y-89138711D01*
X98544770Y-89138711D01*
X98477731Y-89119026D01*
X98444455Y-89087599D01*
X98330104Y-88930208D01*
X98179792Y-88779896D01*
X98179786Y-88779890D01*
X98007820Y-88654951D01*
X98007115Y-88654591D01*
X97999054Y-88650485D01*
X97948259Y-88602512D01*
X97931463Y-88534692D01*
X97953999Y-88468556D01*
X97999054Y-88429515D01*
X98007816Y-88425051D01*
X98029789Y-88409086D01*
X98179786Y-88300109D01*
X98179788Y-88300106D01*
X98179792Y-88300104D01*
X98330104Y-88149792D01*
X98330106Y-88149788D01*
X98330109Y-88149786D01*
X98396691Y-88058142D01*
X98455051Y-87977816D01*
X98494957Y-87899496D01*
X98498602Y-87892343D01*
X98527784Y-87835069D01*
X98551557Y-87788412D01*
X98617246Y-87586243D01*
X98650500Y-87376287D01*
X98650500Y-87163713D01*
X98640647Y-87101504D01*
X99430000Y-87101504D01*
X99430000Y-87500000D01*
X100130000Y-87500000D01*
X100130000Y-88000000D01*
X99430000Y-88000000D01*
X99430000Y-88398495D01*
X99468427Y-88591681D01*
X99468430Y-88591693D01*
X99543807Y-88773671D01*
X99543814Y-88773684D01*
X99653248Y-88937462D01*
X99653251Y-88937466D01*
X99792533Y-89076748D01*
X99792537Y-89076751D01*
X99956315Y-89186185D01*
X99956328Y-89186192D01*
X100138308Y-89261569D01*
X100180000Y-89269862D01*
X100180000Y-88466988D01*
X100189940Y-88484205D01*
X100245795Y-88540060D01*
X100314204Y-88579556D01*
X100390504Y-88600000D01*
X100469496Y-88600000D01*
X100545796Y-88579556D01*
X100614205Y-88540060D01*
X100670060Y-88484205D01*
X100680000Y-88466988D01*
X100680000Y-89269862D01*
X100721690Y-89261569D01*
X100721692Y-89261569D01*
X100903671Y-89186192D01*
X100903684Y-89186185D01*
X101067462Y-89076751D01*
X101067466Y-89076748D01*
X101206748Y-88937466D01*
X101206751Y-88937462D01*
X101319574Y-88768613D01*
X101321007Y-88769570D01*
X101364198Y-88725580D01*
X101432332Y-88710103D01*
X101498018Y-88733919D01*
X101500089Y-88735697D01*
X101500189Y-88735568D01*
X101506630Y-88740510D01*
X101506635Y-88740515D01*
X101637865Y-88816281D01*
X101784234Y-88855500D01*
X101784236Y-88855500D01*
X101935764Y-88855500D01*
X101935766Y-88855500D01*
X102082135Y-88816281D01*
X102213365Y-88740515D01*
X102213371Y-88740508D01*
X102215384Y-88738965D01*
X102217395Y-88738187D01*
X102220403Y-88736451D01*
X102220673Y-88736919D01*
X102280553Y-88713771D01*
X102348998Y-88727809D01*
X102378552Y-88749660D01*
X102489707Y-88860815D01*
X102489711Y-88860818D01*
X102620814Y-88948419D01*
X102620827Y-88948426D01*
X102766498Y-89008764D01*
X102766503Y-89008766D01*
X102921153Y-89039528D01*
X102921156Y-89039529D01*
X102921158Y-89039529D01*
X103078844Y-89039529D01*
X103078845Y-89039528D01*
X103233497Y-89008766D01*
X103352685Y-88959397D01*
X103379172Y-88948426D01*
X103379172Y-88948425D01*
X103379179Y-88948423D01*
X103510289Y-88860818D01*
X103621789Y-88749318D01*
X103709394Y-88618208D01*
X103712195Y-88611447D01*
X103741764Y-88540060D01*
X103769737Y-88472526D01*
X103800500Y-88317871D01*
X103800500Y-88184499D01*
X103820185Y-88117460D01*
X103872989Y-88071705D01*
X103924496Y-88060499D01*
X104197872Y-88060499D01*
X104197885Y-88060498D01*
X104236744Y-88056320D01*
X104263252Y-88056320D01*
X104302127Y-88060500D01*
X104697872Y-88060499D01*
X104697873Y-88060498D01*
X104697885Y-88060498D01*
X104736744Y-88056320D01*
X104763252Y-88056320D01*
X104802127Y-88060500D01*
X105197872Y-88060499D01*
X105197873Y-88060498D01*
X105197885Y-88060498D01*
X105236744Y-88056320D01*
X105263252Y-88056320D01*
X105302127Y-88060500D01*
X105575501Y-88060499D01*
X105642539Y-88080183D01*
X105688294Y-88132987D01*
X105699500Y-88184499D01*
X105699500Y-88328846D01*
X105730261Y-88483489D01*
X105730264Y-88483501D01*
X105790602Y-88629172D01*
X105790609Y-88629185D01*
X105878210Y-88760288D01*
X105878213Y-88760292D01*
X105989707Y-88871786D01*
X105989711Y-88871789D01*
X106120814Y-88959390D01*
X106120827Y-88959397D01*
X106240016Y-89008766D01*
X106266503Y-89019737D01*
X106421153Y-89050499D01*
X106421156Y-89050500D01*
X106421158Y-89050500D01*
X106578844Y-89050500D01*
X106578845Y-89050499D01*
X106733497Y-89019737D01*
X106879179Y-88959394D01*
X107010289Y-88871789D01*
X107065798Y-88816280D01*
X107126097Y-88755982D01*
X107127709Y-88757594D01*
X107177025Y-88723983D01*
X107246870Y-88722094D01*
X107278823Y-88737790D01*
X107279597Y-88736451D01*
X107286633Y-88740513D01*
X107286635Y-88740515D01*
X107417865Y-88816281D01*
X107564234Y-88855500D01*
X107564236Y-88855500D01*
X107715764Y-88855500D01*
X107715766Y-88855500D01*
X107862135Y-88816281D01*
X107993365Y-88740515D01*
X107993372Y-88740507D01*
X107999811Y-88735568D01*
X108002044Y-88738478D01*
X108048258Y-88712865D01*
X108117980Y-88717411D01*
X108174176Y-88758930D01*
X108180394Y-88768634D01*
X108180426Y-88768613D01*
X108293248Y-88937462D01*
X108293251Y-88937466D01*
X108432533Y-89076748D01*
X108432537Y-89076751D01*
X108596315Y-89186185D01*
X108596328Y-89186192D01*
X108778308Y-89261569D01*
X108820000Y-89269862D01*
X108820000Y-88466988D01*
X108829940Y-88484205D01*
X108885795Y-88540060D01*
X108954204Y-88579556D01*
X109030504Y-88600000D01*
X109109496Y-88600000D01*
X109185796Y-88579556D01*
X109254205Y-88540060D01*
X109310060Y-88484205D01*
X109320000Y-88466988D01*
X109320000Y-89269862D01*
X109361690Y-89261569D01*
X109361692Y-89261569D01*
X109543671Y-89186192D01*
X109543684Y-89186185D01*
X109707462Y-89076751D01*
X109707466Y-89076748D01*
X109846748Y-88937466D01*
X109846751Y-88937462D01*
X109956185Y-88773684D01*
X109956192Y-88773671D01*
X110031569Y-88591693D01*
X110031572Y-88591681D01*
X110069999Y-88398495D01*
X110070000Y-88398492D01*
X110070000Y-88000000D01*
X109370000Y-88000000D01*
X109370000Y-87500000D01*
X110070000Y-87500000D01*
X110070000Y-87101508D01*
X110069999Y-87101504D01*
X110031572Y-86908318D01*
X110031569Y-86908306D01*
X109956192Y-86726328D01*
X109956185Y-86726315D01*
X109846751Y-86562537D01*
X109846748Y-86562533D01*
X109707466Y-86423251D01*
X109707462Y-86423248D01*
X109543684Y-86313814D01*
X109543671Y-86313807D01*
X109361691Y-86238429D01*
X109361683Y-86238427D01*
X109320000Y-86230135D01*
X109320000Y-87033011D01*
X109310060Y-87015795D01*
X109254205Y-86959940D01*
X109185796Y-86920444D01*
X109109496Y-86900000D01*
X109030504Y-86900000D01*
X108954204Y-86920444D01*
X108885795Y-86959940D01*
X108829940Y-87015795D01*
X108820000Y-87033011D01*
X108820000Y-86213733D01*
X108806001Y-86193183D01*
X108806000Y-86193177D01*
X108805999Y-86193176D01*
X108805998Y-86193169D01*
X108800000Y-86155073D01*
X108800000Y-86062172D01*
X108799999Y-86062155D01*
X108793598Y-86002627D01*
X108793596Y-86002620D01*
X108743354Y-85867913D01*
X108743350Y-85867906D01*
X108657190Y-85752812D01*
X108657187Y-85752809D01*
X108542093Y-85666649D01*
X108542086Y-85666645D01*
X108407379Y-85616403D01*
X108407372Y-85616401D01*
X108347844Y-85610000D01*
X108250000Y-85610000D01*
X108250000Y-87776758D01*
X108230315Y-87843797D01*
X108177511Y-87889552D01*
X108108353Y-87899496D01*
X108044797Y-87870471D01*
X108038319Y-87864439D01*
X108008951Y-87835071D01*
X107975466Y-87773748D01*
X107980450Y-87704056D01*
X107992721Y-87671155D01*
X107994091Y-87667483D01*
X108000500Y-87607873D01*
X108000499Y-86062128D01*
X107995299Y-86013757D01*
X107994091Y-86002516D01*
X107943797Y-85867671D01*
X107943793Y-85867664D01*
X107857547Y-85752455D01*
X107813961Y-85719826D01*
X107772091Y-85663892D01*
X107767107Y-85594200D01*
X107800590Y-85532880D01*
X107866037Y-85467434D01*
X107953642Y-85336324D01*
X108013985Y-85190642D01*
X108044748Y-85035987D01*
X108044748Y-84878303D01*
X108044321Y-84876157D01*
X108044423Y-84875009D01*
X108044151Y-84872238D01*
X108044676Y-84872186D01*
X108050544Y-84806568D01*
X108093403Y-84751388D01*
X108159291Y-84728138D01*
X108227289Y-84744201D01*
X108253618Y-84764279D01*
X108381654Y-84892315D01*
X108530875Y-84984356D01*
X108530880Y-84984358D01*
X108697302Y-85039505D01*
X108697309Y-85039506D01*
X108800019Y-85049999D01*
X109400000Y-85049999D01*
X109499972Y-85049999D01*
X109499986Y-85049998D01*
X109602697Y-85039505D01*
X109769119Y-84984358D01*
X109769124Y-84984356D01*
X109918345Y-84892315D01*
X110042315Y-84768345D01*
X110134356Y-84619124D01*
X110134358Y-84619119D01*
X110189505Y-84452697D01*
X110189506Y-84452690D01*
X110199999Y-84349986D01*
X110200000Y-84349973D01*
X110200000Y-84250000D01*
X109400000Y-84250000D01*
X109400000Y-85049999D01*
X108800019Y-85049999D01*
X108900000Y-85049998D01*
X108900000Y-84250000D01*
X108100001Y-84250000D01*
X108100001Y-84349971D01*
X108100002Y-84349991D01*
X108103210Y-84381398D01*
X108090440Y-84450090D01*
X108042558Y-84500974D01*
X107974768Y-84517894D01*
X107908592Y-84495477D01*
X107876749Y-84462888D01*
X107866035Y-84446853D01*
X107754540Y-84335358D01*
X107754536Y-84335355D01*
X107623433Y-84247754D01*
X107623424Y-84247749D01*
X107477046Y-84187118D01*
X107422643Y-84143277D01*
X107400578Y-84076983D01*
X107400499Y-84072557D01*
X107400499Y-83650013D01*
X108100000Y-83650013D01*
X108100000Y-83750000D01*
X108900000Y-83750000D01*
X109400000Y-83750000D01*
X110199999Y-83750000D01*
X110199999Y-83650028D01*
X110199998Y-83650013D01*
X110189505Y-83547302D01*
X110134358Y-83380880D01*
X110134356Y-83380875D01*
X110042315Y-83231654D01*
X109918345Y-83107684D01*
X109769124Y-83015643D01*
X109769119Y-83015641D01*
X109602697Y-82960494D01*
X109602690Y-82960493D01*
X109499986Y-82950000D01*
X109400000Y-82950000D01*
X109400000Y-83750000D01*
X108900000Y-83750000D01*
X108900000Y-82949999D01*
X108800028Y-82950000D01*
X108800012Y-82950001D01*
X108697302Y-82960494D01*
X108530880Y-83015641D01*
X108530875Y-83015643D01*
X108381654Y-83107684D01*
X108257684Y-83231654D01*
X108165643Y-83380875D01*
X108165641Y-83380880D01*
X108110494Y-83547302D01*
X108110493Y-83547309D01*
X108100000Y-83650013D01*
X107400499Y-83650013D01*
X107400499Y-83649998D01*
X107400498Y-83649981D01*
X107389999Y-83547203D01*
X107389998Y-83547200D01*
X107370948Y-83489711D01*
X107334814Y-83380666D01*
X107242712Y-83231344D01*
X107118656Y-83107288D01*
X107025888Y-83050069D01*
X106969336Y-83015187D01*
X106969331Y-83015185D01*
X106948985Y-83008443D01*
X106802797Y-82960001D01*
X106802795Y-82960000D01*
X106700010Y-82949500D01*
X105999998Y-82949500D01*
X105999980Y-82949501D01*
X105897203Y-82960000D01*
X105897200Y-82960001D01*
X105730668Y-83015185D01*
X105730663Y-83015187D01*
X105581342Y-83107289D01*
X105525451Y-83163181D01*
X105464128Y-83196666D01*
X105437770Y-83199500D01*
X105421155Y-83199500D01*
X105266510Y-83230261D01*
X105266498Y-83230264D01*
X105120827Y-83290602D01*
X105120814Y-83290609D01*
X104989711Y-83378210D01*
X104989707Y-83378213D01*
X104878213Y-83489707D01*
X104853102Y-83527289D01*
X104799489Y-83572093D01*
X104730164Y-83580800D01*
X104667137Y-83550645D01*
X104646898Y-83527289D01*
X104621786Y-83489707D01*
X104510292Y-83378213D01*
X104510288Y-83378210D01*
X104379185Y-83290609D01*
X104379176Y-83290604D01*
X104287326Y-83252559D01*
X104232923Y-83208718D01*
X104210858Y-83142424D01*
X104220217Y-83090549D01*
X104269737Y-82970997D01*
X104300500Y-82816342D01*
X104300500Y-82658658D01*
X104300500Y-82658655D01*
X104300499Y-82658653D01*
X104285621Y-82583859D01*
X104269737Y-82504003D01*
X104269735Y-82503998D01*
X104209397Y-82358327D01*
X104209390Y-82358314D01*
X104121789Y-82227211D01*
X104121786Y-82227207D01*
X104010292Y-82115713D01*
X104010288Y-82115710D01*
X103879185Y-82028109D01*
X103879172Y-82028102D01*
X103771708Y-81983590D01*
X103768216Y-81980776D01*
X103763801Y-81979986D01*
X103741249Y-81959045D01*
X103717304Y-81939749D01*
X103715888Y-81935495D01*
X103712601Y-81932443D01*
X103704952Y-81902637D01*
X103695239Y-81873455D01*
X103696035Y-81867891D01*
X103695233Y-81864766D01*
X103701454Y-81830024D01*
X103710696Y-81802135D01*
X111249500Y-81802135D01*
X111249500Y-86897870D01*
X111249501Y-86897876D01*
X111255908Y-86957483D01*
X111306202Y-87092328D01*
X111306206Y-87092335D01*
X111392452Y-87207544D01*
X111392455Y-87207547D01*
X111507664Y-87293793D01*
X111507671Y-87293797D01*
X111642517Y-87344091D01*
X111642516Y-87344091D01*
X111649444Y-87344835D01*
X111702127Y-87350500D01*
X113525499Y-87350499D01*
X113592538Y-87370184D01*
X113638293Y-87422987D01*
X113649499Y-87474499D01*
X113649499Y-87579054D01*
X113649498Y-87579054D01*
X113657220Y-87607872D01*
X113674176Y-87671153D01*
X113692527Y-87739636D01*
X113691832Y-87739821D01*
X113699500Y-87778364D01*
X113699500Y-87828846D01*
X113730261Y-87983489D01*
X113730264Y-87983501D01*
X113790602Y-88129172D01*
X113790609Y-88129185D01*
X113878210Y-88260288D01*
X113878213Y-88260292D01*
X113989707Y-88371786D01*
X113989711Y-88371789D01*
X114120814Y-88459390D01*
X114120827Y-88459397D01*
X114266498Y-88519735D01*
X114266503Y-88519737D01*
X114421153Y-88550499D01*
X114421156Y-88550500D01*
X114421158Y-88550500D01*
X114578844Y-88550500D01*
X114578845Y-88550499D01*
X114733497Y-88519737D01*
X114879179Y-88459394D01*
X115010289Y-88371789D01*
X115121789Y-88260289D01*
X115209394Y-88129179D01*
X115269737Y-87983497D01*
X115300500Y-87828842D01*
X115300500Y-87671158D01*
X115300500Y-87671155D01*
X115300499Y-87671153D01*
X115287912Y-87607873D01*
X115269737Y-87516503D01*
X115269732Y-87516492D01*
X115267969Y-87510676D01*
X115270677Y-87509854D01*
X115264540Y-87452398D01*
X115295858Y-87389941D01*
X115355972Y-87354330D01*
X115386555Y-87350499D01*
X116797871Y-87350499D01*
X116797872Y-87350499D01*
X116857483Y-87344091D01*
X116992331Y-87293796D01*
X117107546Y-87207546D01*
X117193796Y-87092331D01*
X117244091Y-86957483D01*
X117250500Y-86897873D01*
X117250500Y-86397844D01*
X124700000Y-86397844D01*
X124706401Y-86457372D01*
X124706403Y-86457379D01*
X124756645Y-86592086D01*
X124756649Y-86592093D01*
X124842809Y-86707187D01*
X124842812Y-86707190D01*
X124957906Y-86793350D01*
X124957913Y-86793354D01*
X125092620Y-86843596D01*
X125092627Y-86843598D01*
X125152155Y-86849999D01*
X125152172Y-86850000D01*
X126950000Y-86850000D01*
X127450000Y-86850000D01*
X129247828Y-86850000D01*
X129247844Y-86849999D01*
X129307372Y-86843598D01*
X129307379Y-86843596D01*
X129442086Y-86793354D01*
X129442093Y-86793350D01*
X129557187Y-86707190D01*
X129557190Y-86707187D01*
X129643350Y-86592093D01*
X129643354Y-86592086D01*
X129693596Y-86457379D01*
X129693598Y-86457372D01*
X129699999Y-86397844D01*
X129700000Y-86397827D01*
X129700000Y-84600000D01*
X127450000Y-84600000D01*
X127450000Y-86850000D01*
X126950000Y-86850000D01*
X126950000Y-84600000D01*
X124700000Y-84600000D01*
X124700000Y-86397844D01*
X117250500Y-86397844D01*
X117250499Y-82302155D01*
X124700000Y-82302155D01*
X124700000Y-84100000D01*
X126950000Y-84100000D01*
X127450000Y-84100000D01*
X129700000Y-84100000D01*
X129700000Y-82302172D01*
X129699999Y-82302155D01*
X129693598Y-82242627D01*
X129693596Y-82242620D01*
X129643354Y-82107913D01*
X129643350Y-82107906D01*
X129557190Y-81992812D01*
X129557187Y-81992809D01*
X129442093Y-81906649D01*
X129442086Y-81906645D01*
X129307379Y-81856403D01*
X129307372Y-81856401D01*
X129247844Y-81850000D01*
X127450000Y-81850000D01*
X127450000Y-84100000D01*
X126950000Y-84100000D01*
X126950000Y-81850000D01*
X125152155Y-81850000D01*
X125092627Y-81856401D01*
X125092620Y-81856403D01*
X124957913Y-81906645D01*
X124957906Y-81906649D01*
X124842812Y-81992809D01*
X124842809Y-81992812D01*
X124756649Y-82107906D01*
X124756645Y-82107913D01*
X124706403Y-82242620D01*
X124706401Y-82242627D01*
X124700000Y-82302155D01*
X117250499Y-82302155D01*
X117250499Y-81802128D01*
X117244091Y-81742517D01*
X117239118Y-81729185D01*
X117193797Y-81607671D01*
X117193793Y-81607664D01*
X117107547Y-81492455D01*
X117107544Y-81492452D01*
X116992335Y-81406206D01*
X116992328Y-81406202D01*
X116857482Y-81355908D01*
X116857483Y-81355908D01*
X116797883Y-81349501D01*
X116797881Y-81349500D01*
X116797873Y-81349500D01*
X116797864Y-81349500D01*
X111702129Y-81349500D01*
X111702123Y-81349501D01*
X111642516Y-81355908D01*
X111507671Y-81406202D01*
X111507664Y-81406206D01*
X111392455Y-81492452D01*
X111392452Y-81492455D01*
X111306206Y-81607664D01*
X111306202Y-81607671D01*
X111255908Y-81742517D01*
X111249501Y-81802116D01*
X111249501Y-81802123D01*
X111249500Y-81802135D01*
X103710696Y-81802135D01*
X103724724Y-81759801D01*
X103739505Y-81715194D01*
X103739506Y-81715190D01*
X103749999Y-81612486D01*
X103750000Y-81612473D01*
X103750000Y-81337500D01*
X103000000Y-81337500D01*
X103000000Y-82054059D01*
X102980315Y-82121098D01*
X102963681Y-82141740D01*
X102878213Y-82227207D01*
X102878210Y-82227211D01*
X102790609Y-82358314D01*
X102790602Y-82358327D01*
X102730264Y-82503998D01*
X102730261Y-82504008D01*
X102699362Y-82659348D01*
X102683767Y-82699462D01*
X102676005Y-82712258D01*
X102669480Y-82718784D01*
X102619360Y-82805595D01*
X102618718Y-82806706D01*
X102618684Y-82806763D01*
X102590425Y-82855709D01*
X102590424Y-82855710D01*
X102579142Y-82897816D01*
X102565160Y-82949999D01*
X102563814Y-82955021D01*
X102527448Y-83014681D01*
X102509136Y-83028466D01*
X102381342Y-83107289D01*
X102257289Y-83231342D01*
X102165187Y-83380663D01*
X102165185Y-83380668D01*
X102145009Y-83441557D01*
X102110001Y-83547203D01*
X102110001Y-83547204D01*
X102110000Y-83547204D01*
X102099500Y-83649983D01*
X102099500Y-84350001D01*
X102099501Y-84350019D01*
X102110000Y-84452796D01*
X102110001Y-84452799D01*
X102165185Y-84619331D01*
X102165187Y-84619336D01*
X102173807Y-84633312D01*
X102201533Y-84678263D01*
X102219973Y-84745654D01*
X102199050Y-84812317D01*
X102145409Y-84857087D01*
X102120186Y-84864975D01*
X102016508Y-84885598D01*
X102016498Y-84885601D01*
X101870827Y-84945939D01*
X101870814Y-84945946D01*
X101739711Y-85033547D01*
X101739707Y-85033550D01*
X101628213Y-85145044D01*
X101628210Y-85145048D01*
X101540609Y-85276151D01*
X101540602Y-85276164D01*
X101480264Y-85421835D01*
X101480261Y-85421845D01*
X101462688Y-85510192D01*
X101430303Y-85572103D01*
X101369587Y-85606677D01*
X101341071Y-85610000D01*
X101152155Y-85610000D01*
X101092627Y-85616401D01*
X101092620Y-85616403D01*
X100957913Y-85666645D01*
X100957906Y-85666649D01*
X100842812Y-85752809D01*
X100842809Y-85752812D01*
X100756649Y-85867906D01*
X100756645Y-85867913D01*
X100706403Y-86002620D01*
X100706401Y-86002627D01*
X100700000Y-86062155D01*
X100700000Y-86155073D01*
X100699513Y-86156728D01*
X100699955Y-86158395D01*
X100689707Y-86190123D01*
X100680315Y-86222112D01*
X100680000Y-86222465D01*
X100680000Y-86585000D01*
X101375500Y-86585000D01*
X101442539Y-86604685D01*
X101488294Y-86657489D01*
X101499500Y-86709000D01*
X101499500Y-87607870D01*
X101499501Y-87607876D01*
X101505908Y-87667481D01*
X101519550Y-87704057D01*
X101524533Y-87773749D01*
X101491050Y-87835069D01*
X101461683Y-87864437D01*
X101400360Y-87897923D01*
X101330668Y-87892940D01*
X101274734Y-87851069D01*
X101250316Y-87785605D01*
X101250000Y-87776757D01*
X101250000Y-87085000D01*
X100709769Y-87085000D01*
X100709556Y-87084204D01*
X100670060Y-87015795D01*
X100614205Y-86959940D01*
X100545796Y-86920444D01*
X100469496Y-86900000D01*
X100390504Y-86900000D01*
X100314204Y-86920444D01*
X100245795Y-86959940D01*
X100189940Y-87015795D01*
X100180000Y-87033011D01*
X100180000Y-86230136D01*
X100179999Y-86230135D01*
X100138316Y-86238427D01*
X100138308Y-86238429D01*
X99956328Y-86313807D01*
X99956315Y-86313814D01*
X99792537Y-86423248D01*
X99792533Y-86423251D01*
X99653251Y-86562533D01*
X99653248Y-86562537D01*
X99543814Y-86726315D01*
X99543807Y-86726328D01*
X99468430Y-86908306D01*
X99468427Y-86908318D01*
X99430000Y-87101504D01*
X98640647Y-87101504D01*
X98617246Y-86953757D01*
X98601211Y-86904410D01*
X98599777Y-86897127D01*
X98602306Y-86869432D01*
X98601512Y-86841635D01*
X98605474Y-86834733D01*
X98606131Y-86827547D01*
X98619292Y-86810667D01*
X98633755Y-86785478D01*
X99438713Y-85980521D01*
X99438716Y-85980520D01*
X99550520Y-85868716D01*
X99600639Y-85781904D01*
X99629577Y-85731785D01*
X99669599Y-85582420D01*
X99671273Y-85577727D01*
X99683653Y-85560677D01*
X99700392Y-85531685D01*
X99721789Y-85510289D01*
X99809394Y-85379179D01*
X99869737Y-85233497D01*
X99886384Y-85149808D01*
X99918768Y-85087897D01*
X99979484Y-85053323D01*
X100008000Y-85049999D01*
X100600000Y-85049999D01*
X100699972Y-85049999D01*
X100699986Y-85049998D01*
X100802697Y-85039505D01*
X100969119Y-84984358D01*
X100969124Y-84984356D01*
X101118345Y-84892315D01*
X101242315Y-84768345D01*
X101334356Y-84619124D01*
X101334358Y-84619119D01*
X101389505Y-84452697D01*
X101389506Y-84452690D01*
X101399999Y-84349986D01*
X101400000Y-84349973D01*
X101400000Y-84250000D01*
X100600000Y-84250000D01*
X100600000Y-85049999D01*
X100008000Y-85049999D01*
X100100000Y-85049998D01*
X100100000Y-83750000D01*
X100600000Y-83750000D01*
X101399999Y-83750000D01*
X101399999Y-83650028D01*
X101399998Y-83650013D01*
X101389505Y-83547302D01*
X101334358Y-83380880D01*
X101334356Y-83380875D01*
X101242315Y-83231654D01*
X101118345Y-83107684D01*
X100969124Y-83015643D01*
X100969119Y-83015641D01*
X100802697Y-82960494D01*
X100802690Y-82960493D01*
X100699986Y-82950000D01*
X100600000Y-82950000D01*
X100600000Y-83750000D01*
X100100000Y-83750000D01*
X100100000Y-82949999D01*
X100000028Y-82950000D01*
X100000012Y-82950001D01*
X99897302Y-82960494D01*
X99730880Y-83015641D01*
X99730875Y-83015643D01*
X99581654Y-83107684D01*
X99457683Y-83231655D01*
X99453202Y-83237323D01*
X99452012Y-83236382D01*
X99406243Y-83277540D01*
X99337279Y-83288754D01*
X99273200Y-83260902D01*
X99238106Y-83213166D01*
X99209394Y-83143848D01*
X99209390Y-83143841D01*
X99121789Y-83012738D01*
X99121786Y-83012734D01*
X99010292Y-82901240D01*
X99010288Y-82901237D01*
X98879185Y-82813636D01*
X98879172Y-82813629D01*
X98733501Y-82753291D01*
X98733491Y-82753288D01*
X98685765Y-82743795D01*
X98623854Y-82711410D01*
X98589280Y-82650694D01*
X98592025Y-82583862D01*
X98617246Y-82506243D01*
X98650500Y-82296287D01*
X98650500Y-82083713D01*
X98617246Y-81873757D01*
X98551557Y-81671588D01*
X98455051Y-81482184D01*
X98455049Y-81482181D01*
X98455048Y-81482179D01*
X98330109Y-81310213D01*
X98179786Y-81159890D01*
X98007820Y-81034951D01*
X98007115Y-81034591D01*
X97999054Y-81030485D01*
X97948259Y-80982512D01*
X97931463Y-80914692D01*
X97953999Y-80848556D01*
X97999054Y-80809515D01*
X98007816Y-80805051D01*
X98056425Y-80769735D01*
X98179786Y-80680109D01*
X98179788Y-80680106D01*
X98179792Y-80680104D01*
X98330104Y-80529792D01*
X98455051Y-80357816D01*
X98463348Y-80341531D01*
X98511316Y-80290736D01*
X98579136Y-80273936D01*
X98598025Y-80276206D01*
X98720155Y-80300500D01*
X98720158Y-80300500D01*
X98877844Y-80300500D01*
X98877845Y-80300499D01*
X99032497Y-80269737D01*
X99178179Y-80209394D01*
X99309289Y-80121789D01*
X99420789Y-80010289D01*
X99508394Y-79879179D01*
X99512337Y-79869661D01*
X99550440Y-79777670D01*
X99568737Y-79733497D01*
X99577221Y-79690841D01*
X99609604Y-79628933D01*
X99670319Y-79594358D01*
X99740089Y-79598097D01*
X99796762Y-79638962D01*
X99801940Y-79646143D01*
X99878210Y-79760288D01*
X99878213Y-79760292D01*
X99989707Y-79871786D01*
X99989711Y-79871789D01*
X100037702Y-79903856D01*
X100082507Y-79957468D01*
X100091214Y-80026793D01*
X100061060Y-80089821D01*
X100056493Y-80094638D01*
X100007289Y-80143842D01*
X99915187Y-80293163D01*
X99915185Y-80293168D01*
X99860001Y-80459704D01*
X99858668Y-80472750D01*
X99832271Y-80537441D01*
X99775089Y-80577591D01*
X99771314Y-80578803D01*
X99766502Y-80580262D01*
X99620827Y-80640602D01*
X99620814Y-80640609D01*
X99489711Y-80728210D01*
X99489707Y-80728213D01*
X99378213Y-80839707D01*
X99378210Y-80839711D01*
X99290609Y-80970814D01*
X99290602Y-80970827D01*
X99230264Y-81116498D01*
X99230261Y-81116510D01*
X99199500Y-81271153D01*
X99199500Y-81428846D01*
X99230261Y-81583489D01*
X99230264Y-81583501D01*
X99290602Y-81729172D01*
X99290609Y-81729185D01*
X99378210Y-81860288D01*
X99378213Y-81860292D01*
X99489707Y-81971786D01*
X99489711Y-81971789D01*
X99620814Y-82059390D01*
X99620827Y-82059397D01*
X99737940Y-82107906D01*
X99766503Y-82119737D01*
X99921153Y-82150499D01*
X99921156Y-82150500D01*
X100084934Y-82150500D01*
X100084934Y-82152513D01*
X100144503Y-82163793D01*
X100153117Y-82168641D01*
X100280666Y-82247314D01*
X100447203Y-82302499D01*
X100549991Y-82313000D01*
X101150008Y-82312999D01*
X101150016Y-82312998D01*
X101150019Y-82312998D01*
X101206302Y-82307248D01*
X101252797Y-82302499D01*
X101419334Y-82247314D01*
X101568656Y-82155212D01*
X101692712Y-82031156D01*
X101694752Y-82027847D01*
X101696745Y-82026055D01*
X101697193Y-82025489D01*
X101697289Y-82025565D01*
X101746694Y-81981123D01*
X101815656Y-81969895D01*
X101879740Y-81997734D01*
X101905829Y-82027839D01*
X101907681Y-82030841D01*
X101907683Y-82030844D01*
X102031654Y-82154815D01*
X102180875Y-82246856D01*
X102180880Y-82246858D01*
X102347302Y-82302005D01*
X102347309Y-82302006D01*
X102450019Y-82312499D01*
X102499999Y-82312498D01*
X102500000Y-82312498D01*
X102500000Y-80837500D01*
X103000000Y-80837500D01*
X103749999Y-80837500D01*
X103749999Y-80562528D01*
X103749998Y-80562513D01*
X103739505Y-80459802D01*
X103684358Y-80293380D01*
X103684356Y-80293375D01*
X103592315Y-80144154D01*
X103468345Y-80020184D01*
X103319124Y-79928143D01*
X103319119Y-79928141D01*
X103152697Y-79872994D01*
X103152690Y-79872993D01*
X103049986Y-79862500D01*
X103000000Y-79862500D01*
X103000000Y-80837500D01*
X102500000Y-80837500D01*
X102500000Y-79862500D01*
X102499999Y-79862499D01*
X102450029Y-79862500D01*
X102450011Y-79862501D01*
X102347302Y-79872994D01*
X102180880Y-79928141D01*
X102180875Y-79928143D01*
X102031654Y-80020184D01*
X101907683Y-80144155D01*
X101907679Y-80144160D01*
X101905826Y-80147165D01*
X101904018Y-80148790D01*
X101903202Y-80149823D01*
X101903025Y-80149683D01*
X101853874Y-80193885D01*
X101784911Y-80205101D01*
X101720831Y-80177252D01*
X101694753Y-80147153D01*
X101694737Y-80147128D01*
X101692712Y-80143844D01*
X101568656Y-80019788D01*
X101419334Y-79927686D01*
X101252797Y-79872501D01*
X101252795Y-79872500D01*
X101252793Y-79872500D01*
X101251228Y-79872165D01*
X101250355Y-79871692D01*
X101246371Y-79870372D01*
X101246606Y-79869661D01*
X101189795Y-79838882D01*
X101156108Y-79777670D01*
X101160863Y-79707962D01*
X101174086Y-79682021D01*
X101209389Y-79629187D01*
X101209390Y-79629184D01*
X101209394Y-79629179D01*
X101212854Y-79620827D01*
X101236411Y-79563954D01*
X101269737Y-79483497D01*
X101292898Y-79367059D01*
X101300209Y-79330308D01*
X101332594Y-79268397D01*
X101393310Y-79233823D01*
X101421826Y-79230499D01*
X102047871Y-79230499D01*
X102047872Y-79230499D01*
X102107483Y-79224091D01*
X102242331Y-79173796D01*
X102357546Y-79087546D01*
X102443796Y-78972331D01*
X102494091Y-78837483D01*
X102500500Y-78777873D01*
X102500499Y-78032128D01*
X102494091Y-77972517D01*
X102489198Y-77959397D01*
X102443797Y-77837670D01*
X102439547Y-77829888D01*
X102442757Y-77828134D01*
X102424361Y-77779001D01*
X102439127Y-77710709D01*
X102439752Y-77709736D01*
X102443797Y-77702329D01*
X102455052Y-77672150D01*
X102494091Y-77567483D01*
X102500500Y-77507873D01*
X102500499Y-76762128D01*
X102494091Y-76702517D01*
X102494090Y-76702513D01*
X102443797Y-76567670D01*
X102439547Y-76559888D01*
X102442757Y-76558134D01*
X102424361Y-76509001D01*
X102439127Y-76440709D01*
X102439752Y-76439736D01*
X102443797Y-76432329D01*
X102460511Y-76387516D01*
X102494091Y-76297483D01*
X102500500Y-76237873D01*
X102500499Y-75492128D01*
X102494091Y-75432517D01*
X102491773Y-75426301D01*
X102443797Y-75297670D01*
X102439547Y-75289888D01*
X102442757Y-75288134D01*
X102424361Y-75239001D01*
X102439127Y-75170709D01*
X102439752Y-75169736D01*
X102443797Y-75162329D01*
X102459895Y-75119166D01*
X102494091Y-75027483D01*
X102500500Y-74967873D01*
X102500499Y-74222155D01*
X107100000Y-74222155D01*
X107100000Y-74345000D01*
X108200000Y-74345000D01*
X108700000Y-74345000D01*
X109800000Y-74345000D01*
X109800000Y-74222172D01*
X109799999Y-74222155D01*
X109793598Y-74162627D01*
X109793596Y-74162620D01*
X109743354Y-74027913D01*
X109743350Y-74027906D01*
X109657190Y-73912812D01*
X109657187Y-73912809D01*
X109542093Y-73826649D01*
X109542086Y-73826645D01*
X109407379Y-73776403D01*
X109407372Y-73776401D01*
X109347844Y-73770000D01*
X108700000Y-73770000D01*
X108700000Y-74345000D01*
X108200000Y-74345000D01*
X108200000Y-73770000D01*
X107552155Y-73770000D01*
X107492627Y-73776401D01*
X107492620Y-73776403D01*
X107357913Y-73826645D01*
X107357906Y-73826649D01*
X107242812Y-73912809D01*
X107242809Y-73912812D01*
X107156649Y-74027906D01*
X107156645Y-74027913D01*
X107106403Y-74162620D01*
X107106401Y-74162627D01*
X107100000Y-74222155D01*
X102500499Y-74222155D01*
X102500499Y-74222128D01*
X102494091Y-74162517D01*
X102485296Y-74138938D01*
X102483333Y-74127277D01*
X102486127Y-74103856D01*
X102484444Y-74080331D01*
X102490190Y-74069806D01*
X102491611Y-74057900D01*
X102506624Y-74039708D01*
X102517927Y-74019007D01*
X102528450Y-74013260D01*
X102536084Y-74004011D01*
X102558550Y-73996823D01*
X102579249Y-73985521D01*
X102581420Y-73985069D01*
X102608911Y-73979600D01*
X102658497Y-73969737D01*
X102795927Y-73912812D01*
X102804172Y-73909397D01*
X102804172Y-73909396D01*
X102804179Y-73909394D01*
X102935289Y-73821789D01*
X103046789Y-73710289D01*
X103134394Y-73579179D01*
X103185657Y-73455416D01*
X103229494Y-73401017D01*
X103295788Y-73378951D01*
X103324408Y-73381255D01*
X103421155Y-73400500D01*
X103421158Y-73400500D01*
X103578844Y-73400500D01*
X103578845Y-73400499D01*
X103733497Y-73369737D01*
X103879179Y-73309394D01*
X104010289Y-73221789D01*
X104121789Y-73110289D01*
X104209394Y-72979179D01*
X104209395Y-72979176D01*
X104209397Y-72979173D01*
X104254947Y-72869203D01*
X104298787Y-72814799D01*
X104365081Y-72792734D01*
X104393697Y-72795037D01*
X104421158Y-72800500D01*
X104578844Y-72800500D01*
X104578845Y-72800499D01*
X104733497Y-72769737D01*
X104879179Y-72709394D01*
X105010289Y-72621789D01*
X105121789Y-72510289D01*
X105209394Y-72379179D01*
X105269737Y-72233497D01*
X105300500Y-72078842D01*
X105300500Y-72004594D01*
X105320185Y-71937555D01*
X105372989Y-71891800D01*
X105393834Y-71884446D01*
X105434589Y-71874043D01*
X105493445Y-71859022D01*
X105532336Y-71842913D01*
X105627191Y-71791118D01*
X105732496Y-71693075D01*
X105805913Y-71569336D01*
X105822022Y-71530445D01*
X105840024Y-71479416D01*
X105860500Y-71337000D01*
X105860500Y-70813001D01*
X111890000Y-70813001D01*
X111890000Y-71363003D01*
X111892893Y-71416980D01*
X111892893Y-71416982D01*
X111928438Y-71556248D01*
X111928439Y-71556249D01*
X111944552Y-71595150D01*
X111969185Y-71640261D01*
X112596448Y-71013000D01*
X112596448Y-71012999D01*
X112029697Y-70446248D01*
X112017895Y-70457237D01*
X112017894Y-70457239D01*
X111944552Y-70580850D01*
X111944547Y-70580859D01*
X111928450Y-70619720D01*
X111910455Y-70670728D01*
X111890000Y-70813001D01*
X105860500Y-70813001D01*
X105860500Y-70787000D01*
X105857604Y-70732966D01*
X105822022Y-70593555D01*
X105816759Y-70580850D01*
X105805911Y-70554660D01*
X105754119Y-70459811D01*
X105754118Y-70459809D01*
X105656075Y-70354504D01*
X105656074Y-70354503D01*
X105656073Y-70354502D01*
X105532341Y-70281090D01*
X105532332Y-70281085D01*
X105527365Y-70279028D01*
X105526841Y-70278714D01*
X105526530Y-70278679D01*
X105524528Y-70277331D01*
X105496309Y-70260448D01*
X105491523Y-70256533D01*
X105464449Y-70229459D01*
X105367173Y-70154815D01*
X105365698Y-70153609D01*
X105361843Y-70147969D01*
X105335378Y-70117057D01*
X105304118Y-70059809D01*
X105206075Y-69954504D01*
X105206074Y-69954503D01*
X105206073Y-69954502D01*
X105087220Y-69883985D01*
X105082336Y-69881087D01*
X105082334Y-69881086D01*
X105082332Y-69881085D01*
X105043471Y-69864988D01*
X105043458Y-69864983D01*
X105043445Y-69864978D01*
X104992416Y-69846976D01*
X104992414Y-69846975D01*
X104992412Y-69846975D01*
X104874139Y-69829970D01*
X104810583Y-69800945D01*
X104772809Y-69742167D01*
X104770172Y-69731440D01*
X104761444Y-69687559D01*
X104733803Y-69620827D01*
X104701104Y-69541883D01*
X104701097Y-69541870D01*
X104613496Y-69410767D01*
X104613493Y-69410763D01*
X104501999Y-69299269D01*
X104501995Y-69299266D01*
X104393994Y-69227102D01*
X104349189Y-69173490D01*
X104340482Y-69104165D01*
X104370636Y-69041137D01*
X104430079Y-69004418D01*
X104462885Y-69000000D01*
X113636250Y-69000000D01*
X113703289Y-69019685D01*
X113749044Y-69072489D01*
X113758988Y-69141647D01*
X113750811Y-69171451D01*
X113746621Y-69181568D01*
X113730263Y-69221059D01*
X113730261Y-69221067D01*
X113699500Y-69375708D01*
X113698986Y-69380932D01*
X113695753Y-69390991D01*
X113696088Y-69398008D01*
X113682971Y-69430774D01*
X113681819Y-69432770D01*
X113663879Y-69463844D01*
X113625663Y-69530034D01*
X113618831Y-69541870D01*
X113615423Y-69547772D01*
X113574499Y-69700500D01*
X113574499Y-69700502D01*
X113574499Y-69729000D01*
X113554814Y-69796039D01*
X113502010Y-69841794D01*
X113450499Y-69853000D01*
X112899996Y-69853000D01*
X112846019Y-69855893D01*
X112846017Y-69855893D01*
X112706751Y-69891438D01*
X112706744Y-69891440D01*
X112667852Y-69907550D01*
X112573094Y-69959292D01*
X112573093Y-69959293D01*
X112467896Y-70057236D01*
X112467891Y-70057242D01*
X112423168Y-70132616D01*
X113413181Y-71122629D01*
X113446666Y-71183952D01*
X113449500Y-71210310D01*
X113449500Y-71566690D01*
X113429815Y-71633729D01*
X113377011Y-71679484D01*
X113307853Y-71689428D01*
X113244297Y-71660403D01*
X113237819Y-71654371D01*
X112950001Y-71366552D01*
X112950000Y-71366552D01*
X112400646Y-71915903D01*
X112402660Y-71921954D01*
X112447803Y-71942571D01*
X112457355Y-71951787D01*
X112544240Y-72045107D01*
X112667850Y-72118447D01*
X112667859Y-72118452D01*
X112706720Y-72134549D01*
X112757728Y-72152544D01*
X112900001Y-72172999D01*
X112900003Y-72173000D01*
X113450004Y-72173000D01*
X113503980Y-72170106D01*
X113503982Y-72170106D01*
X113643248Y-72134561D01*
X113643255Y-72134559D01*
X113682143Y-72118451D01*
X113682155Y-72118445D01*
X113709877Y-72103305D01*
X113778149Y-72088447D01*
X113812646Y-72095950D01*
X113842517Y-72107091D01*
X113902127Y-72113500D01*
X114447872Y-72113499D01*
X114507483Y-72107091D01*
X114581667Y-72079421D01*
X114651358Y-72074438D01*
X114668327Y-72079420D01*
X114742517Y-72107091D01*
X114802127Y-72113500D01*
X115597872Y-72113499D01*
X115597889Y-72113497D01*
X115597929Y-72113495D01*
X115597945Y-72113499D01*
X115601193Y-72113499D01*
X115601193Y-72114265D01*
X115665929Y-72129548D01*
X115714456Y-72179817D01*
X115726210Y-72213124D01*
X115730261Y-72233490D01*
X115730263Y-72233498D01*
X115790602Y-72379172D01*
X115790609Y-72379185D01*
X115878210Y-72510288D01*
X115878213Y-72510292D01*
X115989707Y-72621786D01*
X115989711Y-72621789D01*
X116120814Y-72709390D01*
X116120827Y-72709397D01*
X116258683Y-72766498D01*
X116266503Y-72769737D01*
X116382116Y-72792734D01*
X116421153Y-72800499D01*
X116421156Y-72800500D01*
X116575500Y-72800500D01*
X116581578Y-72802284D01*
X116587806Y-72801112D01*
X116614700Y-72812010D01*
X116642539Y-72820185D01*
X116646687Y-72824972D01*
X116652561Y-72827353D01*
X116669295Y-72851064D01*
X116688294Y-72872989D01*
X116690113Y-72880560D01*
X116692850Y-72884437D01*
X116696875Y-72908691D01*
X116699383Y-72919121D01*
X116699500Y-72921815D01*
X116699500Y-73078842D01*
X116708221Y-73122688D01*
X116708634Y-73132185D01*
X116702442Y-73157247D01*
X116700141Y-73182964D01*
X116694198Y-73190613D01*
X116691876Y-73200015D01*
X116673117Y-73217751D01*
X116657278Y-73238142D01*
X116644819Y-73244507D01*
X116641107Y-73248018D01*
X116636105Y-73248960D01*
X116623756Y-73255270D01*
X116480666Y-73302686D01*
X116480663Y-73302687D01*
X116331342Y-73394789D01*
X116207289Y-73518842D01*
X116115183Y-73668170D01*
X116112383Y-73674177D01*
X116066212Y-73726617D01*
X115999019Y-73745771D01*
X115932138Y-73725557D01*
X115887617Y-73674177D01*
X115884816Y-73668170D01*
X115884812Y-73668163D01*
X115792712Y-73518844D01*
X115668656Y-73394788D01*
X115575888Y-73337569D01*
X115519336Y-73302687D01*
X115519331Y-73302685D01*
X115517862Y-73302198D01*
X115352797Y-73247501D01*
X115352795Y-73247500D01*
X115250010Y-73237000D01*
X114249998Y-73237000D01*
X114249980Y-73237001D01*
X114147203Y-73247500D01*
X114147200Y-73247501D01*
X113980668Y-73302685D01*
X113980663Y-73302687D01*
X113831342Y-73394789D01*
X113707289Y-73518842D01*
X113632191Y-73640597D01*
X113624603Y-73647421D01*
X113620365Y-73656703D01*
X113599065Y-73670391D01*
X113580243Y-73687321D01*
X113568607Y-73689965D01*
X113561587Y-73694477D01*
X113526652Y-73699500D01*
X113473348Y-73699500D01*
X113406309Y-73679815D01*
X113367809Y-73640597D01*
X113333835Y-73585516D01*
X113292712Y-73518844D01*
X113168656Y-73394788D01*
X113075888Y-73337569D01*
X113019336Y-73302687D01*
X113019331Y-73302685D01*
X113017862Y-73302198D01*
X112852797Y-73247501D01*
X112852795Y-73247500D01*
X112750010Y-73237000D01*
X111749998Y-73237000D01*
X111749980Y-73237001D01*
X111647203Y-73247500D01*
X111647200Y-73247501D01*
X111480668Y-73302685D01*
X111480663Y-73302687D01*
X111331342Y-73394789D01*
X111207289Y-73518842D01*
X111132191Y-73640597D01*
X111080243Y-73687321D01*
X111026652Y-73699500D01*
X110921155Y-73699500D01*
X110766510Y-73730261D01*
X110766498Y-73730264D01*
X110620827Y-73790602D01*
X110620814Y-73790609D01*
X110489711Y-73878210D01*
X110489707Y-73878213D01*
X110378213Y-73989707D01*
X110378210Y-73989711D01*
X110290609Y-74120814D01*
X110290602Y-74120827D01*
X110230264Y-74266498D01*
X110230261Y-74266510D01*
X110199500Y-74421153D01*
X110199500Y-74578846D01*
X110230261Y-74733489D01*
X110230263Y-74733496D01*
X110252586Y-74787391D01*
X110260053Y-74856860D01*
X110228778Y-74919339D01*
X110168688Y-74954991D01*
X110132617Y-74958724D01*
X110123132Y-74958310D01*
X110078842Y-74949500D01*
X109921296Y-74949500D01*
X109918593Y-74949382D01*
X109887982Y-74938923D01*
X109856961Y-74929815D01*
X109855127Y-74927699D01*
X109852475Y-74926793D01*
X109832372Y-74901438D01*
X109811206Y-74877011D01*
X109810525Y-74873883D01*
X109809067Y-74872044D01*
X109808174Y-74863076D01*
X109805421Y-74850421D01*
X109800000Y-74845000D01*
X107100000Y-74845000D01*
X107100000Y-74967844D01*
X107106401Y-75027372D01*
X107106403Y-75027379D01*
X107156645Y-75162086D01*
X107160897Y-75169872D01*
X107157679Y-75171628D01*
X107175977Y-75220976D01*
X107160993Y-75289220D01*
X107159835Y-75291018D01*
X107156202Y-75297671D01*
X107108227Y-75426301D01*
X107105909Y-75432517D01*
X107099500Y-75492127D01*
X107099500Y-75492134D01*
X107099500Y-75492135D01*
X107099500Y-76237870D01*
X107099501Y-76237876D01*
X107105908Y-76297483D01*
X107156202Y-76432328D01*
X107160454Y-76440114D01*
X107157280Y-76441846D01*
X107175659Y-76491302D01*
X107160725Y-76559557D01*
X107160117Y-76560502D01*
X107156202Y-76567671D01*
X107105910Y-76702513D01*
X107105909Y-76702517D01*
X107099500Y-76762127D01*
X107099500Y-76762134D01*
X107099500Y-76762135D01*
X107099500Y-77507870D01*
X107099501Y-77507876D01*
X107105908Y-77567483D01*
X107156202Y-77702328D01*
X107160454Y-77710114D01*
X107157280Y-77711846D01*
X107175659Y-77761302D01*
X107160725Y-77829557D01*
X107160117Y-77830502D01*
X107156202Y-77837671D01*
X107110802Y-77959397D01*
X107105909Y-77972517D01*
X107099500Y-78032127D01*
X107099500Y-78032134D01*
X107099500Y-78032135D01*
X107099500Y-78777870D01*
X107099501Y-78777876D01*
X107105908Y-78837483D01*
X107156202Y-78972328D01*
X107156206Y-78972335D01*
X107242452Y-79087544D01*
X107242455Y-79087547D01*
X107357664Y-79173793D01*
X107357671Y-79173797D01*
X107402618Y-79190561D01*
X107492517Y-79224091D01*
X107552127Y-79230500D01*
X107725500Y-79230499D01*
X107734185Y-79233049D01*
X107743147Y-79231761D01*
X107767184Y-79242738D01*
X107792539Y-79250183D01*
X107798467Y-79257025D01*
X107806703Y-79260786D01*
X107820989Y-79283017D01*
X107838294Y-79302987D01*
X107840581Y-79313502D01*
X107844477Y-79319564D01*
X107849500Y-79354499D01*
X107849500Y-79495064D01*
X107829815Y-79562103D01*
X107828603Y-79563954D01*
X107790608Y-79620817D01*
X107790602Y-79620828D01*
X107730264Y-79766498D01*
X107730261Y-79766510D01*
X107699500Y-79921153D01*
X107699500Y-80078846D01*
X107730261Y-80233489D01*
X107730264Y-80233501D01*
X107790602Y-80379172D01*
X107790609Y-80379185D01*
X107878210Y-80510288D01*
X107878213Y-80510292D01*
X107989707Y-80621786D01*
X107989711Y-80621789D01*
X108120814Y-80709390D01*
X108120827Y-80709397D01*
X108166254Y-80728213D01*
X108266503Y-80769737D01*
X108421153Y-80800499D01*
X108421156Y-80800500D01*
X108421158Y-80800500D01*
X108578844Y-80800500D01*
X108578845Y-80800499D01*
X108733497Y-80769737D01*
X108879179Y-80709394D01*
X109010289Y-80621789D01*
X109121789Y-80510289D01*
X109209394Y-80379179D01*
X109269737Y-80233497D01*
X109300500Y-80078842D01*
X109300500Y-79921158D01*
X109300500Y-79921155D01*
X109300499Y-79921153D01*
X109292148Y-79879172D01*
X109269737Y-79766503D01*
X109267163Y-79760288D01*
X109209397Y-79620827D01*
X109209390Y-79620814D01*
X109121789Y-79489711D01*
X109121786Y-79489707D01*
X109086819Y-79454740D01*
X109072115Y-79427812D01*
X109055523Y-79401994D01*
X109054631Y-79395793D01*
X109053334Y-79393417D01*
X109050500Y-79367059D01*
X109050500Y-79354499D01*
X109070185Y-79287460D01*
X109122989Y-79241705D01*
X109174500Y-79230499D01*
X109347871Y-79230499D01*
X109347872Y-79230499D01*
X109407483Y-79224091D01*
X109542331Y-79173796D01*
X109657546Y-79087546D01*
X109743796Y-78972331D01*
X109794091Y-78837483D01*
X109800500Y-78777873D01*
X109800499Y-78174499D01*
X109820183Y-78107461D01*
X109872987Y-78061706D01*
X109924499Y-78050500D01*
X110078844Y-78050500D01*
X110078845Y-78050499D01*
X110233497Y-78019737D01*
X110379179Y-77959394D01*
X110510289Y-77871789D01*
X110621789Y-77760289D01*
X110709394Y-77629179D01*
X110769737Y-77483497D01*
X110800500Y-77328842D01*
X110800500Y-77171158D01*
X110800500Y-77171155D01*
X110800499Y-77171153D01*
X110790486Y-77120814D01*
X110769737Y-77016503D01*
X110762012Y-76997853D01*
X110709397Y-76870827D01*
X110709390Y-76870814D01*
X110621789Y-76739711D01*
X110621786Y-76739707D01*
X110510292Y-76628213D01*
X110510284Y-76628207D01*
X110472712Y-76603102D01*
X110427906Y-76549490D01*
X110419199Y-76480165D01*
X110449353Y-76417138D01*
X110472712Y-76396898D01*
X110499279Y-76379145D01*
X110510289Y-76371789D01*
X110621789Y-76260289D01*
X110709394Y-76129179D01*
X110769737Y-75983497D01*
X110800500Y-75828842D01*
X110800500Y-75671158D01*
X110800500Y-75671155D01*
X110800499Y-75671153D01*
X110798221Y-75659700D01*
X110769737Y-75516503D01*
X110769735Y-75516498D01*
X110747414Y-75462609D01*
X110747231Y-75460910D01*
X110746194Y-75459551D01*
X110743510Y-75426301D01*
X110739945Y-75393140D01*
X110740710Y-75391610D01*
X110740573Y-75389908D01*
X110756290Y-75360487D01*
X110771221Y-75330661D01*
X110772690Y-75329789D01*
X110773496Y-75328281D01*
X110802639Y-75312020D01*
X110831310Y-75295009D01*
X110833494Y-75294803D01*
X110834510Y-75294237D01*
X110840350Y-75294158D01*
X110869690Y-75291397D01*
X110877998Y-75291914D01*
X110921158Y-75300500D01*
X111015714Y-75300500D01*
X111019564Y-75300740D01*
X111048928Y-75311387D01*
X111078888Y-75320185D01*
X111081498Y-75323198D01*
X111085249Y-75324558D01*
X111104198Y-75349395D01*
X111124643Y-75372989D01*
X111125210Y-75376934D01*
X111127630Y-75380106D01*
X111130142Y-75411238D01*
X111134587Y-75442147D01*
X111132992Y-75446545D01*
X111133251Y-75449749D01*
X111128835Y-75458014D01*
X111117387Y-75489598D01*
X111115188Y-75493161D01*
X111115185Y-75493168D01*
X111104803Y-75524500D01*
X111060001Y-75659703D01*
X111060001Y-75659704D01*
X111060000Y-75659704D01*
X111049500Y-75762483D01*
X111049500Y-76387501D01*
X111049501Y-76387519D01*
X111060000Y-76490296D01*
X111060001Y-76490299D01*
X111096167Y-76599440D01*
X111115186Y-76656834D01*
X111207288Y-76806156D01*
X111331344Y-76930212D01*
X111398194Y-76971445D01*
X111444918Y-77023391D01*
X111456141Y-77092354D01*
X111447658Y-77124435D01*
X111388814Y-77266498D01*
X111388811Y-77266510D01*
X111358050Y-77421153D01*
X111358050Y-77578846D01*
X111388811Y-77733489D01*
X111388814Y-77733501D01*
X111449152Y-77879172D01*
X111449159Y-77879185D01*
X111536760Y-78010288D01*
X111536763Y-78010292D01*
X111648257Y-78121786D01*
X111648261Y-78121789D01*
X111779364Y-78209390D01*
X111779377Y-78209397D01*
X111925048Y-78269735D01*
X111925053Y-78269737D01*
X112074681Y-78299500D01*
X112079703Y-78300499D01*
X112079706Y-78300500D01*
X112079708Y-78300500D01*
X112237394Y-78300500D01*
X112237395Y-78300499D01*
X112392047Y-78269737D01*
X112537729Y-78209394D01*
X112668839Y-78121789D01*
X112780339Y-78010289D01*
X112867944Y-77879179D01*
X112928287Y-77733497D01*
X112949036Y-77629185D01*
X112955275Y-77597823D01*
X112955275Y-77597820D01*
X112959050Y-77578842D01*
X112959050Y-77421158D01*
X112955275Y-77402179D01*
X112955275Y-77402177D01*
X112928288Y-77266508D01*
X112928287Y-77266507D01*
X112928287Y-77266503D01*
X112924577Y-77257546D01*
X112901372Y-77201523D01*
X112893903Y-77132054D01*
X112925178Y-77069575D01*
X112958952Y-77043938D01*
X112967636Y-77039445D01*
X113019334Y-77022314D01*
X113116060Y-76962653D01*
X113120189Y-76960517D01*
X113150093Y-76954708D01*
X113179465Y-76946671D01*
X113184054Y-76948111D01*
X113188777Y-76947194D01*
X113217068Y-76958472D01*
X113246129Y-76967593D01*
X113249211Y-76971286D01*
X113253680Y-76973068D01*
X113271383Y-76997853D01*
X113290898Y-77021235D01*
X113291494Y-77026007D01*
X113294291Y-77029923D01*
X113295784Y-77060347D01*
X113299560Y-77090566D01*
X113297605Y-77097439D01*
X113297717Y-77099709D01*
X113296221Y-77102307D01*
X113291731Y-77118102D01*
X113230264Y-77266498D01*
X113230261Y-77266508D01*
X113203275Y-77402177D01*
X113203275Y-77402179D01*
X113199500Y-77421158D01*
X113199500Y-77578842D01*
X113203275Y-77597820D01*
X113203275Y-77597823D01*
X113230261Y-77733489D01*
X113230264Y-77733501D01*
X113290602Y-77879172D01*
X113290609Y-77879185D01*
X113378210Y-78010288D01*
X113378213Y-78010292D01*
X113489707Y-78121786D01*
X113489711Y-78121789D01*
X113620814Y-78209390D01*
X113620827Y-78209397D01*
X113766498Y-78269735D01*
X113766503Y-78269737D01*
X113916131Y-78299500D01*
X113921153Y-78300499D01*
X113921156Y-78300500D01*
X113921158Y-78300500D01*
X114078844Y-78300500D01*
X114078845Y-78300499D01*
X114233497Y-78269737D01*
X114379179Y-78209394D01*
X114510289Y-78121789D01*
X114621789Y-78010289D01*
X114709394Y-77879179D01*
X114769737Y-77733497D01*
X114791175Y-77625723D01*
X114800638Y-77578151D01*
X114833023Y-77516240D01*
X114834510Y-77514724D01*
X114980520Y-77368716D01*
X115059577Y-77231784D01*
X115063640Y-77216619D01*
X115073479Y-77179904D01*
X115109844Y-77120244D01*
X115172691Y-77089716D01*
X115193253Y-77087999D01*
X115250002Y-77087999D01*
X115250008Y-77087999D01*
X115352797Y-77077499D01*
X115519334Y-77022314D01*
X115668656Y-76930212D01*
X115792712Y-76806156D01*
X115884814Y-76656834D01*
X115884817Y-76656822D01*
X115887615Y-76650825D01*
X115933785Y-76598384D01*
X116000977Y-76579228D01*
X116067859Y-76599440D01*
X116112385Y-76650825D01*
X116115184Y-76656830D01*
X116115186Y-76656834D01*
X116180132Y-76762128D01*
X116207289Y-76806157D01*
X116311312Y-76910180D01*
X116344797Y-76971503D01*
X116339813Y-77041195D01*
X116326733Y-77066752D01*
X116290609Y-77120814D01*
X116290602Y-77120827D01*
X116230264Y-77266498D01*
X116230261Y-77266510D01*
X116199500Y-77421153D01*
X116199500Y-77578846D01*
X116230261Y-77733489D01*
X116230264Y-77733501D01*
X116290602Y-77879172D01*
X116290609Y-77879185D01*
X116378210Y-78010288D01*
X116378213Y-78010292D01*
X116489707Y-78121786D01*
X116489711Y-78121789D01*
X116620814Y-78209390D01*
X116620827Y-78209397D01*
X116766498Y-78269735D01*
X116766503Y-78269737D01*
X116916131Y-78299500D01*
X116921153Y-78300499D01*
X116921156Y-78300500D01*
X116921158Y-78300500D01*
X117078844Y-78300500D01*
X117078845Y-78300499D01*
X117233497Y-78269737D01*
X117379179Y-78209394D01*
X117510289Y-78121789D01*
X117621789Y-78010289D01*
X117709394Y-77879179D01*
X117769737Y-77733497D01*
X117800500Y-77578842D01*
X117800500Y-77421158D01*
X117800500Y-77421155D01*
X117800499Y-77421153D01*
X117795018Y-77393597D01*
X117769737Y-77266503D01*
X117766027Y-77257546D01*
X117761562Y-77246766D01*
X117754093Y-77177297D01*
X117785368Y-77114818D01*
X117845457Y-77079166D01*
X117850183Y-77078057D01*
X117852784Y-77077500D01*
X117852797Y-77077499D01*
X118019334Y-77022314D01*
X118168656Y-76930212D01*
X118292712Y-76806156D01*
X118384814Y-76656834D01*
X118439999Y-76490297D01*
X118450500Y-76387509D01*
X118450499Y-75762492D01*
X118439999Y-75659703D01*
X118384814Y-75493166D01*
X118292712Y-75343844D01*
X118199049Y-75250181D01*
X118165564Y-75188858D01*
X118170548Y-75119166D01*
X118199049Y-75074819D01*
X118236782Y-75037086D01*
X118292712Y-74981156D01*
X118384814Y-74831834D01*
X118439999Y-74665297D01*
X118450500Y-74562509D01*
X118450499Y-73937492D01*
X118447628Y-73909390D01*
X118439999Y-73834703D01*
X118439998Y-73834700D01*
X118435719Y-73821786D01*
X118384814Y-73668166D01*
X118292712Y-73518844D01*
X118251477Y-73477609D01*
X118217992Y-73416286D01*
X118222976Y-73346594D01*
X118224597Y-73342476D01*
X118263937Y-73247500D01*
X118269737Y-73233497D01*
X118300500Y-73078842D01*
X118300500Y-72921158D01*
X118300500Y-72921155D01*
X118300499Y-72921153D01*
X118293196Y-72884437D01*
X118269737Y-72766503D01*
X118237929Y-72689711D01*
X118209397Y-72620827D01*
X118209390Y-72620814D01*
X118121789Y-72489711D01*
X118121786Y-72489707D01*
X118010292Y-72378213D01*
X118010288Y-72378210D01*
X117879185Y-72290609D01*
X117879172Y-72290602D01*
X117733501Y-72230264D01*
X117733489Y-72230261D01*
X117578845Y-72199500D01*
X117578842Y-72199500D01*
X117424500Y-72199500D01*
X117416096Y-72197032D01*
X117407432Y-72198320D01*
X117383082Y-72187338D01*
X117357461Y-72179815D01*
X117351726Y-72173196D01*
X117343740Y-72169595D01*
X117329191Y-72147190D01*
X117311706Y-72127011D01*
X117309460Y-72116803D01*
X117305689Y-72110996D01*
X117300752Y-72077229D01*
X117300501Y-72076085D01*
X117300500Y-72075873D01*
X117300500Y-71921158D01*
X117299752Y-71917399D01*
X117299706Y-71907585D01*
X117307848Y-71879362D01*
X117313317Y-71850516D01*
X117317419Y-71846186D01*
X117319074Y-71840453D01*
X117341179Y-71821115D01*
X117361378Y-71799802D01*
X117364186Y-71798218D01*
X117377191Y-71791118D01*
X117482496Y-71693075D01*
X117555913Y-71569336D01*
X117572022Y-71530445D01*
X117590024Y-71479416D01*
X117610500Y-71337000D01*
X117610500Y-70813001D01*
X123640000Y-70813001D01*
X123640000Y-71363003D01*
X123642893Y-71416980D01*
X123642893Y-71416982D01*
X123678438Y-71556248D01*
X123678439Y-71556249D01*
X123694552Y-71595150D01*
X123719185Y-71640261D01*
X124346448Y-71013000D01*
X124346448Y-71012999D01*
X123779697Y-70446248D01*
X123767895Y-70457237D01*
X123767894Y-70457239D01*
X123694552Y-70580850D01*
X123694547Y-70580859D01*
X123678450Y-70619720D01*
X123660455Y-70670728D01*
X123640000Y-70813001D01*
X117610500Y-70813001D01*
X117610500Y-70787000D01*
X117607604Y-70732966D01*
X117572022Y-70593555D01*
X117566759Y-70580850D01*
X117555911Y-70554660D01*
X117504119Y-70459811D01*
X117504118Y-70459809D01*
X117406075Y-70354504D01*
X117406074Y-70354503D01*
X117406073Y-70354502D01*
X117282341Y-70281090D01*
X117282332Y-70281085D01*
X117277365Y-70279028D01*
X117276841Y-70278714D01*
X117276530Y-70278679D01*
X117274528Y-70277331D01*
X117246309Y-70260448D01*
X117241523Y-70256533D01*
X117214449Y-70229459D01*
X117117173Y-70154815D01*
X117115698Y-70153609D01*
X117111843Y-70147969D01*
X117085378Y-70117057D01*
X117054118Y-70059809D01*
X116956075Y-69954504D01*
X116956074Y-69954503D01*
X116956073Y-69954502D01*
X116837220Y-69883985D01*
X116832336Y-69881087D01*
X116832334Y-69881086D01*
X116832332Y-69881085D01*
X116793471Y-69864988D01*
X116793458Y-69864983D01*
X116793445Y-69864978D01*
X116742416Y-69846976D01*
X116742414Y-69846975D01*
X116742412Y-69846975D01*
X116657477Y-69834763D01*
X116600000Y-69826500D01*
X116599998Y-69826500D01*
X116323311Y-69826500D01*
X116256272Y-69806815D01*
X116212767Y-69756607D01*
X116212264Y-69756877D01*
X116211078Y-69754659D01*
X116210517Y-69754011D01*
X116209571Y-69751839D01*
X116209390Y-69751500D01*
X116121789Y-69620397D01*
X116121786Y-69620393D01*
X116010292Y-69508899D01*
X116010288Y-69508896D01*
X115879185Y-69421295D01*
X115879172Y-69421288D01*
X115733501Y-69360950D01*
X115733489Y-69360947D01*
X115578845Y-69330186D01*
X115578842Y-69330186D01*
X115421158Y-69330186D01*
X115421157Y-69330186D01*
X115417994Y-69330815D01*
X115416305Y-69330663D01*
X115415095Y-69330783D01*
X115415072Y-69330553D01*
X115348402Y-69324586D01*
X115293226Y-69281721D01*
X115276869Y-69250450D01*
X115273920Y-69242092D01*
X115269737Y-69221060D01*
X115247914Y-69168376D01*
X115246813Y-69165253D01*
X115245113Y-69133541D01*
X115241720Y-69101982D01*
X115243256Y-69098912D01*
X115243073Y-69095484D01*
X115258781Y-69067898D01*
X115272996Y-69039503D01*
X115275949Y-69037750D01*
X115277648Y-69034768D01*
X115305775Y-69020054D01*
X115333085Y-69003852D01*
X115337909Y-69003246D01*
X115339559Y-69002383D01*
X115342607Y-69002655D01*
X115363750Y-69000000D01*
X126620950Y-69000000D01*
X126687989Y-69019685D01*
X126733744Y-69072489D01*
X126743688Y-69141647D01*
X126742567Y-69148194D01*
X126735557Y-69183432D01*
X126703171Y-69245342D01*
X126661396Y-69273798D01*
X126620823Y-69290604D01*
X126620814Y-69290609D01*
X126489711Y-69378210D01*
X126489707Y-69378213D01*
X126378213Y-69489707D01*
X126378210Y-69489711D01*
X126290609Y-69620814D01*
X126290602Y-69620827D01*
X126230264Y-69766498D01*
X126230261Y-69766508D01*
X126221075Y-69812692D01*
X126188690Y-69874602D01*
X126127974Y-69909177D01*
X126099458Y-69912500D01*
X125652129Y-69912500D01*
X125652123Y-69912501D01*
X125592516Y-69918908D01*
X125561384Y-69930520D01*
X125491692Y-69935503D01*
X125454781Y-69920980D01*
X125432145Y-69907550D01*
X125432140Y-69907547D01*
X125393279Y-69891450D01*
X125342271Y-69873455D01*
X125199998Y-69853000D01*
X124649996Y-69853000D01*
X124596019Y-69855893D01*
X124596017Y-69855893D01*
X124456751Y-69891438D01*
X124456744Y-69891440D01*
X124417852Y-69907550D01*
X124323094Y-69959292D01*
X124323093Y-69959293D01*
X124217896Y-70057236D01*
X124217891Y-70057242D01*
X124173168Y-70132616D01*
X124700000Y-70659448D01*
X124700001Y-70659448D01*
X124987819Y-70371629D01*
X125049142Y-70338144D01*
X125118833Y-70343128D01*
X125174767Y-70384999D01*
X125199184Y-70450464D01*
X125199500Y-70459310D01*
X125199500Y-70815689D01*
X125179815Y-70882728D01*
X125163181Y-70903370D01*
X124876776Y-71189776D01*
X124150646Y-71915903D01*
X124152660Y-71921954D01*
X124197803Y-71942571D01*
X124207355Y-71951787D01*
X124294240Y-72045107D01*
X124417850Y-72118447D01*
X124417859Y-72118452D01*
X124456720Y-72134549D01*
X124507728Y-72152544D01*
X124650001Y-72172999D01*
X124650003Y-72173000D01*
X125122350Y-72173000D01*
X125189389Y-72192685D01*
X125235144Y-72245489D01*
X125236911Y-72249548D01*
X125290602Y-72379172D01*
X125290609Y-72379185D01*
X125378210Y-72510288D01*
X125378213Y-72510292D01*
X125489707Y-72621786D01*
X125489711Y-72621789D01*
X125620814Y-72709390D01*
X125620827Y-72709397D01*
X125758683Y-72766498D01*
X125766503Y-72769737D01*
X125882116Y-72792734D01*
X125921153Y-72800499D01*
X125921156Y-72800500D01*
X125921158Y-72800500D01*
X126078844Y-72800500D01*
X126078845Y-72800499D01*
X126233497Y-72769737D01*
X126379179Y-72709394D01*
X126510289Y-72621789D01*
X126621789Y-72510289D01*
X126709394Y-72379179D01*
X126769737Y-72233497D01*
X126773753Y-72213307D01*
X126806137Y-72151398D01*
X126866852Y-72116823D01*
X126895370Y-72113499D01*
X127347871Y-72113499D01*
X127347872Y-72113499D01*
X127407483Y-72107091D01*
X127464929Y-72085664D01*
X127534620Y-72080680D01*
X127563780Y-72090968D01*
X127567653Y-72092906D01*
X127567664Y-72092913D01*
X127567675Y-72092917D01*
X127567678Y-72092919D01*
X127606522Y-72109009D01*
X127606525Y-72109010D01*
X127606531Y-72109012D01*
X127606555Y-72109022D01*
X127657584Y-72127024D01*
X127800000Y-72147500D01*
X127800003Y-72147500D01*
X128350002Y-72147500D01*
X128355784Y-72147190D01*
X128404034Y-72144604D01*
X128543445Y-72109022D01*
X128582336Y-72092913D01*
X128677191Y-72041118D01*
X128782496Y-71943075D01*
X128782502Y-71943063D01*
X128787241Y-71937184D01*
X128844630Y-71897330D01*
X128853135Y-71894832D01*
X128854026Y-71894604D01*
X128854034Y-71894604D01*
X128993445Y-71859022D01*
X129032336Y-71842913D01*
X129127191Y-71791118D01*
X129232496Y-71693075D01*
X129305913Y-71569336D01*
X129322022Y-71530445D01*
X129340024Y-71479416D01*
X129360500Y-71337000D01*
X129360500Y-70813001D01*
X135390000Y-70813001D01*
X135390000Y-71363003D01*
X135392893Y-71416980D01*
X135392893Y-71416982D01*
X135428438Y-71556248D01*
X135428439Y-71556249D01*
X135444552Y-71595150D01*
X135469185Y-71640261D01*
X136096448Y-71013000D01*
X136096448Y-71012999D01*
X135529697Y-70446248D01*
X135517895Y-70457237D01*
X135517894Y-70457239D01*
X135444552Y-70580850D01*
X135444547Y-70580859D01*
X135428450Y-70619720D01*
X135410455Y-70670728D01*
X135390000Y-70813001D01*
X129360500Y-70813001D01*
X129360500Y-70787000D01*
X129357604Y-70732966D01*
X129322022Y-70593555D01*
X129316759Y-70580850D01*
X129305911Y-70554660D01*
X129254119Y-70459811D01*
X129254118Y-70459809D01*
X129156075Y-70354504D01*
X129156074Y-70354503D01*
X129156073Y-70354502D01*
X129032341Y-70281090D01*
X129032332Y-70281085D01*
X129027365Y-70279028D01*
X129026841Y-70278714D01*
X129026530Y-70278679D01*
X129024528Y-70277331D01*
X128996309Y-70260448D01*
X128991523Y-70256533D01*
X128964449Y-70229459D01*
X128867173Y-70154815D01*
X128865698Y-70153609D01*
X128861843Y-70147969D01*
X128835378Y-70117057D01*
X128804118Y-70059809D01*
X128706075Y-69954504D01*
X128706073Y-69954503D01*
X128706074Y-69954503D01*
X128661226Y-69927893D01*
X128613616Y-69876755D01*
X128600501Y-69821252D01*
X128600501Y-69794301D01*
X128600501Y-69794299D01*
X128559577Y-69641571D01*
X128530639Y-69591451D01*
X128480520Y-69504640D01*
X128368716Y-69392836D01*
X128368715Y-69392835D01*
X128364385Y-69388505D01*
X128364374Y-69388495D01*
X128346220Y-69370341D01*
X128312735Y-69309018D01*
X128312284Y-69306852D01*
X128280724Y-69148192D01*
X128286951Y-69078600D01*
X128329814Y-69023423D01*
X128395704Y-69000178D01*
X128402341Y-69000000D01*
X137129893Y-69000000D01*
X137196932Y-69019685D01*
X137242687Y-69072489D01*
X137252631Y-69141647D01*
X137244455Y-69171451D01*
X137230263Y-69205714D01*
X137230261Y-69205721D01*
X137199500Y-69360362D01*
X137198986Y-69365586D01*
X137195753Y-69375645D01*
X137196088Y-69382662D01*
X137182971Y-69415428D01*
X137160671Y-69454054D01*
X137160670Y-69454057D01*
X137115423Y-69532425D01*
X137111311Y-69547772D01*
X137074499Y-69685154D01*
X137074499Y-69685156D01*
X137074499Y-69729000D01*
X137054814Y-69796039D01*
X137002010Y-69841794D01*
X136950499Y-69853000D01*
X136399996Y-69853000D01*
X136346019Y-69855893D01*
X136346017Y-69855893D01*
X136206751Y-69891438D01*
X136206744Y-69891440D01*
X136167852Y-69907550D01*
X136073094Y-69959292D01*
X136073093Y-69959293D01*
X135967896Y-70057236D01*
X135967891Y-70057242D01*
X135923168Y-70132616D01*
X136913181Y-71122629D01*
X136946666Y-71183952D01*
X136949500Y-71210310D01*
X136949500Y-71566690D01*
X136929815Y-71633729D01*
X136877011Y-71679484D01*
X136807853Y-71689428D01*
X136744297Y-71660403D01*
X136737819Y-71654371D01*
X136450001Y-71366552D01*
X136450000Y-71366552D01*
X135900646Y-71915903D01*
X135902660Y-71921954D01*
X135947803Y-71942571D01*
X135957355Y-71951787D01*
X136044240Y-72045107D01*
X136167850Y-72118447D01*
X136167859Y-72118452D01*
X136206720Y-72134549D01*
X136257728Y-72152544D01*
X136400001Y-72172999D01*
X136400003Y-72173000D01*
X136950004Y-72173000D01*
X137003980Y-72170106D01*
X137003982Y-72170106D01*
X137143248Y-72134561D01*
X137143255Y-72134559D01*
X137182143Y-72118451D01*
X137182155Y-72118445D01*
X137209877Y-72103305D01*
X137278149Y-72088447D01*
X137312646Y-72095950D01*
X137342517Y-72107091D01*
X137402127Y-72113500D01*
X137947872Y-72113499D01*
X138007483Y-72107091D01*
X138081667Y-72079421D01*
X138151358Y-72074438D01*
X138168327Y-72079420D01*
X138242517Y-72107091D01*
X138302127Y-72113500D01*
X139097872Y-72113499D01*
X139097889Y-72113497D01*
X139097929Y-72113495D01*
X139097945Y-72113499D01*
X139101193Y-72113499D01*
X139101193Y-72114265D01*
X139165929Y-72129548D01*
X139214456Y-72179817D01*
X139226210Y-72213124D01*
X139230261Y-72233490D01*
X139230263Y-72233498D01*
X139290602Y-72379172D01*
X139290609Y-72379185D01*
X139378210Y-72510288D01*
X139378213Y-72510292D01*
X139489707Y-72621786D01*
X139489711Y-72621789D01*
X139620814Y-72709390D01*
X139620827Y-72709397D01*
X139758683Y-72766498D01*
X139766503Y-72769737D01*
X139882116Y-72792734D01*
X139921153Y-72800499D01*
X139921156Y-72800500D01*
X139921158Y-72800500D01*
X140078844Y-72800500D01*
X140078845Y-72800499D01*
X140233497Y-72769737D01*
X140379179Y-72709394D01*
X140510289Y-72621789D01*
X140621789Y-72510289D01*
X140709394Y-72379179D01*
X140769737Y-72233497D01*
X140800500Y-72078842D01*
X140800500Y-71921158D01*
X140800499Y-71921155D01*
X140800303Y-71919163D01*
X140800500Y-71918123D01*
X140800500Y-71915066D01*
X140801080Y-71915066D01*
X140813317Y-71850516D01*
X140861378Y-71799802D01*
X140864186Y-71798218D01*
X140877191Y-71791118D01*
X140982496Y-71693075D01*
X141055913Y-71569336D01*
X141072022Y-71530445D01*
X141090024Y-71479416D01*
X141110500Y-71337000D01*
X141110500Y-70787000D01*
X141107604Y-70732966D01*
X141072022Y-70593555D01*
X141066759Y-70580850D01*
X141055911Y-70554660D01*
X141004119Y-70459811D01*
X141004118Y-70459809D01*
X140906075Y-70354504D01*
X140906074Y-70354503D01*
X140906073Y-70354502D01*
X140782341Y-70281090D01*
X140782332Y-70281085D01*
X140777365Y-70279028D01*
X140776841Y-70278714D01*
X140776530Y-70278679D01*
X140774528Y-70277331D01*
X140746309Y-70260448D01*
X140741523Y-70256533D01*
X140714449Y-70229459D01*
X140617173Y-70154815D01*
X140615698Y-70153609D01*
X140611843Y-70147969D01*
X140585378Y-70117057D01*
X140554118Y-70059809D01*
X140456075Y-69954504D01*
X140456074Y-69954503D01*
X140456073Y-69954502D01*
X140337220Y-69883985D01*
X140332336Y-69881087D01*
X140332334Y-69881086D01*
X140332332Y-69881085D01*
X140293471Y-69864988D01*
X140293458Y-69864983D01*
X140293445Y-69864978D01*
X140242416Y-69846976D01*
X140242414Y-69846975D01*
X140242412Y-69846975D01*
X140157477Y-69834763D01*
X140100000Y-69826500D01*
X140099998Y-69826500D01*
X139761951Y-69826500D01*
X139694912Y-69806815D01*
X139649157Y-69754011D01*
X139647390Y-69749953D01*
X139616501Y-69675380D01*
X139616496Y-69675371D01*
X139528895Y-69544268D01*
X139528892Y-69544264D01*
X139417398Y-69432770D01*
X139417394Y-69432767D01*
X139286291Y-69345166D01*
X139286278Y-69345159D01*
X139140607Y-69284821D01*
X139140595Y-69284818D01*
X138985951Y-69254057D01*
X138985948Y-69254057D01*
X138872615Y-69254057D01*
X138853435Y-69248425D01*
X138833458Y-69247712D01*
X138820596Y-69238782D01*
X138805576Y-69234372D01*
X138792487Y-69219266D01*
X138776065Y-69207865D01*
X138761854Y-69183915D01*
X138759821Y-69181568D01*
X138758055Y-69177511D01*
X138755546Y-69171454D01*
X138748076Y-69101985D01*
X138779350Y-69039506D01*
X138839438Y-69003852D01*
X138870106Y-69000000D01*
X144000000Y-69000000D01*
X144000000Y-53000000D01*
X96000000Y-53000000D01*
X96000000Y-69000000D01*
X103520529Y-69000000D01*
X103587568Y-69019685D01*
X103633323Y-69072489D01*
X103643267Y-69141647D01*
X103614242Y-69205203D01*
X103589420Y-69227102D01*
X103481418Y-69299266D01*
X103481414Y-69299269D01*
X103369920Y-69410763D01*
X103369917Y-69410767D01*
X103282316Y-69541870D01*
X103282309Y-69541883D01*
X103221971Y-69687554D01*
X103221968Y-69687564D01*
X103197078Y-69812692D01*
X103164693Y-69874603D01*
X103103977Y-69909177D01*
X103100828Y-69909878D01*
X103088279Y-69912500D01*
X103052128Y-69912501D01*
X102992517Y-69918909D01*
X102909544Y-69949854D01*
X102900367Y-69951773D01*
X102874508Y-69949710D01*
X102848640Y-69951561D01*
X102831668Y-69946577D01*
X102757488Y-69918910D01*
X102757484Y-69918909D01*
X102757483Y-69918909D01*
X102697873Y-69912500D01*
X102697863Y-69912500D01*
X102152129Y-69912500D01*
X102152123Y-69912501D01*
X102092516Y-69918908D01*
X102061384Y-69930520D01*
X101991692Y-69935503D01*
X101954781Y-69920980D01*
X101932145Y-69907550D01*
X101932140Y-69907547D01*
X101893279Y-69891450D01*
X101842271Y-69873455D01*
X101699998Y-69853000D01*
X101149996Y-69853000D01*
X101096019Y-69855893D01*
X101096017Y-69855893D01*
X100956751Y-69891438D01*
X100956744Y-69891440D01*
X100917852Y-69907550D01*
X100823094Y-69959292D01*
X100823093Y-69959293D01*
X100717896Y-70057236D01*
X100717891Y-70057242D01*
X100673168Y-70132616D01*
X101200000Y-70659448D01*
X101200001Y-70659448D01*
X101487819Y-70371629D01*
X101549142Y-70338144D01*
X101618833Y-70343128D01*
X101674767Y-70384999D01*
X101699184Y-70450464D01*
X101699500Y-70459310D01*
X101699500Y-70815689D01*
X101679815Y-70882728D01*
X101663181Y-70903370D01*
X101376776Y-71189776D01*
X100650646Y-71915903D01*
X100652660Y-71921954D01*
X100697803Y-71942571D01*
X100707355Y-71951787D01*
X100794240Y-72045107D01*
X100917850Y-72118447D01*
X100917859Y-72118452D01*
X100956720Y-72134549D01*
X101007728Y-72152544D01*
X101150001Y-72172999D01*
X101150003Y-72173000D01*
X101700500Y-72173000D01*
X101767539Y-72192685D01*
X101813294Y-72245489D01*
X101824500Y-72297000D01*
X101824500Y-72620234D01*
X101804815Y-72687273D01*
X101803602Y-72689125D01*
X101715609Y-72820814D01*
X101715602Y-72820827D01*
X101655264Y-72966498D01*
X101655261Y-72966510D01*
X101624500Y-73121153D01*
X101624500Y-73278846D01*
X101655261Y-73433489D01*
X101655264Y-73433501D01*
X101715602Y-73579172D01*
X101718479Y-73584554D01*
X101716677Y-73585516D01*
X101734766Y-73643290D01*
X101716279Y-73710670D01*
X101664299Y-73757359D01*
X101610786Y-73769500D01*
X100252129Y-73769500D01*
X100252123Y-73769501D01*
X100192518Y-73775908D01*
X100118676Y-73803449D01*
X100051154Y-73808883D01*
X99978846Y-73794500D01*
X99978842Y-73794500D01*
X99821158Y-73794500D01*
X99821155Y-73794500D01*
X99666510Y-73825261D01*
X99666498Y-73825264D01*
X99520827Y-73885602D01*
X99520814Y-73885609D01*
X99389711Y-73973210D01*
X99389707Y-73973213D01*
X99278213Y-74084707D01*
X99278210Y-74084711D01*
X99190609Y-74215814D01*
X99190602Y-74215827D01*
X99130264Y-74361498D01*
X99130261Y-74361510D01*
X99099500Y-74516153D01*
X99099500Y-74673840D01*
X99106864Y-74710863D01*
X99100636Y-74780455D01*
X99057772Y-74835632D01*
X98991882Y-74858876D01*
X98965222Y-74856491D01*
X98965196Y-74856738D01*
X98897883Y-74849501D01*
X98897881Y-74849500D01*
X98897873Y-74849500D01*
X98897864Y-74849500D01*
X97802129Y-74849500D01*
X97802123Y-74849501D01*
X97742516Y-74855908D01*
X97607671Y-74906202D01*
X97607665Y-74906205D01*
X97573892Y-74931488D01*
X97508428Y-74955904D01*
X97440155Y-74941052D01*
X97425273Y-74931488D01*
X97392088Y-74906646D01*
X97392086Y-74906645D01*
X97257379Y-74856403D01*
X97257372Y-74856401D01*
X97197844Y-74850000D01*
X96900000Y-74850000D01*
X96900000Y-77400000D01*
X97197828Y-77400000D01*
X97197844Y-77399999D01*
X97257372Y-77393598D01*
X97257376Y-77393597D01*
X97392089Y-77343352D01*
X97399186Y-77338039D01*
X97464650Y-77313620D01*
X97532923Y-77328470D01*
X97582330Y-77377873D01*
X97597500Y-77437304D01*
X97597500Y-77578846D01*
X97628261Y-77733489D01*
X97628264Y-77733501D01*
X97688602Y-77879172D01*
X97688609Y-77879185D01*
X97776210Y-78010288D01*
X97776213Y-78010292D01*
X97887707Y-78121786D01*
X97887711Y-78121789D01*
X98018814Y-78209390D01*
X98018827Y-78209397D01*
X98164498Y-78269735D01*
X98164503Y-78269737D01*
X98314131Y-78299500D01*
X98319153Y-78300499D01*
X98319156Y-78300500D01*
X98319158Y-78300500D01*
X98476844Y-78300500D01*
X98476845Y-78300499D01*
X98631497Y-78269737D01*
X98777179Y-78209394D01*
X98908289Y-78121789D01*
X99019789Y-78010289D01*
X99107394Y-77879179D01*
X99121229Y-77845779D01*
X99165069Y-77791375D01*
X99231363Y-77769310D01*
X99299063Y-77786589D01*
X99323471Y-77805550D01*
X99389707Y-77871786D01*
X99389711Y-77871789D01*
X99520814Y-77959390D01*
X99520827Y-77959397D01*
X99608230Y-77995599D01*
X99666503Y-78019737D01*
X99699691Y-78026338D01*
X99761600Y-78058721D01*
X99796176Y-78119436D01*
X99799500Y-78147955D01*
X99799500Y-78777870D01*
X99799501Y-78777879D01*
X99802245Y-78803404D01*
X99795590Y-78858753D01*
X99791972Y-78868775D01*
X99790606Y-78870821D01*
X99730263Y-79016503D01*
X99719961Y-79068291D01*
X99716796Y-79077062D01*
X99701442Y-79098033D01*
X99689393Y-79121068D01*
X99681134Y-79125770D01*
X99675522Y-79133437D01*
X99651267Y-79142777D01*
X99628677Y-79155642D01*
X99619186Y-79155133D01*
X99610320Y-79158548D01*
X99584863Y-79153292D01*
X99558907Y-79151901D01*
X99551199Y-79146343D01*
X99541893Y-79144422D01*
X99523318Y-79126237D01*
X99502236Y-79111035D01*
X99497059Y-79103856D01*
X99420789Y-78989711D01*
X99420786Y-78989707D01*
X99309292Y-78878213D01*
X99309288Y-78878210D01*
X99178185Y-78790609D01*
X99178172Y-78790602D01*
X99032501Y-78730264D01*
X99032489Y-78730261D01*
X98877845Y-78699500D01*
X98877842Y-78699500D01*
X98720158Y-78699500D01*
X98720155Y-78699500D01*
X98565510Y-78730261D01*
X98565498Y-78730264D01*
X98447351Y-78779202D01*
X98377882Y-78786671D01*
X98315403Y-78755395D01*
X98312218Y-78752322D01*
X98179786Y-78619890D01*
X98007820Y-78494951D01*
X97818414Y-78398444D01*
X97818413Y-78398443D01*
X97818412Y-78398443D01*
X97616243Y-78332754D01*
X97616241Y-78332753D01*
X97616240Y-78332753D01*
X97454957Y-78307208D01*
X97406287Y-78299500D01*
X97193713Y-78299500D01*
X97145042Y-78307208D01*
X96983760Y-78332753D01*
X96781585Y-78398444D01*
X96592179Y-78494951D01*
X96420213Y-78619890D01*
X96269890Y-78770213D01*
X96144951Y-78942179D01*
X96048444Y-79131585D01*
X95982753Y-79333760D01*
X95949500Y-79543713D01*
X95949500Y-79756286D01*
X95976719Y-79928143D01*
X95982754Y-79966243D01*
X96042067Y-80148790D01*
X96048444Y-80168414D01*
X96144951Y-80357820D01*
X96269890Y-80529786D01*
X96420213Y-80680109D01*
X96592182Y-80805050D01*
X96600946Y-80809516D01*
X96651742Y-80857491D01*
X96668536Y-80925312D01*
X96645998Y-80991447D01*
X96600946Y-81030484D01*
X96592182Y-81034949D01*
X96420213Y-81159890D01*
X96420209Y-81159894D01*
X96315771Y-81264331D01*
X96254448Y-81297815D01*
X96184756Y-81292830D01*
X96180639Y-81291210D01*
X96033501Y-81230264D01*
X96033489Y-81230261D01*
X95878845Y-81199500D01*
X95878842Y-81199500D01*
X95721158Y-81199500D01*
X95721155Y-81199500D01*
X95648691Y-81213914D01*
X95579100Y-81207687D01*
X95523922Y-81164824D01*
X95500678Y-81098934D01*
X95500500Y-81092297D01*
X95500500Y-77239269D01*
X95520185Y-77172230D01*
X95572989Y-77126475D01*
X95642147Y-77116531D01*
X95705703Y-77145556D01*
X95723766Y-77164958D01*
X95792809Y-77257187D01*
X95792812Y-77257190D01*
X95907906Y-77343350D01*
X95907913Y-77343354D01*
X96042620Y-77393596D01*
X96042627Y-77393598D01*
X96102155Y-77399999D01*
X96102172Y-77400000D01*
X96400000Y-77400000D01*
X96400000Y-74850000D01*
X96102155Y-74850000D01*
X96042627Y-74856401D01*
X96042620Y-74856403D01*
X95907913Y-74906645D01*
X95907906Y-74906649D01*
X95792812Y-74992809D01*
X95723766Y-75085042D01*
X95667832Y-75126912D01*
X95598140Y-75131896D01*
X95536817Y-75098410D01*
X95503333Y-75037086D01*
X95500500Y-75010730D01*
X95500500Y-71989269D01*
X95520185Y-71922230D01*
X95572989Y-71876475D01*
X95642147Y-71866531D01*
X95705703Y-71895556D01*
X95723766Y-71914958D01*
X95792809Y-72007187D01*
X95792812Y-72007190D01*
X95907906Y-72093350D01*
X95907913Y-72093354D01*
X96042620Y-72143596D01*
X96042627Y-72143598D01*
X96102155Y-72149999D01*
X96102172Y-72150000D01*
X96400000Y-72150000D01*
X96400000Y-69600000D01*
X96900000Y-69600000D01*
X96900000Y-72150000D01*
X97197828Y-72150000D01*
X97197844Y-72149999D01*
X97257372Y-72143598D01*
X97257376Y-72143597D01*
X97392090Y-72093351D01*
X97425271Y-72068512D01*
X97490734Y-72044094D01*
X97559008Y-72058945D01*
X97573884Y-72068504D01*
X97607669Y-72093796D01*
X97673762Y-72118447D01*
X97742517Y-72144091D01*
X97742516Y-72144091D01*
X97747279Y-72144603D01*
X97802127Y-72150500D01*
X98897872Y-72150499D01*
X98957483Y-72144091D01*
X99092331Y-72093796D01*
X99207546Y-72007546D01*
X99293796Y-71892331D01*
X99297991Y-71881082D01*
X99339860Y-71825148D01*
X99405323Y-71800728D01*
X99415066Y-71800859D01*
X99415066Y-71800500D01*
X99578844Y-71800500D01*
X99578845Y-71800499D01*
X99733497Y-71769737D01*
X99879179Y-71709394D01*
X100010289Y-71621789D01*
X100021750Y-71610328D01*
X100083072Y-71576841D01*
X100152764Y-71581823D01*
X100208699Y-71623692D01*
X100218267Y-71638580D01*
X100219185Y-71640261D01*
X100846448Y-71013000D01*
X100846448Y-71012999D01*
X100279697Y-70446248D01*
X100279696Y-70446248D01*
X100262991Y-70461803D01*
X100200513Y-70493080D01*
X100131043Y-70485614D01*
X100090811Y-70458732D01*
X100010292Y-70378213D01*
X100010288Y-70378210D01*
X99879185Y-70290609D01*
X99879172Y-70290602D01*
X99733501Y-70230264D01*
X99733489Y-70230261D01*
X99578845Y-70199500D01*
X99578842Y-70199500D01*
X99474499Y-70199500D01*
X99407460Y-70179815D01*
X99361705Y-70127011D01*
X99350499Y-70075500D01*
X99350499Y-70052129D01*
X99350498Y-70052123D01*
X99344091Y-69992516D01*
X99293797Y-69857671D01*
X99293793Y-69857664D01*
X99207547Y-69742455D01*
X99207544Y-69742452D01*
X99092335Y-69656206D01*
X99092328Y-69656202D01*
X98957482Y-69605908D01*
X98957483Y-69605908D01*
X98897883Y-69599501D01*
X98897881Y-69599500D01*
X98897873Y-69599500D01*
X98897864Y-69599500D01*
X97802129Y-69599500D01*
X97802123Y-69599501D01*
X97742516Y-69605908D01*
X97607671Y-69656202D01*
X97607665Y-69656205D01*
X97573892Y-69681488D01*
X97508428Y-69705904D01*
X97440155Y-69691052D01*
X97425273Y-69681488D01*
X97392088Y-69656646D01*
X97392086Y-69656645D01*
X97257379Y-69606403D01*
X97257372Y-69606401D01*
X97197844Y-69600000D01*
X96900000Y-69600000D01*
X96400000Y-69600000D01*
X96102155Y-69600000D01*
X96042627Y-69606401D01*
X96042620Y-69606403D01*
X95907913Y-69656645D01*
X95907906Y-69656649D01*
X95792812Y-69742809D01*
X95723766Y-69835042D01*
X95667832Y-69876912D01*
X95598140Y-69881896D01*
X95536817Y-69848410D01*
X95503333Y-69787086D01*
X95500500Y-69760730D01*
X95500500Y-51223790D01*
X100139500Y-51223790D01*
X100139500Y-51773791D01*
X100142396Y-51827824D01*
X100142396Y-51827825D01*
X100177976Y-51967229D01*
X100177978Y-51967236D01*
X100194088Y-52006128D01*
X100245880Y-52100977D01*
X100245882Y-52100980D01*
X100315531Y-52175788D01*
X100343926Y-52206286D01*
X100467660Y-52279700D01*
X100467662Y-52279701D01*
X100467664Y-52279702D01*
X100472631Y-52281759D01*
X100473157Y-52282074D01*
X100473470Y-52282110D01*
X100475479Y-52283463D01*
X100503691Y-52300342D01*
X100508482Y-52304261D01*
X100535551Y-52331330D01*
X100632797Y-52405951D01*
X100634299Y-52407179D01*
X100638150Y-52412813D01*
X100664619Y-52443729D01*
X100693176Y-52496024D01*
X100695882Y-52500980D01*
X100780239Y-52591585D01*
X100793926Y-52606286D01*
X100830367Y-52627907D01*
X100917664Y-52679702D01*
X100956555Y-52695811D01*
X101007584Y-52713813D01*
X101150000Y-52734289D01*
X101150003Y-52734289D01*
X101700002Y-52734289D01*
X101705499Y-52733994D01*
X101754034Y-52731393D01*
X101893445Y-52695811D01*
X101932336Y-52679702D01*
X101988797Y-52648871D01*
X102057068Y-52634020D01*
X102091558Y-52641523D01*
X102092511Y-52641878D01*
X102092512Y-52641878D01*
X102092517Y-52641880D01*
X102152127Y-52648289D01*
X102947872Y-52648288D01*
X103007483Y-52641880D01*
X103081667Y-52614210D01*
X103151358Y-52609227D01*
X103168327Y-52614209D01*
X103221443Y-52634020D01*
X103242511Y-52641878D01*
X103242517Y-52641880D01*
X103302127Y-52648289D01*
X103847872Y-52648288D01*
X103907483Y-52641880D01*
X103938614Y-52630268D01*
X104008303Y-52625283D01*
X104045225Y-52639811D01*
X104067853Y-52653238D01*
X104106729Y-52669342D01*
X104157728Y-52687333D01*
X104300001Y-52707788D01*
X104300003Y-52707789D01*
X104850004Y-52707789D01*
X104903980Y-52704895D01*
X104903982Y-52704895D01*
X105043248Y-52669350D01*
X105043255Y-52669348D01*
X105082147Y-52653238D01*
X105176903Y-52601497D01*
X105282107Y-52503549D01*
X105326829Y-52428170D01*
X105326829Y-52428169D01*
X104800000Y-51901341D01*
X104512180Y-52189160D01*
X104450857Y-52222644D01*
X104381165Y-52217660D01*
X104325232Y-52175788D01*
X104300815Y-52110324D01*
X104300499Y-52101503D01*
X104300499Y-51745097D01*
X104320184Y-51678061D01*
X104336818Y-51657418D01*
X104446447Y-51547788D01*
X105153552Y-51547788D01*
X105153552Y-51547789D01*
X105720301Y-52114538D01*
X105732107Y-52103548D01*
X105805447Y-51979938D01*
X105805452Y-51979929D01*
X105821549Y-51941068D01*
X105839544Y-51890060D01*
X105859999Y-51747787D01*
X105860000Y-51747786D01*
X105860000Y-51197785D01*
X105857106Y-51143808D01*
X105857106Y-51143806D01*
X105821561Y-51004540D01*
X105821559Y-51004533D01*
X105805449Y-50965641D01*
X105780814Y-50920525D01*
X105153552Y-51547788D01*
X104446447Y-51547788D01*
X104336818Y-51438159D01*
X104303333Y-51376836D01*
X104300499Y-51350478D01*
X104300499Y-50994098D01*
X104320184Y-50927059D01*
X104372988Y-50881304D01*
X104442146Y-50871360D01*
X104505702Y-50900385D01*
X104512180Y-50906417D01*
X104800000Y-51194237D01*
X104800001Y-51194237D01*
X105349352Y-50644883D01*
X105347338Y-50638832D01*
X105302194Y-50618215D01*
X105292644Y-50609000D01*
X105205759Y-50515681D01*
X105082149Y-50442341D01*
X105082140Y-50442336D01*
X105043279Y-50426239D01*
X104992271Y-50408244D01*
X104849998Y-50387789D01*
X104299996Y-50387789D01*
X104246019Y-50390682D01*
X104246017Y-50390682D01*
X104106751Y-50426227D01*
X104067846Y-50442342D01*
X104040105Y-50457489D01*
X103971832Y-50472339D01*
X103937349Y-50464837D01*
X103907486Y-50453699D01*
X103907485Y-50453698D01*
X103907483Y-50453698D01*
X103847873Y-50447289D01*
X103847864Y-50447289D01*
X103395370Y-50447289D01*
X103328331Y-50427604D01*
X103282576Y-50374800D01*
X103273753Y-50347484D01*
X103269737Y-50327292D01*
X103244874Y-50267267D01*
X103209397Y-50181616D01*
X103209390Y-50181603D01*
X103121789Y-50050500D01*
X103121786Y-50050496D01*
X103010292Y-49939002D01*
X103010288Y-49938999D01*
X102879185Y-49851398D01*
X102879172Y-49851391D01*
X102733501Y-49791053D01*
X102733489Y-49791050D01*
X102578845Y-49760289D01*
X102578842Y-49760289D01*
X102421158Y-49760289D01*
X102421155Y-49760289D01*
X102266510Y-49791050D01*
X102266498Y-49791053D01*
X102120828Y-49851391D01*
X102120811Y-49851401D01*
X102114370Y-49855704D01*
X102047691Y-49876576D01*
X101980312Y-49858086D01*
X101976597Y-49855698D01*
X101879185Y-49790609D01*
X101879172Y-49790602D01*
X101733501Y-49730264D01*
X101733489Y-49730261D01*
X101578845Y-49699500D01*
X101578842Y-49699500D01*
X101421158Y-49699500D01*
X101421155Y-49699500D01*
X101266510Y-49730261D01*
X101266498Y-49730264D01*
X101120827Y-49790602D01*
X101120814Y-49790609D01*
X100989711Y-49878210D01*
X100989707Y-49878213D01*
X100878213Y-49989707D01*
X100878210Y-49989711D01*
X100790609Y-50120814D01*
X100790602Y-50120827D01*
X100730264Y-50266498D01*
X100730261Y-50266510D01*
X100699500Y-50421153D01*
X100699500Y-50556194D01*
X100679815Y-50623233D01*
X100627011Y-50668988D01*
X100606167Y-50676342D01*
X100506556Y-50701766D01*
X100506552Y-50701767D01*
X100467660Y-50717877D01*
X100372811Y-50769669D01*
X100267502Y-50867715D01*
X100194090Y-50991447D01*
X100194085Y-50991456D01*
X100177988Y-51030317D01*
X100177981Y-51030336D01*
X100177978Y-51030344D01*
X100163608Y-51071078D01*
X100159975Y-51081376D01*
X100139500Y-51223790D01*
X95500500Y-51223790D01*
X95500500Y-47504066D01*
X95500765Y-47495956D01*
X95504819Y-47434108D01*
X95517075Y-47247102D01*
X95519190Y-47231048D01*
X95567045Y-46990462D01*
X95571243Y-46974797D01*
X95594337Y-46906762D01*
X95650093Y-46742512D01*
X95656291Y-46727547D01*
X95764790Y-46507533D01*
X95772893Y-46493498D01*
X95909182Y-46289527D01*
X95919039Y-46276681D01*
X96080786Y-46092244D01*
X96092244Y-46080786D01*
X96276681Y-45919039D01*
X96289527Y-45909182D01*
X96493498Y-45772893D01*
X96507533Y-45764790D01*
X96727547Y-45656291D01*
X96742512Y-45650093D01*
X96969656Y-45572988D01*
X96974797Y-45571243D01*
X96990464Y-45567045D01*
X97231048Y-45519190D01*
X97247102Y-45517075D01*
X97495957Y-45500765D01*
X97504067Y-45500500D01*
X97565892Y-45500500D01*
X105068275Y-45500500D01*
X105135314Y-45520185D01*
G37*
%TD.AperFunction*%
%TD*%
M02*
