%TF.GenerationSoftware,KiCad,Pcbnew,9.0.4*%
%TF.CreationDate,2025-11-23T20:37:17+01:00*%
%TF.ProjectId,Bina_Badge,42696e61-5f42-4616-9467-652e6b696361,rev?*%
%TF.SameCoordinates,Original*%
%TF.FileFunction,Soldermask,Bot*%
%TF.FilePolarity,Negative*%
%FSLAX46Y46*%
G04 Gerber Fmt 4.6, Leading zero omitted, Abs format (unit mm)*
G04 Created by KiCad (PCBNEW 9.0.4) date 2025-11-23 20:37:17*
%MOMM*%
%LPD*%
G01*
G04 APERTURE LIST*
%ADD10C,0.300000*%
%ADD11C,0.250000*%
%ADD12C,0.650000*%
%ADD13O,1.000000X2.100000*%
%ADD14O,1.000000X1.600000*%
%ADD15C,0.600000*%
%ADD16C,0.200000*%
G04 APERTURE END LIST*
D10*
G36*
X142512350Y-67310001D02*
G01*
X138200487Y-67310001D01*
X137265875Y-67262497D01*
X136430428Y-67126177D01*
X135682099Y-66908221D01*
X134982913Y-66583166D01*
X134410410Y-66169008D01*
X133947609Y-65663559D01*
X133607100Y-65072647D01*
X133395043Y-64375635D01*
X133320149Y-63546951D01*
X133336936Y-63389659D01*
X135554727Y-63389659D01*
X135643480Y-64070221D01*
X135889491Y-64586014D01*
X136289897Y-64977970D01*
X136805958Y-65243295D01*
X137503898Y-65420920D01*
X138435571Y-65487460D01*
X140239304Y-65487460D01*
X140239304Y-61488472D01*
X138435571Y-61488472D01*
X137470637Y-61547784D01*
X136769075Y-61703360D01*
X136270236Y-61929575D01*
X135880693Y-62277379D01*
X135641562Y-62749827D01*
X135554727Y-63389659D01*
X133336936Y-63389659D01*
X133410351Y-62701779D01*
X133661897Y-62028732D01*
X134064723Y-61489327D01*
X134603345Y-61067068D01*
X135302995Y-60736986D01*
X136200993Y-60508814D01*
X136200993Y-60430168D01*
X135485381Y-60166420D01*
X134937199Y-59803713D01*
X134526342Y-59342799D01*
X134223415Y-58793853D01*
X134046014Y-58231936D01*
X134014638Y-57921183D01*
X136220655Y-57921183D01*
X136291257Y-58494410D01*
X136488381Y-58942026D01*
X136808791Y-59294072D01*
X137230153Y-59534453D01*
X137847931Y-59700295D01*
X138729639Y-59764240D01*
X140239304Y-59764240D01*
X140239304Y-56314065D01*
X138690316Y-56314065D01*
X137854552Y-56363305D01*
X137252051Y-56491849D01*
X136828453Y-56677377D01*
X136498854Y-56966138D01*
X136295187Y-57367551D01*
X136220655Y-57921183D01*
X134014638Y-57921183D01*
X133986932Y-57646776D01*
X134058782Y-56883693D01*
X134258666Y-56270427D01*
X134575068Y-55775510D01*
X135003721Y-55364691D01*
X135533522Y-55034567D01*
X136182186Y-54785594D01*
X137244875Y-54569457D01*
X138533879Y-54491525D01*
X142512350Y-54491525D01*
X142512350Y-67310001D01*
G37*
G36*
X130802616Y-67310001D02*
G01*
X130802616Y-65389153D01*
X127705494Y-65389153D01*
X127705494Y-56412373D01*
X130802616Y-56412373D01*
X130802616Y-54491525D01*
X122335327Y-54491525D01*
X122335327Y-56412373D01*
X125432448Y-56412373D01*
X125432448Y-65389153D01*
X122335327Y-65389153D01*
X122335327Y-67310001D01*
X130802616Y-67310001D01*
G37*
G36*
X119249318Y-67310001D02*
G01*
X119249318Y-54491525D01*
X116858303Y-54491525D01*
X113467968Y-61685088D01*
X112311356Y-64429156D01*
X112252371Y-64429156D01*
X112448987Y-62292886D01*
X112537385Y-61145148D01*
X112566101Y-60058308D01*
X112566101Y-54491525D01*
X110390508Y-54491525D01*
X110390508Y-67310001D01*
X112781523Y-67310001D01*
X116172713Y-60096776D01*
X117328470Y-57373225D01*
X117387455Y-57373225D01*
X117191694Y-59509495D01*
X117102920Y-60622506D01*
X117073725Y-61704749D01*
X117073725Y-67310001D01*
X119249318Y-67310001D01*
G37*
G36*
X108558565Y-67310001D02*
G01*
X106246195Y-67310001D01*
X105246876Y-63841019D01*
X100973481Y-63841019D01*
X99993823Y-67310001D01*
X97583146Y-67310001D01*
X99285703Y-62056947D01*
X101482971Y-62056947D01*
X104736530Y-62056947D01*
X104286024Y-60489153D01*
X103697888Y-58402464D01*
X103149074Y-56255936D01*
X103071283Y-56255936D01*
X102502807Y-58402464D01*
X101934332Y-60489153D01*
X101482971Y-62056947D01*
X99285703Y-62056947D01*
X101737717Y-54491525D01*
X104403994Y-54491525D01*
X108558565Y-67310001D01*
G37*
D11*
G36*
X141855893Y-47282287D02*
G01*
X141887211Y-47302252D01*
X141902867Y-47321643D01*
X141912492Y-47345449D01*
X141915910Y-47374975D01*
X141912492Y-47404544D01*
X141902867Y-47428391D01*
X141887211Y-47447821D01*
X141855898Y-47467737D01*
X141819312Y-47474382D01*
X141781640Y-47467654D01*
X141750741Y-47447821D01*
X141735481Y-47428442D01*
X141726065Y-47404596D01*
X141722714Y-47374975D01*
X141726064Y-47345397D01*
X141735481Y-47321592D01*
X141750741Y-47302252D01*
X141781645Y-47282371D01*
X141819312Y-47275629D01*
X141855893Y-47282287D01*
G37*
G36*
X141879256Y-46927714D02*
G01*
X141932316Y-46941825D01*
X141979710Y-46964784D01*
X142022357Y-46996876D01*
X142060807Y-47039019D01*
X142097065Y-47098380D01*
X142124873Y-47172844D01*
X142143081Y-47265638D01*
X142149711Y-47380593D01*
X142143168Y-47494571D01*
X142125087Y-47587889D01*
X142097281Y-47663968D01*
X142060807Y-47725708D01*
X142022099Y-47769867D01*
X141979308Y-47803319D01*
X141931911Y-47827144D01*
X141878992Y-47841739D01*
X141819312Y-47846791D01*
X141759604Y-47841738D01*
X141706673Y-47827140D01*
X141659277Y-47803313D01*
X141616500Y-47769862D01*
X141577817Y-47725708D01*
X141541343Y-47663968D01*
X141513537Y-47587889D01*
X141495456Y-47494571D01*
X141488912Y-47380593D01*
X141634481Y-47380593D01*
X141638715Y-47475671D01*
X141649996Y-47548073D01*
X141666518Y-47602169D01*
X141686993Y-47641749D01*
X141716465Y-47677836D01*
X141747891Y-47701975D01*
X141781814Y-47716068D01*
X141819312Y-47720823D01*
X141856778Y-47716070D01*
X141890680Y-47701979D01*
X141922098Y-47677840D01*
X141951569Y-47641749D01*
X141972045Y-47602169D01*
X141988567Y-47548073D01*
X141999847Y-47475671D01*
X142004082Y-47380593D01*
X142000986Y-47299030D01*
X141992652Y-47235185D01*
X141980329Y-47185992D01*
X141961070Y-47139320D01*
X141939027Y-47105158D01*
X141914506Y-47081029D01*
X141885160Y-47063072D01*
X141853679Y-47052404D01*
X141819312Y-47048789D01*
X141784906Y-47052407D01*
X141753426Y-47063077D01*
X141724118Y-47081029D01*
X141699597Y-47105158D01*
X141677554Y-47139320D01*
X141658295Y-47185992D01*
X141645939Y-47235188D01*
X141637584Y-47299032D01*
X141634481Y-47380593D01*
X141488912Y-47380593D01*
X141495543Y-47265638D01*
X141513751Y-47172844D01*
X141541559Y-47098380D01*
X141577817Y-47039019D01*
X141616243Y-46996881D01*
X141658875Y-46964790D01*
X141706268Y-46941829D01*
X141759340Y-46927715D01*
X141819312Y-46922821D01*
X141879256Y-46927714D01*
G37*
G36*
X141276849Y-47830000D02*
G01*
X141276849Y-47698414D01*
X141029064Y-47698414D01*
X141029064Y-47113208D01*
X141226473Y-47113208D01*
X141226473Y-47012397D01*
X141146298Y-46998013D01*
X141087866Y-46983026D01*
X141034731Y-46963625D01*
X140985650Y-46939612D01*
X140868047Y-46939612D01*
X140868047Y-47698414D01*
X140649694Y-47698414D01*
X140649694Y-47830000D01*
X141276849Y-47830000D01*
G37*
G36*
X140177457Y-47282287D02*
G01*
X140208775Y-47302252D01*
X140224430Y-47321643D01*
X140234055Y-47345449D01*
X140237473Y-47374975D01*
X140234055Y-47404544D01*
X140224430Y-47428391D01*
X140208775Y-47447821D01*
X140177461Y-47467737D01*
X140140875Y-47474382D01*
X140103203Y-47467654D01*
X140072304Y-47447821D01*
X140057045Y-47428442D01*
X140047628Y-47404596D01*
X140044277Y-47374975D01*
X140047628Y-47345397D01*
X140057044Y-47321592D01*
X140072304Y-47302252D01*
X140103208Y-47282371D01*
X140140875Y-47275629D01*
X140177457Y-47282287D01*
G37*
G36*
X140200819Y-46927714D02*
G01*
X140253879Y-46941825D01*
X140301273Y-46964784D01*
X140343920Y-46996876D01*
X140382370Y-47039019D01*
X140418628Y-47098380D01*
X140446436Y-47172844D01*
X140464644Y-47265638D01*
X140471275Y-47380593D01*
X140464731Y-47494571D01*
X140446650Y-47587889D01*
X140418844Y-47663968D01*
X140382370Y-47725708D01*
X140343662Y-47769867D01*
X140300871Y-47803319D01*
X140253474Y-47827144D01*
X140200555Y-47841739D01*
X140140875Y-47846791D01*
X140081167Y-47841738D01*
X140028236Y-47827140D01*
X139980841Y-47803313D01*
X139938063Y-47769862D01*
X139899380Y-47725708D01*
X139862906Y-47663968D01*
X139835100Y-47587889D01*
X139817019Y-47494571D01*
X139810476Y-47380593D01*
X139956044Y-47380593D01*
X139960279Y-47475671D01*
X139971559Y-47548073D01*
X139988081Y-47602169D01*
X140008557Y-47641749D01*
X140038028Y-47677836D01*
X140069455Y-47701975D01*
X140103377Y-47716068D01*
X140140875Y-47720823D01*
X140178341Y-47716070D01*
X140212244Y-47701979D01*
X140243661Y-47677840D01*
X140273133Y-47641749D01*
X140293608Y-47602169D01*
X140310130Y-47548073D01*
X140321410Y-47475671D01*
X140325645Y-47380593D01*
X140322549Y-47299030D01*
X140314216Y-47235185D01*
X140301892Y-47185992D01*
X140282633Y-47139320D01*
X140260590Y-47105158D01*
X140236069Y-47081029D01*
X140206723Y-47063072D01*
X140175242Y-47052404D01*
X140140875Y-47048789D01*
X140106469Y-47052407D01*
X140074990Y-47063077D01*
X140045681Y-47081029D01*
X140021160Y-47105158D01*
X139999117Y-47139320D01*
X139979858Y-47185992D01*
X139967502Y-47235188D01*
X139959148Y-47299032D01*
X139956044Y-47380593D01*
X139810476Y-47380593D01*
X139817106Y-47265638D01*
X139835314Y-47172844D01*
X139863122Y-47098380D01*
X139899380Y-47039019D01*
X139937806Y-46996881D01*
X139980438Y-46964790D01*
X140027831Y-46941829D01*
X140080903Y-46927715D01*
X140140875Y-46922821D01*
X140200819Y-46927714D01*
G37*
G36*
X139598412Y-47830000D02*
G01*
X139598412Y-47698414D01*
X139350627Y-47698414D01*
X139350627Y-47113208D01*
X139548037Y-47113208D01*
X139548037Y-47012397D01*
X139467861Y-46998013D01*
X139409429Y-46983026D01*
X139356294Y-46963625D01*
X139307213Y-46939612D01*
X139189610Y-46939612D01*
X139189610Y-47698414D01*
X138971257Y-47698414D01*
X138971257Y-47830000D01*
X139598412Y-47830000D01*
G37*
G36*
X138499020Y-47282287D02*
G01*
X138530338Y-47302252D01*
X138545994Y-47321643D01*
X138555618Y-47345449D01*
X138559036Y-47374975D01*
X138555618Y-47404544D01*
X138545993Y-47428391D01*
X138530338Y-47447821D01*
X138499024Y-47467737D01*
X138462438Y-47474382D01*
X138424766Y-47467654D01*
X138393867Y-47447821D01*
X138378608Y-47428442D01*
X138369191Y-47404596D01*
X138365840Y-47374975D01*
X138369191Y-47345397D01*
X138378607Y-47321592D01*
X138393867Y-47302252D01*
X138424771Y-47282371D01*
X138462438Y-47275629D01*
X138499020Y-47282287D01*
G37*
G36*
X138522382Y-46927714D02*
G01*
X138575442Y-46941825D01*
X138622836Y-46964784D01*
X138665483Y-46996876D01*
X138703933Y-47039019D01*
X138740191Y-47098380D01*
X138768000Y-47172844D01*
X138786207Y-47265638D01*
X138792838Y-47380593D01*
X138786294Y-47494571D01*
X138768213Y-47587889D01*
X138740407Y-47663968D01*
X138703933Y-47725708D01*
X138665226Y-47769867D01*
X138622434Y-47803319D01*
X138575037Y-47827144D01*
X138522118Y-47841739D01*
X138462438Y-47846791D01*
X138402730Y-47841738D01*
X138349799Y-47827140D01*
X138302404Y-47803313D01*
X138259626Y-47769862D01*
X138220943Y-47725708D01*
X138184469Y-47663968D01*
X138156663Y-47587889D01*
X138138582Y-47494571D01*
X138132039Y-47380593D01*
X138277607Y-47380593D01*
X138281842Y-47475671D01*
X138293123Y-47548073D01*
X138309644Y-47602169D01*
X138330120Y-47641749D01*
X138359591Y-47677836D01*
X138391018Y-47701975D01*
X138424940Y-47716068D01*
X138462438Y-47720823D01*
X138499904Y-47716070D01*
X138533807Y-47701979D01*
X138565224Y-47677840D01*
X138594696Y-47641749D01*
X138615171Y-47602169D01*
X138631693Y-47548073D01*
X138642974Y-47475671D01*
X138647208Y-47380593D01*
X138644112Y-47299030D01*
X138635779Y-47235185D01*
X138623455Y-47185992D01*
X138604196Y-47139320D01*
X138582153Y-47105158D01*
X138557632Y-47081029D01*
X138528286Y-47063072D01*
X138496806Y-47052404D01*
X138462438Y-47048789D01*
X138428032Y-47052407D01*
X138396553Y-47063077D01*
X138367245Y-47081029D01*
X138342723Y-47105158D01*
X138320680Y-47139320D01*
X138301421Y-47185992D01*
X138289066Y-47235188D01*
X138280711Y-47299032D01*
X138277607Y-47380593D01*
X138132039Y-47380593D01*
X138138669Y-47265638D01*
X138156877Y-47172844D01*
X138184685Y-47098380D01*
X138220943Y-47039019D01*
X138259369Y-46996881D01*
X138302002Y-46964790D01*
X138349394Y-46941829D01*
X138402466Y-46927715D01*
X138462438Y-46922821D01*
X138522382Y-46927714D01*
G37*
G36*
X137919975Y-47830000D02*
G01*
X137919975Y-47698414D01*
X137672191Y-47698414D01*
X137672191Y-47113208D01*
X137869600Y-47113208D01*
X137869600Y-47012397D01*
X137789425Y-46998013D01*
X137730992Y-46983026D01*
X137677857Y-46963625D01*
X137628776Y-46939612D01*
X137511173Y-46939612D01*
X137511173Y-47698414D01*
X137292820Y-47698414D01*
X137292820Y-47830000D01*
X137919975Y-47830000D01*
G37*
G36*
X136820583Y-47282287D02*
G01*
X136851901Y-47302252D01*
X136867557Y-47321643D01*
X136877182Y-47345449D01*
X136880599Y-47374975D01*
X136877182Y-47404544D01*
X136867556Y-47428391D01*
X136851901Y-47447821D01*
X136820588Y-47467737D01*
X136784001Y-47474382D01*
X136746330Y-47467654D01*
X136715430Y-47447821D01*
X136700171Y-47428442D01*
X136690754Y-47404596D01*
X136687403Y-47374975D01*
X136690754Y-47345397D01*
X136700170Y-47321592D01*
X136715430Y-47302252D01*
X136746334Y-47282371D01*
X136784001Y-47275629D01*
X136820583Y-47282287D01*
G37*
G36*
X136843945Y-46927714D02*
G01*
X136897005Y-46941825D01*
X136944399Y-46964784D01*
X136987046Y-46996876D01*
X137025497Y-47039019D01*
X137061755Y-47098380D01*
X137089563Y-47172844D01*
X137107770Y-47265638D01*
X137114401Y-47380593D01*
X137107858Y-47494571D01*
X137089776Y-47587889D01*
X137061970Y-47663968D01*
X137025497Y-47725708D01*
X136986789Y-47769867D01*
X136943998Y-47803319D01*
X136896600Y-47827144D01*
X136843682Y-47841739D01*
X136784001Y-47846791D01*
X136724293Y-47841738D01*
X136671362Y-47827140D01*
X136623967Y-47803313D01*
X136581189Y-47769862D01*
X136542506Y-47725708D01*
X136506032Y-47663968D01*
X136478227Y-47587889D01*
X136460145Y-47494571D01*
X136453602Y-47380593D01*
X136599171Y-47380593D01*
X136603405Y-47475671D01*
X136614686Y-47548073D01*
X136631207Y-47602169D01*
X136651683Y-47641749D01*
X136681154Y-47677836D01*
X136712581Y-47701975D01*
X136746503Y-47716068D01*
X136784001Y-47720823D01*
X136821467Y-47716070D01*
X136855370Y-47701979D01*
X136886787Y-47677840D01*
X136916259Y-47641749D01*
X136936735Y-47602169D01*
X136953256Y-47548073D01*
X136964537Y-47475671D01*
X136968771Y-47380593D01*
X136965676Y-47299030D01*
X136957342Y-47235185D01*
X136945018Y-47185992D01*
X136925759Y-47139320D01*
X136903716Y-47105158D01*
X136879195Y-47081029D01*
X136849849Y-47063072D01*
X136818369Y-47052404D01*
X136784001Y-47048789D01*
X136749595Y-47052407D01*
X136718116Y-47063077D01*
X136688808Y-47081029D01*
X136664287Y-47105158D01*
X136642244Y-47139320D01*
X136622984Y-47185992D01*
X136610629Y-47235188D01*
X136602274Y-47299032D01*
X136599171Y-47380593D01*
X136453602Y-47380593D01*
X136460232Y-47265638D01*
X136478440Y-47172844D01*
X136506248Y-47098380D01*
X136542506Y-47039019D01*
X136580932Y-46996881D01*
X136623565Y-46964790D01*
X136670957Y-46941829D01*
X136724029Y-46927715D01*
X136784001Y-46922821D01*
X136843945Y-46927714D01*
G37*
G36*
X136241538Y-47830000D02*
G01*
X136241538Y-47698414D01*
X135993754Y-47698414D01*
X135993754Y-47113208D01*
X136191163Y-47113208D01*
X136191163Y-47012397D01*
X136110988Y-46998013D01*
X136052555Y-46983026D01*
X135999421Y-46963625D01*
X135950339Y-46939612D01*
X135832737Y-46939612D01*
X135832737Y-47698414D01*
X135614383Y-47698414D01*
X135614383Y-47830000D01*
X136241538Y-47830000D01*
G37*
G36*
X134302928Y-47282287D02*
G01*
X134334246Y-47302252D01*
X134349901Y-47321643D01*
X134359526Y-47345449D01*
X134362944Y-47374975D01*
X134359526Y-47404544D01*
X134349901Y-47428391D01*
X134334246Y-47447821D01*
X134302932Y-47467737D01*
X134266346Y-47474382D01*
X134228674Y-47467654D01*
X134197775Y-47447821D01*
X134182516Y-47428442D01*
X134173099Y-47404596D01*
X134169748Y-47374975D01*
X134173099Y-47345397D01*
X134182515Y-47321592D01*
X134197775Y-47302252D01*
X134228679Y-47282371D01*
X134266346Y-47275629D01*
X134302928Y-47282287D01*
G37*
G36*
X134326290Y-46927714D02*
G01*
X134379350Y-46941825D01*
X134426744Y-46964784D01*
X134469391Y-46996876D01*
X134507841Y-47039019D01*
X134544099Y-47098380D01*
X134571907Y-47172844D01*
X134590115Y-47265638D01*
X134596746Y-47380593D01*
X134590202Y-47494571D01*
X134572121Y-47587889D01*
X134544315Y-47663968D01*
X134507841Y-47725708D01*
X134469133Y-47769867D01*
X134426342Y-47803319D01*
X134378945Y-47827144D01*
X134326026Y-47841739D01*
X134266346Y-47846791D01*
X134206638Y-47841738D01*
X134153707Y-47827140D01*
X134106312Y-47803313D01*
X134063534Y-47769862D01*
X134024851Y-47725708D01*
X133988377Y-47663968D01*
X133960571Y-47587889D01*
X133942490Y-47494571D01*
X133935947Y-47380593D01*
X134081515Y-47380593D01*
X134085750Y-47475671D01*
X134097030Y-47548073D01*
X134113552Y-47602169D01*
X134134028Y-47641749D01*
X134163499Y-47677836D01*
X134194926Y-47701975D01*
X134228848Y-47716068D01*
X134266346Y-47720823D01*
X134303812Y-47716070D01*
X134337715Y-47701979D01*
X134369132Y-47677840D01*
X134398604Y-47641749D01*
X134419079Y-47602169D01*
X134435601Y-47548073D01*
X134446882Y-47475671D01*
X134451116Y-47380593D01*
X134448020Y-47299030D01*
X134439687Y-47235185D01*
X134427363Y-47185992D01*
X134408104Y-47139320D01*
X134386061Y-47105158D01*
X134361540Y-47081029D01*
X134332194Y-47063072D01*
X134300713Y-47052404D01*
X134266346Y-47048789D01*
X134231940Y-47052407D01*
X134200461Y-47063077D01*
X134171152Y-47081029D01*
X134146631Y-47105158D01*
X134124588Y-47139320D01*
X134105329Y-47185992D01*
X134092974Y-47235188D01*
X134084619Y-47299032D01*
X134081515Y-47380593D01*
X133935947Y-47380593D01*
X133942577Y-47265638D01*
X133960785Y-47172844D01*
X133988593Y-47098380D01*
X134024851Y-47039019D01*
X134063277Y-46996881D01*
X134105909Y-46964790D01*
X134153302Y-46941829D01*
X134206374Y-46927715D01*
X134266346Y-46922821D01*
X134326290Y-46927714D01*
G37*
G36*
X133463709Y-47282287D02*
G01*
X133495027Y-47302252D01*
X133510683Y-47321643D01*
X133520308Y-47345449D01*
X133523726Y-47374975D01*
X133520308Y-47404544D01*
X133510682Y-47428391D01*
X133495027Y-47447821D01*
X133463714Y-47467737D01*
X133427128Y-47474382D01*
X133389456Y-47467654D01*
X133358557Y-47447821D01*
X133343297Y-47428442D01*
X133333880Y-47404596D01*
X133330530Y-47374975D01*
X133333880Y-47345397D01*
X133343297Y-47321592D01*
X133358557Y-47302252D01*
X133389461Y-47282371D01*
X133427128Y-47275629D01*
X133463709Y-47282287D01*
G37*
G36*
X133487071Y-46927714D02*
G01*
X133540131Y-46941825D01*
X133587526Y-46964784D01*
X133630172Y-46996876D01*
X133668623Y-47039019D01*
X133704881Y-47098380D01*
X133732689Y-47172844D01*
X133750897Y-47265638D01*
X133757527Y-47380593D01*
X133750984Y-47494571D01*
X133732902Y-47587889D01*
X133705097Y-47663968D01*
X133668623Y-47725708D01*
X133629915Y-47769867D01*
X133587124Y-47803319D01*
X133539727Y-47827144D01*
X133486808Y-47841739D01*
X133427128Y-47846791D01*
X133367419Y-47841738D01*
X133314489Y-47827140D01*
X133267093Y-47803313D01*
X133224316Y-47769862D01*
X133185633Y-47725708D01*
X133149159Y-47663968D01*
X133121353Y-47587889D01*
X133103271Y-47494571D01*
X133096728Y-47380593D01*
X133242297Y-47380593D01*
X133246531Y-47475671D01*
X133257812Y-47548073D01*
X133274333Y-47602169D01*
X133294809Y-47641749D01*
X133324281Y-47677836D01*
X133355707Y-47701975D01*
X133389630Y-47716068D01*
X133427128Y-47720823D01*
X133464594Y-47716070D01*
X133498496Y-47701979D01*
X133529913Y-47677840D01*
X133559385Y-47641749D01*
X133579861Y-47602169D01*
X133596382Y-47548073D01*
X133607663Y-47475671D01*
X133611897Y-47380593D01*
X133608802Y-47299030D01*
X133600468Y-47235185D01*
X133588145Y-47185992D01*
X133568886Y-47139320D01*
X133546843Y-47105158D01*
X133522321Y-47081029D01*
X133492976Y-47063072D01*
X133461495Y-47052404D01*
X133427128Y-47048789D01*
X133392722Y-47052407D01*
X133361242Y-47063077D01*
X133331934Y-47081029D01*
X133307413Y-47105158D01*
X133285370Y-47139320D01*
X133266111Y-47185992D01*
X133253755Y-47235188D01*
X133245400Y-47299032D01*
X133242297Y-47380593D01*
X133096728Y-47380593D01*
X133103359Y-47265638D01*
X133121566Y-47172844D01*
X133149374Y-47098380D01*
X133185633Y-47039019D01*
X133224058Y-46996881D01*
X133266691Y-46964790D01*
X133314084Y-46941829D01*
X133367156Y-46927715D01*
X133427128Y-46922821D01*
X133487071Y-46927714D01*
G37*
G36*
X132884664Y-47830000D02*
G01*
X132884664Y-47698414D01*
X132636880Y-47698414D01*
X132636880Y-47113208D01*
X132834289Y-47113208D01*
X132834289Y-47012397D01*
X132754114Y-46998013D01*
X132695681Y-46983026D01*
X132642547Y-46963625D01*
X132593466Y-46939612D01*
X132475863Y-46939612D01*
X132475863Y-47698414D01*
X132257510Y-47698414D01*
X132257510Y-47830000D01*
X132884664Y-47830000D01*
G37*
G36*
X131785272Y-47282287D02*
G01*
X131816590Y-47302252D01*
X131832246Y-47321643D01*
X131841871Y-47345449D01*
X131845289Y-47374975D01*
X131841871Y-47404544D01*
X131832245Y-47428391D01*
X131816590Y-47447821D01*
X131785277Y-47467737D01*
X131748691Y-47474382D01*
X131711019Y-47467654D01*
X131680120Y-47447821D01*
X131664860Y-47428442D01*
X131655443Y-47404596D01*
X131652093Y-47374975D01*
X131655443Y-47345397D01*
X131664860Y-47321592D01*
X131680120Y-47302252D01*
X131711024Y-47282371D01*
X131748691Y-47275629D01*
X131785272Y-47282287D01*
G37*
G36*
X131808635Y-46927714D02*
G01*
X131861694Y-46941825D01*
X131909089Y-46964784D01*
X131951736Y-46996876D01*
X131990186Y-47039019D01*
X132026444Y-47098380D01*
X132054252Y-47172844D01*
X132072460Y-47265638D01*
X132079090Y-47380593D01*
X132072547Y-47494571D01*
X132054466Y-47587889D01*
X132026660Y-47663968D01*
X131990186Y-47725708D01*
X131951478Y-47769867D01*
X131908687Y-47803319D01*
X131861290Y-47827144D01*
X131808371Y-47841739D01*
X131748691Y-47846791D01*
X131688983Y-47841738D01*
X131636052Y-47827140D01*
X131588656Y-47803313D01*
X131545879Y-47769862D01*
X131507196Y-47725708D01*
X131470722Y-47663968D01*
X131442916Y-47587889D01*
X131424835Y-47494571D01*
X131418291Y-47380593D01*
X131563860Y-47380593D01*
X131568094Y-47475671D01*
X131579375Y-47548073D01*
X131595897Y-47602169D01*
X131616372Y-47641749D01*
X131645844Y-47677836D01*
X131677270Y-47701975D01*
X131711193Y-47716068D01*
X131748691Y-47720823D01*
X131786157Y-47716070D01*
X131820059Y-47701979D01*
X131851476Y-47677840D01*
X131880948Y-47641749D01*
X131901424Y-47602169D01*
X131917946Y-47548073D01*
X131929226Y-47475671D01*
X131933461Y-47380593D01*
X131930365Y-47299030D01*
X131922031Y-47235185D01*
X131909708Y-47185992D01*
X131890449Y-47139320D01*
X131868406Y-47105158D01*
X131843884Y-47081029D01*
X131814539Y-47063072D01*
X131783058Y-47052404D01*
X131748691Y-47048789D01*
X131714285Y-47052407D01*
X131682805Y-47063077D01*
X131653497Y-47081029D01*
X131628976Y-47105158D01*
X131606933Y-47139320D01*
X131587674Y-47185992D01*
X131575318Y-47235188D01*
X131566963Y-47299032D01*
X131563860Y-47380593D01*
X131418291Y-47380593D01*
X131424922Y-47265638D01*
X131443129Y-47172844D01*
X131470938Y-47098380D01*
X131507196Y-47039019D01*
X131545621Y-46996881D01*
X131588254Y-46964790D01*
X131635647Y-46941829D01*
X131688719Y-46927715D01*
X131748691Y-46922821D01*
X131808635Y-46927714D01*
G37*
G36*
X130946054Y-47282287D02*
G01*
X130977372Y-47302252D01*
X130993028Y-47321643D01*
X131002653Y-47345449D01*
X131006070Y-47374975D01*
X131002653Y-47404544D01*
X130993027Y-47428391D01*
X130977372Y-47447821D01*
X130946059Y-47467737D01*
X130909472Y-47474382D01*
X130871801Y-47467654D01*
X130840901Y-47447821D01*
X130825642Y-47428442D01*
X130816225Y-47404596D01*
X130812874Y-47374975D01*
X130816225Y-47345397D01*
X130825641Y-47321592D01*
X130840901Y-47302252D01*
X130871805Y-47282371D01*
X130909472Y-47275629D01*
X130946054Y-47282287D01*
G37*
G36*
X130969416Y-46927714D02*
G01*
X131022476Y-46941825D01*
X131069871Y-46964784D01*
X131112517Y-46996876D01*
X131150968Y-47039019D01*
X131187226Y-47098380D01*
X131215034Y-47172844D01*
X131233241Y-47265638D01*
X131239872Y-47380593D01*
X131233329Y-47494571D01*
X131215247Y-47587889D01*
X131187442Y-47663968D01*
X131150968Y-47725708D01*
X131112260Y-47769867D01*
X131069469Y-47803319D01*
X131022071Y-47827144D01*
X130969153Y-47841739D01*
X130909472Y-47846791D01*
X130849764Y-47841738D01*
X130796833Y-47827140D01*
X130749438Y-47803313D01*
X130706660Y-47769862D01*
X130667977Y-47725708D01*
X130631503Y-47663968D01*
X130603698Y-47587889D01*
X130585616Y-47494571D01*
X130579073Y-47380593D01*
X130724642Y-47380593D01*
X130728876Y-47475671D01*
X130740157Y-47548073D01*
X130756678Y-47602169D01*
X130777154Y-47641749D01*
X130806625Y-47677836D01*
X130838052Y-47701975D01*
X130871974Y-47716068D01*
X130909472Y-47720823D01*
X130946938Y-47716070D01*
X130980841Y-47701979D01*
X131012258Y-47677840D01*
X131041730Y-47641749D01*
X131062206Y-47602169D01*
X131078727Y-47548073D01*
X131090008Y-47475671D01*
X131094242Y-47380593D01*
X131091147Y-47299030D01*
X131082813Y-47235185D01*
X131070490Y-47185992D01*
X131051230Y-47139320D01*
X131029187Y-47105158D01*
X131004666Y-47081029D01*
X130975321Y-47063072D01*
X130943840Y-47052404D01*
X130909472Y-47048789D01*
X130875066Y-47052407D01*
X130843587Y-47063077D01*
X130814279Y-47081029D01*
X130789758Y-47105158D01*
X130767715Y-47139320D01*
X130748455Y-47185992D01*
X130736100Y-47235188D01*
X130727745Y-47299032D01*
X130724642Y-47380593D01*
X130579073Y-47380593D01*
X130585703Y-47265638D01*
X130603911Y-47172844D01*
X130631719Y-47098380D01*
X130667977Y-47039019D01*
X130706403Y-46996881D01*
X130749036Y-46964790D01*
X130796428Y-46941829D01*
X130849500Y-46927715D01*
X130909472Y-46922821D01*
X130969416Y-46927714D01*
G37*
G36*
X130106836Y-47282287D02*
G01*
X130138154Y-47302252D01*
X130153809Y-47321643D01*
X130163434Y-47345449D01*
X130166852Y-47374975D01*
X130163434Y-47404544D01*
X130153809Y-47428391D01*
X130138154Y-47447821D01*
X130106840Y-47467737D01*
X130070254Y-47474382D01*
X130032582Y-47467654D01*
X130001683Y-47447821D01*
X129986424Y-47428442D01*
X129977007Y-47404596D01*
X129973656Y-47374975D01*
X129977006Y-47345397D01*
X129986423Y-47321592D01*
X130001683Y-47302252D01*
X130032587Y-47282371D01*
X130070254Y-47275629D01*
X130106836Y-47282287D01*
G37*
G36*
X130130198Y-46927714D02*
G01*
X130183258Y-46941825D01*
X130230652Y-46964784D01*
X130273299Y-46996876D01*
X130311749Y-47039019D01*
X130348007Y-47098380D01*
X130375815Y-47172844D01*
X130394023Y-47265638D01*
X130400654Y-47380593D01*
X130394110Y-47494571D01*
X130376029Y-47587889D01*
X130348223Y-47663968D01*
X130311749Y-47725708D01*
X130273041Y-47769867D01*
X130230250Y-47803319D01*
X130182853Y-47827144D01*
X130129934Y-47841739D01*
X130070254Y-47846791D01*
X130010546Y-47841738D01*
X129957615Y-47827140D01*
X129910219Y-47803313D01*
X129867442Y-47769862D01*
X129828759Y-47725708D01*
X129792285Y-47663968D01*
X129764479Y-47587889D01*
X129746398Y-47494571D01*
X129739854Y-47380593D01*
X129885423Y-47380593D01*
X129889658Y-47475671D01*
X129900938Y-47548073D01*
X129917460Y-47602169D01*
X129937935Y-47641749D01*
X129967407Y-47677836D01*
X129998833Y-47701975D01*
X130032756Y-47716068D01*
X130070254Y-47720823D01*
X130107720Y-47716070D01*
X130141623Y-47701979D01*
X130173040Y-47677840D01*
X130202512Y-47641749D01*
X130222987Y-47602169D01*
X130239509Y-47548073D01*
X130250789Y-47475671D01*
X130255024Y-47380593D01*
X130251928Y-47299030D01*
X130243594Y-47235185D01*
X130231271Y-47185992D01*
X130212012Y-47139320D01*
X130189969Y-47105158D01*
X130165448Y-47081029D01*
X130136102Y-47063072D01*
X130104621Y-47052404D01*
X130070254Y-47048789D01*
X130035848Y-47052407D01*
X130004368Y-47063077D01*
X129975060Y-47081029D01*
X129950539Y-47105158D01*
X129928496Y-47139320D01*
X129909237Y-47185992D01*
X129896881Y-47235188D01*
X129888527Y-47299032D01*
X129885423Y-47380593D01*
X129739854Y-47380593D01*
X129746485Y-47265638D01*
X129764693Y-47172844D01*
X129792501Y-47098380D01*
X129828759Y-47039019D01*
X129867185Y-46996881D01*
X129909817Y-46964790D01*
X129957210Y-46941829D01*
X130010282Y-46927715D01*
X130070254Y-46922821D01*
X130130198Y-46927714D01*
G37*
G36*
X129267617Y-47282287D02*
G01*
X129298935Y-47302252D01*
X129314591Y-47321643D01*
X129324216Y-47345449D01*
X129327634Y-47374975D01*
X129324216Y-47404544D01*
X129314590Y-47428391D01*
X129298935Y-47447821D01*
X129267622Y-47467737D01*
X129231036Y-47474382D01*
X129193364Y-47467654D01*
X129162464Y-47447821D01*
X129147205Y-47428442D01*
X129137788Y-47404596D01*
X129134438Y-47374975D01*
X129137788Y-47345397D01*
X129147204Y-47321592D01*
X129162464Y-47302252D01*
X129193369Y-47282371D01*
X129231036Y-47275629D01*
X129267617Y-47282287D01*
G37*
G36*
X129290979Y-46927714D02*
G01*
X129344039Y-46941825D01*
X129391434Y-46964784D01*
X129434080Y-46996876D01*
X129472531Y-47039019D01*
X129508789Y-47098380D01*
X129536597Y-47172844D01*
X129554805Y-47265638D01*
X129561435Y-47380593D01*
X129554892Y-47494571D01*
X129536810Y-47587889D01*
X129509005Y-47663968D01*
X129472531Y-47725708D01*
X129433823Y-47769867D01*
X129391032Y-47803319D01*
X129343635Y-47827144D01*
X129290716Y-47841739D01*
X129231036Y-47846791D01*
X129171327Y-47841738D01*
X129118396Y-47827140D01*
X129071001Y-47803313D01*
X129028224Y-47769862D01*
X128989540Y-47725708D01*
X128953067Y-47663968D01*
X128925261Y-47587889D01*
X128907179Y-47494571D01*
X128900636Y-47380593D01*
X129046205Y-47380593D01*
X129050439Y-47475671D01*
X129061720Y-47548073D01*
X129078241Y-47602169D01*
X129098717Y-47641749D01*
X129128188Y-47677836D01*
X129159615Y-47701975D01*
X129193538Y-47716068D01*
X129231036Y-47720823D01*
X129268502Y-47716070D01*
X129302404Y-47701979D01*
X129333821Y-47677840D01*
X129363293Y-47641749D01*
X129383769Y-47602169D01*
X129400290Y-47548073D01*
X129411571Y-47475671D01*
X129415805Y-47380593D01*
X129412710Y-47299030D01*
X129404376Y-47235185D01*
X129392053Y-47185992D01*
X129372793Y-47139320D01*
X129350750Y-47105158D01*
X129326229Y-47081029D01*
X129296884Y-47063072D01*
X129265403Y-47052404D01*
X129231036Y-47048789D01*
X129196629Y-47052407D01*
X129165150Y-47063077D01*
X129135842Y-47081029D01*
X129111321Y-47105158D01*
X129089278Y-47139320D01*
X129070018Y-47185992D01*
X129057663Y-47235188D01*
X129049308Y-47299032D01*
X129046205Y-47380593D01*
X128900636Y-47380593D01*
X128907267Y-47265638D01*
X128925474Y-47172844D01*
X128953282Y-47098380D01*
X128989540Y-47039019D01*
X129027966Y-46996881D01*
X129070599Y-46964790D01*
X129117992Y-46941829D01*
X129171063Y-46927715D01*
X129231036Y-46922821D01*
X129290979Y-46927714D01*
G37*
G36*
X128428399Y-47282287D02*
G01*
X128459717Y-47302252D01*
X128475372Y-47321643D01*
X128484997Y-47345449D01*
X128488415Y-47374975D01*
X128484997Y-47404544D01*
X128475372Y-47428391D01*
X128459717Y-47447821D01*
X128428403Y-47467737D01*
X128391817Y-47474382D01*
X128354145Y-47467654D01*
X128323246Y-47447821D01*
X128307987Y-47428442D01*
X128298570Y-47404596D01*
X128295219Y-47374975D01*
X128298570Y-47345397D01*
X128307986Y-47321592D01*
X128323246Y-47302252D01*
X128354150Y-47282371D01*
X128391817Y-47275629D01*
X128428399Y-47282287D01*
G37*
G36*
X128451761Y-46927714D02*
G01*
X128504821Y-46941825D01*
X128552215Y-46964784D01*
X128594862Y-46996876D01*
X128633312Y-47039019D01*
X128669570Y-47098380D01*
X128697379Y-47172844D01*
X128715586Y-47265638D01*
X128722217Y-47380593D01*
X128715673Y-47494571D01*
X128697592Y-47587889D01*
X128669786Y-47663968D01*
X128633312Y-47725708D01*
X128594605Y-47769867D01*
X128551813Y-47803319D01*
X128504416Y-47827144D01*
X128451497Y-47841739D01*
X128391817Y-47846791D01*
X128332109Y-47841738D01*
X128279178Y-47827140D01*
X128231783Y-47803313D01*
X128189005Y-47769862D01*
X128150322Y-47725708D01*
X128113848Y-47663968D01*
X128086042Y-47587889D01*
X128067961Y-47494571D01*
X128061418Y-47380593D01*
X128206986Y-47380593D01*
X128211221Y-47475671D01*
X128222501Y-47548073D01*
X128239023Y-47602169D01*
X128259499Y-47641749D01*
X128288970Y-47677836D01*
X128320397Y-47701975D01*
X128354319Y-47716068D01*
X128391817Y-47720823D01*
X128429283Y-47716070D01*
X128463186Y-47701979D01*
X128494603Y-47677840D01*
X128524075Y-47641749D01*
X128544550Y-47602169D01*
X128561072Y-47548073D01*
X128572353Y-47475671D01*
X128576587Y-47380593D01*
X128573491Y-47299030D01*
X128565158Y-47235185D01*
X128552834Y-47185992D01*
X128533575Y-47139320D01*
X128511532Y-47105158D01*
X128487011Y-47081029D01*
X128457665Y-47063072D01*
X128426184Y-47052404D01*
X128391817Y-47048789D01*
X128357411Y-47052407D01*
X128325932Y-47063077D01*
X128296624Y-47081029D01*
X128272102Y-47105158D01*
X128250059Y-47139320D01*
X128230800Y-47185992D01*
X128218445Y-47235188D01*
X128210090Y-47299032D01*
X128206986Y-47380593D01*
X128061418Y-47380593D01*
X128068048Y-47265638D01*
X128086256Y-47172844D01*
X128114064Y-47098380D01*
X128150322Y-47039019D01*
X128188748Y-46996881D01*
X128231381Y-46964790D01*
X128278773Y-46941829D01*
X128331845Y-46927715D01*
X128391817Y-46922821D01*
X128451761Y-46927714D01*
G37*
G36*
X126749962Y-47282287D02*
G01*
X126781280Y-47302252D01*
X126796936Y-47321643D01*
X126806561Y-47345449D01*
X126809978Y-47374975D01*
X126806560Y-47404544D01*
X126796935Y-47428391D01*
X126781280Y-47447821D01*
X126749966Y-47467737D01*
X126713380Y-47474382D01*
X126675709Y-47467654D01*
X126644809Y-47447821D01*
X126629550Y-47428442D01*
X126620133Y-47404596D01*
X126616782Y-47374975D01*
X126620133Y-47345397D01*
X126629549Y-47321592D01*
X126644809Y-47302252D01*
X126675713Y-47282371D01*
X126713380Y-47275629D01*
X126749962Y-47282287D01*
G37*
G36*
X126773324Y-46927714D02*
G01*
X126826384Y-46941825D01*
X126873778Y-46964784D01*
X126916425Y-46996876D01*
X126954875Y-47039019D01*
X126991134Y-47098380D01*
X127018942Y-47172844D01*
X127037149Y-47265638D01*
X127043780Y-47380593D01*
X127037237Y-47494571D01*
X127019155Y-47587889D01*
X126991349Y-47663968D01*
X126954875Y-47725708D01*
X126916168Y-47769867D01*
X126873376Y-47803319D01*
X126825979Y-47827144D01*
X126773060Y-47841739D01*
X126713380Y-47846791D01*
X126653672Y-47841738D01*
X126600741Y-47827140D01*
X126553346Y-47803313D01*
X126510568Y-47769862D01*
X126471885Y-47725708D01*
X126435411Y-47663968D01*
X126407606Y-47587889D01*
X126389524Y-47494571D01*
X126382981Y-47380593D01*
X126528550Y-47380593D01*
X126532784Y-47475671D01*
X126544065Y-47548073D01*
X126560586Y-47602169D01*
X126581062Y-47641749D01*
X126610533Y-47677836D01*
X126641960Y-47701975D01*
X126675882Y-47716068D01*
X126713380Y-47720823D01*
X126750846Y-47716070D01*
X126784749Y-47701979D01*
X126816166Y-47677840D01*
X126845638Y-47641749D01*
X126866114Y-47602169D01*
X126882635Y-47548073D01*
X126893916Y-47475671D01*
X126898150Y-47380593D01*
X126895054Y-47299030D01*
X126886721Y-47235185D01*
X126874397Y-47185992D01*
X126855138Y-47139320D01*
X126833095Y-47105158D01*
X126808574Y-47081029D01*
X126779228Y-47063072D01*
X126747748Y-47052404D01*
X126713380Y-47048789D01*
X126678974Y-47052407D01*
X126647495Y-47063077D01*
X126618187Y-47081029D01*
X126593665Y-47105158D01*
X126571622Y-47139320D01*
X126552363Y-47185992D01*
X126540008Y-47235188D01*
X126531653Y-47299032D01*
X126528550Y-47380593D01*
X126382981Y-47380593D01*
X126389611Y-47265638D01*
X126407819Y-47172844D01*
X126435627Y-47098380D01*
X126471885Y-47039019D01*
X126510311Y-46996881D01*
X126552944Y-46964790D01*
X126600336Y-46941829D01*
X126653408Y-46927715D01*
X126713380Y-46922821D01*
X126773324Y-46927714D01*
G37*
G36*
X126170917Y-47830000D02*
G01*
X126170917Y-47698414D01*
X125923133Y-47698414D01*
X125923133Y-47113208D01*
X126120542Y-47113208D01*
X126120542Y-47012397D01*
X126040367Y-46998013D01*
X125981934Y-46983026D01*
X125928799Y-46963625D01*
X125879718Y-46939612D01*
X125762115Y-46939612D01*
X125762115Y-47698414D01*
X125543762Y-47698414D01*
X125543762Y-47830000D01*
X126170917Y-47830000D01*
G37*
G36*
X125071525Y-47282287D02*
G01*
X125102843Y-47302252D01*
X125118499Y-47321643D01*
X125128124Y-47345449D01*
X125131542Y-47374975D01*
X125128124Y-47404544D01*
X125118498Y-47428391D01*
X125102843Y-47447821D01*
X125071530Y-47467737D01*
X125034943Y-47474382D01*
X124997272Y-47467654D01*
X124966372Y-47447821D01*
X124951113Y-47428442D01*
X124941696Y-47404596D01*
X124938345Y-47374975D01*
X124941696Y-47345397D01*
X124951112Y-47321592D01*
X124966372Y-47302252D01*
X124997276Y-47282371D01*
X125034943Y-47275629D01*
X125071525Y-47282287D01*
G37*
G36*
X125094887Y-46927714D02*
G01*
X125147947Y-46941825D01*
X125195342Y-46964784D01*
X125237988Y-46996876D01*
X125276439Y-47039019D01*
X125312697Y-47098380D01*
X125340505Y-47172844D01*
X125358712Y-47265638D01*
X125365343Y-47380593D01*
X125358800Y-47494571D01*
X125340718Y-47587889D01*
X125312913Y-47663968D01*
X125276439Y-47725708D01*
X125237731Y-47769867D01*
X125194940Y-47803319D01*
X125147542Y-47827144D01*
X125094624Y-47841739D01*
X125034943Y-47846791D01*
X124975235Y-47841738D01*
X124922304Y-47827140D01*
X124874909Y-47803313D01*
X124832131Y-47769862D01*
X124793448Y-47725708D01*
X124756974Y-47663968D01*
X124729169Y-47587889D01*
X124711087Y-47494571D01*
X124704544Y-47380593D01*
X124850113Y-47380593D01*
X124854347Y-47475671D01*
X124865628Y-47548073D01*
X124882149Y-47602169D01*
X124902625Y-47641749D01*
X124932096Y-47677836D01*
X124963523Y-47701975D01*
X124997446Y-47716068D01*
X125034943Y-47720823D01*
X125072409Y-47716070D01*
X125106312Y-47701979D01*
X125137729Y-47677840D01*
X125167201Y-47641749D01*
X125187677Y-47602169D01*
X125204198Y-47548073D01*
X125215479Y-47475671D01*
X125219713Y-47380593D01*
X125216618Y-47299030D01*
X125208284Y-47235185D01*
X125195961Y-47185992D01*
X125176701Y-47139320D01*
X125154658Y-47105158D01*
X125130137Y-47081029D01*
X125100792Y-47063072D01*
X125069311Y-47052404D01*
X125034943Y-47048789D01*
X125000537Y-47052407D01*
X124969058Y-47063077D01*
X124939750Y-47081029D01*
X124915229Y-47105158D01*
X124893186Y-47139320D01*
X124873926Y-47185992D01*
X124861571Y-47235188D01*
X124853216Y-47299032D01*
X124850113Y-47380593D01*
X124704544Y-47380593D01*
X124711174Y-47265638D01*
X124729382Y-47172844D01*
X124757190Y-47098380D01*
X124793448Y-47039019D01*
X124831874Y-46996881D01*
X124874507Y-46964790D01*
X124921899Y-46941829D01*
X124974971Y-46927715D01*
X125034943Y-46922821D01*
X125094887Y-46927714D01*
G37*
G36*
X124232307Y-47282287D02*
G01*
X124263625Y-47302252D01*
X124279280Y-47321643D01*
X124288905Y-47345449D01*
X124292323Y-47374975D01*
X124288905Y-47404544D01*
X124279280Y-47428391D01*
X124263625Y-47447821D01*
X124232311Y-47467737D01*
X124195725Y-47474382D01*
X124158053Y-47467654D01*
X124127154Y-47447821D01*
X124111895Y-47428442D01*
X124102478Y-47404596D01*
X124099127Y-47374975D01*
X124102478Y-47345397D01*
X124111894Y-47321592D01*
X124127154Y-47302252D01*
X124158058Y-47282371D01*
X124195725Y-47275629D01*
X124232307Y-47282287D01*
G37*
G36*
X124255669Y-46927714D02*
G01*
X124308729Y-46941825D01*
X124356123Y-46964784D01*
X124398770Y-46996876D01*
X124437220Y-47039019D01*
X124473478Y-47098380D01*
X124501286Y-47172844D01*
X124519494Y-47265638D01*
X124526125Y-47380593D01*
X124519581Y-47494571D01*
X124501500Y-47587889D01*
X124473694Y-47663968D01*
X124437220Y-47725708D01*
X124398512Y-47769867D01*
X124355721Y-47803319D01*
X124308324Y-47827144D01*
X124255405Y-47841739D01*
X124195725Y-47846791D01*
X124136017Y-47841738D01*
X124083086Y-47827140D01*
X124035690Y-47803313D01*
X123992913Y-47769862D01*
X123954230Y-47725708D01*
X123917756Y-47663968D01*
X123889950Y-47587889D01*
X123871869Y-47494571D01*
X123865326Y-47380593D01*
X124010894Y-47380593D01*
X124015129Y-47475671D01*
X124026409Y-47548073D01*
X124042931Y-47602169D01*
X124063406Y-47641749D01*
X124092878Y-47677836D01*
X124124305Y-47701975D01*
X124158227Y-47716068D01*
X124195725Y-47720823D01*
X124233191Y-47716070D01*
X124267094Y-47701979D01*
X124298511Y-47677840D01*
X124327983Y-47641749D01*
X124348458Y-47602169D01*
X124364980Y-47548073D01*
X124376260Y-47475671D01*
X124380495Y-47380593D01*
X124377399Y-47299030D01*
X124369065Y-47235185D01*
X124356742Y-47185992D01*
X124337483Y-47139320D01*
X124315440Y-47105158D01*
X124290919Y-47081029D01*
X124261573Y-47063072D01*
X124230092Y-47052404D01*
X124195725Y-47048789D01*
X124161319Y-47052407D01*
X124129840Y-47063077D01*
X124100531Y-47081029D01*
X124076010Y-47105158D01*
X124053967Y-47139320D01*
X124034708Y-47185992D01*
X124022352Y-47235188D01*
X124013998Y-47299032D01*
X124010894Y-47380593D01*
X123865326Y-47380593D01*
X123871956Y-47265638D01*
X123890164Y-47172844D01*
X123917972Y-47098380D01*
X123954230Y-47039019D01*
X123992656Y-46996881D01*
X124035288Y-46964790D01*
X124082681Y-46941829D01*
X124135753Y-46927715D01*
X124195725Y-46922821D01*
X124255669Y-46927714D01*
G37*
G36*
X123653262Y-47830000D02*
G01*
X123653262Y-47698414D01*
X123405477Y-47698414D01*
X123405477Y-47113208D01*
X123602887Y-47113208D01*
X123602887Y-47012397D01*
X123522711Y-46998013D01*
X123464279Y-46983026D01*
X123411144Y-46963625D01*
X123362063Y-46939612D01*
X123244460Y-46939612D01*
X123244460Y-47698414D01*
X123026107Y-47698414D01*
X123026107Y-47830000D01*
X123653262Y-47830000D01*
G37*
G36*
X122814043Y-47830000D02*
G01*
X122814043Y-47698414D01*
X122566259Y-47698414D01*
X122566259Y-47113208D01*
X122763668Y-47113208D01*
X122763668Y-47012397D01*
X122683493Y-46998013D01*
X122625060Y-46983026D01*
X122571926Y-46963625D01*
X122522845Y-46939612D01*
X122405242Y-46939612D01*
X122405242Y-47698414D01*
X122186889Y-47698414D01*
X122186889Y-47830000D01*
X122814043Y-47830000D01*
G37*
G36*
X121974825Y-47830000D02*
G01*
X121974825Y-47698414D01*
X121727040Y-47698414D01*
X121727040Y-47113208D01*
X121924450Y-47113208D01*
X121924450Y-47012397D01*
X121844274Y-46998013D01*
X121785842Y-46983026D01*
X121732707Y-46963625D01*
X121683626Y-46939612D01*
X121566023Y-46939612D01*
X121566023Y-47698414D01*
X121347670Y-47698414D01*
X121347670Y-47830000D01*
X121974825Y-47830000D01*
G37*
G36*
X121135606Y-47830000D02*
G01*
X121135606Y-47698414D01*
X120887822Y-47698414D01*
X120887822Y-47113208D01*
X121085231Y-47113208D01*
X121085231Y-47012397D01*
X121005056Y-46998013D01*
X120946624Y-46983026D01*
X120893489Y-46963625D01*
X120844408Y-46939612D01*
X120726805Y-46939612D01*
X120726805Y-47698414D01*
X120508452Y-47698414D01*
X120508452Y-47830000D01*
X121135606Y-47830000D01*
G37*
G36*
X119196996Y-47282287D02*
G01*
X119228314Y-47302252D01*
X119243970Y-47321643D01*
X119253595Y-47345449D01*
X119257013Y-47374975D01*
X119253595Y-47404544D01*
X119243969Y-47428391D01*
X119228314Y-47447821D01*
X119197001Y-47467737D01*
X119160415Y-47474382D01*
X119122743Y-47467654D01*
X119091843Y-47447821D01*
X119076584Y-47428442D01*
X119067167Y-47404596D01*
X119063816Y-47374975D01*
X119067167Y-47345397D01*
X119076583Y-47321592D01*
X119091843Y-47302252D01*
X119122747Y-47282371D01*
X119160415Y-47275629D01*
X119196996Y-47282287D01*
G37*
G36*
X119220358Y-46927714D02*
G01*
X119273418Y-46941825D01*
X119320813Y-46964784D01*
X119363459Y-46996876D01*
X119401910Y-47039019D01*
X119438168Y-47098380D01*
X119465976Y-47172844D01*
X119484184Y-47265638D01*
X119490814Y-47380593D01*
X119484271Y-47494571D01*
X119466189Y-47587889D01*
X119438384Y-47663968D01*
X119401910Y-47725708D01*
X119363202Y-47769867D01*
X119320411Y-47803319D01*
X119273013Y-47827144D01*
X119220095Y-47841739D01*
X119160415Y-47846791D01*
X119100706Y-47841738D01*
X119047775Y-47827140D01*
X119000380Y-47803313D01*
X118957602Y-47769862D01*
X118918919Y-47725708D01*
X118882445Y-47663968D01*
X118854640Y-47587889D01*
X118836558Y-47494571D01*
X118830015Y-47380593D01*
X118975584Y-47380593D01*
X118979818Y-47475671D01*
X118991099Y-47548073D01*
X119007620Y-47602169D01*
X119028096Y-47641749D01*
X119057567Y-47677836D01*
X119088994Y-47701975D01*
X119122917Y-47716068D01*
X119160415Y-47720823D01*
X119197881Y-47716070D01*
X119231783Y-47701979D01*
X119263200Y-47677840D01*
X119292672Y-47641749D01*
X119313148Y-47602169D01*
X119329669Y-47548073D01*
X119340950Y-47475671D01*
X119345184Y-47380593D01*
X119342089Y-47299030D01*
X119333755Y-47235185D01*
X119321432Y-47185992D01*
X119302172Y-47139320D01*
X119280129Y-47105158D01*
X119255608Y-47081029D01*
X119226263Y-47063072D01*
X119194782Y-47052404D01*
X119160415Y-47048789D01*
X119126008Y-47052407D01*
X119094529Y-47063077D01*
X119065221Y-47081029D01*
X119040700Y-47105158D01*
X119018657Y-47139320D01*
X118999397Y-47185992D01*
X118987042Y-47235188D01*
X118978687Y-47299032D01*
X118975584Y-47380593D01*
X118830015Y-47380593D01*
X118836645Y-47265638D01*
X118854853Y-47172844D01*
X118882661Y-47098380D01*
X118918919Y-47039019D01*
X118957345Y-46996881D01*
X118999978Y-46964790D01*
X119047370Y-46941829D01*
X119100442Y-46927715D01*
X119160415Y-46922821D01*
X119220358Y-46927714D01*
G37*
G36*
X118357778Y-47282287D02*
G01*
X118389096Y-47302252D01*
X118404751Y-47321643D01*
X118414376Y-47345449D01*
X118417794Y-47374975D01*
X118414376Y-47404544D01*
X118404751Y-47428391D01*
X118389096Y-47447821D01*
X118357782Y-47467737D01*
X118321196Y-47474382D01*
X118283524Y-47467654D01*
X118252625Y-47447821D01*
X118237366Y-47428442D01*
X118227949Y-47404596D01*
X118224598Y-47374975D01*
X118227949Y-47345397D01*
X118237365Y-47321592D01*
X118252625Y-47302252D01*
X118283529Y-47282371D01*
X118321196Y-47275629D01*
X118357778Y-47282287D01*
G37*
G36*
X118381140Y-46927714D02*
G01*
X118434200Y-46941825D01*
X118481594Y-46964784D01*
X118524241Y-46996876D01*
X118562691Y-47039019D01*
X118598949Y-47098380D01*
X118626757Y-47172844D01*
X118644965Y-47265638D01*
X118651596Y-47380593D01*
X118645052Y-47494571D01*
X118626971Y-47587889D01*
X118599165Y-47663968D01*
X118562691Y-47725708D01*
X118523983Y-47769867D01*
X118481192Y-47803319D01*
X118433795Y-47827144D01*
X118380876Y-47841739D01*
X118321196Y-47846791D01*
X118261488Y-47841738D01*
X118208557Y-47827140D01*
X118161162Y-47803313D01*
X118118384Y-47769862D01*
X118079701Y-47725708D01*
X118043227Y-47663968D01*
X118015421Y-47587889D01*
X117997340Y-47494571D01*
X117990797Y-47380593D01*
X118136365Y-47380593D01*
X118140600Y-47475671D01*
X118151880Y-47548073D01*
X118168402Y-47602169D01*
X118188878Y-47641749D01*
X118218349Y-47677836D01*
X118249776Y-47701975D01*
X118283698Y-47716068D01*
X118321196Y-47720823D01*
X118358662Y-47716070D01*
X118392565Y-47701979D01*
X118423982Y-47677840D01*
X118453454Y-47641749D01*
X118473929Y-47602169D01*
X118490451Y-47548073D01*
X118501731Y-47475671D01*
X118505966Y-47380593D01*
X118502870Y-47299030D01*
X118494537Y-47235185D01*
X118482213Y-47185992D01*
X118462954Y-47139320D01*
X118440911Y-47105158D01*
X118416390Y-47081029D01*
X118387044Y-47063072D01*
X118355563Y-47052404D01*
X118321196Y-47048789D01*
X118286790Y-47052407D01*
X118255311Y-47063077D01*
X118226002Y-47081029D01*
X118201481Y-47105158D01*
X118179438Y-47139320D01*
X118160179Y-47185992D01*
X118147823Y-47235188D01*
X118139469Y-47299032D01*
X118136365Y-47380593D01*
X117990797Y-47380593D01*
X117997427Y-47265638D01*
X118015635Y-47172844D01*
X118043443Y-47098380D01*
X118079701Y-47039019D01*
X118118127Y-46996881D01*
X118160759Y-46964790D01*
X118208152Y-46941829D01*
X118261224Y-46927715D01*
X118321196Y-46922821D01*
X118381140Y-46927714D01*
G37*
G36*
X117778733Y-47830000D02*
G01*
X117778733Y-47698414D01*
X117530948Y-47698414D01*
X117530948Y-47113208D01*
X117728358Y-47113208D01*
X117728358Y-47012397D01*
X117648182Y-46998013D01*
X117589750Y-46983026D01*
X117536615Y-46963625D01*
X117487534Y-46939612D01*
X117369931Y-46939612D01*
X117369931Y-47698414D01*
X117151578Y-47698414D01*
X117151578Y-47830000D01*
X117778733Y-47830000D01*
G37*
G36*
X116679341Y-47282287D02*
G01*
X116710659Y-47302252D01*
X116726315Y-47321643D01*
X116735939Y-47345449D01*
X116739357Y-47374975D01*
X116735939Y-47404544D01*
X116726314Y-47428391D01*
X116710659Y-47447821D01*
X116679345Y-47467737D01*
X116642759Y-47474382D01*
X116605087Y-47467654D01*
X116574188Y-47447821D01*
X116558929Y-47428442D01*
X116549512Y-47404596D01*
X116546161Y-47374975D01*
X116549512Y-47345397D01*
X116558928Y-47321592D01*
X116574188Y-47302252D01*
X116605092Y-47282371D01*
X116642759Y-47275629D01*
X116679341Y-47282287D01*
G37*
G36*
X116702703Y-46927714D02*
G01*
X116755763Y-46941825D01*
X116803157Y-46964784D01*
X116845804Y-46996876D01*
X116884254Y-47039019D01*
X116920513Y-47098380D01*
X116948321Y-47172844D01*
X116966528Y-47265638D01*
X116973159Y-47380593D01*
X116966615Y-47494571D01*
X116948534Y-47587889D01*
X116920728Y-47663968D01*
X116884254Y-47725708D01*
X116845547Y-47769867D01*
X116802755Y-47803319D01*
X116755358Y-47827144D01*
X116702439Y-47841739D01*
X116642759Y-47846791D01*
X116583051Y-47841738D01*
X116530120Y-47827140D01*
X116482725Y-47803313D01*
X116439947Y-47769862D01*
X116401264Y-47725708D01*
X116364790Y-47663968D01*
X116336984Y-47587889D01*
X116318903Y-47494571D01*
X116312360Y-47380593D01*
X116457928Y-47380593D01*
X116462163Y-47475671D01*
X116473444Y-47548073D01*
X116489965Y-47602169D01*
X116510441Y-47641749D01*
X116539912Y-47677836D01*
X116571339Y-47701975D01*
X116605261Y-47716068D01*
X116642759Y-47720823D01*
X116680225Y-47716070D01*
X116714128Y-47701979D01*
X116745545Y-47677840D01*
X116775017Y-47641749D01*
X116795492Y-47602169D01*
X116812014Y-47548073D01*
X116823295Y-47475671D01*
X116827529Y-47380593D01*
X116824433Y-47299030D01*
X116816100Y-47235185D01*
X116803776Y-47185992D01*
X116784517Y-47139320D01*
X116762474Y-47105158D01*
X116737953Y-47081029D01*
X116708607Y-47063072D01*
X116677127Y-47052404D01*
X116642759Y-47048789D01*
X116608353Y-47052407D01*
X116576874Y-47063077D01*
X116547566Y-47081029D01*
X116523044Y-47105158D01*
X116501001Y-47139320D01*
X116481742Y-47185992D01*
X116469387Y-47235188D01*
X116461032Y-47299032D01*
X116457928Y-47380593D01*
X116312360Y-47380593D01*
X116318990Y-47265638D01*
X116337198Y-47172844D01*
X116365006Y-47098380D01*
X116401264Y-47039019D01*
X116439690Y-46996881D01*
X116482323Y-46964790D01*
X116529715Y-46941829D01*
X116582787Y-46927715D01*
X116642759Y-46922821D01*
X116702703Y-46927714D01*
G37*
G36*
X115840122Y-47282287D02*
G01*
X115871440Y-47302252D01*
X115887096Y-47321643D01*
X115896721Y-47345449D01*
X115900139Y-47374975D01*
X115896721Y-47404544D01*
X115887095Y-47428391D01*
X115871440Y-47447821D01*
X115840127Y-47467737D01*
X115803541Y-47474382D01*
X115765869Y-47467654D01*
X115734970Y-47447821D01*
X115719710Y-47428442D01*
X115710293Y-47404596D01*
X115706943Y-47374975D01*
X115710293Y-47345397D01*
X115719710Y-47321592D01*
X115734970Y-47302252D01*
X115765874Y-47282371D01*
X115803541Y-47275629D01*
X115840122Y-47282287D01*
G37*
G36*
X115863485Y-46927714D02*
G01*
X115916544Y-46941825D01*
X115963939Y-46964784D01*
X116006585Y-46996876D01*
X116045036Y-47039019D01*
X116081294Y-47098380D01*
X116109102Y-47172844D01*
X116127310Y-47265638D01*
X116133940Y-47380593D01*
X116127397Y-47494571D01*
X116109316Y-47587889D01*
X116081510Y-47663968D01*
X116045036Y-47725708D01*
X116006328Y-47769867D01*
X115963537Y-47803319D01*
X115916140Y-47827144D01*
X115863221Y-47841739D01*
X115803541Y-47846791D01*
X115743833Y-47841738D01*
X115690902Y-47827140D01*
X115643506Y-47803313D01*
X115600729Y-47769862D01*
X115562046Y-47725708D01*
X115525572Y-47663968D01*
X115497766Y-47587889D01*
X115479685Y-47494571D01*
X115473141Y-47380593D01*
X115618710Y-47380593D01*
X115622944Y-47475671D01*
X115634225Y-47548073D01*
X115650746Y-47602169D01*
X115671222Y-47641749D01*
X115700694Y-47677836D01*
X115732120Y-47701975D01*
X115766043Y-47716068D01*
X115803541Y-47720823D01*
X115841007Y-47716070D01*
X115874909Y-47701979D01*
X115906326Y-47677840D01*
X115935798Y-47641749D01*
X115956274Y-47602169D01*
X115972795Y-47548073D01*
X115984076Y-47475671D01*
X115988311Y-47380593D01*
X115985215Y-47299030D01*
X115976881Y-47235185D01*
X115964558Y-47185992D01*
X115945299Y-47139320D01*
X115923256Y-47105158D01*
X115898734Y-47081029D01*
X115869389Y-47063072D01*
X115837908Y-47052404D01*
X115803541Y-47048789D01*
X115769135Y-47052407D01*
X115737655Y-47063077D01*
X115708347Y-47081029D01*
X115683826Y-47105158D01*
X115661783Y-47139320D01*
X115642524Y-47185992D01*
X115630168Y-47235188D01*
X115621813Y-47299032D01*
X115618710Y-47380593D01*
X115473141Y-47380593D01*
X115479772Y-47265638D01*
X115497979Y-47172844D01*
X115525788Y-47098380D01*
X115562046Y-47039019D01*
X115600471Y-46996881D01*
X115643104Y-46964790D01*
X115690497Y-46941829D01*
X115743569Y-46927715D01*
X115803541Y-46922821D01*
X115863485Y-46927714D01*
G37*
G36*
X115000904Y-47282287D02*
G01*
X115032222Y-47302252D01*
X115047878Y-47321643D01*
X115057503Y-47345449D01*
X115060920Y-47374975D01*
X115057503Y-47404544D01*
X115047877Y-47428391D01*
X115032222Y-47447821D01*
X115000909Y-47467737D01*
X114964322Y-47474382D01*
X114926651Y-47467654D01*
X114895751Y-47447821D01*
X114880492Y-47428442D01*
X114871075Y-47404596D01*
X114867724Y-47374975D01*
X114871075Y-47345397D01*
X114880491Y-47321592D01*
X114895751Y-47302252D01*
X114926655Y-47282371D01*
X114964322Y-47275629D01*
X115000904Y-47282287D01*
G37*
G36*
X115024266Y-46927714D02*
G01*
X115077326Y-46941825D01*
X115124720Y-46964784D01*
X115167367Y-46996876D01*
X115205818Y-47039019D01*
X115242076Y-47098380D01*
X115269884Y-47172844D01*
X115288091Y-47265638D01*
X115294722Y-47380593D01*
X115288179Y-47494571D01*
X115270097Y-47587889D01*
X115242291Y-47663968D01*
X115205818Y-47725708D01*
X115167110Y-47769867D01*
X115124319Y-47803319D01*
X115076921Y-47827144D01*
X115024003Y-47841739D01*
X114964322Y-47846791D01*
X114904614Y-47841738D01*
X114851683Y-47827140D01*
X114804288Y-47803313D01*
X114761510Y-47769862D01*
X114722827Y-47725708D01*
X114686353Y-47663968D01*
X114658548Y-47587889D01*
X114640466Y-47494571D01*
X114633923Y-47380593D01*
X114779492Y-47380593D01*
X114783726Y-47475671D01*
X114795007Y-47548073D01*
X114811528Y-47602169D01*
X114832004Y-47641749D01*
X114861475Y-47677836D01*
X114892902Y-47701975D01*
X114926824Y-47716068D01*
X114964322Y-47720823D01*
X115001788Y-47716070D01*
X115035691Y-47701979D01*
X115067108Y-47677840D01*
X115096580Y-47641749D01*
X115117056Y-47602169D01*
X115133577Y-47548073D01*
X115144858Y-47475671D01*
X115149092Y-47380593D01*
X115145997Y-47299030D01*
X115137663Y-47235185D01*
X115125339Y-47185992D01*
X115106080Y-47139320D01*
X115084037Y-47105158D01*
X115059516Y-47081029D01*
X115030170Y-47063072D01*
X114998690Y-47052404D01*
X114964322Y-47048789D01*
X114929916Y-47052407D01*
X114898437Y-47063077D01*
X114869129Y-47081029D01*
X114844608Y-47105158D01*
X114822565Y-47139320D01*
X114803305Y-47185992D01*
X114790950Y-47235188D01*
X114782595Y-47299032D01*
X114779492Y-47380593D01*
X114633923Y-47380593D01*
X114640553Y-47265638D01*
X114658761Y-47172844D01*
X114686569Y-47098380D01*
X114722827Y-47039019D01*
X114761253Y-46996881D01*
X114803886Y-46964790D01*
X114851278Y-46941829D01*
X114904350Y-46927715D01*
X114964322Y-46922821D01*
X115024266Y-46927714D01*
G37*
G36*
X114161685Y-47282287D02*
G01*
X114193003Y-47302252D01*
X114208659Y-47321643D01*
X114218284Y-47345449D01*
X114221702Y-47374975D01*
X114218284Y-47404544D01*
X114208659Y-47428391D01*
X114193003Y-47447821D01*
X114161690Y-47467737D01*
X114125104Y-47474382D01*
X114087432Y-47467654D01*
X114056533Y-47447821D01*
X114041273Y-47428442D01*
X114031857Y-47404596D01*
X114028506Y-47374975D01*
X114031856Y-47345397D01*
X114041273Y-47321592D01*
X114056533Y-47302252D01*
X114087437Y-47282371D01*
X114125104Y-47275629D01*
X114161685Y-47282287D01*
G37*
G36*
X114185048Y-46927714D02*
G01*
X114238108Y-46941825D01*
X114285502Y-46964784D01*
X114328149Y-46996876D01*
X114366599Y-47039019D01*
X114402857Y-47098380D01*
X114430665Y-47172844D01*
X114448873Y-47265638D01*
X114455503Y-47380593D01*
X114448960Y-47494571D01*
X114430879Y-47587889D01*
X114403073Y-47663968D01*
X114366599Y-47725708D01*
X114327891Y-47769867D01*
X114285100Y-47803319D01*
X114237703Y-47827144D01*
X114184784Y-47841739D01*
X114125104Y-47846791D01*
X114065396Y-47841738D01*
X114012465Y-47827140D01*
X113965069Y-47803313D01*
X113922292Y-47769862D01*
X113883609Y-47725708D01*
X113847135Y-47663968D01*
X113819329Y-47587889D01*
X113801248Y-47494571D01*
X113794704Y-47380593D01*
X113940273Y-47380593D01*
X113944507Y-47475671D01*
X113955788Y-47548073D01*
X113972310Y-47602169D01*
X113992785Y-47641749D01*
X114022257Y-47677836D01*
X114053683Y-47701975D01*
X114087606Y-47716068D01*
X114125104Y-47720823D01*
X114162570Y-47716070D01*
X114196472Y-47701979D01*
X114227890Y-47677840D01*
X114257361Y-47641749D01*
X114277837Y-47602169D01*
X114294359Y-47548073D01*
X114305639Y-47475671D01*
X114309874Y-47380593D01*
X114306778Y-47299030D01*
X114298444Y-47235185D01*
X114286121Y-47185992D01*
X114266862Y-47139320D01*
X114244819Y-47105158D01*
X114220298Y-47081029D01*
X114190952Y-47063072D01*
X114159471Y-47052404D01*
X114125104Y-47048789D01*
X114090698Y-47052407D01*
X114059218Y-47063077D01*
X114029910Y-47081029D01*
X114005389Y-47105158D01*
X113983346Y-47139320D01*
X113964087Y-47185992D01*
X113951731Y-47235188D01*
X113943377Y-47299032D01*
X113940273Y-47380593D01*
X113794704Y-47380593D01*
X113801335Y-47265638D01*
X113819543Y-47172844D01*
X113847351Y-47098380D01*
X113883609Y-47039019D01*
X113922035Y-46996881D01*
X113964667Y-46964790D01*
X114012060Y-46941829D01*
X114065132Y-46927715D01*
X114125104Y-46922821D01*
X114185048Y-46927714D01*
G37*
G36*
X113322467Y-47282287D02*
G01*
X113353785Y-47302252D01*
X113369441Y-47321643D01*
X113379066Y-47345449D01*
X113382484Y-47374975D01*
X113379066Y-47404544D01*
X113369440Y-47428391D01*
X113353785Y-47447821D01*
X113322472Y-47467737D01*
X113285886Y-47474382D01*
X113248214Y-47467654D01*
X113217314Y-47447821D01*
X113202055Y-47428442D01*
X113192638Y-47404596D01*
X113189288Y-47374975D01*
X113192638Y-47345397D01*
X113202054Y-47321592D01*
X113217314Y-47302252D01*
X113248219Y-47282371D01*
X113285886Y-47275629D01*
X113322467Y-47282287D01*
G37*
G36*
X113345829Y-46927714D02*
G01*
X113398889Y-46941825D01*
X113446284Y-46964784D01*
X113488930Y-46996876D01*
X113527381Y-47039019D01*
X113563639Y-47098380D01*
X113591447Y-47172844D01*
X113609655Y-47265638D01*
X113616285Y-47380593D01*
X113609742Y-47494571D01*
X113591660Y-47587889D01*
X113563855Y-47663968D01*
X113527381Y-47725708D01*
X113488673Y-47769867D01*
X113445882Y-47803319D01*
X113398484Y-47827144D01*
X113345566Y-47841739D01*
X113285886Y-47846791D01*
X113226177Y-47841738D01*
X113173246Y-47827140D01*
X113125851Y-47803313D01*
X113083073Y-47769862D01*
X113044390Y-47725708D01*
X113007916Y-47663968D01*
X112980111Y-47587889D01*
X112962029Y-47494571D01*
X112955486Y-47380593D01*
X113101055Y-47380593D01*
X113105289Y-47475671D01*
X113116570Y-47548073D01*
X113133091Y-47602169D01*
X113153567Y-47641749D01*
X113183038Y-47677836D01*
X113214465Y-47701975D01*
X113248388Y-47716068D01*
X113285886Y-47720823D01*
X113323352Y-47716070D01*
X113357254Y-47701979D01*
X113388671Y-47677840D01*
X113418143Y-47641749D01*
X113438619Y-47602169D01*
X113455140Y-47548073D01*
X113466421Y-47475671D01*
X113470655Y-47380593D01*
X113467560Y-47299030D01*
X113459226Y-47235185D01*
X113446903Y-47185992D01*
X113427643Y-47139320D01*
X113405600Y-47105158D01*
X113381079Y-47081029D01*
X113351734Y-47063072D01*
X113320253Y-47052404D01*
X113285886Y-47048789D01*
X113251479Y-47052407D01*
X113220000Y-47063077D01*
X113190692Y-47081029D01*
X113166171Y-47105158D01*
X113144128Y-47139320D01*
X113124868Y-47185992D01*
X113112513Y-47235188D01*
X113104158Y-47299032D01*
X113101055Y-47380593D01*
X112955486Y-47380593D01*
X112962117Y-47265638D01*
X112980324Y-47172844D01*
X113008132Y-47098380D01*
X113044390Y-47039019D01*
X113082816Y-46996881D01*
X113125449Y-46964790D01*
X113172842Y-46941829D01*
X113225913Y-46927715D01*
X113285886Y-46922821D01*
X113345829Y-46927714D01*
G37*
G36*
X111644030Y-47282287D02*
G01*
X111675348Y-47302252D01*
X111691004Y-47321643D01*
X111700629Y-47345449D01*
X111704047Y-47374975D01*
X111700629Y-47404544D01*
X111691003Y-47428391D01*
X111675348Y-47447821D01*
X111644035Y-47467737D01*
X111607449Y-47474382D01*
X111569777Y-47467654D01*
X111538878Y-47447821D01*
X111523618Y-47428442D01*
X111514201Y-47404596D01*
X111510851Y-47374975D01*
X111514201Y-47345397D01*
X111523618Y-47321592D01*
X111538878Y-47302252D01*
X111569782Y-47282371D01*
X111607449Y-47275629D01*
X111644030Y-47282287D01*
G37*
G36*
X111667392Y-46927714D02*
G01*
X111720452Y-46941825D01*
X111767847Y-46964784D01*
X111810493Y-46996876D01*
X111848944Y-47039019D01*
X111885202Y-47098380D01*
X111913010Y-47172844D01*
X111931218Y-47265638D01*
X111937848Y-47380593D01*
X111931305Y-47494571D01*
X111913223Y-47587889D01*
X111885418Y-47663968D01*
X111848944Y-47725708D01*
X111810236Y-47769867D01*
X111767445Y-47803319D01*
X111720048Y-47827144D01*
X111667129Y-47841739D01*
X111607449Y-47846791D01*
X111547740Y-47841738D01*
X111494810Y-47827140D01*
X111447414Y-47803313D01*
X111404637Y-47769862D01*
X111365954Y-47725708D01*
X111329480Y-47663968D01*
X111301674Y-47587889D01*
X111283592Y-47494571D01*
X111277049Y-47380593D01*
X111422618Y-47380593D01*
X111426852Y-47475671D01*
X111438133Y-47548073D01*
X111454654Y-47602169D01*
X111475130Y-47641749D01*
X111504602Y-47677836D01*
X111536028Y-47701975D01*
X111569951Y-47716068D01*
X111607449Y-47720823D01*
X111644915Y-47716070D01*
X111678817Y-47701979D01*
X111710234Y-47677840D01*
X111739706Y-47641749D01*
X111760182Y-47602169D01*
X111776703Y-47548073D01*
X111787984Y-47475671D01*
X111792218Y-47380593D01*
X111789123Y-47299030D01*
X111780789Y-47235185D01*
X111768466Y-47185992D01*
X111749207Y-47139320D01*
X111727164Y-47105158D01*
X111702642Y-47081029D01*
X111673297Y-47063072D01*
X111641816Y-47052404D01*
X111607449Y-47048789D01*
X111573043Y-47052407D01*
X111541563Y-47063077D01*
X111512255Y-47081029D01*
X111487734Y-47105158D01*
X111465691Y-47139320D01*
X111446432Y-47185992D01*
X111434076Y-47235188D01*
X111425721Y-47299032D01*
X111422618Y-47380593D01*
X111277049Y-47380593D01*
X111283680Y-47265638D01*
X111301887Y-47172844D01*
X111329695Y-47098380D01*
X111365954Y-47039019D01*
X111404379Y-46996881D01*
X111447012Y-46964790D01*
X111494405Y-46941829D01*
X111547477Y-46927715D01*
X111607449Y-46922821D01*
X111667392Y-46927714D01*
G37*
G36*
X111064985Y-47830000D02*
G01*
X111064985Y-47698414D01*
X110817201Y-47698414D01*
X110817201Y-47113208D01*
X111014610Y-47113208D01*
X111014610Y-47012397D01*
X110934435Y-46998013D01*
X110876002Y-46983026D01*
X110822868Y-46963625D01*
X110773787Y-46939612D01*
X110656184Y-46939612D01*
X110656184Y-47698414D01*
X110437831Y-47698414D01*
X110437831Y-47830000D01*
X111064985Y-47830000D01*
G37*
G36*
X110225767Y-47830000D02*
G01*
X110225767Y-47698414D01*
X109977983Y-47698414D01*
X109977983Y-47113208D01*
X110175392Y-47113208D01*
X110175392Y-47012397D01*
X110095217Y-46998013D01*
X110036784Y-46983026D01*
X109983649Y-46963625D01*
X109934568Y-46939612D01*
X109816965Y-46939612D01*
X109816965Y-47698414D01*
X109598612Y-47698414D01*
X109598612Y-47830000D01*
X110225767Y-47830000D01*
G37*
G36*
X109126375Y-47282287D02*
G01*
X109157693Y-47302252D01*
X109173349Y-47321643D01*
X109182974Y-47345449D01*
X109186391Y-47374975D01*
X109182974Y-47404544D01*
X109173348Y-47428391D01*
X109157693Y-47447821D01*
X109126380Y-47467737D01*
X109089793Y-47474382D01*
X109052122Y-47467654D01*
X109021222Y-47447821D01*
X109005963Y-47428442D01*
X108996546Y-47404596D01*
X108993195Y-47374975D01*
X108996546Y-47345397D01*
X109005962Y-47321592D01*
X109021222Y-47302252D01*
X109052126Y-47282371D01*
X109089793Y-47275629D01*
X109126375Y-47282287D01*
G37*
G36*
X109149737Y-46927714D02*
G01*
X109202797Y-46941825D01*
X109250192Y-46964784D01*
X109292838Y-46996876D01*
X109331289Y-47039019D01*
X109367547Y-47098380D01*
X109395355Y-47172844D01*
X109413562Y-47265638D01*
X109420193Y-47380593D01*
X109413650Y-47494571D01*
X109395568Y-47587889D01*
X109367763Y-47663968D01*
X109331289Y-47725708D01*
X109292581Y-47769867D01*
X109249790Y-47803319D01*
X109202392Y-47827144D01*
X109149474Y-47841739D01*
X109089793Y-47846791D01*
X109030085Y-47841738D01*
X108977154Y-47827140D01*
X108929759Y-47803313D01*
X108886981Y-47769862D01*
X108848298Y-47725708D01*
X108811824Y-47663968D01*
X108784019Y-47587889D01*
X108765937Y-47494571D01*
X108759394Y-47380593D01*
X108904963Y-47380593D01*
X108909197Y-47475671D01*
X108920478Y-47548073D01*
X108936999Y-47602169D01*
X108957475Y-47641749D01*
X108986946Y-47677836D01*
X109018373Y-47701975D01*
X109052295Y-47716068D01*
X109089793Y-47720823D01*
X109127259Y-47716070D01*
X109161162Y-47701979D01*
X109192579Y-47677840D01*
X109222051Y-47641749D01*
X109242527Y-47602169D01*
X109259048Y-47548073D01*
X109270329Y-47475671D01*
X109274563Y-47380593D01*
X109271468Y-47299030D01*
X109263134Y-47235185D01*
X109250811Y-47185992D01*
X109231551Y-47139320D01*
X109209508Y-47105158D01*
X109184987Y-47081029D01*
X109155642Y-47063072D01*
X109124161Y-47052404D01*
X109089793Y-47048789D01*
X109055387Y-47052407D01*
X109023908Y-47063077D01*
X108994600Y-47081029D01*
X108970079Y-47105158D01*
X108948036Y-47139320D01*
X108928776Y-47185992D01*
X108916421Y-47235188D01*
X108908066Y-47299032D01*
X108904963Y-47380593D01*
X108759394Y-47380593D01*
X108766024Y-47265638D01*
X108784232Y-47172844D01*
X108812040Y-47098380D01*
X108848298Y-47039019D01*
X108886724Y-46996881D01*
X108929357Y-46964790D01*
X108976749Y-46941829D01*
X109029821Y-46927715D01*
X109089793Y-46922821D01*
X109149737Y-46927714D01*
G37*
G36*
X108547330Y-47830000D02*
G01*
X108547330Y-47698414D01*
X108299546Y-47698414D01*
X108299546Y-47113208D01*
X108496955Y-47113208D01*
X108496955Y-47012397D01*
X108416780Y-46998013D01*
X108358347Y-46983026D01*
X108305213Y-46963625D01*
X108256132Y-46939612D01*
X108138529Y-46939612D01*
X108138529Y-47698414D01*
X107920175Y-47698414D01*
X107920175Y-47830000D01*
X108547330Y-47830000D01*
G37*
G36*
X107708112Y-47830000D02*
G01*
X107708112Y-47698414D01*
X107460327Y-47698414D01*
X107460327Y-47113208D01*
X107657737Y-47113208D01*
X107657737Y-47012397D01*
X107577561Y-46998013D01*
X107519129Y-46983026D01*
X107465994Y-46963625D01*
X107416913Y-46939612D01*
X107299310Y-46939612D01*
X107299310Y-47698414D01*
X107080957Y-47698414D01*
X107080957Y-47830000D01*
X107708112Y-47830000D01*
G37*
G36*
X106608720Y-47282287D02*
G01*
X106640038Y-47302252D01*
X106655694Y-47321643D01*
X106665318Y-47345449D01*
X106668736Y-47374975D01*
X106665318Y-47404544D01*
X106655693Y-47428391D01*
X106640038Y-47447821D01*
X106608724Y-47467737D01*
X106572138Y-47474382D01*
X106534466Y-47467654D01*
X106503567Y-47447821D01*
X106488308Y-47428442D01*
X106478891Y-47404596D01*
X106475540Y-47374975D01*
X106478891Y-47345397D01*
X106488307Y-47321592D01*
X106503567Y-47302252D01*
X106534471Y-47282371D01*
X106572138Y-47275629D01*
X106608720Y-47282287D01*
G37*
G36*
X106632082Y-46927714D02*
G01*
X106685142Y-46941825D01*
X106732536Y-46964784D01*
X106775183Y-46996876D01*
X106813633Y-47039019D01*
X106849891Y-47098380D01*
X106877700Y-47172844D01*
X106895907Y-47265638D01*
X106902538Y-47380593D01*
X106895994Y-47494571D01*
X106877913Y-47587889D01*
X106850107Y-47663968D01*
X106813633Y-47725708D01*
X106774926Y-47769867D01*
X106732134Y-47803319D01*
X106684737Y-47827144D01*
X106631818Y-47841739D01*
X106572138Y-47846791D01*
X106512430Y-47841738D01*
X106459499Y-47827140D01*
X106412104Y-47803313D01*
X106369326Y-47769862D01*
X106330643Y-47725708D01*
X106294169Y-47663968D01*
X106266363Y-47587889D01*
X106248282Y-47494571D01*
X106241739Y-47380593D01*
X106387307Y-47380593D01*
X106391542Y-47475671D01*
X106402822Y-47548073D01*
X106419344Y-47602169D01*
X106439820Y-47641749D01*
X106469291Y-47677836D01*
X106500718Y-47701975D01*
X106534640Y-47716068D01*
X106572138Y-47720823D01*
X106609604Y-47716070D01*
X106643507Y-47701979D01*
X106674924Y-47677840D01*
X106704396Y-47641749D01*
X106724871Y-47602169D01*
X106741393Y-47548073D01*
X106752674Y-47475671D01*
X106756908Y-47380593D01*
X106753812Y-47299030D01*
X106745479Y-47235185D01*
X106733155Y-47185992D01*
X106713896Y-47139320D01*
X106691853Y-47105158D01*
X106667332Y-47081029D01*
X106637986Y-47063072D01*
X106606505Y-47052404D01*
X106572138Y-47048789D01*
X106537732Y-47052407D01*
X106506253Y-47063077D01*
X106476945Y-47081029D01*
X106452423Y-47105158D01*
X106430380Y-47139320D01*
X106411121Y-47185992D01*
X106398766Y-47235188D01*
X106390411Y-47299032D01*
X106387307Y-47380593D01*
X106241739Y-47380593D01*
X106248369Y-47265638D01*
X106266577Y-47172844D01*
X106294385Y-47098380D01*
X106330643Y-47039019D01*
X106369069Y-46996881D01*
X106411702Y-46964790D01*
X106459094Y-46941829D01*
X106512166Y-46927715D01*
X106572138Y-46922821D01*
X106632082Y-46927714D01*
G37*
G36*
X106029675Y-47830000D02*
G01*
X106029675Y-47698414D01*
X105781890Y-47698414D01*
X105781890Y-47113208D01*
X105979300Y-47113208D01*
X105979300Y-47012397D01*
X105899124Y-46998013D01*
X105840692Y-46983026D01*
X105787557Y-46963625D01*
X105738476Y-46939612D01*
X105620873Y-46939612D01*
X105620873Y-47698414D01*
X105402520Y-47698414D01*
X105402520Y-47830000D01*
X106029675Y-47830000D01*
G37*
G36*
X104091064Y-47282287D02*
G01*
X104122382Y-47302252D01*
X104138038Y-47321643D01*
X104147663Y-47345449D01*
X104151081Y-47374975D01*
X104147663Y-47404544D01*
X104138037Y-47428391D01*
X104122382Y-47447821D01*
X104091069Y-47467737D01*
X104054483Y-47474382D01*
X104016811Y-47467654D01*
X103985912Y-47447821D01*
X103970652Y-47428442D01*
X103961235Y-47404596D01*
X103957885Y-47374975D01*
X103961235Y-47345397D01*
X103970652Y-47321592D01*
X103985912Y-47302252D01*
X104016816Y-47282371D01*
X104054483Y-47275629D01*
X104091064Y-47282287D01*
G37*
G36*
X104114427Y-46927714D02*
G01*
X104167487Y-46941825D01*
X104214881Y-46964784D01*
X104257528Y-46996876D01*
X104295978Y-47039019D01*
X104332236Y-47098380D01*
X104360044Y-47172844D01*
X104378252Y-47265638D01*
X104384882Y-47380593D01*
X104378339Y-47494571D01*
X104360258Y-47587889D01*
X104332452Y-47663968D01*
X104295978Y-47725708D01*
X104257270Y-47769867D01*
X104214479Y-47803319D01*
X104167082Y-47827144D01*
X104114163Y-47841739D01*
X104054483Y-47846791D01*
X103994775Y-47841738D01*
X103941844Y-47827140D01*
X103894448Y-47803313D01*
X103851671Y-47769862D01*
X103812988Y-47725708D01*
X103776514Y-47663968D01*
X103748708Y-47587889D01*
X103730627Y-47494571D01*
X103724083Y-47380593D01*
X103869652Y-47380593D01*
X103873886Y-47475671D01*
X103885167Y-47548073D01*
X103901689Y-47602169D01*
X103922164Y-47641749D01*
X103951636Y-47677836D01*
X103983062Y-47701975D01*
X104016985Y-47716068D01*
X104054483Y-47720823D01*
X104091949Y-47716070D01*
X104125851Y-47701979D01*
X104157269Y-47677840D01*
X104186740Y-47641749D01*
X104207216Y-47602169D01*
X104223738Y-47548073D01*
X104235018Y-47475671D01*
X104239253Y-47380593D01*
X104236157Y-47299030D01*
X104227823Y-47235185D01*
X104215500Y-47185992D01*
X104196241Y-47139320D01*
X104174198Y-47105158D01*
X104149677Y-47081029D01*
X104120331Y-47063072D01*
X104088850Y-47052404D01*
X104054483Y-47048789D01*
X104020077Y-47052407D01*
X103988597Y-47063077D01*
X103959289Y-47081029D01*
X103934768Y-47105158D01*
X103912725Y-47139320D01*
X103893466Y-47185992D01*
X103881110Y-47235188D01*
X103872755Y-47299032D01*
X103869652Y-47380593D01*
X103724083Y-47380593D01*
X103730714Y-47265638D01*
X103748922Y-47172844D01*
X103776730Y-47098380D01*
X103812988Y-47039019D01*
X103851414Y-46996881D01*
X103894046Y-46964790D01*
X103941439Y-46941829D01*
X103994511Y-46927715D01*
X104054483Y-46922821D01*
X104114427Y-46927714D01*
G37*
G36*
X103512020Y-47830000D02*
G01*
X103512020Y-47698414D01*
X103264235Y-47698414D01*
X103264235Y-47113208D01*
X103461644Y-47113208D01*
X103461644Y-47012397D01*
X103381469Y-46998013D01*
X103323037Y-46983026D01*
X103269902Y-46963625D01*
X103220821Y-46939612D01*
X103103218Y-46939612D01*
X103103218Y-47698414D01*
X102884865Y-47698414D01*
X102884865Y-47830000D01*
X103512020Y-47830000D01*
G37*
G36*
X102672801Y-47830000D02*
G01*
X102672801Y-47698414D01*
X102425017Y-47698414D01*
X102425017Y-47113208D01*
X102622426Y-47113208D01*
X102622426Y-47012397D01*
X102542251Y-46998013D01*
X102483818Y-46983026D01*
X102430684Y-46963625D01*
X102381603Y-46939612D01*
X102264000Y-46939612D01*
X102264000Y-47698414D01*
X102045647Y-47698414D01*
X102045647Y-47830000D01*
X102672801Y-47830000D01*
G37*
G36*
X101573409Y-47282287D02*
G01*
X101604727Y-47302252D01*
X101620383Y-47321643D01*
X101630008Y-47345449D01*
X101633426Y-47374975D01*
X101630008Y-47404544D01*
X101620382Y-47428391D01*
X101604727Y-47447821D01*
X101573414Y-47467737D01*
X101536828Y-47474382D01*
X101499156Y-47467654D01*
X101468256Y-47447821D01*
X101452997Y-47428442D01*
X101443580Y-47404596D01*
X101440230Y-47374975D01*
X101443580Y-47345397D01*
X101452996Y-47321592D01*
X101468256Y-47302252D01*
X101499161Y-47282371D01*
X101536828Y-47275629D01*
X101573409Y-47282287D01*
G37*
G36*
X101596771Y-46927714D02*
G01*
X101649831Y-46941825D01*
X101697226Y-46964784D01*
X101739872Y-46996876D01*
X101778323Y-47039019D01*
X101814581Y-47098380D01*
X101842389Y-47172844D01*
X101860597Y-47265638D01*
X101867227Y-47380593D01*
X101860684Y-47494571D01*
X101842602Y-47587889D01*
X101814797Y-47663968D01*
X101778323Y-47725708D01*
X101739615Y-47769867D01*
X101696824Y-47803319D01*
X101649427Y-47827144D01*
X101596508Y-47841739D01*
X101536828Y-47846791D01*
X101477119Y-47841738D01*
X101424189Y-47827140D01*
X101376793Y-47803313D01*
X101334016Y-47769862D01*
X101295333Y-47725708D01*
X101258859Y-47663968D01*
X101231053Y-47587889D01*
X101212971Y-47494571D01*
X101206428Y-47380593D01*
X101351997Y-47380593D01*
X101356231Y-47475671D01*
X101367512Y-47548073D01*
X101384033Y-47602169D01*
X101404509Y-47641749D01*
X101433980Y-47677836D01*
X101465407Y-47701975D01*
X101499330Y-47716068D01*
X101536828Y-47720823D01*
X101574294Y-47716070D01*
X101608196Y-47701979D01*
X101639613Y-47677840D01*
X101669085Y-47641749D01*
X101689561Y-47602169D01*
X101706082Y-47548073D01*
X101717363Y-47475671D01*
X101721597Y-47380593D01*
X101718502Y-47299030D01*
X101710168Y-47235185D01*
X101697845Y-47185992D01*
X101678585Y-47139320D01*
X101656542Y-47105158D01*
X101632021Y-47081029D01*
X101602676Y-47063072D01*
X101571195Y-47052404D01*
X101536828Y-47048789D01*
X101502421Y-47052407D01*
X101470942Y-47063077D01*
X101441634Y-47081029D01*
X101417113Y-47105158D01*
X101395070Y-47139320D01*
X101375811Y-47185992D01*
X101363455Y-47235188D01*
X101355100Y-47299032D01*
X101351997Y-47380593D01*
X101206428Y-47380593D01*
X101213059Y-47265638D01*
X101231266Y-47172844D01*
X101259074Y-47098380D01*
X101295333Y-47039019D01*
X101333758Y-46996881D01*
X101376391Y-46964790D01*
X101423784Y-46941829D01*
X101476856Y-46927715D01*
X101536828Y-46922821D01*
X101596771Y-46927714D01*
G37*
G36*
X100734191Y-47282287D02*
G01*
X100765509Y-47302252D01*
X100781165Y-47321643D01*
X100790789Y-47345449D01*
X100794207Y-47374975D01*
X100790789Y-47404544D01*
X100781164Y-47428391D01*
X100765509Y-47447821D01*
X100734195Y-47467737D01*
X100697609Y-47474382D01*
X100659937Y-47467654D01*
X100629038Y-47447821D01*
X100613779Y-47428442D01*
X100604362Y-47404596D01*
X100601011Y-47374975D01*
X100604362Y-47345397D01*
X100613778Y-47321592D01*
X100629038Y-47302252D01*
X100659942Y-47282371D01*
X100697609Y-47275629D01*
X100734191Y-47282287D01*
G37*
G36*
X100757553Y-46927714D02*
G01*
X100810613Y-46941825D01*
X100858007Y-46964784D01*
X100900654Y-46996876D01*
X100939104Y-47039019D01*
X100975362Y-47098380D01*
X101003171Y-47172844D01*
X101021378Y-47265638D01*
X101028009Y-47380593D01*
X101021465Y-47494571D01*
X101003384Y-47587889D01*
X100975578Y-47663968D01*
X100939104Y-47725708D01*
X100900397Y-47769867D01*
X100857605Y-47803319D01*
X100810208Y-47827144D01*
X100757289Y-47841739D01*
X100697609Y-47846791D01*
X100637901Y-47841738D01*
X100584970Y-47827140D01*
X100537575Y-47803313D01*
X100494797Y-47769862D01*
X100456114Y-47725708D01*
X100419640Y-47663968D01*
X100391834Y-47587889D01*
X100373753Y-47494571D01*
X100367210Y-47380593D01*
X100512778Y-47380593D01*
X100517013Y-47475671D01*
X100528293Y-47548073D01*
X100544815Y-47602169D01*
X100565291Y-47641749D01*
X100594762Y-47677836D01*
X100626189Y-47701975D01*
X100660111Y-47716068D01*
X100697609Y-47720823D01*
X100735075Y-47716070D01*
X100768978Y-47701979D01*
X100800395Y-47677840D01*
X100829867Y-47641749D01*
X100850342Y-47602169D01*
X100866864Y-47548073D01*
X100878145Y-47475671D01*
X100882379Y-47380593D01*
X100879283Y-47299030D01*
X100870950Y-47235185D01*
X100858626Y-47185992D01*
X100839367Y-47139320D01*
X100817324Y-47105158D01*
X100792803Y-47081029D01*
X100763457Y-47063072D01*
X100731976Y-47052404D01*
X100697609Y-47048789D01*
X100663203Y-47052407D01*
X100631724Y-47063077D01*
X100602416Y-47081029D01*
X100577894Y-47105158D01*
X100555851Y-47139320D01*
X100536592Y-47185992D01*
X100524237Y-47235188D01*
X100515882Y-47299032D01*
X100512778Y-47380593D01*
X100367210Y-47380593D01*
X100373840Y-47265638D01*
X100392048Y-47172844D01*
X100419856Y-47098380D01*
X100456114Y-47039019D01*
X100494540Y-46996881D01*
X100537173Y-46964790D01*
X100584565Y-46941829D01*
X100637637Y-46927715D01*
X100697609Y-46922821D01*
X100757553Y-46927714D01*
G37*
G36*
X100155146Y-47830000D02*
G01*
X100155146Y-47698414D01*
X99907361Y-47698414D01*
X99907361Y-47113208D01*
X100104771Y-47113208D01*
X100104771Y-47012397D01*
X100024595Y-46998013D01*
X99966163Y-46983026D01*
X99913028Y-46963625D01*
X99863947Y-46939612D01*
X99746344Y-46939612D01*
X99746344Y-47698414D01*
X99527991Y-47698414D01*
X99527991Y-47830000D01*
X100155146Y-47830000D01*
G37*
G36*
X99055754Y-47282287D02*
G01*
X99087072Y-47302252D01*
X99102728Y-47321643D01*
X99112353Y-47345449D01*
X99115770Y-47374975D01*
X99112352Y-47404544D01*
X99102727Y-47428391D01*
X99087072Y-47447821D01*
X99055758Y-47467737D01*
X99019172Y-47474382D01*
X98981501Y-47467654D01*
X98950601Y-47447821D01*
X98935342Y-47428442D01*
X98925925Y-47404596D01*
X98922574Y-47374975D01*
X98925925Y-47345397D01*
X98935341Y-47321592D01*
X98950601Y-47302252D01*
X98981505Y-47282371D01*
X99019172Y-47275629D01*
X99055754Y-47282287D01*
G37*
G36*
X99079116Y-46927714D02*
G01*
X99132176Y-46941825D01*
X99179570Y-46964784D01*
X99222217Y-46996876D01*
X99260667Y-47039019D01*
X99296926Y-47098380D01*
X99324734Y-47172844D01*
X99342941Y-47265638D01*
X99349572Y-47380593D01*
X99343029Y-47494571D01*
X99324947Y-47587889D01*
X99297141Y-47663968D01*
X99260667Y-47725708D01*
X99221960Y-47769867D01*
X99179169Y-47803319D01*
X99131771Y-47827144D01*
X99078852Y-47841739D01*
X99019172Y-47846791D01*
X98959464Y-47841738D01*
X98906533Y-47827140D01*
X98859138Y-47803313D01*
X98816360Y-47769862D01*
X98777677Y-47725708D01*
X98741203Y-47663968D01*
X98713398Y-47587889D01*
X98695316Y-47494571D01*
X98688773Y-47380593D01*
X98834342Y-47380593D01*
X98838576Y-47475671D01*
X98849857Y-47548073D01*
X98866378Y-47602169D01*
X98886854Y-47641749D01*
X98916325Y-47677836D01*
X98947752Y-47701975D01*
X98981674Y-47716068D01*
X99019172Y-47720823D01*
X99056638Y-47716070D01*
X99090541Y-47701979D01*
X99121958Y-47677840D01*
X99151430Y-47641749D01*
X99171906Y-47602169D01*
X99188427Y-47548073D01*
X99199708Y-47475671D01*
X99203942Y-47380593D01*
X99200847Y-47299030D01*
X99192513Y-47235185D01*
X99180189Y-47185992D01*
X99160930Y-47139320D01*
X99138887Y-47105158D01*
X99114366Y-47081029D01*
X99085020Y-47063072D01*
X99053540Y-47052404D01*
X99019172Y-47048789D01*
X98984766Y-47052407D01*
X98953287Y-47063077D01*
X98923979Y-47081029D01*
X98899458Y-47105158D01*
X98877414Y-47139320D01*
X98858155Y-47185992D01*
X98845800Y-47235188D01*
X98837445Y-47299032D01*
X98834342Y-47380593D01*
X98688773Y-47380593D01*
X98695403Y-47265638D01*
X98713611Y-47172844D01*
X98741419Y-47098380D01*
X98777677Y-47039019D01*
X98816103Y-46996881D01*
X98858736Y-46964790D01*
X98906128Y-46941829D01*
X98959200Y-46927715D01*
X99019172Y-46922821D01*
X99079116Y-46927714D01*
G37*
G36*
X98476709Y-47830000D02*
G01*
X98476709Y-47698414D01*
X98228925Y-47698414D01*
X98228925Y-47113208D01*
X98426334Y-47113208D01*
X98426334Y-47012397D01*
X98346159Y-46998013D01*
X98287726Y-46983026D01*
X98234592Y-46963625D01*
X98185510Y-46939612D01*
X98067908Y-46939612D01*
X98067908Y-47698414D01*
X97849554Y-47698414D01*
X97849554Y-47830000D01*
X98476709Y-47830000D01*
G37*
G36*
X138616605Y-89922287D02*
G01*
X138647923Y-89942252D01*
X138663579Y-89961643D01*
X138673204Y-89985449D01*
X138676622Y-90014975D01*
X138673204Y-90044544D01*
X138663579Y-90068391D01*
X138647923Y-90087821D01*
X138616610Y-90107737D01*
X138580024Y-90114382D01*
X138542352Y-90107654D01*
X138511453Y-90087821D01*
X138496193Y-90068442D01*
X138486777Y-90044596D01*
X138483426Y-90014975D01*
X138486776Y-89985397D01*
X138496193Y-89961592D01*
X138511453Y-89942252D01*
X138542357Y-89922371D01*
X138580024Y-89915629D01*
X138616605Y-89922287D01*
G37*
G36*
X138639968Y-89567714D02*
G01*
X138693028Y-89581825D01*
X138740422Y-89604784D01*
X138783069Y-89636876D01*
X138821519Y-89679019D01*
X138857777Y-89738380D01*
X138885585Y-89812844D01*
X138903793Y-89905638D01*
X138910423Y-90020593D01*
X138903880Y-90134571D01*
X138885799Y-90227889D01*
X138857993Y-90303968D01*
X138821519Y-90365708D01*
X138782811Y-90409867D01*
X138740020Y-90443319D01*
X138692623Y-90467144D01*
X138639704Y-90481739D01*
X138580024Y-90486791D01*
X138520316Y-90481738D01*
X138467385Y-90467140D01*
X138419989Y-90443313D01*
X138377212Y-90409862D01*
X138338529Y-90365708D01*
X138302055Y-90303968D01*
X138274249Y-90227889D01*
X138256168Y-90134571D01*
X138249624Y-90020593D01*
X138395193Y-90020593D01*
X138399427Y-90115671D01*
X138410708Y-90188073D01*
X138427230Y-90242169D01*
X138447705Y-90281749D01*
X138477177Y-90317836D01*
X138508603Y-90341975D01*
X138542526Y-90356068D01*
X138580024Y-90360823D01*
X138617490Y-90356070D01*
X138651392Y-90341979D01*
X138682810Y-90317840D01*
X138712281Y-90281749D01*
X138732757Y-90242169D01*
X138749279Y-90188073D01*
X138760559Y-90115671D01*
X138764794Y-90020593D01*
X138761698Y-89939030D01*
X138753364Y-89875185D01*
X138741041Y-89825992D01*
X138721782Y-89779320D01*
X138699739Y-89745158D01*
X138675218Y-89721029D01*
X138645872Y-89703072D01*
X138614391Y-89692404D01*
X138580024Y-89688789D01*
X138545618Y-89692407D01*
X138514138Y-89703077D01*
X138484830Y-89721029D01*
X138460309Y-89745158D01*
X138438266Y-89779320D01*
X138419007Y-89825992D01*
X138406651Y-89875188D01*
X138398296Y-89939032D01*
X138395193Y-90020593D01*
X138249624Y-90020593D01*
X138256255Y-89905638D01*
X138274463Y-89812844D01*
X138302271Y-89738380D01*
X138338529Y-89679019D01*
X138376955Y-89636881D01*
X138419587Y-89604790D01*
X138466980Y-89581829D01*
X138520052Y-89567715D01*
X138580024Y-89562821D01*
X138639968Y-89567714D01*
G37*
G36*
X138037561Y-90470000D02*
G01*
X138037561Y-90338414D01*
X137789776Y-90338414D01*
X137789776Y-89753208D01*
X137987185Y-89753208D01*
X137987185Y-89652397D01*
X137907010Y-89638013D01*
X137848578Y-89623026D01*
X137795443Y-89603625D01*
X137746362Y-89579612D01*
X137628759Y-89579612D01*
X137628759Y-90338414D01*
X137410406Y-90338414D01*
X137410406Y-90470000D01*
X138037561Y-90470000D01*
G37*
G36*
X137198342Y-90470000D02*
G01*
X137198342Y-90338414D01*
X136950558Y-90338414D01*
X136950558Y-89753208D01*
X137147967Y-89753208D01*
X137147967Y-89652397D01*
X137067792Y-89638013D01*
X137009359Y-89623026D01*
X136956225Y-89603625D01*
X136907144Y-89579612D01*
X136789541Y-89579612D01*
X136789541Y-90338414D01*
X136571188Y-90338414D01*
X136571188Y-90470000D01*
X137198342Y-90470000D01*
G37*
G36*
X136098950Y-89922287D02*
G01*
X136130268Y-89942252D01*
X136145924Y-89961643D01*
X136155549Y-89985449D01*
X136158967Y-90014975D01*
X136155549Y-90044544D01*
X136145923Y-90068391D01*
X136130268Y-90087821D01*
X136098955Y-90107737D01*
X136062369Y-90114382D01*
X136024697Y-90107654D01*
X135993797Y-90087821D01*
X135978538Y-90068442D01*
X135969121Y-90044596D01*
X135965771Y-90014975D01*
X135969121Y-89985397D01*
X135978538Y-89961592D01*
X135993797Y-89942252D01*
X136024702Y-89922371D01*
X136062369Y-89915629D01*
X136098950Y-89922287D01*
G37*
G36*
X136122312Y-89567714D02*
G01*
X136175372Y-89581825D01*
X136222767Y-89604784D01*
X136265413Y-89636876D01*
X136303864Y-89679019D01*
X136340122Y-89738380D01*
X136367930Y-89812844D01*
X136386138Y-89905638D01*
X136392768Y-90020593D01*
X136386225Y-90134571D01*
X136368143Y-90227889D01*
X136340338Y-90303968D01*
X136303864Y-90365708D01*
X136265156Y-90409867D01*
X136222365Y-90443319D01*
X136174968Y-90467144D01*
X136122049Y-90481739D01*
X136062369Y-90486791D01*
X136002660Y-90481738D01*
X135949730Y-90467140D01*
X135902334Y-90443313D01*
X135859557Y-90409862D01*
X135820874Y-90365708D01*
X135784400Y-90303968D01*
X135756594Y-90227889D01*
X135738512Y-90134571D01*
X135731969Y-90020593D01*
X135877538Y-90020593D01*
X135881772Y-90115671D01*
X135893053Y-90188073D01*
X135909574Y-90242169D01*
X135930050Y-90281749D01*
X135959522Y-90317836D01*
X135990948Y-90341975D01*
X136024871Y-90356068D01*
X136062369Y-90360823D01*
X136099835Y-90356070D01*
X136133737Y-90341979D01*
X136165154Y-90317840D01*
X136194626Y-90281749D01*
X136215102Y-90242169D01*
X136231623Y-90188073D01*
X136242904Y-90115671D01*
X136247138Y-90020593D01*
X136244043Y-89939030D01*
X136235709Y-89875185D01*
X136223386Y-89825992D01*
X136204127Y-89779320D01*
X136182083Y-89745158D01*
X136157562Y-89721029D01*
X136128217Y-89703072D01*
X136096736Y-89692404D01*
X136062369Y-89688789D01*
X136027962Y-89692407D01*
X135996483Y-89703077D01*
X135967175Y-89721029D01*
X135942654Y-89745158D01*
X135920611Y-89779320D01*
X135901352Y-89825992D01*
X135888996Y-89875188D01*
X135880641Y-89939032D01*
X135877538Y-90020593D01*
X135731969Y-90020593D01*
X135738600Y-89905638D01*
X135756807Y-89812844D01*
X135784615Y-89738380D01*
X135820874Y-89679019D01*
X135859299Y-89636881D01*
X135901932Y-89604790D01*
X135949325Y-89581829D01*
X136002397Y-89567715D01*
X136062369Y-89562821D01*
X136122312Y-89567714D01*
G37*
G36*
X135259732Y-89922287D02*
G01*
X135291050Y-89942252D01*
X135306706Y-89961643D01*
X135316330Y-89985449D01*
X135319748Y-90014975D01*
X135316330Y-90044544D01*
X135306705Y-90068391D01*
X135291050Y-90087821D01*
X135259736Y-90107737D01*
X135223150Y-90114382D01*
X135185478Y-90107654D01*
X135154579Y-90087821D01*
X135139320Y-90068442D01*
X135129903Y-90044596D01*
X135126552Y-90014975D01*
X135129903Y-89985397D01*
X135139319Y-89961592D01*
X135154579Y-89942252D01*
X135185483Y-89922371D01*
X135223150Y-89915629D01*
X135259732Y-89922287D01*
G37*
G36*
X135283094Y-89567714D02*
G01*
X135336154Y-89581825D01*
X135383548Y-89604784D01*
X135426195Y-89636876D01*
X135464645Y-89679019D01*
X135500903Y-89738380D01*
X135528712Y-89812844D01*
X135546919Y-89905638D01*
X135553550Y-90020593D01*
X135547006Y-90134571D01*
X135528925Y-90227889D01*
X135501119Y-90303968D01*
X135464645Y-90365708D01*
X135425938Y-90409867D01*
X135383146Y-90443319D01*
X135335749Y-90467144D01*
X135282830Y-90481739D01*
X135223150Y-90486791D01*
X135163442Y-90481738D01*
X135110511Y-90467140D01*
X135063116Y-90443313D01*
X135020338Y-90409862D01*
X134981655Y-90365708D01*
X134945181Y-90303968D01*
X134917375Y-90227889D01*
X134899294Y-90134571D01*
X134892751Y-90020593D01*
X135038319Y-90020593D01*
X135042554Y-90115671D01*
X135053835Y-90188073D01*
X135070356Y-90242169D01*
X135090832Y-90281749D01*
X135120303Y-90317836D01*
X135151730Y-90341975D01*
X135185652Y-90356068D01*
X135223150Y-90360823D01*
X135260616Y-90356070D01*
X135294519Y-90341979D01*
X135325936Y-90317840D01*
X135355408Y-90281749D01*
X135375883Y-90242169D01*
X135392405Y-90188073D01*
X135403686Y-90115671D01*
X135407920Y-90020593D01*
X135404824Y-89939030D01*
X135396491Y-89875185D01*
X135384167Y-89825992D01*
X135364908Y-89779320D01*
X135342865Y-89745158D01*
X135318344Y-89721029D01*
X135288998Y-89703072D01*
X135257518Y-89692404D01*
X135223150Y-89688789D01*
X135188744Y-89692407D01*
X135157265Y-89703077D01*
X135127957Y-89721029D01*
X135103435Y-89745158D01*
X135081392Y-89779320D01*
X135062133Y-89825992D01*
X135049778Y-89875188D01*
X135041423Y-89939032D01*
X135038319Y-90020593D01*
X134892751Y-90020593D01*
X134899381Y-89905638D01*
X134917589Y-89812844D01*
X134945397Y-89738380D01*
X134981655Y-89679019D01*
X135020081Y-89636881D01*
X135062714Y-89604790D01*
X135110106Y-89581829D01*
X135163178Y-89567715D01*
X135223150Y-89562821D01*
X135283094Y-89567714D01*
G37*
G36*
X134420513Y-89922287D02*
G01*
X134451831Y-89942252D01*
X134467487Y-89961643D01*
X134477112Y-89985449D01*
X134480530Y-90014975D01*
X134477112Y-90044544D01*
X134467486Y-90068391D01*
X134451831Y-90087821D01*
X134420518Y-90107737D01*
X134383932Y-90114382D01*
X134346260Y-90107654D01*
X134315361Y-90087821D01*
X134300101Y-90068442D01*
X134290684Y-90044596D01*
X134287334Y-90014975D01*
X134290684Y-89985397D01*
X134300101Y-89961592D01*
X134315361Y-89942252D01*
X134346265Y-89922371D01*
X134383932Y-89915629D01*
X134420513Y-89922287D01*
G37*
G36*
X134443876Y-89567714D02*
G01*
X134496935Y-89581825D01*
X134544330Y-89604784D01*
X134586976Y-89636876D01*
X134625427Y-89679019D01*
X134661685Y-89738380D01*
X134689493Y-89812844D01*
X134707701Y-89905638D01*
X134714331Y-90020593D01*
X134707788Y-90134571D01*
X134689707Y-90227889D01*
X134661901Y-90303968D01*
X134625427Y-90365708D01*
X134586719Y-90409867D01*
X134543928Y-90443319D01*
X134496531Y-90467144D01*
X134443612Y-90481739D01*
X134383932Y-90486791D01*
X134324224Y-90481738D01*
X134271293Y-90467140D01*
X134223897Y-90443313D01*
X134181120Y-90409862D01*
X134142437Y-90365708D01*
X134105963Y-90303968D01*
X134078157Y-90227889D01*
X134060076Y-90134571D01*
X134053532Y-90020593D01*
X134199101Y-90020593D01*
X134203335Y-90115671D01*
X134214616Y-90188073D01*
X134231137Y-90242169D01*
X134251613Y-90281749D01*
X134281085Y-90317836D01*
X134312511Y-90341975D01*
X134346434Y-90356068D01*
X134383932Y-90360823D01*
X134421398Y-90356070D01*
X134455300Y-90341979D01*
X134486717Y-90317840D01*
X134516189Y-90281749D01*
X134536665Y-90242169D01*
X134553186Y-90188073D01*
X134564467Y-90115671D01*
X134568702Y-90020593D01*
X134565606Y-89939030D01*
X134557272Y-89875185D01*
X134544949Y-89825992D01*
X134525690Y-89779320D01*
X134503647Y-89745158D01*
X134479125Y-89721029D01*
X134449780Y-89703072D01*
X134418299Y-89692404D01*
X134383932Y-89688789D01*
X134349526Y-89692407D01*
X134318046Y-89703077D01*
X134288738Y-89721029D01*
X134264217Y-89745158D01*
X134242174Y-89779320D01*
X134222915Y-89825992D01*
X134210559Y-89875188D01*
X134202204Y-89939032D01*
X134199101Y-90020593D01*
X134053532Y-90020593D01*
X134060163Y-89905638D01*
X134078370Y-89812844D01*
X134106179Y-89738380D01*
X134142437Y-89679019D01*
X134180862Y-89636881D01*
X134223495Y-89604790D01*
X134270888Y-89581829D01*
X134323960Y-89567715D01*
X134383932Y-89562821D01*
X134443876Y-89567714D01*
G37*
G36*
X133581295Y-89922287D02*
G01*
X133612613Y-89942252D01*
X133628269Y-89961643D01*
X133637894Y-89985449D01*
X133641311Y-90014975D01*
X133637894Y-90044544D01*
X133628268Y-90068391D01*
X133612613Y-90087821D01*
X133581300Y-90107737D01*
X133544713Y-90114382D01*
X133507042Y-90107654D01*
X133476142Y-90087821D01*
X133460883Y-90068442D01*
X133451466Y-90044596D01*
X133448115Y-90014975D01*
X133451466Y-89985397D01*
X133460882Y-89961592D01*
X133476142Y-89942252D01*
X133507046Y-89922371D01*
X133544713Y-89915629D01*
X133581295Y-89922287D01*
G37*
G36*
X133604657Y-89567714D02*
G01*
X133657717Y-89581825D01*
X133705111Y-89604784D01*
X133747758Y-89636876D01*
X133786209Y-89679019D01*
X133822467Y-89738380D01*
X133850275Y-89812844D01*
X133868482Y-89905638D01*
X133875113Y-90020593D01*
X133868570Y-90134571D01*
X133850488Y-90227889D01*
X133822682Y-90303968D01*
X133786209Y-90365708D01*
X133747501Y-90409867D01*
X133704710Y-90443319D01*
X133657312Y-90467144D01*
X133604394Y-90481739D01*
X133544713Y-90486791D01*
X133485005Y-90481738D01*
X133432074Y-90467140D01*
X133384679Y-90443313D01*
X133341901Y-90409862D01*
X133303218Y-90365708D01*
X133266744Y-90303968D01*
X133238939Y-90227889D01*
X133220857Y-90134571D01*
X133214314Y-90020593D01*
X133359883Y-90020593D01*
X133364117Y-90115671D01*
X133375398Y-90188073D01*
X133391919Y-90242169D01*
X133412395Y-90281749D01*
X133441866Y-90317836D01*
X133473293Y-90341975D01*
X133507215Y-90356068D01*
X133544713Y-90360823D01*
X133582179Y-90356070D01*
X133616082Y-90341979D01*
X133647499Y-90317840D01*
X133676971Y-90281749D01*
X133697447Y-90242169D01*
X133713968Y-90188073D01*
X133725249Y-90115671D01*
X133729483Y-90020593D01*
X133726388Y-89939030D01*
X133718054Y-89875185D01*
X133705730Y-89825992D01*
X133686471Y-89779320D01*
X133664428Y-89745158D01*
X133639907Y-89721029D01*
X133610561Y-89703072D01*
X133579081Y-89692404D01*
X133544713Y-89688789D01*
X133510307Y-89692407D01*
X133478828Y-89703077D01*
X133449520Y-89721029D01*
X133424999Y-89745158D01*
X133402956Y-89779320D01*
X133383696Y-89825992D01*
X133371341Y-89875188D01*
X133362986Y-89939032D01*
X133359883Y-90020593D01*
X133214314Y-90020593D01*
X133220944Y-89905638D01*
X133239152Y-89812844D01*
X133266960Y-89738380D01*
X133303218Y-89679019D01*
X133341644Y-89636881D01*
X133384277Y-89604790D01*
X133431669Y-89581829D01*
X133484741Y-89567715D01*
X133544713Y-89562821D01*
X133604657Y-89567714D01*
G37*
G36*
X133002250Y-90470000D02*
G01*
X133002250Y-90338414D01*
X132754466Y-90338414D01*
X132754466Y-89753208D01*
X132951875Y-89753208D01*
X132951875Y-89652397D01*
X132871700Y-89638013D01*
X132813267Y-89623026D01*
X132760133Y-89603625D01*
X132711051Y-89579612D01*
X132593449Y-89579612D01*
X132593449Y-90338414D01*
X132375095Y-90338414D01*
X132375095Y-90470000D01*
X133002250Y-90470000D01*
G37*
G36*
X131063640Y-89922287D02*
G01*
X131094958Y-89942252D01*
X131110613Y-89961643D01*
X131120238Y-89985449D01*
X131123656Y-90014975D01*
X131120238Y-90044544D01*
X131110613Y-90068391D01*
X131094958Y-90087821D01*
X131063644Y-90107737D01*
X131027058Y-90114382D01*
X130989386Y-90107654D01*
X130958487Y-90087821D01*
X130943228Y-90068442D01*
X130933811Y-90044596D01*
X130930460Y-90014975D01*
X130933811Y-89985397D01*
X130943227Y-89961592D01*
X130958487Y-89942252D01*
X130989391Y-89922371D01*
X131027058Y-89915629D01*
X131063640Y-89922287D01*
G37*
G36*
X131087002Y-89567714D02*
G01*
X131140062Y-89581825D01*
X131187456Y-89604784D01*
X131230103Y-89636876D01*
X131268553Y-89679019D01*
X131304811Y-89738380D01*
X131332619Y-89812844D01*
X131350827Y-89905638D01*
X131357458Y-90020593D01*
X131350914Y-90134571D01*
X131332833Y-90227889D01*
X131305027Y-90303968D01*
X131268553Y-90365708D01*
X131229845Y-90409867D01*
X131187054Y-90443319D01*
X131139657Y-90467144D01*
X131086738Y-90481739D01*
X131027058Y-90486791D01*
X130967350Y-90481738D01*
X130914419Y-90467140D01*
X130867024Y-90443313D01*
X130824246Y-90409862D01*
X130785563Y-90365708D01*
X130749089Y-90303968D01*
X130721283Y-90227889D01*
X130703202Y-90134571D01*
X130696659Y-90020593D01*
X130842227Y-90020593D01*
X130846462Y-90115671D01*
X130857742Y-90188073D01*
X130874264Y-90242169D01*
X130894740Y-90281749D01*
X130924211Y-90317836D01*
X130955638Y-90341975D01*
X130989560Y-90356068D01*
X131027058Y-90360823D01*
X131064524Y-90356070D01*
X131098427Y-90341979D01*
X131129844Y-90317840D01*
X131159316Y-90281749D01*
X131179791Y-90242169D01*
X131196313Y-90188073D01*
X131207594Y-90115671D01*
X131211828Y-90020593D01*
X131208732Y-89939030D01*
X131200399Y-89875185D01*
X131188075Y-89825992D01*
X131168816Y-89779320D01*
X131146773Y-89745158D01*
X131122252Y-89721029D01*
X131092906Y-89703072D01*
X131061425Y-89692404D01*
X131027058Y-89688789D01*
X130992652Y-89692407D01*
X130961173Y-89703077D01*
X130931864Y-89721029D01*
X130907343Y-89745158D01*
X130885300Y-89779320D01*
X130866041Y-89825992D01*
X130853686Y-89875188D01*
X130845331Y-89939032D01*
X130842227Y-90020593D01*
X130696659Y-90020593D01*
X130703289Y-89905638D01*
X130721497Y-89812844D01*
X130749305Y-89738380D01*
X130785563Y-89679019D01*
X130823989Y-89636881D01*
X130866621Y-89604790D01*
X130914014Y-89581829D01*
X130967086Y-89567715D01*
X131027058Y-89562821D01*
X131087002Y-89567714D01*
G37*
G36*
X130224421Y-89922287D02*
G01*
X130255739Y-89942252D01*
X130271395Y-89961643D01*
X130281020Y-89985449D01*
X130284438Y-90014975D01*
X130281020Y-90044544D01*
X130271394Y-90068391D01*
X130255739Y-90087821D01*
X130224426Y-90107737D01*
X130187840Y-90114382D01*
X130150168Y-90107654D01*
X130119269Y-90087821D01*
X130104009Y-90068442D01*
X130094592Y-90044596D01*
X130091242Y-90014975D01*
X130094592Y-89985397D01*
X130104009Y-89961592D01*
X130119269Y-89942252D01*
X130150173Y-89922371D01*
X130187840Y-89915629D01*
X130224421Y-89922287D01*
G37*
G36*
X130247783Y-89567714D02*
G01*
X130300843Y-89581825D01*
X130348238Y-89604784D01*
X130390884Y-89636876D01*
X130429335Y-89679019D01*
X130465593Y-89738380D01*
X130493401Y-89812844D01*
X130511609Y-89905638D01*
X130518239Y-90020593D01*
X130511696Y-90134571D01*
X130493614Y-90227889D01*
X130465809Y-90303968D01*
X130429335Y-90365708D01*
X130390627Y-90409867D01*
X130347836Y-90443319D01*
X130300439Y-90467144D01*
X130247520Y-90481739D01*
X130187840Y-90486791D01*
X130128131Y-90481738D01*
X130075201Y-90467140D01*
X130027805Y-90443313D01*
X129985028Y-90409862D01*
X129946345Y-90365708D01*
X129909871Y-90303968D01*
X129882065Y-90227889D01*
X129863983Y-90134571D01*
X129857440Y-90020593D01*
X130003009Y-90020593D01*
X130007243Y-90115671D01*
X130018524Y-90188073D01*
X130035045Y-90242169D01*
X130055521Y-90281749D01*
X130084993Y-90317836D01*
X130116419Y-90341975D01*
X130150342Y-90356068D01*
X130187840Y-90360823D01*
X130225306Y-90356070D01*
X130259208Y-90341979D01*
X130290625Y-90317840D01*
X130320097Y-90281749D01*
X130340573Y-90242169D01*
X130357094Y-90188073D01*
X130368375Y-90115671D01*
X130372609Y-90020593D01*
X130369514Y-89939030D01*
X130361180Y-89875185D01*
X130348857Y-89825992D01*
X130329598Y-89779320D01*
X130307555Y-89745158D01*
X130283033Y-89721029D01*
X130253688Y-89703072D01*
X130222207Y-89692404D01*
X130187840Y-89688789D01*
X130153434Y-89692407D01*
X130121954Y-89703077D01*
X130092646Y-89721029D01*
X130068125Y-89745158D01*
X130046082Y-89779320D01*
X130026823Y-89825992D01*
X130014467Y-89875188D01*
X130006112Y-89939032D01*
X130003009Y-90020593D01*
X129857440Y-90020593D01*
X129864071Y-89905638D01*
X129882278Y-89812844D01*
X129910086Y-89738380D01*
X129946345Y-89679019D01*
X129984770Y-89636881D01*
X130027403Y-89604790D01*
X130074796Y-89581829D01*
X130127868Y-89567715D01*
X130187840Y-89562821D01*
X130247783Y-89567714D01*
G37*
G36*
X129645376Y-90470000D02*
G01*
X129645376Y-90338414D01*
X129397592Y-90338414D01*
X129397592Y-89753208D01*
X129595001Y-89753208D01*
X129595001Y-89652397D01*
X129514826Y-89638013D01*
X129456393Y-89623026D01*
X129403259Y-89603625D01*
X129354178Y-89579612D01*
X129236575Y-89579612D01*
X129236575Y-90338414D01*
X129018222Y-90338414D01*
X129018222Y-90470000D01*
X129645376Y-90470000D01*
G37*
G36*
X128545984Y-89922287D02*
G01*
X128577302Y-89942252D01*
X128592958Y-89961643D01*
X128602583Y-89985449D01*
X128606001Y-90014975D01*
X128602583Y-90044544D01*
X128592957Y-90068391D01*
X128577302Y-90087821D01*
X128545989Y-90107737D01*
X128509403Y-90114382D01*
X128471731Y-90107654D01*
X128440832Y-90087821D01*
X128425572Y-90068442D01*
X128416155Y-90044596D01*
X128412805Y-90014975D01*
X128416155Y-89985397D01*
X128425572Y-89961592D01*
X128440832Y-89942252D01*
X128471736Y-89922371D01*
X128509403Y-89915629D01*
X128545984Y-89922287D01*
G37*
G36*
X128569347Y-89567714D02*
G01*
X128622406Y-89581825D01*
X128669801Y-89604784D01*
X128712448Y-89636876D01*
X128750898Y-89679019D01*
X128787156Y-89738380D01*
X128814964Y-89812844D01*
X128833172Y-89905638D01*
X128839802Y-90020593D01*
X128833259Y-90134571D01*
X128815178Y-90227889D01*
X128787372Y-90303968D01*
X128750898Y-90365708D01*
X128712190Y-90409867D01*
X128669399Y-90443319D01*
X128622002Y-90467144D01*
X128569083Y-90481739D01*
X128509403Y-90486791D01*
X128449695Y-90481738D01*
X128396764Y-90467140D01*
X128349368Y-90443313D01*
X128306591Y-90409862D01*
X128267908Y-90365708D01*
X128231434Y-90303968D01*
X128203628Y-90227889D01*
X128185547Y-90134571D01*
X128179003Y-90020593D01*
X128324572Y-90020593D01*
X128328806Y-90115671D01*
X128340087Y-90188073D01*
X128356609Y-90242169D01*
X128377084Y-90281749D01*
X128406556Y-90317836D01*
X128437982Y-90341975D01*
X128471905Y-90356068D01*
X128509403Y-90360823D01*
X128546869Y-90356070D01*
X128580771Y-90341979D01*
X128612188Y-90317840D01*
X128641660Y-90281749D01*
X128662136Y-90242169D01*
X128678658Y-90188073D01*
X128689938Y-90115671D01*
X128694173Y-90020593D01*
X128691077Y-89939030D01*
X128682743Y-89875185D01*
X128670420Y-89825992D01*
X128651161Y-89779320D01*
X128629118Y-89745158D01*
X128604596Y-89721029D01*
X128575251Y-89703072D01*
X128543770Y-89692404D01*
X128509403Y-89688789D01*
X128474997Y-89692407D01*
X128443517Y-89703077D01*
X128414209Y-89721029D01*
X128389688Y-89745158D01*
X128367645Y-89779320D01*
X128348386Y-89825992D01*
X128336030Y-89875188D01*
X128327675Y-89939032D01*
X128324572Y-90020593D01*
X128179003Y-90020593D01*
X128185634Y-89905638D01*
X128203841Y-89812844D01*
X128231650Y-89738380D01*
X128267908Y-89679019D01*
X128306333Y-89636881D01*
X128348966Y-89604790D01*
X128396359Y-89581829D01*
X128449431Y-89567715D01*
X128509403Y-89562821D01*
X128569347Y-89567714D01*
G37*
G36*
X127706766Y-89922287D02*
G01*
X127738084Y-89942252D01*
X127753740Y-89961643D01*
X127763365Y-89985449D01*
X127766782Y-90014975D01*
X127763365Y-90044544D01*
X127753739Y-90068391D01*
X127738084Y-90087821D01*
X127706771Y-90107737D01*
X127670184Y-90114382D01*
X127632513Y-90107654D01*
X127601613Y-90087821D01*
X127586354Y-90068442D01*
X127576937Y-90044596D01*
X127573586Y-90014975D01*
X127576937Y-89985397D01*
X127586353Y-89961592D01*
X127601613Y-89942252D01*
X127632517Y-89922371D01*
X127670184Y-89915629D01*
X127706766Y-89922287D01*
G37*
G36*
X127730128Y-89567714D02*
G01*
X127783188Y-89581825D01*
X127830583Y-89604784D01*
X127873229Y-89636876D01*
X127911680Y-89679019D01*
X127947938Y-89738380D01*
X127975746Y-89812844D01*
X127993953Y-89905638D01*
X128000584Y-90020593D01*
X127994041Y-90134571D01*
X127975959Y-90227889D01*
X127948154Y-90303968D01*
X127911680Y-90365708D01*
X127872972Y-90409867D01*
X127830181Y-90443319D01*
X127782783Y-90467144D01*
X127729865Y-90481739D01*
X127670184Y-90486791D01*
X127610476Y-90481738D01*
X127557545Y-90467140D01*
X127510150Y-90443313D01*
X127467372Y-90409862D01*
X127428689Y-90365708D01*
X127392215Y-90303968D01*
X127364410Y-90227889D01*
X127346328Y-90134571D01*
X127339785Y-90020593D01*
X127485354Y-90020593D01*
X127489588Y-90115671D01*
X127500869Y-90188073D01*
X127517390Y-90242169D01*
X127537866Y-90281749D01*
X127567337Y-90317836D01*
X127598764Y-90341975D01*
X127632686Y-90356068D01*
X127670184Y-90360823D01*
X127707650Y-90356070D01*
X127741553Y-90341979D01*
X127772970Y-90317840D01*
X127802442Y-90281749D01*
X127822918Y-90242169D01*
X127839439Y-90188073D01*
X127850720Y-90115671D01*
X127854954Y-90020593D01*
X127851859Y-89939030D01*
X127843525Y-89875185D01*
X127831202Y-89825992D01*
X127811942Y-89779320D01*
X127789899Y-89745158D01*
X127765378Y-89721029D01*
X127736033Y-89703072D01*
X127704552Y-89692404D01*
X127670184Y-89688789D01*
X127635778Y-89692407D01*
X127604299Y-89703077D01*
X127574991Y-89721029D01*
X127550470Y-89745158D01*
X127528427Y-89779320D01*
X127509167Y-89825992D01*
X127496812Y-89875188D01*
X127488457Y-89939032D01*
X127485354Y-90020593D01*
X127339785Y-90020593D01*
X127346415Y-89905638D01*
X127364623Y-89812844D01*
X127392431Y-89738380D01*
X127428689Y-89679019D01*
X127467115Y-89636881D01*
X127509748Y-89604790D01*
X127557140Y-89581829D01*
X127610212Y-89567715D01*
X127670184Y-89562821D01*
X127730128Y-89567714D01*
G37*
G36*
X126867548Y-89922287D02*
G01*
X126898866Y-89942252D01*
X126914521Y-89961643D01*
X126924146Y-89985449D01*
X126927564Y-90014975D01*
X126924146Y-90044544D01*
X126914521Y-90068391D01*
X126898866Y-90087821D01*
X126867552Y-90107737D01*
X126830966Y-90114382D01*
X126793294Y-90107654D01*
X126762395Y-90087821D01*
X126747136Y-90068442D01*
X126737719Y-90044596D01*
X126734368Y-90014975D01*
X126737718Y-89985397D01*
X126747135Y-89961592D01*
X126762395Y-89942252D01*
X126793299Y-89922371D01*
X126830966Y-89915629D01*
X126867548Y-89922287D01*
G37*
G36*
X126890910Y-89567714D02*
G01*
X126943970Y-89581825D01*
X126991364Y-89604784D01*
X127034011Y-89636876D01*
X127072461Y-89679019D01*
X127108719Y-89738380D01*
X127136527Y-89812844D01*
X127154735Y-89905638D01*
X127161366Y-90020593D01*
X127154822Y-90134571D01*
X127136741Y-90227889D01*
X127108935Y-90303968D01*
X127072461Y-90365708D01*
X127033753Y-90409867D01*
X126990962Y-90443319D01*
X126943565Y-90467144D01*
X126890646Y-90481739D01*
X126830966Y-90486791D01*
X126771258Y-90481738D01*
X126718327Y-90467140D01*
X126670931Y-90443313D01*
X126628154Y-90409862D01*
X126589471Y-90365708D01*
X126552997Y-90303968D01*
X126525191Y-90227889D01*
X126507110Y-90134571D01*
X126500566Y-90020593D01*
X126646135Y-90020593D01*
X126650370Y-90115671D01*
X126661650Y-90188073D01*
X126678172Y-90242169D01*
X126698647Y-90281749D01*
X126728119Y-90317836D01*
X126759545Y-90341975D01*
X126793468Y-90356068D01*
X126830966Y-90360823D01*
X126868432Y-90356070D01*
X126902335Y-90341979D01*
X126933752Y-90317840D01*
X126963224Y-90281749D01*
X126983699Y-90242169D01*
X127000221Y-90188073D01*
X127011501Y-90115671D01*
X127015736Y-90020593D01*
X127012640Y-89939030D01*
X127004306Y-89875185D01*
X126991983Y-89825992D01*
X126972724Y-89779320D01*
X126950681Y-89745158D01*
X126926160Y-89721029D01*
X126896814Y-89703072D01*
X126865333Y-89692404D01*
X126830966Y-89688789D01*
X126796560Y-89692407D01*
X126765080Y-89703077D01*
X126735772Y-89721029D01*
X126711251Y-89745158D01*
X126689208Y-89779320D01*
X126669949Y-89825992D01*
X126657593Y-89875188D01*
X126649239Y-89939032D01*
X126646135Y-90020593D01*
X126500566Y-90020593D01*
X126507197Y-89905638D01*
X126525405Y-89812844D01*
X126553213Y-89738380D01*
X126589471Y-89679019D01*
X126627897Y-89636881D01*
X126670529Y-89604790D01*
X126717922Y-89581829D01*
X126770994Y-89567715D01*
X126830966Y-89562821D01*
X126890910Y-89567714D01*
G37*
G36*
X126028329Y-89922287D02*
G01*
X126059647Y-89942252D01*
X126075303Y-89961643D01*
X126084928Y-89985449D01*
X126088346Y-90014975D01*
X126084928Y-90044544D01*
X126075302Y-90068391D01*
X126059647Y-90087821D01*
X126028334Y-90107737D01*
X125991748Y-90114382D01*
X125954076Y-90107654D01*
X125923176Y-90087821D01*
X125907917Y-90068442D01*
X125898500Y-90044596D01*
X125895150Y-90014975D01*
X125898500Y-89985397D01*
X125907916Y-89961592D01*
X125923176Y-89942252D01*
X125954081Y-89922371D01*
X125991748Y-89915629D01*
X126028329Y-89922287D01*
G37*
G36*
X126051691Y-89567714D02*
G01*
X126104751Y-89581825D01*
X126152146Y-89604784D01*
X126194792Y-89636876D01*
X126233243Y-89679019D01*
X126269501Y-89738380D01*
X126297309Y-89812844D01*
X126315517Y-89905638D01*
X126322147Y-90020593D01*
X126315604Y-90134571D01*
X126297522Y-90227889D01*
X126269717Y-90303968D01*
X126233243Y-90365708D01*
X126194535Y-90409867D01*
X126151744Y-90443319D01*
X126104347Y-90467144D01*
X126051428Y-90481739D01*
X125991748Y-90486791D01*
X125932039Y-90481738D01*
X125879108Y-90467140D01*
X125831713Y-90443313D01*
X125788936Y-90409862D01*
X125750252Y-90365708D01*
X125713779Y-90303968D01*
X125685973Y-90227889D01*
X125667891Y-90134571D01*
X125661348Y-90020593D01*
X125806917Y-90020593D01*
X125811151Y-90115671D01*
X125822432Y-90188073D01*
X125838953Y-90242169D01*
X125859429Y-90281749D01*
X125888900Y-90317836D01*
X125920327Y-90341975D01*
X125954250Y-90356068D01*
X125991748Y-90360823D01*
X126029214Y-90356070D01*
X126063116Y-90341979D01*
X126094533Y-90317840D01*
X126124005Y-90281749D01*
X126144481Y-90242169D01*
X126161002Y-90188073D01*
X126172283Y-90115671D01*
X126176517Y-90020593D01*
X126173422Y-89939030D01*
X126165088Y-89875185D01*
X126152765Y-89825992D01*
X126133505Y-89779320D01*
X126111462Y-89745158D01*
X126086941Y-89721029D01*
X126057596Y-89703072D01*
X126026115Y-89692404D01*
X125991748Y-89688789D01*
X125957341Y-89692407D01*
X125925862Y-89703077D01*
X125896554Y-89721029D01*
X125872033Y-89745158D01*
X125849990Y-89779320D01*
X125830730Y-89825992D01*
X125818375Y-89875188D01*
X125810020Y-89939032D01*
X125806917Y-90020593D01*
X125661348Y-90020593D01*
X125667979Y-89905638D01*
X125686186Y-89812844D01*
X125713994Y-89738380D01*
X125750252Y-89679019D01*
X125788678Y-89636881D01*
X125831311Y-89604790D01*
X125878704Y-89581829D01*
X125931775Y-89567715D01*
X125991748Y-89562821D01*
X126051691Y-89567714D01*
G37*
G36*
X125189111Y-89922287D02*
G01*
X125220429Y-89942252D01*
X125236084Y-89961643D01*
X125245709Y-89985449D01*
X125249127Y-90014975D01*
X125245709Y-90044544D01*
X125236084Y-90068391D01*
X125220429Y-90087821D01*
X125189115Y-90107737D01*
X125152529Y-90114382D01*
X125114857Y-90107654D01*
X125083958Y-90087821D01*
X125068699Y-90068442D01*
X125059282Y-90044596D01*
X125055931Y-90014975D01*
X125059282Y-89985397D01*
X125068698Y-89961592D01*
X125083958Y-89942252D01*
X125114862Y-89922371D01*
X125152529Y-89915629D01*
X125189111Y-89922287D01*
G37*
G36*
X125212473Y-89567714D02*
G01*
X125265533Y-89581825D01*
X125312927Y-89604784D01*
X125355574Y-89636876D01*
X125394024Y-89679019D01*
X125430282Y-89738380D01*
X125458091Y-89812844D01*
X125476298Y-89905638D01*
X125482929Y-90020593D01*
X125476385Y-90134571D01*
X125458304Y-90227889D01*
X125430498Y-90303968D01*
X125394024Y-90365708D01*
X125355317Y-90409867D01*
X125312525Y-90443319D01*
X125265128Y-90467144D01*
X125212209Y-90481739D01*
X125152529Y-90486791D01*
X125092821Y-90481738D01*
X125039890Y-90467140D01*
X124992495Y-90443313D01*
X124949717Y-90409862D01*
X124911034Y-90365708D01*
X124874560Y-90303968D01*
X124846754Y-90227889D01*
X124828673Y-90134571D01*
X124822130Y-90020593D01*
X124967698Y-90020593D01*
X124971933Y-90115671D01*
X124983213Y-90188073D01*
X124999735Y-90242169D01*
X125020211Y-90281749D01*
X125049682Y-90317836D01*
X125081109Y-90341975D01*
X125115031Y-90356068D01*
X125152529Y-90360823D01*
X125189995Y-90356070D01*
X125223898Y-90341979D01*
X125255315Y-90317840D01*
X125284787Y-90281749D01*
X125305262Y-90242169D01*
X125321784Y-90188073D01*
X125333065Y-90115671D01*
X125337299Y-90020593D01*
X125334203Y-89939030D01*
X125325870Y-89875185D01*
X125313546Y-89825992D01*
X125294287Y-89779320D01*
X125272244Y-89745158D01*
X125247723Y-89721029D01*
X125218377Y-89703072D01*
X125186896Y-89692404D01*
X125152529Y-89688789D01*
X125118123Y-89692407D01*
X125086644Y-89703077D01*
X125057336Y-89721029D01*
X125032814Y-89745158D01*
X125010771Y-89779320D01*
X124991512Y-89825992D01*
X124979157Y-89875188D01*
X124970802Y-89939032D01*
X124967698Y-90020593D01*
X124822130Y-90020593D01*
X124828760Y-89905638D01*
X124846968Y-89812844D01*
X124874776Y-89738380D01*
X124911034Y-89679019D01*
X124949460Y-89636881D01*
X124992093Y-89604790D01*
X125039485Y-89581829D01*
X125092557Y-89567715D01*
X125152529Y-89562821D01*
X125212473Y-89567714D01*
G37*
G36*
X123510674Y-89922287D02*
G01*
X123541992Y-89942252D01*
X123557648Y-89961643D01*
X123567273Y-89985449D01*
X123570690Y-90014975D01*
X123567272Y-90044544D01*
X123557647Y-90068391D01*
X123541992Y-90087821D01*
X123510678Y-90107737D01*
X123474092Y-90114382D01*
X123436421Y-90107654D01*
X123405521Y-90087821D01*
X123390262Y-90068442D01*
X123380845Y-90044596D01*
X123377494Y-90014975D01*
X123380845Y-89985397D01*
X123390261Y-89961592D01*
X123405521Y-89942252D01*
X123436425Y-89922371D01*
X123474092Y-89915629D01*
X123510674Y-89922287D01*
G37*
G36*
X123534036Y-89567714D02*
G01*
X123587096Y-89581825D01*
X123634490Y-89604784D01*
X123677137Y-89636876D01*
X123715587Y-89679019D01*
X123751846Y-89738380D01*
X123779654Y-89812844D01*
X123797861Y-89905638D01*
X123804492Y-90020593D01*
X123797949Y-90134571D01*
X123779867Y-90227889D01*
X123752061Y-90303968D01*
X123715587Y-90365708D01*
X123676880Y-90409867D01*
X123634088Y-90443319D01*
X123586691Y-90467144D01*
X123533772Y-90481739D01*
X123474092Y-90486791D01*
X123414384Y-90481738D01*
X123361453Y-90467140D01*
X123314058Y-90443313D01*
X123271280Y-90409862D01*
X123232597Y-90365708D01*
X123196123Y-90303968D01*
X123168318Y-90227889D01*
X123150236Y-90134571D01*
X123143693Y-90020593D01*
X123289262Y-90020593D01*
X123293496Y-90115671D01*
X123304777Y-90188073D01*
X123321298Y-90242169D01*
X123341774Y-90281749D01*
X123371245Y-90317836D01*
X123402672Y-90341975D01*
X123436594Y-90356068D01*
X123474092Y-90360823D01*
X123511558Y-90356070D01*
X123545461Y-90341979D01*
X123576878Y-90317840D01*
X123606350Y-90281749D01*
X123626826Y-90242169D01*
X123643347Y-90188073D01*
X123654628Y-90115671D01*
X123658862Y-90020593D01*
X123655766Y-89939030D01*
X123647433Y-89875185D01*
X123635109Y-89825992D01*
X123615850Y-89779320D01*
X123593807Y-89745158D01*
X123569286Y-89721029D01*
X123539940Y-89703072D01*
X123508460Y-89692404D01*
X123474092Y-89688789D01*
X123439686Y-89692407D01*
X123408207Y-89703077D01*
X123378899Y-89721029D01*
X123354377Y-89745158D01*
X123332334Y-89779320D01*
X123313075Y-89825992D01*
X123300720Y-89875188D01*
X123292365Y-89939032D01*
X123289262Y-90020593D01*
X123143693Y-90020593D01*
X123150323Y-89905638D01*
X123168531Y-89812844D01*
X123196339Y-89738380D01*
X123232597Y-89679019D01*
X123271023Y-89636881D01*
X123313656Y-89604790D01*
X123361048Y-89581829D01*
X123414120Y-89567715D01*
X123474092Y-89562821D01*
X123534036Y-89567714D01*
G37*
G36*
X122931629Y-90470000D02*
G01*
X122931629Y-90338414D01*
X122683845Y-90338414D01*
X122683845Y-89753208D01*
X122881254Y-89753208D01*
X122881254Y-89652397D01*
X122801079Y-89638013D01*
X122742646Y-89623026D01*
X122689511Y-89603625D01*
X122640430Y-89579612D01*
X122522827Y-89579612D01*
X122522827Y-90338414D01*
X122304474Y-90338414D01*
X122304474Y-90470000D01*
X122931629Y-90470000D01*
G37*
G36*
X122092411Y-90470000D02*
G01*
X122092411Y-90338414D01*
X121844626Y-90338414D01*
X121844626Y-89753208D01*
X122042035Y-89753208D01*
X122042035Y-89652397D01*
X121961860Y-89638013D01*
X121903428Y-89623026D01*
X121850293Y-89603625D01*
X121801212Y-89579612D01*
X121683609Y-89579612D01*
X121683609Y-90338414D01*
X121465256Y-90338414D01*
X121465256Y-90470000D01*
X122092411Y-90470000D01*
G37*
G36*
X120993019Y-89922287D02*
G01*
X121024337Y-89942252D01*
X121039992Y-89961643D01*
X121049617Y-89985449D01*
X121053035Y-90014975D01*
X121049617Y-90044544D01*
X121039992Y-90068391D01*
X121024337Y-90087821D01*
X120993023Y-90107737D01*
X120956437Y-90114382D01*
X120918765Y-90107654D01*
X120887866Y-90087821D01*
X120872607Y-90068442D01*
X120863190Y-90044596D01*
X120859839Y-90014975D01*
X120863190Y-89985397D01*
X120872606Y-89961592D01*
X120887866Y-89942252D01*
X120918770Y-89922371D01*
X120956437Y-89915629D01*
X120993019Y-89922287D01*
G37*
G36*
X121016381Y-89567714D02*
G01*
X121069441Y-89581825D01*
X121116835Y-89604784D01*
X121159482Y-89636876D01*
X121197932Y-89679019D01*
X121234190Y-89738380D01*
X121261998Y-89812844D01*
X121280206Y-89905638D01*
X121286837Y-90020593D01*
X121280293Y-90134571D01*
X121262212Y-90227889D01*
X121234406Y-90303968D01*
X121197932Y-90365708D01*
X121159224Y-90409867D01*
X121116433Y-90443319D01*
X121069036Y-90467144D01*
X121016117Y-90481739D01*
X120956437Y-90486791D01*
X120896729Y-90481738D01*
X120843798Y-90467140D01*
X120796402Y-90443313D01*
X120753625Y-90409862D01*
X120714942Y-90365708D01*
X120678468Y-90303968D01*
X120650662Y-90227889D01*
X120632581Y-90134571D01*
X120626038Y-90020593D01*
X120771606Y-90020593D01*
X120775841Y-90115671D01*
X120787121Y-90188073D01*
X120803643Y-90242169D01*
X120824118Y-90281749D01*
X120853590Y-90317836D01*
X120885017Y-90341975D01*
X120918939Y-90356068D01*
X120956437Y-90360823D01*
X120993903Y-90356070D01*
X121027806Y-90341979D01*
X121059223Y-90317840D01*
X121088695Y-90281749D01*
X121109170Y-90242169D01*
X121125692Y-90188073D01*
X121136972Y-90115671D01*
X121141207Y-90020593D01*
X121138111Y-89939030D01*
X121129777Y-89875185D01*
X121117454Y-89825992D01*
X121098195Y-89779320D01*
X121076152Y-89745158D01*
X121051631Y-89721029D01*
X121022285Y-89703072D01*
X120990804Y-89692404D01*
X120956437Y-89688789D01*
X120922031Y-89692407D01*
X120890552Y-89703077D01*
X120861243Y-89721029D01*
X120836722Y-89745158D01*
X120814679Y-89779320D01*
X120795420Y-89825992D01*
X120783064Y-89875188D01*
X120774710Y-89939032D01*
X120771606Y-90020593D01*
X120626038Y-90020593D01*
X120632668Y-89905638D01*
X120650876Y-89812844D01*
X120678684Y-89738380D01*
X120714942Y-89679019D01*
X120753368Y-89636881D01*
X120796000Y-89604790D01*
X120843393Y-89581829D01*
X120896465Y-89567715D01*
X120956437Y-89562821D01*
X121016381Y-89567714D01*
G37*
G36*
X120153800Y-89922287D02*
G01*
X120185118Y-89942252D01*
X120200774Y-89961643D01*
X120210399Y-89985449D01*
X120213817Y-90014975D01*
X120210399Y-90044544D01*
X120200773Y-90068391D01*
X120185118Y-90087821D01*
X120153805Y-90107737D01*
X120117219Y-90114382D01*
X120079547Y-90107654D01*
X120048647Y-90087821D01*
X120033388Y-90068442D01*
X120023971Y-90044596D01*
X120020621Y-90014975D01*
X120023971Y-89985397D01*
X120033387Y-89961592D01*
X120048647Y-89942252D01*
X120079552Y-89922371D01*
X120117219Y-89915629D01*
X120153800Y-89922287D01*
G37*
G36*
X120177162Y-89567714D02*
G01*
X120230222Y-89581825D01*
X120277617Y-89604784D01*
X120320263Y-89636876D01*
X120358714Y-89679019D01*
X120394972Y-89738380D01*
X120422780Y-89812844D01*
X120440988Y-89905638D01*
X120447618Y-90020593D01*
X120441075Y-90134571D01*
X120422993Y-90227889D01*
X120395188Y-90303968D01*
X120358714Y-90365708D01*
X120320006Y-90409867D01*
X120277215Y-90443319D01*
X120229818Y-90467144D01*
X120176899Y-90481739D01*
X120117219Y-90486791D01*
X120057510Y-90481738D01*
X120004580Y-90467140D01*
X119957184Y-90443313D01*
X119914407Y-90409862D01*
X119875724Y-90365708D01*
X119839250Y-90303968D01*
X119811444Y-90227889D01*
X119793362Y-90134571D01*
X119786819Y-90020593D01*
X119932388Y-90020593D01*
X119936622Y-90115671D01*
X119947903Y-90188073D01*
X119964424Y-90242169D01*
X119984900Y-90281749D01*
X120014371Y-90317836D01*
X120045798Y-90341975D01*
X120079721Y-90356068D01*
X120117219Y-90360823D01*
X120154685Y-90356070D01*
X120188587Y-90341979D01*
X120220004Y-90317840D01*
X120249476Y-90281749D01*
X120269952Y-90242169D01*
X120286473Y-90188073D01*
X120297754Y-90115671D01*
X120301988Y-90020593D01*
X120298893Y-89939030D01*
X120290559Y-89875185D01*
X120278236Y-89825992D01*
X120258976Y-89779320D01*
X120236933Y-89745158D01*
X120212412Y-89721029D01*
X120183067Y-89703072D01*
X120151586Y-89692404D01*
X120117219Y-89688789D01*
X120082812Y-89692407D01*
X120051333Y-89703077D01*
X120022025Y-89721029D01*
X119997504Y-89745158D01*
X119975461Y-89779320D01*
X119956202Y-89825992D01*
X119943846Y-89875188D01*
X119935491Y-89939032D01*
X119932388Y-90020593D01*
X119786819Y-90020593D01*
X119793450Y-89905638D01*
X119811657Y-89812844D01*
X119839465Y-89738380D01*
X119875724Y-89679019D01*
X119914149Y-89636881D01*
X119956782Y-89604790D01*
X120004175Y-89581829D01*
X120057247Y-89567715D01*
X120117219Y-89562821D01*
X120177162Y-89567714D01*
G37*
G36*
X119574755Y-90470000D02*
G01*
X119574755Y-90338414D01*
X119326971Y-90338414D01*
X119326971Y-89753208D01*
X119524380Y-89753208D01*
X119524380Y-89652397D01*
X119444205Y-89638013D01*
X119385772Y-89623026D01*
X119332638Y-89603625D01*
X119283557Y-89579612D01*
X119165954Y-89579612D01*
X119165954Y-90338414D01*
X118947601Y-90338414D01*
X118947601Y-90470000D01*
X119574755Y-90470000D01*
G37*
G36*
X118475363Y-89922287D02*
G01*
X118506681Y-89942252D01*
X118522337Y-89961643D01*
X118531962Y-89985449D01*
X118535380Y-90014975D01*
X118531962Y-90044544D01*
X118522336Y-90068391D01*
X118506681Y-90087821D01*
X118475368Y-90107737D01*
X118438782Y-90114382D01*
X118401110Y-90107654D01*
X118370211Y-90087821D01*
X118354951Y-90068442D01*
X118345534Y-90044596D01*
X118342184Y-90014975D01*
X118345534Y-89985397D01*
X118354951Y-89961592D01*
X118370211Y-89942252D01*
X118401115Y-89922371D01*
X118438782Y-89915629D01*
X118475363Y-89922287D01*
G37*
G36*
X118498725Y-89567714D02*
G01*
X118551785Y-89581825D01*
X118599180Y-89604784D01*
X118641826Y-89636876D01*
X118680277Y-89679019D01*
X118716535Y-89738380D01*
X118744343Y-89812844D01*
X118762551Y-89905638D01*
X118769181Y-90020593D01*
X118762638Y-90134571D01*
X118744557Y-90227889D01*
X118716751Y-90303968D01*
X118680277Y-90365708D01*
X118641569Y-90409867D01*
X118598778Y-90443319D01*
X118551381Y-90467144D01*
X118498462Y-90481739D01*
X118438782Y-90486791D01*
X118379073Y-90481738D01*
X118326143Y-90467140D01*
X118278747Y-90443313D01*
X118235970Y-90409862D01*
X118197287Y-90365708D01*
X118160813Y-90303968D01*
X118133007Y-90227889D01*
X118114926Y-90134571D01*
X118108382Y-90020593D01*
X118253951Y-90020593D01*
X118258185Y-90115671D01*
X118269466Y-90188073D01*
X118285987Y-90242169D01*
X118306463Y-90281749D01*
X118335935Y-90317836D01*
X118367361Y-90341975D01*
X118401284Y-90356068D01*
X118438782Y-90360823D01*
X118476248Y-90356070D01*
X118510150Y-90341979D01*
X118541567Y-90317840D01*
X118571039Y-90281749D01*
X118591515Y-90242169D01*
X118608036Y-90188073D01*
X118619317Y-90115671D01*
X118623551Y-90020593D01*
X118620456Y-89939030D01*
X118612122Y-89875185D01*
X118599799Y-89825992D01*
X118580540Y-89779320D01*
X118558497Y-89745158D01*
X118533975Y-89721029D01*
X118504630Y-89703072D01*
X118473149Y-89692404D01*
X118438782Y-89688789D01*
X118404376Y-89692407D01*
X118372896Y-89703077D01*
X118343588Y-89721029D01*
X118319067Y-89745158D01*
X118297024Y-89779320D01*
X118277765Y-89825992D01*
X118265409Y-89875188D01*
X118257054Y-89939032D01*
X118253951Y-90020593D01*
X118108382Y-90020593D01*
X118115013Y-89905638D01*
X118133220Y-89812844D01*
X118161029Y-89738380D01*
X118197287Y-89679019D01*
X118235712Y-89636881D01*
X118278345Y-89604790D01*
X118325738Y-89581829D01*
X118378810Y-89567715D01*
X118438782Y-89562821D01*
X118498725Y-89567714D01*
G37*
G36*
X117636145Y-89922287D02*
G01*
X117667463Y-89942252D01*
X117683119Y-89961643D01*
X117692744Y-89985449D01*
X117696161Y-90014975D01*
X117692743Y-90044544D01*
X117683118Y-90068391D01*
X117667463Y-90087821D01*
X117636149Y-90107737D01*
X117599563Y-90114382D01*
X117561892Y-90107654D01*
X117530992Y-90087821D01*
X117515733Y-90068442D01*
X117506316Y-90044596D01*
X117502965Y-90014975D01*
X117506316Y-89985397D01*
X117515732Y-89961592D01*
X117530992Y-89942252D01*
X117561896Y-89922371D01*
X117599563Y-89915629D01*
X117636145Y-89922287D01*
G37*
G36*
X117659507Y-89567714D02*
G01*
X117712567Y-89581825D01*
X117759961Y-89604784D01*
X117802608Y-89636876D01*
X117841058Y-89679019D01*
X117877317Y-89738380D01*
X117905125Y-89812844D01*
X117923332Y-89905638D01*
X117929963Y-90020593D01*
X117923420Y-90134571D01*
X117905338Y-90227889D01*
X117877532Y-90303968D01*
X117841058Y-90365708D01*
X117802351Y-90409867D01*
X117759559Y-90443319D01*
X117712162Y-90467144D01*
X117659243Y-90481739D01*
X117599563Y-90486791D01*
X117539855Y-90481738D01*
X117486924Y-90467140D01*
X117439529Y-90443313D01*
X117396751Y-90409862D01*
X117358068Y-90365708D01*
X117321594Y-90303968D01*
X117293789Y-90227889D01*
X117275707Y-90134571D01*
X117269164Y-90020593D01*
X117414733Y-90020593D01*
X117418967Y-90115671D01*
X117430248Y-90188073D01*
X117446769Y-90242169D01*
X117467245Y-90281749D01*
X117496716Y-90317836D01*
X117528143Y-90341975D01*
X117562065Y-90356068D01*
X117599563Y-90360823D01*
X117637029Y-90356070D01*
X117670932Y-90341979D01*
X117702349Y-90317840D01*
X117731821Y-90281749D01*
X117752297Y-90242169D01*
X117768818Y-90188073D01*
X117780099Y-90115671D01*
X117784333Y-90020593D01*
X117781237Y-89939030D01*
X117772904Y-89875185D01*
X117760580Y-89825992D01*
X117741321Y-89779320D01*
X117719278Y-89745158D01*
X117694757Y-89721029D01*
X117665411Y-89703072D01*
X117633931Y-89692404D01*
X117599563Y-89688789D01*
X117565157Y-89692407D01*
X117533678Y-89703077D01*
X117504370Y-89721029D01*
X117479849Y-89745158D01*
X117457805Y-89779320D01*
X117438546Y-89825992D01*
X117426191Y-89875188D01*
X117417836Y-89939032D01*
X117414733Y-90020593D01*
X117269164Y-90020593D01*
X117275794Y-89905638D01*
X117294002Y-89812844D01*
X117321810Y-89738380D01*
X117358068Y-89679019D01*
X117396494Y-89636881D01*
X117439127Y-89604790D01*
X117486519Y-89581829D01*
X117539591Y-89567715D01*
X117599563Y-89562821D01*
X117659507Y-89567714D01*
G37*
G36*
X115957708Y-89922287D02*
G01*
X115989026Y-89942252D01*
X116004682Y-89961643D01*
X116014307Y-89985449D01*
X116017725Y-90014975D01*
X116014307Y-90044544D01*
X116004681Y-90068391D01*
X115989026Y-90087821D01*
X115957713Y-90107737D01*
X115921127Y-90114382D01*
X115883455Y-90107654D01*
X115852555Y-90087821D01*
X115837296Y-90068442D01*
X115827879Y-90044596D01*
X115824528Y-90014975D01*
X115827879Y-89985397D01*
X115837295Y-89961592D01*
X115852555Y-89942252D01*
X115883459Y-89922371D01*
X115921127Y-89915629D01*
X115957708Y-89922287D01*
G37*
G36*
X115981070Y-89567714D02*
G01*
X116034130Y-89581825D01*
X116081525Y-89604784D01*
X116124171Y-89636876D01*
X116162622Y-89679019D01*
X116198880Y-89738380D01*
X116226688Y-89812844D01*
X116244896Y-89905638D01*
X116251526Y-90020593D01*
X116244983Y-90134571D01*
X116226901Y-90227889D01*
X116199096Y-90303968D01*
X116162622Y-90365708D01*
X116123914Y-90409867D01*
X116081123Y-90443319D01*
X116033725Y-90467144D01*
X115980807Y-90481739D01*
X115921127Y-90486791D01*
X115861418Y-90481738D01*
X115808487Y-90467140D01*
X115761092Y-90443313D01*
X115718314Y-90409862D01*
X115679631Y-90365708D01*
X115643157Y-90303968D01*
X115615352Y-90227889D01*
X115597270Y-90134571D01*
X115590727Y-90020593D01*
X115736296Y-90020593D01*
X115740530Y-90115671D01*
X115751811Y-90188073D01*
X115768332Y-90242169D01*
X115788808Y-90281749D01*
X115818279Y-90317836D01*
X115849706Y-90341975D01*
X115883629Y-90356068D01*
X115921127Y-90360823D01*
X115958593Y-90356070D01*
X115992495Y-90341979D01*
X116023912Y-90317840D01*
X116053384Y-90281749D01*
X116073860Y-90242169D01*
X116090381Y-90188073D01*
X116101662Y-90115671D01*
X116105896Y-90020593D01*
X116102801Y-89939030D01*
X116094467Y-89875185D01*
X116082144Y-89825992D01*
X116062884Y-89779320D01*
X116040841Y-89745158D01*
X116016320Y-89721029D01*
X115986975Y-89703072D01*
X115955494Y-89692404D01*
X115921127Y-89688789D01*
X115886720Y-89692407D01*
X115855241Y-89703077D01*
X115825933Y-89721029D01*
X115801412Y-89745158D01*
X115779369Y-89779320D01*
X115760109Y-89825992D01*
X115747754Y-89875188D01*
X115739399Y-89939032D01*
X115736296Y-90020593D01*
X115590727Y-90020593D01*
X115597357Y-89905638D01*
X115615565Y-89812844D01*
X115643373Y-89738380D01*
X115679631Y-89679019D01*
X115718057Y-89636881D01*
X115760690Y-89604790D01*
X115808082Y-89581829D01*
X115861154Y-89567715D01*
X115921127Y-89562821D01*
X115981070Y-89567714D01*
G37*
G36*
X115378663Y-90470000D02*
G01*
X115378663Y-90338414D01*
X115130879Y-90338414D01*
X115130879Y-89753208D01*
X115328288Y-89753208D01*
X115328288Y-89652397D01*
X115248113Y-89638013D01*
X115189680Y-89623026D01*
X115136546Y-89603625D01*
X115087465Y-89579612D01*
X114969862Y-89579612D01*
X114969862Y-90338414D01*
X114751509Y-90338414D01*
X114751509Y-90470000D01*
X115378663Y-90470000D01*
G37*
G36*
X114539445Y-90470000D02*
G01*
X114539445Y-90338414D01*
X114291660Y-90338414D01*
X114291660Y-89753208D01*
X114489070Y-89753208D01*
X114489070Y-89652397D01*
X114408894Y-89638013D01*
X114350462Y-89623026D01*
X114297327Y-89603625D01*
X114248246Y-89579612D01*
X114130643Y-89579612D01*
X114130643Y-90338414D01*
X113912290Y-90338414D01*
X113912290Y-90470000D01*
X114539445Y-90470000D01*
G37*
G36*
X113700226Y-90470000D02*
G01*
X113700226Y-90338414D01*
X113452442Y-90338414D01*
X113452442Y-89753208D01*
X113649851Y-89753208D01*
X113649851Y-89652397D01*
X113569676Y-89638013D01*
X113511243Y-89623026D01*
X113458109Y-89603625D01*
X113409028Y-89579612D01*
X113291425Y-89579612D01*
X113291425Y-90338414D01*
X113073072Y-90338414D01*
X113073072Y-90470000D01*
X113700226Y-90470000D01*
G37*
G36*
X112600834Y-89922287D02*
G01*
X112632152Y-89942252D01*
X112647808Y-89961643D01*
X112657433Y-89985449D01*
X112660851Y-90014975D01*
X112657433Y-90044544D01*
X112647807Y-90068391D01*
X112632152Y-90087821D01*
X112600839Y-90107737D01*
X112564253Y-90114382D01*
X112526581Y-90107654D01*
X112495682Y-90087821D01*
X112480422Y-90068442D01*
X112471005Y-90044596D01*
X112467655Y-90014975D01*
X112471005Y-89985397D01*
X112480422Y-89961592D01*
X112495682Y-89942252D01*
X112526586Y-89922371D01*
X112564253Y-89915629D01*
X112600834Y-89922287D01*
G37*
G36*
X112624197Y-89567714D02*
G01*
X112677256Y-89581825D01*
X112724651Y-89604784D01*
X112767297Y-89636876D01*
X112805748Y-89679019D01*
X112842006Y-89738380D01*
X112869814Y-89812844D01*
X112888022Y-89905638D01*
X112894652Y-90020593D01*
X112888109Y-90134571D01*
X112870028Y-90227889D01*
X112842222Y-90303968D01*
X112805748Y-90365708D01*
X112767040Y-90409867D01*
X112724249Y-90443319D01*
X112676852Y-90467144D01*
X112623933Y-90481739D01*
X112564253Y-90486791D01*
X112504545Y-90481738D01*
X112451614Y-90467140D01*
X112404218Y-90443313D01*
X112361441Y-90409862D01*
X112322758Y-90365708D01*
X112286284Y-90303968D01*
X112258478Y-90227889D01*
X112240397Y-90134571D01*
X112233853Y-90020593D01*
X112379422Y-90020593D01*
X112383656Y-90115671D01*
X112394937Y-90188073D01*
X112411458Y-90242169D01*
X112431934Y-90281749D01*
X112461406Y-90317836D01*
X112492832Y-90341975D01*
X112526755Y-90356068D01*
X112564253Y-90360823D01*
X112601719Y-90356070D01*
X112635621Y-90341979D01*
X112667038Y-90317840D01*
X112696510Y-90281749D01*
X112716986Y-90242169D01*
X112733507Y-90188073D01*
X112744788Y-90115671D01*
X112749023Y-90020593D01*
X112745927Y-89939030D01*
X112737593Y-89875185D01*
X112725270Y-89825992D01*
X112706011Y-89779320D01*
X112683968Y-89745158D01*
X112659446Y-89721029D01*
X112630101Y-89703072D01*
X112598620Y-89692404D01*
X112564253Y-89688789D01*
X112529847Y-89692407D01*
X112498367Y-89703077D01*
X112469059Y-89721029D01*
X112444538Y-89745158D01*
X112422495Y-89779320D01*
X112403236Y-89825992D01*
X112390880Y-89875188D01*
X112382525Y-89939032D01*
X112379422Y-90020593D01*
X112233853Y-90020593D01*
X112240484Y-89905638D01*
X112258691Y-89812844D01*
X112286500Y-89738380D01*
X112322758Y-89679019D01*
X112361183Y-89636881D01*
X112403816Y-89604790D01*
X112451209Y-89581829D01*
X112504281Y-89567715D01*
X112564253Y-89562821D01*
X112624197Y-89567714D01*
G37*
G36*
X111761616Y-89922287D02*
G01*
X111792934Y-89942252D01*
X111808590Y-89961643D01*
X111818215Y-89985449D01*
X111821632Y-90014975D01*
X111818215Y-90044544D01*
X111808589Y-90068391D01*
X111792934Y-90087821D01*
X111761621Y-90107737D01*
X111725034Y-90114382D01*
X111687363Y-90107654D01*
X111656463Y-90087821D01*
X111641204Y-90068442D01*
X111631787Y-90044596D01*
X111628436Y-90014975D01*
X111631787Y-89985397D01*
X111641203Y-89961592D01*
X111656463Y-89942252D01*
X111687367Y-89922371D01*
X111725034Y-89915629D01*
X111761616Y-89922287D01*
G37*
G36*
X111784978Y-89567714D02*
G01*
X111838038Y-89581825D01*
X111885432Y-89604784D01*
X111928079Y-89636876D01*
X111966530Y-89679019D01*
X112002788Y-89738380D01*
X112030596Y-89812844D01*
X112048803Y-89905638D01*
X112055434Y-90020593D01*
X112048891Y-90134571D01*
X112030809Y-90227889D01*
X112003003Y-90303968D01*
X111966530Y-90365708D01*
X111927822Y-90409867D01*
X111885031Y-90443319D01*
X111837633Y-90467144D01*
X111784715Y-90481739D01*
X111725034Y-90486791D01*
X111665326Y-90481738D01*
X111612395Y-90467140D01*
X111565000Y-90443313D01*
X111522222Y-90409862D01*
X111483539Y-90365708D01*
X111447065Y-90303968D01*
X111419260Y-90227889D01*
X111401178Y-90134571D01*
X111394635Y-90020593D01*
X111540204Y-90020593D01*
X111544438Y-90115671D01*
X111555719Y-90188073D01*
X111572240Y-90242169D01*
X111592716Y-90281749D01*
X111622187Y-90317836D01*
X111653614Y-90341975D01*
X111687536Y-90356068D01*
X111725034Y-90360823D01*
X111762500Y-90356070D01*
X111796403Y-90341979D01*
X111827820Y-90317840D01*
X111857292Y-90281749D01*
X111877768Y-90242169D01*
X111894289Y-90188073D01*
X111905570Y-90115671D01*
X111909804Y-90020593D01*
X111906709Y-89939030D01*
X111898375Y-89875185D01*
X111886051Y-89825992D01*
X111866792Y-89779320D01*
X111844749Y-89745158D01*
X111820228Y-89721029D01*
X111790882Y-89703072D01*
X111759402Y-89692404D01*
X111725034Y-89688789D01*
X111690628Y-89692407D01*
X111659149Y-89703077D01*
X111629841Y-89721029D01*
X111605320Y-89745158D01*
X111583277Y-89779320D01*
X111564017Y-89825992D01*
X111551662Y-89875188D01*
X111543307Y-89939032D01*
X111540204Y-90020593D01*
X111394635Y-90020593D01*
X111401265Y-89905638D01*
X111419473Y-89812844D01*
X111447281Y-89738380D01*
X111483539Y-89679019D01*
X111521965Y-89636881D01*
X111564598Y-89604790D01*
X111611990Y-89581829D01*
X111665062Y-89567715D01*
X111725034Y-89562821D01*
X111784978Y-89567714D01*
G37*
G36*
X111182571Y-90470000D02*
G01*
X111182571Y-90338414D01*
X110934787Y-90338414D01*
X110934787Y-89753208D01*
X111132196Y-89753208D01*
X111132196Y-89652397D01*
X111052021Y-89638013D01*
X110993588Y-89623026D01*
X110940454Y-89603625D01*
X110891372Y-89579612D01*
X110773770Y-89579612D01*
X110773770Y-90338414D01*
X110555416Y-90338414D01*
X110555416Y-90470000D01*
X111182571Y-90470000D01*
G37*
G36*
X110083179Y-89922287D02*
G01*
X110114497Y-89942252D01*
X110130153Y-89961643D01*
X110139778Y-89985449D01*
X110143196Y-90014975D01*
X110139778Y-90044544D01*
X110130152Y-90068391D01*
X110114497Y-90087821D01*
X110083184Y-90107737D01*
X110046598Y-90114382D01*
X110008926Y-90107654D01*
X109978026Y-90087821D01*
X109962767Y-90068442D01*
X109953350Y-90044596D01*
X109950000Y-90014975D01*
X109953350Y-89985397D01*
X109962766Y-89961592D01*
X109978026Y-89942252D01*
X110008931Y-89922371D01*
X110046598Y-89915629D01*
X110083179Y-89922287D01*
G37*
G36*
X110106541Y-89567714D02*
G01*
X110159601Y-89581825D01*
X110206996Y-89604784D01*
X110249642Y-89636876D01*
X110288093Y-89679019D01*
X110324351Y-89738380D01*
X110352159Y-89812844D01*
X110370367Y-89905638D01*
X110376997Y-90020593D01*
X110370454Y-90134571D01*
X110352372Y-90227889D01*
X110324567Y-90303968D01*
X110288093Y-90365708D01*
X110249385Y-90409867D01*
X110206594Y-90443319D01*
X110159196Y-90467144D01*
X110106278Y-90481739D01*
X110046598Y-90486791D01*
X109986889Y-90481738D01*
X109933958Y-90467140D01*
X109886563Y-90443313D01*
X109843785Y-90409862D01*
X109805102Y-90365708D01*
X109768628Y-90303968D01*
X109740823Y-90227889D01*
X109722741Y-90134571D01*
X109716198Y-90020593D01*
X109861767Y-90020593D01*
X109866001Y-90115671D01*
X109877282Y-90188073D01*
X109893803Y-90242169D01*
X109914279Y-90281749D01*
X109943750Y-90317836D01*
X109975177Y-90341975D01*
X110009100Y-90356068D01*
X110046598Y-90360823D01*
X110084064Y-90356070D01*
X110117966Y-90341979D01*
X110149383Y-90317840D01*
X110178855Y-90281749D01*
X110199331Y-90242169D01*
X110215852Y-90188073D01*
X110227133Y-90115671D01*
X110231367Y-90020593D01*
X110228272Y-89939030D01*
X110219938Y-89875185D01*
X110207615Y-89825992D01*
X110188355Y-89779320D01*
X110166312Y-89745158D01*
X110141791Y-89721029D01*
X110112446Y-89703072D01*
X110080965Y-89692404D01*
X110046598Y-89688789D01*
X110012191Y-89692407D01*
X109980712Y-89703077D01*
X109951404Y-89721029D01*
X109926883Y-89745158D01*
X109904840Y-89779320D01*
X109885580Y-89825992D01*
X109873225Y-89875188D01*
X109864870Y-89939032D01*
X109861767Y-90020593D01*
X109716198Y-90020593D01*
X109722829Y-89905638D01*
X109741036Y-89812844D01*
X109768844Y-89738380D01*
X109805102Y-89679019D01*
X109843528Y-89636881D01*
X109886161Y-89604790D01*
X109933554Y-89581829D01*
X109986625Y-89567715D01*
X110046598Y-89562821D01*
X110106541Y-89567714D01*
G37*
G36*
X138616605Y-91602287D02*
G01*
X138647923Y-91622252D01*
X138663579Y-91641643D01*
X138673204Y-91665449D01*
X138676622Y-91694975D01*
X138673204Y-91724544D01*
X138663579Y-91748391D01*
X138647923Y-91767821D01*
X138616610Y-91787737D01*
X138580024Y-91794382D01*
X138542352Y-91787654D01*
X138511453Y-91767821D01*
X138496193Y-91748442D01*
X138486777Y-91724596D01*
X138483426Y-91694975D01*
X138486776Y-91665397D01*
X138496193Y-91641592D01*
X138511453Y-91622252D01*
X138542357Y-91602371D01*
X138580024Y-91595629D01*
X138616605Y-91602287D01*
G37*
G36*
X138639968Y-91247714D02*
G01*
X138693028Y-91261825D01*
X138740422Y-91284784D01*
X138783069Y-91316876D01*
X138821519Y-91359019D01*
X138857777Y-91418380D01*
X138885585Y-91492844D01*
X138903793Y-91585638D01*
X138910423Y-91700593D01*
X138903880Y-91814571D01*
X138885799Y-91907889D01*
X138857993Y-91983968D01*
X138821519Y-92045708D01*
X138782811Y-92089867D01*
X138740020Y-92123319D01*
X138692623Y-92147144D01*
X138639704Y-92161739D01*
X138580024Y-92166791D01*
X138520316Y-92161738D01*
X138467385Y-92147140D01*
X138419989Y-92123313D01*
X138377212Y-92089862D01*
X138338529Y-92045708D01*
X138302055Y-91983968D01*
X138274249Y-91907889D01*
X138256168Y-91814571D01*
X138249624Y-91700593D01*
X138395193Y-91700593D01*
X138399427Y-91795671D01*
X138410708Y-91868073D01*
X138427230Y-91922169D01*
X138447705Y-91961749D01*
X138477177Y-91997836D01*
X138508603Y-92021975D01*
X138542526Y-92036068D01*
X138580024Y-92040823D01*
X138617490Y-92036070D01*
X138651392Y-92021979D01*
X138682810Y-91997840D01*
X138712281Y-91961749D01*
X138732757Y-91922169D01*
X138749279Y-91868073D01*
X138760559Y-91795671D01*
X138764794Y-91700593D01*
X138761698Y-91619030D01*
X138753364Y-91555185D01*
X138741041Y-91505992D01*
X138721782Y-91459320D01*
X138699739Y-91425158D01*
X138675218Y-91401029D01*
X138645872Y-91383072D01*
X138614391Y-91372404D01*
X138580024Y-91368789D01*
X138545618Y-91372407D01*
X138514138Y-91383077D01*
X138484830Y-91401029D01*
X138460309Y-91425158D01*
X138438266Y-91459320D01*
X138419007Y-91505992D01*
X138406651Y-91555188D01*
X138398296Y-91619032D01*
X138395193Y-91700593D01*
X138249624Y-91700593D01*
X138256255Y-91585638D01*
X138274463Y-91492844D01*
X138302271Y-91418380D01*
X138338529Y-91359019D01*
X138376955Y-91316881D01*
X138419587Y-91284790D01*
X138466980Y-91261829D01*
X138520052Y-91247715D01*
X138580024Y-91242821D01*
X138639968Y-91247714D01*
G37*
G36*
X138037561Y-92150000D02*
G01*
X138037561Y-92018414D01*
X137789776Y-92018414D01*
X137789776Y-91433208D01*
X137987185Y-91433208D01*
X137987185Y-91332397D01*
X137907010Y-91318013D01*
X137848578Y-91303026D01*
X137795443Y-91283625D01*
X137746362Y-91259612D01*
X137628759Y-91259612D01*
X137628759Y-92018414D01*
X137410406Y-92018414D01*
X137410406Y-92150000D01*
X138037561Y-92150000D01*
G37*
G36*
X137198342Y-92150000D02*
G01*
X137198342Y-92018414D01*
X136950558Y-92018414D01*
X136950558Y-91433208D01*
X137147967Y-91433208D01*
X137147967Y-91332397D01*
X137067792Y-91318013D01*
X137009359Y-91303026D01*
X136956225Y-91283625D01*
X136907144Y-91259612D01*
X136789541Y-91259612D01*
X136789541Y-92018414D01*
X136571188Y-92018414D01*
X136571188Y-92150000D01*
X137198342Y-92150000D01*
G37*
G36*
X136098950Y-91602287D02*
G01*
X136130268Y-91622252D01*
X136145924Y-91641643D01*
X136155549Y-91665449D01*
X136158967Y-91694975D01*
X136155549Y-91724544D01*
X136145923Y-91748391D01*
X136130268Y-91767821D01*
X136098955Y-91787737D01*
X136062369Y-91794382D01*
X136024697Y-91787654D01*
X135993797Y-91767821D01*
X135978538Y-91748442D01*
X135969121Y-91724596D01*
X135965771Y-91694975D01*
X135969121Y-91665397D01*
X135978538Y-91641592D01*
X135993797Y-91622252D01*
X136024702Y-91602371D01*
X136062369Y-91595629D01*
X136098950Y-91602287D01*
G37*
G36*
X136122312Y-91247714D02*
G01*
X136175372Y-91261825D01*
X136222767Y-91284784D01*
X136265413Y-91316876D01*
X136303864Y-91359019D01*
X136340122Y-91418380D01*
X136367930Y-91492844D01*
X136386138Y-91585638D01*
X136392768Y-91700593D01*
X136386225Y-91814571D01*
X136368143Y-91907889D01*
X136340338Y-91983968D01*
X136303864Y-92045708D01*
X136265156Y-92089867D01*
X136222365Y-92123319D01*
X136174968Y-92147144D01*
X136122049Y-92161739D01*
X136062369Y-92166791D01*
X136002660Y-92161738D01*
X135949730Y-92147140D01*
X135902334Y-92123313D01*
X135859557Y-92089862D01*
X135820874Y-92045708D01*
X135784400Y-91983968D01*
X135756594Y-91907889D01*
X135738512Y-91814571D01*
X135731969Y-91700593D01*
X135877538Y-91700593D01*
X135881772Y-91795671D01*
X135893053Y-91868073D01*
X135909574Y-91922169D01*
X135930050Y-91961749D01*
X135959522Y-91997836D01*
X135990948Y-92021975D01*
X136024871Y-92036068D01*
X136062369Y-92040823D01*
X136099835Y-92036070D01*
X136133737Y-92021979D01*
X136165154Y-91997840D01*
X136194626Y-91961749D01*
X136215102Y-91922169D01*
X136231623Y-91868073D01*
X136242904Y-91795671D01*
X136247138Y-91700593D01*
X136244043Y-91619030D01*
X136235709Y-91555185D01*
X136223386Y-91505992D01*
X136204127Y-91459320D01*
X136182083Y-91425158D01*
X136157562Y-91401029D01*
X136128217Y-91383072D01*
X136096736Y-91372404D01*
X136062369Y-91368789D01*
X136027962Y-91372407D01*
X135996483Y-91383077D01*
X135967175Y-91401029D01*
X135942654Y-91425158D01*
X135920611Y-91459320D01*
X135901352Y-91505992D01*
X135888996Y-91555188D01*
X135880641Y-91619032D01*
X135877538Y-91700593D01*
X135731969Y-91700593D01*
X135738600Y-91585638D01*
X135756807Y-91492844D01*
X135784615Y-91418380D01*
X135820874Y-91359019D01*
X135859299Y-91316881D01*
X135901932Y-91284790D01*
X135949325Y-91261829D01*
X136002397Y-91247715D01*
X136062369Y-91242821D01*
X136122312Y-91247714D01*
G37*
G36*
X135519905Y-92150000D02*
G01*
X135519905Y-92018414D01*
X135272121Y-92018414D01*
X135272121Y-91433208D01*
X135469530Y-91433208D01*
X135469530Y-91332397D01*
X135389355Y-91318013D01*
X135330922Y-91303026D01*
X135277788Y-91283625D01*
X135228707Y-91259612D01*
X135111104Y-91259612D01*
X135111104Y-92018414D01*
X134892751Y-92018414D01*
X134892751Y-92150000D01*
X135519905Y-92150000D01*
G37*
G36*
X134420513Y-91602287D02*
G01*
X134451831Y-91622252D01*
X134467487Y-91641643D01*
X134477112Y-91665449D01*
X134480530Y-91694975D01*
X134477112Y-91724544D01*
X134467486Y-91748391D01*
X134451831Y-91767821D01*
X134420518Y-91787737D01*
X134383932Y-91794382D01*
X134346260Y-91787654D01*
X134315361Y-91767821D01*
X134300101Y-91748442D01*
X134290684Y-91724596D01*
X134287334Y-91694975D01*
X134290684Y-91665397D01*
X134300101Y-91641592D01*
X134315361Y-91622252D01*
X134346265Y-91602371D01*
X134383932Y-91595629D01*
X134420513Y-91602287D01*
G37*
G36*
X134443876Y-91247714D02*
G01*
X134496935Y-91261825D01*
X134544330Y-91284784D01*
X134586976Y-91316876D01*
X134625427Y-91359019D01*
X134661685Y-91418380D01*
X134689493Y-91492844D01*
X134707701Y-91585638D01*
X134714331Y-91700593D01*
X134707788Y-91814571D01*
X134689707Y-91907889D01*
X134661901Y-91983968D01*
X134625427Y-92045708D01*
X134586719Y-92089867D01*
X134543928Y-92123319D01*
X134496531Y-92147144D01*
X134443612Y-92161739D01*
X134383932Y-92166791D01*
X134324224Y-92161738D01*
X134271293Y-92147140D01*
X134223897Y-92123313D01*
X134181120Y-92089862D01*
X134142437Y-92045708D01*
X134105963Y-91983968D01*
X134078157Y-91907889D01*
X134060076Y-91814571D01*
X134053532Y-91700593D01*
X134199101Y-91700593D01*
X134203335Y-91795671D01*
X134214616Y-91868073D01*
X134231137Y-91922169D01*
X134251613Y-91961749D01*
X134281085Y-91997836D01*
X134312511Y-92021975D01*
X134346434Y-92036068D01*
X134383932Y-92040823D01*
X134421398Y-92036070D01*
X134455300Y-92021979D01*
X134486717Y-91997840D01*
X134516189Y-91961749D01*
X134536665Y-91922169D01*
X134553186Y-91868073D01*
X134564467Y-91795671D01*
X134568702Y-91700593D01*
X134565606Y-91619030D01*
X134557272Y-91555185D01*
X134544949Y-91505992D01*
X134525690Y-91459320D01*
X134503647Y-91425158D01*
X134479125Y-91401029D01*
X134449780Y-91383072D01*
X134418299Y-91372404D01*
X134383932Y-91368789D01*
X134349526Y-91372407D01*
X134318046Y-91383077D01*
X134288738Y-91401029D01*
X134264217Y-91425158D01*
X134242174Y-91459320D01*
X134222915Y-91505992D01*
X134210559Y-91555188D01*
X134202204Y-91619032D01*
X134199101Y-91700593D01*
X134053532Y-91700593D01*
X134060163Y-91585638D01*
X134078370Y-91492844D01*
X134106179Y-91418380D01*
X134142437Y-91359019D01*
X134180862Y-91316881D01*
X134223495Y-91284790D01*
X134270888Y-91261829D01*
X134323960Y-91247715D01*
X134383932Y-91242821D01*
X134443876Y-91247714D01*
G37*
G36*
X133581295Y-91602287D02*
G01*
X133612613Y-91622252D01*
X133628269Y-91641643D01*
X133637894Y-91665449D01*
X133641311Y-91694975D01*
X133637894Y-91724544D01*
X133628268Y-91748391D01*
X133612613Y-91767821D01*
X133581300Y-91787737D01*
X133544713Y-91794382D01*
X133507042Y-91787654D01*
X133476142Y-91767821D01*
X133460883Y-91748442D01*
X133451466Y-91724596D01*
X133448115Y-91694975D01*
X133451466Y-91665397D01*
X133460882Y-91641592D01*
X133476142Y-91622252D01*
X133507046Y-91602371D01*
X133544713Y-91595629D01*
X133581295Y-91602287D01*
G37*
G36*
X133604657Y-91247714D02*
G01*
X133657717Y-91261825D01*
X133705111Y-91284784D01*
X133747758Y-91316876D01*
X133786209Y-91359019D01*
X133822467Y-91418380D01*
X133850275Y-91492844D01*
X133868482Y-91585638D01*
X133875113Y-91700593D01*
X133868570Y-91814571D01*
X133850488Y-91907889D01*
X133822682Y-91983968D01*
X133786209Y-92045708D01*
X133747501Y-92089867D01*
X133704710Y-92123319D01*
X133657312Y-92147144D01*
X133604394Y-92161739D01*
X133544713Y-92166791D01*
X133485005Y-92161738D01*
X133432074Y-92147140D01*
X133384679Y-92123313D01*
X133341901Y-92089862D01*
X133303218Y-92045708D01*
X133266744Y-91983968D01*
X133238939Y-91907889D01*
X133220857Y-91814571D01*
X133214314Y-91700593D01*
X133359883Y-91700593D01*
X133364117Y-91795671D01*
X133375398Y-91868073D01*
X133391919Y-91922169D01*
X133412395Y-91961749D01*
X133441866Y-91997836D01*
X133473293Y-92021975D01*
X133507215Y-92036068D01*
X133544713Y-92040823D01*
X133582179Y-92036070D01*
X133616082Y-92021979D01*
X133647499Y-91997840D01*
X133676971Y-91961749D01*
X133697447Y-91922169D01*
X133713968Y-91868073D01*
X133725249Y-91795671D01*
X133729483Y-91700593D01*
X133726388Y-91619030D01*
X133718054Y-91555185D01*
X133705730Y-91505992D01*
X133686471Y-91459320D01*
X133664428Y-91425158D01*
X133639907Y-91401029D01*
X133610561Y-91383072D01*
X133579081Y-91372404D01*
X133544713Y-91368789D01*
X133510307Y-91372407D01*
X133478828Y-91383077D01*
X133449520Y-91401029D01*
X133424999Y-91425158D01*
X133402956Y-91459320D01*
X133383696Y-91505992D01*
X133371341Y-91555188D01*
X133362986Y-91619032D01*
X133359883Y-91700593D01*
X133214314Y-91700593D01*
X133220944Y-91585638D01*
X133239152Y-91492844D01*
X133266960Y-91418380D01*
X133303218Y-91359019D01*
X133341644Y-91316881D01*
X133384277Y-91284790D01*
X133431669Y-91261829D01*
X133484741Y-91247715D01*
X133544713Y-91242821D01*
X133604657Y-91247714D01*
G37*
G36*
X133002250Y-92150000D02*
G01*
X133002250Y-92018414D01*
X132754466Y-92018414D01*
X132754466Y-91433208D01*
X132951875Y-91433208D01*
X132951875Y-91332397D01*
X132871700Y-91318013D01*
X132813267Y-91303026D01*
X132760133Y-91283625D01*
X132711051Y-91259612D01*
X132593449Y-91259612D01*
X132593449Y-92018414D01*
X132375095Y-92018414D01*
X132375095Y-92150000D01*
X133002250Y-92150000D01*
G37*
G36*
X131063640Y-91602287D02*
G01*
X131094958Y-91622252D01*
X131110613Y-91641643D01*
X131120238Y-91665449D01*
X131123656Y-91694975D01*
X131120238Y-91724544D01*
X131110613Y-91748391D01*
X131094958Y-91767821D01*
X131063644Y-91787737D01*
X131027058Y-91794382D01*
X130989386Y-91787654D01*
X130958487Y-91767821D01*
X130943228Y-91748442D01*
X130933811Y-91724596D01*
X130930460Y-91694975D01*
X130933811Y-91665397D01*
X130943227Y-91641592D01*
X130958487Y-91622252D01*
X130989391Y-91602371D01*
X131027058Y-91595629D01*
X131063640Y-91602287D01*
G37*
G36*
X131087002Y-91247714D02*
G01*
X131140062Y-91261825D01*
X131187456Y-91284784D01*
X131230103Y-91316876D01*
X131268553Y-91359019D01*
X131304811Y-91418380D01*
X131332619Y-91492844D01*
X131350827Y-91585638D01*
X131357458Y-91700593D01*
X131350914Y-91814571D01*
X131332833Y-91907889D01*
X131305027Y-91983968D01*
X131268553Y-92045708D01*
X131229845Y-92089867D01*
X131187054Y-92123319D01*
X131139657Y-92147144D01*
X131086738Y-92161739D01*
X131027058Y-92166791D01*
X130967350Y-92161738D01*
X130914419Y-92147140D01*
X130867024Y-92123313D01*
X130824246Y-92089862D01*
X130785563Y-92045708D01*
X130749089Y-91983968D01*
X130721283Y-91907889D01*
X130703202Y-91814571D01*
X130696659Y-91700593D01*
X130842227Y-91700593D01*
X130846462Y-91795671D01*
X130857742Y-91868073D01*
X130874264Y-91922169D01*
X130894740Y-91961749D01*
X130924211Y-91997836D01*
X130955638Y-92021975D01*
X130989560Y-92036068D01*
X131027058Y-92040823D01*
X131064524Y-92036070D01*
X131098427Y-92021979D01*
X131129844Y-91997840D01*
X131159316Y-91961749D01*
X131179791Y-91922169D01*
X131196313Y-91868073D01*
X131207594Y-91795671D01*
X131211828Y-91700593D01*
X131208732Y-91619030D01*
X131200399Y-91555185D01*
X131188075Y-91505992D01*
X131168816Y-91459320D01*
X131146773Y-91425158D01*
X131122252Y-91401029D01*
X131092906Y-91383072D01*
X131061425Y-91372404D01*
X131027058Y-91368789D01*
X130992652Y-91372407D01*
X130961173Y-91383077D01*
X130931864Y-91401029D01*
X130907343Y-91425158D01*
X130885300Y-91459320D01*
X130866041Y-91505992D01*
X130853686Y-91555188D01*
X130845331Y-91619032D01*
X130842227Y-91700593D01*
X130696659Y-91700593D01*
X130703289Y-91585638D01*
X130721497Y-91492844D01*
X130749305Y-91418380D01*
X130785563Y-91359019D01*
X130823989Y-91316881D01*
X130866621Y-91284790D01*
X130914014Y-91261829D01*
X130967086Y-91247715D01*
X131027058Y-91242821D01*
X131087002Y-91247714D01*
G37*
G36*
X130484595Y-92150000D02*
G01*
X130484595Y-92018414D01*
X130236810Y-92018414D01*
X130236810Y-91433208D01*
X130434220Y-91433208D01*
X130434220Y-91332397D01*
X130354044Y-91318013D01*
X130295612Y-91303026D01*
X130242477Y-91283625D01*
X130193396Y-91259612D01*
X130075793Y-91259612D01*
X130075793Y-92018414D01*
X129857440Y-92018414D01*
X129857440Y-92150000D01*
X130484595Y-92150000D01*
G37*
G36*
X129645376Y-92150000D02*
G01*
X129645376Y-92018414D01*
X129397592Y-92018414D01*
X129397592Y-91433208D01*
X129595001Y-91433208D01*
X129595001Y-91332397D01*
X129514826Y-91318013D01*
X129456393Y-91303026D01*
X129403259Y-91283625D01*
X129354178Y-91259612D01*
X129236575Y-91259612D01*
X129236575Y-92018414D01*
X129018222Y-92018414D01*
X129018222Y-92150000D01*
X129645376Y-92150000D01*
G37*
G36*
X128545984Y-91602287D02*
G01*
X128577302Y-91622252D01*
X128592958Y-91641643D01*
X128602583Y-91665449D01*
X128606001Y-91694975D01*
X128602583Y-91724544D01*
X128592957Y-91748391D01*
X128577302Y-91767821D01*
X128545989Y-91787737D01*
X128509403Y-91794382D01*
X128471731Y-91787654D01*
X128440832Y-91767821D01*
X128425572Y-91748442D01*
X128416155Y-91724596D01*
X128412805Y-91694975D01*
X128416155Y-91665397D01*
X128425572Y-91641592D01*
X128440832Y-91622252D01*
X128471736Y-91602371D01*
X128509403Y-91595629D01*
X128545984Y-91602287D01*
G37*
G36*
X128569347Y-91247714D02*
G01*
X128622406Y-91261825D01*
X128669801Y-91284784D01*
X128712448Y-91316876D01*
X128750898Y-91359019D01*
X128787156Y-91418380D01*
X128814964Y-91492844D01*
X128833172Y-91585638D01*
X128839802Y-91700593D01*
X128833259Y-91814571D01*
X128815178Y-91907889D01*
X128787372Y-91983968D01*
X128750898Y-92045708D01*
X128712190Y-92089867D01*
X128669399Y-92123319D01*
X128622002Y-92147144D01*
X128569083Y-92161739D01*
X128509403Y-92166791D01*
X128449695Y-92161738D01*
X128396764Y-92147140D01*
X128349368Y-92123313D01*
X128306591Y-92089862D01*
X128267908Y-92045708D01*
X128231434Y-91983968D01*
X128203628Y-91907889D01*
X128185547Y-91814571D01*
X128179003Y-91700593D01*
X128324572Y-91700593D01*
X128328806Y-91795671D01*
X128340087Y-91868073D01*
X128356609Y-91922169D01*
X128377084Y-91961749D01*
X128406556Y-91997836D01*
X128437982Y-92021975D01*
X128471905Y-92036068D01*
X128509403Y-92040823D01*
X128546869Y-92036070D01*
X128580771Y-92021979D01*
X128612188Y-91997840D01*
X128641660Y-91961749D01*
X128662136Y-91922169D01*
X128678658Y-91868073D01*
X128689938Y-91795671D01*
X128694173Y-91700593D01*
X128691077Y-91619030D01*
X128682743Y-91555185D01*
X128670420Y-91505992D01*
X128651161Y-91459320D01*
X128629118Y-91425158D01*
X128604596Y-91401029D01*
X128575251Y-91383072D01*
X128543770Y-91372404D01*
X128509403Y-91368789D01*
X128474997Y-91372407D01*
X128443517Y-91383077D01*
X128414209Y-91401029D01*
X128389688Y-91425158D01*
X128367645Y-91459320D01*
X128348386Y-91505992D01*
X128336030Y-91555188D01*
X128327675Y-91619032D01*
X128324572Y-91700593D01*
X128179003Y-91700593D01*
X128185634Y-91585638D01*
X128203841Y-91492844D01*
X128231650Y-91418380D01*
X128267908Y-91359019D01*
X128306333Y-91316881D01*
X128348966Y-91284790D01*
X128396359Y-91261829D01*
X128449431Y-91247715D01*
X128509403Y-91242821D01*
X128569347Y-91247714D01*
G37*
G36*
X127966939Y-92150000D02*
G01*
X127966939Y-92018414D01*
X127719155Y-92018414D01*
X127719155Y-91433208D01*
X127916564Y-91433208D01*
X127916564Y-91332397D01*
X127836389Y-91318013D01*
X127777957Y-91303026D01*
X127724822Y-91283625D01*
X127675741Y-91259612D01*
X127558138Y-91259612D01*
X127558138Y-92018414D01*
X127339785Y-92018414D01*
X127339785Y-92150000D01*
X127966939Y-92150000D01*
G37*
G36*
X127127721Y-92150000D02*
G01*
X127127721Y-92018414D01*
X126879937Y-92018414D01*
X126879937Y-91433208D01*
X127077346Y-91433208D01*
X127077346Y-91332397D01*
X126997171Y-91318013D01*
X126938738Y-91303026D01*
X126885604Y-91283625D01*
X126836523Y-91259612D01*
X126718920Y-91259612D01*
X126718920Y-92018414D01*
X126500566Y-92018414D01*
X126500566Y-92150000D01*
X127127721Y-92150000D01*
G37*
G36*
X126288503Y-92150000D02*
G01*
X126288503Y-92018414D01*
X126040718Y-92018414D01*
X126040718Y-91433208D01*
X126238128Y-91433208D01*
X126238128Y-91332397D01*
X126157952Y-91318013D01*
X126099520Y-91303026D01*
X126046385Y-91283625D01*
X125997304Y-91259612D01*
X125879701Y-91259612D01*
X125879701Y-92018414D01*
X125661348Y-92018414D01*
X125661348Y-92150000D01*
X126288503Y-92150000D01*
G37*
G36*
X125189111Y-91602287D02*
G01*
X125220429Y-91622252D01*
X125236084Y-91641643D01*
X125245709Y-91665449D01*
X125249127Y-91694975D01*
X125245709Y-91724544D01*
X125236084Y-91748391D01*
X125220429Y-91767821D01*
X125189115Y-91787737D01*
X125152529Y-91794382D01*
X125114857Y-91787654D01*
X125083958Y-91767821D01*
X125068699Y-91748442D01*
X125059282Y-91724596D01*
X125055931Y-91694975D01*
X125059282Y-91665397D01*
X125068698Y-91641592D01*
X125083958Y-91622252D01*
X125114862Y-91602371D01*
X125152529Y-91595629D01*
X125189111Y-91602287D01*
G37*
G36*
X125212473Y-91247714D02*
G01*
X125265533Y-91261825D01*
X125312927Y-91284784D01*
X125355574Y-91316876D01*
X125394024Y-91359019D01*
X125430282Y-91418380D01*
X125458091Y-91492844D01*
X125476298Y-91585638D01*
X125482929Y-91700593D01*
X125476385Y-91814571D01*
X125458304Y-91907889D01*
X125430498Y-91983968D01*
X125394024Y-92045708D01*
X125355317Y-92089867D01*
X125312525Y-92123319D01*
X125265128Y-92147144D01*
X125212209Y-92161739D01*
X125152529Y-92166791D01*
X125092821Y-92161738D01*
X125039890Y-92147140D01*
X124992495Y-92123313D01*
X124949717Y-92089862D01*
X124911034Y-92045708D01*
X124874560Y-91983968D01*
X124846754Y-91907889D01*
X124828673Y-91814571D01*
X124822130Y-91700593D01*
X124967698Y-91700593D01*
X124971933Y-91795671D01*
X124983213Y-91868073D01*
X124999735Y-91922169D01*
X125020211Y-91961749D01*
X125049682Y-91997836D01*
X125081109Y-92021975D01*
X125115031Y-92036068D01*
X125152529Y-92040823D01*
X125189995Y-92036070D01*
X125223898Y-92021979D01*
X125255315Y-91997840D01*
X125284787Y-91961749D01*
X125305262Y-91922169D01*
X125321784Y-91868073D01*
X125333065Y-91795671D01*
X125337299Y-91700593D01*
X125334203Y-91619030D01*
X125325870Y-91555185D01*
X125313546Y-91505992D01*
X125294287Y-91459320D01*
X125272244Y-91425158D01*
X125247723Y-91401029D01*
X125218377Y-91383072D01*
X125186896Y-91372404D01*
X125152529Y-91368789D01*
X125118123Y-91372407D01*
X125086644Y-91383077D01*
X125057336Y-91401029D01*
X125032814Y-91425158D01*
X125010771Y-91459320D01*
X124991512Y-91505992D01*
X124979157Y-91555188D01*
X124970802Y-91619032D01*
X124967698Y-91700593D01*
X124822130Y-91700593D01*
X124828760Y-91585638D01*
X124846968Y-91492844D01*
X124874776Y-91418380D01*
X124911034Y-91359019D01*
X124949460Y-91316881D01*
X124992093Y-91284790D01*
X125039485Y-91261829D01*
X125092557Y-91247715D01*
X125152529Y-91242821D01*
X125212473Y-91247714D01*
G37*
G36*
X123510674Y-91602287D02*
G01*
X123541992Y-91622252D01*
X123557648Y-91641643D01*
X123567273Y-91665449D01*
X123570690Y-91694975D01*
X123567272Y-91724544D01*
X123557647Y-91748391D01*
X123541992Y-91767821D01*
X123510678Y-91787737D01*
X123474092Y-91794382D01*
X123436421Y-91787654D01*
X123405521Y-91767821D01*
X123390262Y-91748442D01*
X123380845Y-91724596D01*
X123377494Y-91694975D01*
X123380845Y-91665397D01*
X123390261Y-91641592D01*
X123405521Y-91622252D01*
X123436425Y-91602371D01*
X123474092Y-91595629D01*
X123510674Y-91602287D01*
G37*
G36*
X123534036Y-91247714D02*
G01*
X123587096Y-91261825D01*
X123634490Y-91284784D01*
X123677137Y-91316876D01*
X123715587Y-91359019D01*
X123751846Y-91418380D01*
X123779654Y-91492844D01*
X123797861Y-91585638D01*
X123804492Y-91700593D01*
X123797949Y-91814571D01*
X123779867Y-91907889D01*
X123752061Y-91983968D01*
X123715587Y-92045708D01*
X123676880Y-92089867D01*
X123634088Y-92123319D01*
X123586691Y-92147144D01*
X123533772Y-92161739D01*
X123474092Y-92166791D01*
X123414384Y-92161738D01*
X123361453Y-92147140D01*
X123314058Y-92123313D01*
X123271280Y-92089862D01*
X123232597Y-92045708D01*
X123196123Y-91983968D01*
X123168318Y-91907889D01*
X123150236Y-91814571D01*
X123143693Y-91700593D01*
X123289262Y-91700593D01*
X123293496Y-91795671D01*
X123304777Y-91868073D01*
X123321298Y-91922169D01*
X123341774Y-91961749D01*
X123371245Y-91997836D01*
X123402672Y-92021975D01*
X123436594Y-92036068D01*
X123474092Y-92040823D01*
X123511558Y-92036070D01*
X123545461Y-92021979D01*
X123576878Y-91997840D01*
X123606350Y-91961749D01*
X123626826Y-91922169D01*
X123643347Y-91868073D01*
X123654628Y-91795671D01*
X123658862Y-91700593D01*
X123655766Y-91619030D01*
X123647433Y-91555185D01*
X123635109Y-91505992D01*
X123615850Y-91459320D01*
X123593807Y-91425158D01*
X123569286Y-91401029D01*
X123539940Y-91383072D01*
X123508460Y-91372404D01*
X123474092Y-91368789D01*
X123439686Y-91372407D01*
X123408207Y-91383077D01*
X123378899Y-91401029D01*
X123354377Y-91425158D01*
X123332334Y-91459320D01*
X123313075Y-91505992D01*
X123300720Y-91555188D01*
X123292365Y-91619032D01*
X123289262Y-91700593D01*
X123143693Y-91700593D01*
X123150323Y-91585638D01*
X123168531Y-91492844D01*
X123196339Y-91418380D01*
X123232597Y-91359019D01*
X123271023Y-91316881D01*
X123313656Y-91284790D01*
X123361048Y-91261829D01*
X123414120Y-91247715D01*
X123474092Y-91242821D01*
X123534036Y-91247714D01*
G37*
G36*
X122931629Y-92150000D02*
G01*
X122931629Y-92018414D01*
X122683845Y-92018414D01*
X122683845Y-91433208D01*
X122881254Y-91433208D01*
X122881254Y-91332397D01*
X122801079Y-91318013D01*
X122742646Y-91303026D01*
X122689511Y-91283625D01*
X122640430Y-91259612D01*
X122522827Y-91259612D01*
X122522827Y-92018414D01*
X122304474Y-92018414D01*
X122304474Y-92150000D01*
X122931629Y-92150000D01*
G37*
G36*
X122092411Y-92150000D02*
G01*
X122092411Y-92018414D01*
X121844626Y-92018414D01*
X121844626Y-91433208D01*
X122042035Y-91433208D01*
X122042035Y-91332397D01*
X121961860Y-91318013D01*
X121903428Y-91303026D01*
X121850293Y-91283625D01*
X121801212Y-91259612D01*
X121683609Y-91259612D01*
X121683609Y-92018414D01*
X121465256Y-92018414D01*
X121465256Y-92150000D01*
X122092411Y-92150000D01*
G37*
G36*
X120993019Y-91602287D02*
G01*
X121024337Y-91622252D01*
X121039992Y-91641643D01*
X121049617Y-91665449D01*
X121053035Y-91694975D01*
X121049617Y-91724544D01*
X121039992Y-91748391D01*
X121024337Y-91767821D01*
X120993023Y-91787737D01*
X120956437Y-91794382D01*
X120918765Y-91787654D01*
X120887866Y-91767821D01*
X120872607Y-91748442D01*
X120863190Y-91724596D01*
X120859839Y-91694975D01*
X120863190Y-91665397D01*
X120872606Y-91641592D01*
X120887866Y-91622252D01*
X120918770Y-91602371D01*
X120956437Y-91595629D01*
X120993019Y-91602287D01*
G37*
G36*
X121016381Y-91247714D02*
G01*
X121069441Y-91261825D01*
X121116835Y-91284784D01*
X121159482Y-91316876D01*
X121197932Y-91359019D01*
X121234190Y-91418380D01*
X121261998Y-91492844D01*
X121280206Y-91585638D01*
X121286837Y-91700593D01*
X121280293Y-91814571D01*
X121262212Y-91907889D01*
X121234406Y-91983968D01*
X121197932Y-92045708D01*
X121159224Y-92089867D01*
X121116433Y-92123319D01*
X121069036Y-92147144D01*
X121016117Y-92161739D01*
X120956437Y-92166791D01*
X120896729Y-92161738D01*
X120843798Y-92147140D01*
X120796402Y-92123313D01*
X120753625Y-92089862D01*
X120714942Y-92045708D01*
X120678468Y-91983968D01*
X120650662Y-91907889D01*
X120632581Y-91814571D01*
X120626038Y-91700593D01*
X120771606Y-91700593D01*
X120775841Y-91795671D01*
X120787121Y-91868073D01*
X120803643Y-91922169D01*
X120824118Y-91961749D01*
X120853590Y-91997836D01*
X120885017Y-92021975D01*
X120918939Y-92036068D01*
X120956437Y-92040823D01*
X120993903Y-92036070D01*
X121027806Y-92021979D01*
X121059223Y-91997840D01*
X121088695Y-91961749D01*
X121109170Y-91922169D01*
X121125692Y-91868073D01*
X121136972Y-91795671D01*
X121141207Y-91700593D01*
X121138111Y-91619030D01*
X121129777Y-91555185D01*
X121117454Y-91505992D01*
X121098195Y-91459320D01*
X121076152Y-91425158D01*
X121051631Y-91401029D01*
X121022285Y-91383072D01*
X120990804Y-91372404D01*
X120956437Y-91368789D01*
X120922031Y-91372407D01*
X120890552Y-91383077D01*
X120861243Y-91401029D01*
X120836722Y-91425158D01*
X120814679Y-91459320D01*
X120795420Y-91505992D01*
X120783064Y-91555188D01*
X120774710Y-91619032D01*
X120771606Y-91700593D01*
X120626038Y-91700593D01*
X120632668Y-91585638D01*
X120650876Y-91492844D01*
X120678684Y-91418380D01*
X120714942Y-91359019D01*
X120753368Y-91316881D01*
X120796000Y-91284790D01*
X120843393Y-91261829D01*
X120896465Y-91247715D01*
X120956437Y-91242821D01*
X121016381Y-91247714D01*
G37*
G36*
X120413974Y-92150000D02*
G01*
X120413974Y-92018414D01*
X120166189Y-92018414D01*
X120166189Y-91433208D01*
X120363599Y-91433208D01*
X120363599Y-91332397D01*
X120283423Y-91318013D01*
X120224991Y-91303026D01*
X120171856Y-91283625D01*
X120122775Y-91259612D01*
X120005172Y-91259612D01*
X120005172Y-92018414D01*
X119786819Y-92018414D01*
X119786819Y-92150000D01*
X120413974Y-92150000D01*
G37*
G36*
X119314582Y-91602287D02*
G01*
X119345900Y-91622252D01*
X119361556Y-91641643D01*
X119371180Y-91665449D01*
X119374598Y-91694975D01*
X119371180Y-91724544D01*
X119361555Y-91748391D01*
X119345900Y-91767821D01*
X119314586Y-91787737D01*
X119278000Y-91794382D01*
X119240328Y-91787654D01*
X119209429Y-91767821D01*
X119194170Y-91748442D01*
X119184753Y-91724596D01*
X119181402Y-91694975D01*
X119184753Y-91665397D01*
X119194169Y-91641592D01*
X119209429Y-91622252D01*
X119240333Y-91602371D01*
X119278000Y-91595629D01*
X119314582Y-91602287D01*
G37*
G36*
X119337944Y-91247714D02*
G01*
X119391004Y-91261825D01*
X119438398Y-91284784D01*
X119481045Y-91316876D01*
X119519495Y-91359019D01*
X119555753Y-91418380D01*
X119583562Y-91492844D01*
X119601769Y-91585638D01*
X119608400Y-91700593D01*
X119601856Y-91814571D01*
X119583775Y-91907889D01*
X119555969Y-91983968D01*
X119519495Y-92045708D01*
X119480788Y-92089867D01*
X119437996Y-92123319D01*
X119390599Y-92147144D01*
X119337680Y-92161739D01*
X119278000Y-92166791D01*
X119218292Y-92161738D01*
X119165361Y-92147140D01*
X119117966Y-92123313D01*
X119075188Y-92089862D01*
X119036505Y-92045708D01*
X119000031Y-91983968D01*
X118972225Y-91907889D01*
X118954144Y-91814571D01*
X118947601Y-91700593D01*
X119093169Y-91700593D01*
X119097404Y-91795671D01*
X119108684Y-91868073D01*
X119125206Y-91922169D01*
X119145682Y-91961749D01*
X119175153Y-91997836D01*
X119206580Y-92021975D01*
X119240502Y-92036068D01*
X119278000Y-92040823D01*
X119315466Y-92036070D01*
X119349369Y-92021979D01*
X119380786Y-91997840D01*
X119410258Y-91961749D01*
X119430733Y-91922169D01*
X119447255Y-91868073D01*
X119458536Y-91795671D01*
X119462770Y-91700593D01*
X119459674Y-91619030D01*
X119451341Y-91555185D01*
X119439017Y-91505992D01*
X119419758Y-91459320D01*
X119397715Y-91425158D01*
X119373194Y-91401029D01*
X119343848Y-91383072D01*
X119312367Y-91372404D01*
X119278000Y-91368789D01*
X119243594Y-91372407D01*
X119212115Y-91383077D01*
X119182807Y-91401029D01*
X119158285Y-91425158D01*
X119136242Y-91459320D01*
X119116983Y-91505992D01*
X119104628Y-91555188D01*
X119096273Y-91619032D01*
X119093169Y-91700593D01*
X118947601Y-91700593D01*
X118954231Y-91585638D01*
X118972439Y-91492844D01*
X119000247Y-91418380D01*
X119036505Y-91359019D01*
X119074931Y-91316881D01*
X119117564Y-91284790D01*
X119164956Y-91261829D01*
X119218028Y-91247715D01*
X119278000Y-91242821D01*
X119337944Y-91247714D01*
G37*
G36*
X118735537Y-92150000D02*
G01*
X118735537Y-92018414D01*
X118487752Y-92018414D01*
X118487752Y-91433208D01*
X118685162Y-91433208D01*
X118685162Y-91332397D01*
X118604986Y-91318013D01*
X118546554Y-91303026D01*
X118493419Y-91283625D01*
X118444338Y-91259612D01*
X118326735Y-91259612D01*
X118326735Y-92018414D01*
X118108382Y-92018414D01*
X118108382Y-92150000D01*
X118735537Y-92150000D01*
G37*
G36*
X117896318Y-92150000D02*
G01*
X117896318Y-92018414D01*
X117648534Y-92018414D01*
X117648534Y-91433208D01*
X117845943Y-91433208D01*
X117845943Y-91332397D01*
X117765768Y-91318013D01*
X117707336Y-91303026D01*
X117654201Y-91283625D01*
X117605120Y-91259612D01*
X117487517Y-91259612D01*
X117487517Y-92018414D01*
X117269164Y-92018414D01*
X117269164Y-92150000D01*
X117896318Y-92150000D01*
G37*
D12*
%TO.C,P1*%
X101860000Y-88280000D03*
X107640000Y-88280000D03*
D13*
X100430000Y-87750000D03*
D14*
X100430000Y-91930000D03*
D13*
X109070000Y-87750000D03*
D14*
X109070000Y-91930000D03*
%TD*%
D15*
X114500000Y-87750000D03*
X140500000Y-92750000D03*
X140500000Y-87750000D03*
X102250000Y-85655337D03*
X100500000Y-79250000D03*
X103000000Y-88239029D03*
X117500000Y-73000000D03*
X137699997Y-50560789D03*
X114500000Y-50560789D03*
X126000000Y-50560789D03*
X103991707Y-69921056D03*
X115500000Y-70130686D03*
X98500000Y-89939211D03*
X106500000Y-88250000D03*
X143000000Y-90250000D03*
X100000000Y-81350000D03*
X103500000Y-72600000D03*
X102500000Y-50560789D03*
X138907106Y-70054557D03*
X127000000Y-70000000D03*
X113500000Y-74500000D03*
X110000000Y-77250000D03*
X104000000Y-85491303D03*
X103500000Y-82737500D03*
X104000000Y-84000000D03*
X112158550Y-77500000D03*
X110000000Y-75750000D03*
X111000000Y-74500000D03*
X98398000Y-77500000D03*
X99500000Y-71000000D03*
X95800000Y-82000000D03*
X104500000Y-72000000D03*
X99900000Y-74595000D03*
X98799000Y-79500000D03*
X99100000Y-85000000D03*
X108500000Y-80000000D03*
X99900000Y-77250000D03*
X98500000Y-83523027D03*
X116500000Y-72000000D03*
X102425000Y-73200000D03*
X114500000Y-69454557D03*
X127511646Y-69385002D03*
X140000000Y-72000000D03*
X126000000Y-72000000D03*
X137000000Y-50000000D03*
X138000000Y-69439211D03*
X138500000Y-50560789D03*
X125000000Y-50560789D03*
X124257976Y-50261789D03*
X116242024Y-50261789D03*
X115500000Y-50560789D03*
X101500000Y-50500000D03*
X117000000Y-77500000D03*
X104794686Y-85399221D03*
X107244248Y-84957145D03*
X105500000Y-84000000D03*
X114000000Y-77500000D03*
D16*
X140500000Y-92750000D02*
X140500000Y-87750000D01*
X140500000Y-87750000D02*
X114500000Y-87750000D01*
X95726590Y-69872374D02*
X95726590Y-51162791D01*
X137699997Y-50560789D02*
X137199997Y-51060789D01*
X144399000Y-88851000D02*
X143000000Y-90250000D01*
X98500000Y-85500000D02*
X98500000Y-84500000D01*
X100900000Y-72600000D02*
X100500000Y-73000000D01*
X115399000Y-49661789D02*
X125101000Y-49661789D01*
X103000000Y-51060789D02*
X102541514Y-50602303D01*
X128000000Y-70054557D02*
X127054557Y-70054557D01*
X95726590Y-51162791D02*
X97227592Y-49661789D01*
X98500000Y-86439211D02*
X98500000Y-85500000D01*
X103991707Y-69921056D02*
X103991707Y-69924743D01*
X103991707Y-69924743D02*
X104121521Y-70054557D01*
X106489029Y-88239029D02*
X106500000Y-88250000D01*
X117500000Y-70054557D02*
X128000000Y-70054557D01*
X100000000Y-81350000D02*
X100000000Y-79750000D01*
X102250000Y-85655337D02*
X98655337Y-85655337D01*
X98500000Y-89938874D02*
X98500000Y-86439211D01*
X104500000Y-70054557D02*
X117500000Y-70054557D01*
X104500000Y-70054557D02*
X95908773Y-70054557D01*
X100000000Y-83000000D02*
X100000000Y-81350000D01*
X95908773Y-70054557D02*
X95726590Y-69872374D01*
X138907106Y-70054557D02*
X128000000Y-70054557D01*
X97227592Y-49661789D02*
X101500000Y-49661789D01*
X103000000Y-88239029D02*
X106489029Y-88239029D01*
X117500000Y-73000000D02*
X117500000Y-70054557D01*
X144399000Y-73838211D02*
X144399000Y-88851000D01*
X104121521Y-70054557D02*
X104500000Y-70054557D01*
X101601000Y-49661789D02*
X101500000Y-49661789D01*
X127054557Y-70054557D02*
X127000000Y-70000000D01*
X102500000Y-50560789D02*
X101601000Y-49661789D01*
X138907106Y-70054557D02*
X140615346Y-70054557D01*
X126500000Y-51060789D02*
X126000000Y-50560789D01*
X140615346Y-70054557D02*
X144399000Y-73838211D01*
X137199997Y-51060789D02*
X126500000Y-51060789D01*
X98500000Y-84500000D02*
X100000000Y-83000000D01*
X114500000Y-50560789D02*
X115399000Y-49661789D01*
X100500000Y-79250000D02*
X100500000Y-73000000D01*
X114000000Y-51060789D02*
X103000000Y-51060789D01*
X114500000Y-50560789D02*
X114000000Y-51060789D01*
X100000000Y-79750000D02*
X100500000Y-79250000D01*
X103500000Y-72600000D02*
X100900000Y-72600000D01*
X98655337Y-85655337D02*
X98500000Y-85500000D01*
X125101000Y-49661789D02*
X126000000Y-50560789D01*
X110750000Y-77250000D02*
X113500000Y-74500000D01*
X110000000Y-77250000D02*
X110750000Y-77250000D01*
X103500000Y-82737500D02*
X107763914Y-82737500D01*
X104000000Y-85491303D02*
X104000000Y-84000000D01*
X112158550Y-77500000D02*
X112154600Y-77496050D01*
X112158550Y-78342864D02*
X112158550Y-77500000D01*
X107763914Y-82737500D02*
X112158550Y-78342864D01*
X111000000Y-74750000D02*
X111000000Y-74500000D01*
X110000000Y-75750000D02*
X111000000Y-74750000D01*
X95800000Y-82000000D02*
X95800000Y-78000000D01*
X98398000Y-72102000D02*
X99500000Y-71000000D01*
X95800000Y-78000000D02*
X95800000Y-77700000D01*
X95800000Y-77700000D02*
X96000000Y-77500000D01*
X98398000Y-77500000D02*
X98398000Y-72102000D01*
X96000000Y-77500000D02*
X98398000Y-77500000D01*
X99805000Y-74500000D02*
X99900000Y-74595000D01*
X100932900Y-72000000D02*
X104500000Y-72000000D01*
X98799000Y-79500000D02*
X98998000Y-79301000D01*
X98998000Y-79301000D02*
X98998000Y-73934900D01*
X98998000Y-74500000D02*
X99805000Y-74500000D01*
X98998000Y-73934900D02*
X100932900Y-72000000D01*
X108500000Y-80000000D02*
X108500000Y-81434314D01*
X107846814Y-82087500D02*
X108500000Y-81434314D01*
X102012500Y-82087500D02*
X107846814Y-82087500D01*
X99100000Y-85000000D02*
X102012500Y-82087500D01*
X99559789Y-77290211D02*
X99600000Y-77290211D01*
X99399000Y-82624027D02*
X99399000Y-77451000D01*
X99399000Y-77451000D02*
X99559789Y-77290211D01*
X98500000Y-83523027D02*
X99399000Y-82624027D01*
X116300000Y-73200000D02*
X116500000Y-73000000D01*
X116500000Y-73000000D02*
X116500000Y-72000000D01*
X102425000Y-73200000D02*
X116300000Y-73200000D01*
X127497648Y-69399000D02*
X114555557Y-69399000D01*
X127511646Y-69385002D02*
X127497648Y-69399000D01*
X114555557Y-69399000D02*
X114500000Y-69454557D01*
X126000000Y-72000000D02*
X140000000Y-72000000D01*
X142959789Y-49959789D02*
X137040211Y-49959789D01*
X142959789Y-49959789D02*
X144368906Y-51368906D01*
X144368906Y-69070305D02*
X144000000Y-69439211D01*
X144000000Y-69439211D02*
X138000000Y-69439211D01*
X144368906Y-51368906D02*
X144368906Y-69070305D01*
X137040211Y-49959789D02*
X137000000Y-50000000D01*
X125000000Y-50560789D02*
X126000000Y-51560789D01*
X126000000Y-51560789D02*
X137549940Y-51560789D01*
X138500000Y-50610729D02*
X138500000Y-50560789D01*
X137549940Y-51560789D02*
X138500000Y-50610729D01*
X124257976Y-50261789D02*
X124058976Y-50062789D01*
X116441024Y-50062789D02*
X116242024Y-50261789D01*
X124058976Y-50062789D02*
X116441024Y-50062789D01*
X101500000Y-50500000D02*
X102560789Y-51560789D01*
X102560789Y-51560789D02*
X114500000Y-51560789D01*
X114500000Y-51560789D02*
X115500000Y-50560789D01*
X117000000Y-77500000D02*
X114000000Y-77500000D01*
X104794686Y-85399221D02*
X105100779Y-85399221D01*
X107244248Y-84957145D02*
X107244248Y-84255752D01*
X107244248Y-84255752D02*
X114000000Y-77500000D01*
X105500000Y-85000000D02*
X105500000Y-84000000D01*
X105100779Y-85399221D02*
X105500000Y-85000000D01*
M02*
